<?xml version="1.0" encoding="utf-8" standalone="no"?>
<!DOCTYPE svg PUBLIC "-//W3C//DTD SVG 1.1//EN"
  "http://www.w3.org/Graphics/SVG/1.1/DTD/svg11.dtd">
<svg xmlns:xlink="http://www.w3.org/1999/xlink" width="313.566pt" height="91.07pt" viewBox="0 0 313.566 91.07" xmlns="http://www.w3.org/2000/svg" version="1.1">
 <metadata>
  <rdf:RDF xmlns:dc="http://purl.org/dc/elements/1.1/" xmlns:cc="http://creativecommons.org/ns#" xmlns:rdf="http://www.w3.org/1999/02/22-rdf-syntax-ns#">
   <cc:Work>
    <dc:type rdf:resource="http://purl.org/dc/dcmitype/StillImage"/>
    <dc:date>2023-05-08T14:21:57.139262</dc:date>
    <dc:format>image/svg+xml</dc:format>
    <dc:creator>
     <cc:Agent>
      <dc:title>Matplotlib v3.6.3, https://matplotlib.org/</dc:title>
     </cc:Agent>
    </dc:creator>
   </cc:Work>
  </rdf:RDF>
 </metadata>
 <defs>
  <style type="text/css">*{stroke-linejoin: round; stroke-linecap: butt}</style>
 </defs>
 <g id="figure_1">
  <g id="patch_1">
   <path d="M 0 91.07 
L 313.566 91.07 
L 313.566 0 
L 0 0 
L 0 91.07 
z
" style="fill: none"/>
  </g>
  <g id="axes_1">
   <g id="patch_2">
    <path d="M 92.931 61.532 
C 93.904826 61.532 94.838897 61.145095 95.527496 60.456496 
C 96.216095 59.767897 96.603 58.833826 96.603 57.86 
C 96.603 56.886174 96.216095 55.952103 95.527496 55.263504 
C 94.838897 54.574905 93.904826 54.188 92.931 54.188 
C 91.957174 54.188 91.023103 54.574905 90.334504 55.263504 
C 89.645905 55.952103 89.259 56.886174 89.259 57.86 
C 89.259 58.833826 89.645905 59.767897 90.334504 60.456496 
C 91.023103 61.145095 91.957174 61.532 92.931 61.532 
L 92.931 61.532 
z
" clip-path="url(#p4c0cca9823)" style="fill: none; stroke: #000000; stroke-width: 2; stroke-linejoin: miter"/>
   </g>
   <g id="patch_3">
    <path d="M 92.931 61.532 
C 93.904826 61.532 94.838897 61.145095 95.527496 60.456496 
C 96.216095 59.767897 96.603 58.833826 96.603 57.86 
C 96.603 56.886174 96.216095 55.952103 95.527496 55.263504 
C 94.838897 54.574905 93.904826 54.188 92.931 54.188 
C 91.957174 54.188 91.023103 54.574905 90.334504 55.263504 
C 89.645905 55.952103 89.259 56.886174 89.259 57.86 
C 89.259 58.833826 89.645905 59.767897 90.334504 60.456496 
C 91.023103 61.145095 91.957174 61.532 92.931 61.532 
L 92.931 61.532 
z
" clip-path="url(#p4c0cca9823)" style="fill: none; stroke: #000000; stroke-width: 2; stroke-linejoin: miter"/>
   </g>
   <g id="patch_4">
    <path d="M 149.541 53.882 
C 150.514826 53.882 151.448897 53.495095 152.137496 52.806496 
C 152.826095 52.117897 153.213 51.183826 153.213 50.21 
C 153.213 49.236174 152.826095 48.302103 152.137496 47.613504 
C 151.448897 46.924905 150.514826 46.538 149.541 46.538 
C 148.567174 46.538 147.633103 46.924905 146.944504 47.613504 
C 146.255905 48.302103 145.869 49.236174 145.869 50.21 
C 145.869 51.183826 146.255905 52.117897 146.944504 52.806496 
C 147.633103 53.495095 148.567174 53.882 149.541 53.882 
L 149.541 53.882 
z
" clip-path="url(#p4c0cca9823)" style="fill: none; stroke: #000000; stroke-width: 2; stroke-linejoin: miter"/>
   </g>
   <g id="patch_5">
    <path d="M 149.541 53.882 
C 150.514826 53.882 151.448897 53.495095 152.137496 52.806496 
C 152.826095 52.117897 153.213 51.183826 153.213 50.21 
C 153.213 49.236174 152.826095 48.302103 152.137496 47.613504 
C 151.448897 46.924905 150.514826 46.538 149.541 46.538 
C 148.567174 46.538 147.633103 46.924905 146.944504 47.613504 
C 146.255905 48.302103 145.869 49.236174 145.869 50.21 
C 145.869 51.183826 146.255905 52.117897 146.944504 52.806496 
C 147.633103 53.495095 148.567174 53.882 149.541 53.882 
L 149.541 53.882 
z
" clip-path="url(#p4c0cca9823)" style="fill: none; stroke: #000000; stroke-width: 2; stroke-linejoin: miter"/>
   </g>
   <g id="patch_6">
    <path d="M 206.151 61.532 
C 207.124826 61.532 208.058897 61.145095 208.747496 60.456496 
C 209.436095 59.767897 209.823 58.833826 209.823 57.86 
C 209.823 56.886174 209.436095 55.952103 208.747496 55.263504 
C 208.058897 54.574905 207.124826 54.188 206.151 54.188 
C 205.177174 54.188 204.243103 54.574905 203.554504 55.263504 
C 202.865905 55.952103 202.479 56.886174 202.479 57.86 
C 202.479 58.833826 202.865905 59.767897 203.554504 60.456496 
C 204.243103 61.145095 205.177174 61.532 206.151 61.532 
L 206.151 61.532 
z
" clip-path="url(#p4c0cca9823)" style="fill: none; stroke: #000000; stroke-width: 2; stroke-linejoin: miter"/>
   </g>
   <g id="patch_7">
    <path d="M 206.151 61.532 
C 207.124826 61.532 208.058897 61.145095 208.747496 60.456496 
C 209.436095 59.767897 209.823 58.833826 209.823 57.86 
C 209.823 56.886174 209.436095 55.952103 208.747496 55.263504 
C 208.058897 54.574905 207.124826 54.188 206.151 54.188 
C 205.177174 54.188 204.243103 54.574905 203.554504 55.263504 
C 202.865905 55.952103 202.479 56.886174 202.479 57.86 
C 202.479 58.833826 202.865905 59.767897 203.554504 60.456496 
C 204.243103 61.145095 205.177174 61.532 206.151 61.532 
L 206.151 61.532 
z
" clip-path="url(#p4c0cca9823)" style="fill: none; stroke: #000000; stroke-width: 2; stroke-linejoin: miter"/>
   </g>
   <g id="patch_8">
    <path d="M 262.761 53.882 
C 263.734826 53.882 264.668897 53.495095 265.357496 52.806496 
C 266.046095 52.117897 266.433 51.183826 266.433 50.21 
C 266.433 49.236174 266.046095 48.302103 265.357496 47.613504 
C 264.668897 46.924905 263.734826 46.538 262.761 46.538 
C 261.787174 46.538 260.853103 46.924905 260.164504 47.613504 
C 259.475905 48.302103 259.089 49.236174 259.089 50.21 
C 259.089 51.183826 259.475905 52.117897 260.164504 52.806496 
C 260.853103 53.495095 261.787174 53.882 262.761 53.882 
L 262.761 53.882 
z
" clip-path="url(#p4c0cca9823)" style="fill: none; stroke: #000000; stroke-width: 2; stroke-linejoin: miter"/>
   </g>
   <g id="patch_9">
    <path d="M 262.761 53.882 
C 263.734826 53.882 264.668897 53.495095 265.357496 52.806496 
C 266.046095 52.117897 266.433 51.183826 266.433 50.21 
C 266.433 49.236174 266.046095 48.302103 265.357496 47.613504 
C 264.668897 46.924905 263.734826 46.538 262.761 46.538 
C 261.787174 46.538 260.853103 46.924905 260.164504 47.613504 
C 259.475905 48.302103 259.089 49.236174 259.089 50.21 
C 259.089 51.183826 259.475905 52.117897 260.164504 52.806496 
C 260.853103 53.495095 261.787174 53.882 262.761 53.882 
L 262.761 53.882 
z
" clip-path="url(#p4c0cca9823)" style="fill: none; stroke: #000000; stroke-width: 2; stroke-linejoin: miter"/>
   </g>
   <g id="patch_10">
    <path d="M 92.931 61.532 
C 93.904826 61.532 94.838897 61.145095 95.527496 60.456496 
C 96.216095 59.767897 96.603 58.833826 96.603 57.86 
C 96.603 56.886174 96.216095 55.952103 95.527496 55.263504 
C 94.838897 54.574905 93.904826 54.188 92.931 54.188 
C 91.957174 54.188 91.023103 54.574905 90.334504 55.263504 
C 89.645905 55.952103 89.259 56.886174 89.259 57.86 
C 89.259 58.833826 89.645905 59.767897 90.334504 60.456496 
C 91.023103 61.145095 91.957174 61.532 92.931 61.532 
L 92.931 61.532 
z
" clip-path="url(#p4c0cca9823)" style="fill: none; stroke: #000000; stroke-width: 2; stroke-linejoin: miter"/>
   </g>
   <g id="patch_11">
    <path d="M 92.931 61.532 
C 93.904826 61.532 94.838897 61.145095 95.527496 60.456496 
C 96.216095 59.767897 96.603 58.833826 96.603 57.86 
C 96.603 56.886174 96.216095 55.952103 95.527496 55.263504 
C 94.838897 54.574905 93.904826 54.188 92.931 54.188 
C 91.957174 54.188 91.023103 54.574905 90.334504 55.263504 
C 89.645905 55.952103 89.259 56.886174 89.259 57.86 
C 89.259 58.833826 89.645905 59.767897 90.334504 60.456496 
C 91.023103 61.145095 91.957174 61.532 92.931 61.532 
L 92.931 61.532 
z
" clip-path="url(#p4c0cca9823)" style="fill: none; stroke: #000000; stroke-width: 2; stroke-linejoin: miter"/>
   </g>
   <g id="patch_12">
    <path d="M 149.541 53.882 
C 150.514826 53.882 151.448897 53.495095 152.137496 52.806496 
C 152.826095 52.117897 153.213 51.183826 153.213 50.21 
C 153.213 49.236174 152.826095 48.302103 152.137496 47.613504 
C 151.448897 46.924905 150.514826 46.538 149.541 46.538 
C 148.567174 46.538 147.633103 46.924905 146.944504 47.613504 
C 146.255905 48.302103 145.869 49.236174 145.869 50.21 
C 145.869 51.183826 146.255905 52.117897 146.944504 52.806496 
C 147.633103 53.495095 148.567174 53.882 149.541 53.882 
L 149.541 53.882 
z
" clip-path="url(#p4c0cca9823)" style="fill: none; stroke: #000000; stroke-width: 2; stroke-linejoin: miter"/>
   </g>
   <g id="patch_13">
    <path d="M 149.541 53.882 
C 150.514826 53.882 151.448897 53.495095 152.137496 52.806496 
C 152.826095 52.117897 153.213 51.183826 153.213 50.21 
C 153.213 49.236174 152.826095 48.302103 152.137496 47.613504 
C 151.448897 46.924905 150.514826 46.538 149.541 46.538 
C 148.567174 46.538 147.633103 46.924905 146.944504 47.613504 
C 146.255905 48.302103 145.869 49.236174 145.869 50.21 
C 145.869 51.183826 146.255905 52.117897 146.944504 52.806496 
C 147.633103 53.495095 148.567174 53.882 149.541 53.882 
L 149.541 53.882 
z
" clip-path="url(#p4c0cca9823)" style="fill: none; stroke: #000000; stroke-width: 2; stroke-linejoin: miter"/>
   </g>
   <g id="patch_14">
    <path d="M 206.151 61.532 
C 207.124826 61.532 208.058897 61.145095 208.747496 60.456496 
C 209.436095 59.767897 209.823 58.833826 209.823 57.86 
C 209.823 56.886174 209.436095 55.952103 208.747496 55.263504 
C 208.058897 54.574905 207.124826 54.188 206.151 54.188 
C 205.177174 54.188 204.243103 54.574905 203.554504 55.263504 
C 202.865905 55.952103 202.479 56.886174 202.479 57.86 
C 202.479 58.833826 202.865905 59.767897 203.554504 60.456496 
C 204.243103 61.145095 205.177174 61.532 206.151 61.532 
L 206.151 61.532 
z
" clip-path="url(#p4c0cca9823)" style="fill: none; stroke: #000000; stroke-width: 2; stroke-linejoin: miter"/>
   </g>
   <g id="patch_15">
    <path d="M 206.151 61.532 
C 207.124826 61.532 208.058897 61.145095 208.747496 60.456496 
C 209.436095 59.767897 209.823 58.833826 209.823 57.86 
C 209.823 56.886174 209.436095 55.952103 208.747496 55.263504 
C 208.058897 54.574905 207.124826 54.188 206.151 54.188 
C 205.177174 54.188 204.243103 54.574905 203.554504 55.263504 
C 202.865905 55.952103 202.479 56.886174 202.479 57.86 
C 202.479 58.833826 202.865905 59.767897 203.554504 60.456496 
C 204.243103 61.145095 205.177174 61.532 206.151 61.532 
L 206.151 61.532 
z
" clip-path="url(#p4c0cca9823)" style="fill: none; stroke: #000000; stroke-width: 2; stroke-linejoin: miter"/>
   </g>
   <g id="patch_16">
    <path d="M 262.761 53.882 
C 263.734826 53.882 264.668897 53.495095 265.357496 52.806496 
C 266.046095 52.117897 266.433 51.183826 266.433 50.21 
C 266.433 49.236174 266.046095 48.302103 265.357496 47.613504 
C 264.668897 46.924905 263.734826 46.538 262.761 46.538 
C 261.787174 46.538 260.853103 46.924905 260.164504 47.613504 
C 259.475905 48.302103 259.089 49.236174 259.089 50.21 
C 259.089 51.183826 259.475905 52.117897 260.164504 52.806496 
C 260.853103 53.495095 261.787174 53.882 262.761 53.882 
L 262.761 53.882 
z
" clip-path="url(#p4c0cca9823)" style="fill: none; stroke: #000000; stroke-width: 2; stroke-linejoin: miter"/>
   </g>
   <g id="patch_17">
    <path d="M 262.761 53.882 
C 263.734826 53.882 264.668897 53.495095 265.357496 52.806496 
C 266.046095 52.117897 266.433 51.183826 266.433 50.21 
C 266.433 49.236174 266.046095 48.302103 265.357496 47.613504 
C 264.668897 46.924905 263.734826 46.538 262.761 46.538 
C 261.787174 46.538 260.853103 46.924905 260.164504 47.613504 
C 259.475905 48.302103 259.089 49.236174 259.089 50.21 
C 259.089 51.183826 259.475905 52.117897 260.164504 52.806496 
C 260.853103 53.495095 261.787174 53.882 262.761 53.882 
L 262.761 53.882 
z
" clip-path="url(#p4c0cca9823)" style="fill: none; stroke: #000000; stroke-width: 2; stroke-linejoin: miter"/>
   </g>
   <g id="line2d_1">
    <path d="M 73.959 73.16 
L 74.939274 73.128565 
L 75.915521 73.034387 
L 76.883727 72.877855 
L 77.839915 72.659611 
L 78.780156 72.380553 
L 79.700585 72.041826 
L 80.597421 71.644824 
L 81.466979 71.191176 
L 82.305684 70.682748 
L 83.110091 70.121628 
L 83.876894 69.510123 
L 84.602943 68.850745 
L 85.285253 68.146204 
L 85.921022 67.399394 
L 86.507635 66.613385 
L 87.042684 65.791406 
L 87.523969 64.936836 
L 87.949513 64.053185 
L 88.317567 63.144085 
L 88.626618 62.213272 
L 88.875397 61.26457 
L 89.062881 60.301878 
L 89.1883 59.329152 
L 89.251139 58.350389 
L 89.251139 57.369611 
L 89.1883 56.390848 
L 89.062881 55.418122 
L 88.875397 54.45543 
L 88.626618 53.506728 
L 88.317567 52.575915 
L 87.949513 51.666815 
L 87.523969 50.783164 
L 87.042684 49.928594 
L 86.507635 49.106615 
L 85.921022 48.320606 
L 85.285253 47.573796 
L 84.602943 46.869255 
L 83.876894 46.209877 
L 83.110091 45.598372 
L 82.305684 45.037252 
L 81.466979 44.528824 
L 80.597421 44.075176 
L 79.700585 43.678174 
L 78.780156 43.339447 
L 77.839915 43.060389 
L 76.883727 42.842145 
L 75.915521 42.685613 
L 74.939274 42.591435 
L 73.959 42.56 
L 73.959 42.56 
L 54.069 42.56 
L 54.069 57.86 
L 54.069 73.16 
L 73.959 73.16 
" clip-path="url(#p4c0cca9823)" style="fill: none; stroke: #000000; stroke-width: 2; stroke-linecap: round"/>
   </g>
   <g id="line2d_2">
    <path d="M 43.359 65.51 
L 54.069 65.51 
" clip-path="url(#p4c0cca9823)" style="fill: none; stroke: #000000; stroke-width: 2; stroke-linecap: round"/>
   </g>
   <g id="line2d_3">
    <path d="M 43.359 50.21 
L 54.069 50.21 
" clip-path="url(#p4c0cca9823)" style="fill: none; stroke: #000000; stroke-width: 2; stroke-linecap: round"/>
   </g>
   <g id="line2d_4">
    <path d="M 96.603 57.86 
L 99.969 57.86 
" clip-path="url(#p4c0cca9823)" style="fill: none; stroke: #000000; stroke-width: 2; stroke-linecap: round"/>
   </g>
   <g id="line2d_5">
    <path d="M 73.959 73.16 
L 74.939274 73.128565 
L 75.915521 73.034387 
L 76.883727 72.877855 
L 77.839915 72.659611 
L 78.780156 72.380553 
L 79.700585 72.041826 
L 80.597421 71.644824 
L 81.466979 71.191176 
L 82.305684 70.682748 
L 83.110091 70.121628 
L 83.876894 69.510123 
L 84.602943 68.850745 
L 85.285253 68.146204 
L 85.921022 67.399394 
L 86.507635 66.613385 
L 87.042684 65.791406 
L 87.523969 64.936836 
L 87.949513 64.053185 
L 88.317567 63.144085 
L 88.626618 62.213272 
L 88.875397 61.26457 
L 89.062881 60.301878 
L 89.1883 59.329152 
L 89.251139 58.350389 
L 89.251139 57.369611 
L 89.1883 56.390848 
L 89.062881 55.418122 
L 88.875397 54.45543 
L 88.626618 53.506728 
L 88.317567 52.575915 
L 87.949513 51.666815 
L 87.523969 50.783164 
L 87.042684 49.928594 
L 86.507635 49.106615 
L 85.921022 48.320606 
L 85.285253 47.573796 
L 84.602943 46.869255 
L 83.876894 46.209877 
L 83.110091 45.598372 
L 82.305684 45.037252 
L 81.466979 44.528824 
L 80.597421 44.075176 
L 79.700585 43.678174 
L 78.780156 43.339447 
L 77.839915 43.060389 
L 76.883727 42.842145 
L 75.915521 42.685613 
L 74.939274 42.591435 
L 73.959 42.56 
L 73.959 42.56 
L 54.069 42.56 
L 54.069 57.86 
L 54.069 73.16 
L 73.959 73.16 
" clip-path="url(#p4c0cca9823)" style="fill: none; stroke: #000000; stroke-width: 2; stroke-linecap: round"/>
   </g>
   <g id="line2d_6">
    <path d="M 43.359 65.51 
L 54.069 65.51 
" clip-path="url(#p4c0cca9823)" style="fill: none; stroke: #000000; stroke-width: 2; stroke-linecap: round"/>
   </g>
   <g id="line2d_7">
    <path d="M 43.359 50.21 
L 54.069 50.21 
" clip-path="url(#p4c0cca9823)" style="fill: none; stroke: #000000; stroke-width: 2; stroke-linecap: round"/>
   </g>
   <g id="line2d_8">
    <path d="M 96.603 57.86 
L 99.969 57.86 
" clip-path="url(#p4c0cca9823)" style="fill: none; stroke: #000000; stroke-width: 2; stroke-linecap: round"/>
   </g>
   <g id="line2d_9">
    <path d="M 130.569 65.51 
L 131.549274 65.478565 
L 132.525521 65.384387 
L 133.493727 65.227855 
L 134.449915 65.009611 
L 135.390156 64.730553 
L 136.310585 64.391826 
L 137.207421 63.994824 
L 138.076979 63.541176 
L 138.915684 63.032748 
L 139.720091 62.471628 
L 140.486894 61.860123 
L 141.212943 61.200745 
L 141.895253 60.496204 
L 142.531022 59.749394 
L 143.117635 58.963385 
L 143.652684 58.141406 
L 144.133969 57.286836 
L 144.559513 56.403185 
L 144.927567 55.494085 
L 145.236618 54.563272 
L 145.485397 53.61457 
L 145.672881 52.651878 
L 145.7983 51.679152 
L 145.861139 50.700389 
L 145.861139 49.719611 
L 145.7983 48.740848 
L 145.672881 47.768122 
L 145.485397 46.80543 
L 145.236618 45.856728 
L 144.927567 44.925915 
L 144.559513 44.016815 
L 144.133969 43.133164 
L 143.652684 42.278594 
L 143.117635 41.456615 
L 142.531022 40.670606 
L 141.895253 39.923796 
L 141.212943 39.219255 
L 140.486894 38.559877 
L 139.720091 37.948372 
L 138.915684 37.387252 
L 138.076979 36.878824 
L 137.207421 36.425176 
L 136.310585 36.028174 
L 135.390156 35.689447 
L 134.449915 35.410389 
L 133.493727 35.192145 
L 132.525521 35.035613 
L 131.549274 34.941435 
L 130.569 34.91 
L 130.569 34.91 
L 110.679 34.91 
L 110.679 50.21 
L 110.679 65.51 
L 130.569 65.51 
" clip-path="url(#p4c0cca9823)" style="fill: none; stroke: #000000; stroke-width: 2; stroke-linecap: round"/>
   </g>
   <g id="line2d_10">
    <path d="M 99.969 57.86 
L 110.679 57.86 
" clip-path="url(#p4c0cca9823)" style="fill: none; stroke: #000000; stroke-width: 2; stroke-linecap: round"/>
   </g>
   <g id="line2d_11">
    <path d="M 99.969 42.56 
L 110.679 42.56 
" clip-path="url(#p4c0cca9823)" style="fill: none; stroke: #000000; stroke-width: 2; stroke-linecap: round"/>
   </g>
   <g id="line2d_12">
    <path d="M 153.213 50.21 
L 156.579 50.21 
" clip-path="url(#p4c0cca9823)" style="fill: none; stroke: #000000; stroke-width: 2; stroke-linecap: round"/>
   </g>
   <g id="line2d_13">
    <path d="M 130.569 65.51 
L 131.549274 65.478565 
L 132.525521 65.384387 
L 133.493727 65.227855 
L 134.449915 65.009611 
L 135.390156 64.730553 
L 136.310585 64.391826 
L 137.207421 63.994824 
L 138.076979 63.541176 
L 138.915684 63.032748 
L 139.720091 62.471628 
L 140.486894 61.860123 
L 141.212943 61.200745 
L 141.895253 60.496204 
L 142.531022 59.749394 
L 143.117635 58.963385 
L 143.652684 58.141406 
L 144.133969 57.286836 
L 144.559513 56.403185 
L 144.927567 55.494085 
L 145.236618 54.563272 
L 145.485397 53.61457 
L 145.672881 52.651878 
L 145.7983 51.679152 
L 145.861139 50.700389 
L 145.861139 49.719611 
L 145.7983 48.740848 
L 145.672881 47.768122 
L 145.485397 46.80543 
L 145.236618 45.856728 
L 144.927567 44.925915 
L 144.559513 44.016815 
L 144.133969 43.133164 
L 143.652684 42.278594 
L 143.117635 41.456615 
L 142.531022 40.670606 
L 141.895253 39.923796 
L 141.212943 39.219255 
L 140.486894 38.559877 
L 139.720091 37.948372 
L 138.915684 37.387252 
L 138.076979 36.878824 
L 137.207421 36.425176 
L 136.310585 36.028174 
L 135.390156 35.689447 
L 134.449915 35.410389 
L 133.493727 35.192145 
L 132.525521 35.035613 
L 131.549274 34.941435 
L 130.569 34.91 
L 130.569 34.91 
L 110.679 34.91 
L 110.679 50.21 
L 110.679 65.51 
L 130.569 65.51 
" clip-path="url(#p4c0cca9823)" style="fill: none; stroke: #000000; stroke-width: 2; stroke-linecap: round"/>
   </g>
   <g id="line2d_14">
    <path d="M 99.969 57.86 
L 110.679 57.86 
" clip-path="url(#p4c0cca9823)" style="fill: none; stroke: #000000; stroke-width: 2; stroke-linecap: round"/>
   </g>
   <g id="line2d_15">
    <path d="M 99.969 42.56 
L 110.679 42.56 
" clip-path="url(#p4c0cca9823)" style="fill: none; stroke: #000000; stroke-width: 2; stroke-linecap: round"/>
   </g>
   <g id="line2d_16">
    <path d="M 153.213 50.21 
L 156.579 50.21 
" clip-path="url(#p4c0cca9823)" style="fill: none; stroke: #000000; stroke-width: 2; stroke-linecap: round"/>
   </g>
   <g id="line2d_17">
    <path d="M 187.179 73.16 
L 188.159274 73.128565 
L 189.135521 73.034387 
L 190.103727 72.877855 
L 191.059915 72.659611 
L 192.000156 72.380553 
L 192.920585 72.041826 
L 193.817421 71.644824 
L 194.686979 71.191176 
L 195.525684 70.682748 
L 196.330091 70.121628 
L 197.096894 69.510123 
L 197.822943 68.850745 
L 198.505253 68.146204 
L 199.141022 67.399394 
L 199.727635 66.613385 
L 200.262684 65.791406 
L 200.743969 64.936836 
L 201.169513 64.053185 
L 201.537567 63.144085 
L 201.846618 62.213272 
L 202.095397 61.26457 
L 202.282881 60.301878 
L 202.4083 59.329152 
L 202.471139 58.350389 
L 202.471139 57.369611 
L 202.4083 56.390848 
L 202.282881 55.418122 
L 202.095397 54.45543 
L 201.846618 53.506728 
L 201.537567 52.575915 
L 201.169513 51.666815 
L 200.743969 50.783164 
L 200.262684 49.928594 
L 199.727635 49.106615 
L 199.141022 48.320606 
L 198.505253 47.573796 
L 197.822943 46.869255 
L 197.096894 46.209877 
L 196.330091 45.598372 
L 195.525684 45.037252 
L 194.686979 44.528824 
L 193.817421 44.075176 
L 192.920585 43.678174 
L 192.000156 43.339447 
L 191.059915 43.060389 
L 190.103727 42.842145 
L 189.135521 42.685613 
L 188.159274 42.591435 
L 187.179 42.56 
L 187.179 42.56 
L 167.289 42.56 
L 167.289 57.86 
L 167.289 73.16 
L 187.179 73.16 
" clip-path="url(#p4c0cca9823)" style="fill: none; stroke: #000000; stroke-width: 2; stroke-linecap: round"/>
   </g>
   <g id="line2d_18">
    <path d="M 156.579 65.51 
L 167.289 65.51 
" clip-path="url(#p4c0cca9823)" style="fill: none; stroke: #000000; stroke-width: 2; stroke-linecap: round"/>
   </g>
   <g id="line2d_19">
    <path d="M 156.579 50.21 
L 167.289 50.21 
" clip-path="url(#p4c0cca9823)" style="fill: none; stroke: #000000; stroke-width: 2; stroke-linecap: round"/>
   </g>
   <g id="line2d_20">
    <path d="M 209.823 57.86 
L 213.189 57.86 
" clip-path="url(#p4c0cca9823)" style="fill: none; stroke: #000000; stroke-width: 2; stroke-linecap: round"/>
   </g>
   <g id="line2d_21">
    <path d="M 187.179 73.16 
L 188.159274 73.128565 
L 189.135521 73.034387 
L 190.103727 72.877855 
L 191.059915 72.659611 
L 192.000156 72.380553 
L 192.920585 72.041826 
L 193.817421 71.644824 
L 194.686979 71.191176 
L 195.525684 70.682748 
L 196.330091 70.121628 
L 197.096894 69.510123 
L 197.822943 68.850745 
L 198.505253 68.146204 
L 199.141022 67.399394 
L 199.727635 66.613385 
L 200.262684 65.791406 
L 200.743969 64.936836 
L 201.169513 64.053185 
L 201.537567 63.144085 
L 201.846618 62.213272 
L 202.095397 61.26457 
L 202.282881 60.301878 
L 202.4083 59.329152 
L 202.471139 58.350389 
L 202.471139 57.369611 
L 202.4083 56.390848 
L 202.282881 55.418122 
L 202.095397 54.45543 
L 201.846618 53.506728 
L 201.537567 52.575915 
L 201.169513 51.666815 
L 200.743969 50.783164 
L 200.262684 49.928594 
L 199.727635 49.106615 
L 199.141022 48.320606 
L 198.505253 47.573796 
L 197.822943 46.869255 
L 197.096894 46.209877 
L 196.330091 45.598372 
L 195.525684 45.037252 
L 194.686979 44.528824 
L 193.817421 44.075176 
L 192.920585 43.678174 
L 192.000156 43.339447 
L 191.059915 43.060389 
L 190.103727 42.842145 
L 189.135521 42.685613 
L 188.159274 42.591435 
L 187.179 42.56 
L 187.179 42.56 
L 167.289 42.56 
L 167.289 57.86 
L 167.289 73.16 
L 187.179 73.16 
" clip-path="url(#p4c0cca9823)" style="fill: none; stroke: #000000; stroke-width: 2; stroke-linecap: round"/>
   </g>
   <g id="line2d_22">
    <path d="M 156.579 65.51 
L 167.289 65.51 
" clip-path="url(#p4c0cca9823)" style="fill: none; stroke: #000000; stroke-width: 2; stroke-linecap: round"/>
   </g>
   <g id="line2d_23">
    <path d="M 156.579 50.21 
L 167.289 50.21 
" clip-path="url(#p4c0cca9823)" style="fill: none; stroke: #000000; stroke-width: 2; stroke-linecap: round"/>
   </g>
   <g id="line2d_24">
    <path d="M 209.823 57.86 
L 213.189 57.86 
" clip-path="url(#p4c0cca9823)" style="fill: none; stroke: #000000; stroke-width: 2; stroke-linecap: round"/>
   </g>
   <g id="line2d_25">
    <path d="M 243.789 65.51 
L 244.769274 65.478565 
L 245.745521 65.384387 
L 246.713727 65.227855 
L 247.669915 65.009611 
L 248.610156 64.730553 
L 249.530585 64.391826 
L 250.427421 63.994824 
L 251.296979 63.541176 
L 252.135684 63.032748 
L 252.940091 62.471628 
L 253.706894 61.860123 
L 254.432943 61.200745 
L 255.115253 60.496204 
L 255.751022 59.749394 
L 256.337635 58.963385 
L 256.872684 58.141406 
L 257.353969 57.286836 
L 257.779513 56.403185 
L 258.147567 55.494085 
L 258.456618 54.563272 
L 258.705397 53.61457 
L 258.892881 52.651878 
L 259.0183 51.679152 
L 259.081139 50.700389 
L 259.081139 49.719611 
L 259.0183 48.740848 
L 258.892881 47.768122 
L 258.705397 46.80543 
L 258.456618 45.856728 
L 258.147567 44.925915 
L 257.779513 44.016815 
L 257.353969 43.133164 
L 256.872684 42.278594 
L 256.337635 41.456615 
L 255.751022 40.670606 
L 255.115253 39.923796 
L 254.432943 39.219255 
L 253.706894 38.559877 
L 252.940091 37.948372 
L 252.135684 37.387252 
L 251.296979 36.878824 
L 250.427421 36.425176 
L 249.530585 36.028174 
L 248.610156 35.689447 
L 247.669915 35.410389 
L 246.713727 35.192145 
L 245.745521 35.035613 
L 244.769274 34.941435 
L 243.789 34.91 
L 243.789 34.91 
L 223.899 34.91 
L 223.899 50.21 
L 223.899 65.51 
L 243.789 65.51 
" clip-path="url(#p4c0cca9823)" style="fill: none; stroke: #000000; stroke-width: 2; stroke-linecap: round"/>
   </g>
   <g id="line2d_26">
    <path d="M 213.189 57.86 
L 223.899 57.86 
" clip-path="url(#p4c0cca9823)" style="fill: none; stroke: #000000; stroke-width: 2; stroke-linecap: round"/>
   </g>
   <g id="line2d_27">
    <path d="M 213.189 42.56 
L 223.899 42.56 
" clip-path="url(#p4c0cca9823)" style="fill: none; stroke: #000000; stroke-width: 2; stroke-linecap: round"/>
   </g>
   <g id="line2d_28">
    <path d="M 266.433 50.21 
L 269.799 50.21 
" clip-path="url(#p4c0cca9823)" style="fill: none; stroke: #000000; stroke-width: 2; stroke-linecap: round"/>
   </g>
   <g id="line2d_29">
    <path d="M 243.789 65.51 
L 244.769274 65.478565 
L 245.745521 65.384387 
L 246.713727 65.227855 
L 247.669915 65.009611 
L 248.610156 64.730553 
L 249.530585 64.391826 
L 250.427421 63.994824 
L 251.296979 63.541176 
L 252.135684 63.032748 
L 252.940091 62.471628 
L 253.706894 61.860123 
L 254.432943 61.200745 
L 255.115253 60.496204 
L 255.751022 59.749394 
L 256.337635 58.963385 
L 256.872684 58.141406 
L 257.353969 57.286836 
L 257.779513 56.403185 
L 258.147567 55.494085 
L 258.456618 54.563272 
L 258.705397 53.61457 
L 258.892881 52.651878 
L 259.0183 51.679152 
L 259.081139 50.700389 
L 259.081139 49.719611 
L 259.0183 48.740848 
L 258.892881 47.768122 
L 258.705397 46.80543 
L 258.456618 45.856728 
L 258.147567 44.925915 
L 257.779513 44.016815 
L 257.353969 43.133164 
L 256.872684 42.278594 
L 256.337635 41.456615 
L 255.751022 40.670606 
L 255.115253 39.923796 
L 254.432943 39.219255 
L 253.706894 38.559877 
L 252.940091 37.948372 
L 252.135684 37.387252 
L 251.296979 36.878824 
L 250.427421 36.425176 
L 249.530585 36.028174 
L 248.610156 35.689447 
L 247.669915 35.410389 
L 246.713727 35.192145 
L 245.745521 35.035613 
L 244.769274 34.941435 
L 243.789 34.91 
L 243.789 34.91 
L 223.899 34.91 
L 223.899 50.21 
L 223.899 65.51 
L 243.789 65.51 
" clip-path="url(#p4c0cca9823)" style="fill: none; stroke: #000000; stroke-width: 2; stroke-linecap: round"/>
   </g>
   <g id="line2d_30">
    <path d="M 213.189 57.86 
L 223.899 57.86 
" clip-path="url(#p4c0cca9823)" style="fill: none; stroke: #000000; stroke-width: 2; stroke-linecap: round"/>
   </g>
   <g id="line2d_31">
    <path d="M 213.189 42.56 
L 223.899 42.56 
" clip-path="url(#p4c0cca9823)" style="fill: none; stroke: #000000; stroke-width: 2; stroke-linecap: round"/>
   </g>
   <g id="line2d_32">
    <path d="M 266.433 50.21 
L 269.799 50.21 
" clip-path="url(#p4c0cca9823)" style="fill: none; stroke: #000000; stroke-width: 2; stroke-linecap: round"/>
   </g>
   <g id="line2d_33">
    <path d="M 43.359 65.51 
L 43.359 80.81 
L 156.579 80.81 
L 156.579 65.51 
" clip-path="url(#p4c0cca9823)" style="fill: none; stroke: #000000; stroke-width: 2; stroke-linecap: round"/>
   </g>
   <g id="line2d_34">
    <path d="M 73.959 73.16 
L 74.939274 73.128565 
L 75.915521 73.034387 
L 76.883727 72.877855 
L 77.839915 72.659611 
L 78.780156 72.380553 
L 79.700585 72.041826 
L 80.597421 71.644824 
L 81.466979 71.191176 
L 82.305684 70.682748 
L 83.110091 70.121628 
L 83.876894 69.510123 
L 84.602943 68.850745 
L 85.285253 68.146204 
L 85.921022 67.399394 
L 86.507635 66.613385 
L 87.042684 65.791406 
L 87.523969 64.936836 
L 87.949513 64.053185 
L 88.317567 63.144085 
L 88.626618 62.213272 
L 88.875397 61.26457 
L 89.062881 60.301878 
L 89.1883 59.329152 
L 89.251139 58.350389 
L 89.251139 57.369611 
L 89.1883 56.390848 
L 89.062881 55.418122 
L 88.875397 54.45543 
L 88.626618 53.506728 
L 88.317567 52.575915 
L 87.949513 51.666815 
L 87.523969 50.783164 
L 87.042684 49.928594 
L 86.507635 49.106615 
L 85.921022 48.320606 
L 85.285253 47.573796 
L 84.602943 46.869255 
L 83.876894 46.209877 
L 83.110091 45.598372 
L 82.305684 45.037252 
L 81.466979 44.528824 
L 80.597421 44.075176 
L 79.700585 43.678174 
L 78.780156 43.339447 
L 77.839915 43.060389 
L 76.883727 42.842145 
L 75.915521 42.685613 
L 74.939274 42.591435 
L 73.959 42.56 
L 73.959 42.56 
L 54.069 42.56 
L 54.069 57.86 
L 54.069 73.16 
L 73.959 73.16 
" clip-path="url(#p4c0cca9823)" style="fill: none; stroke: #000000; stroke-width: 2; stroke-linecap: round"/>
   </g>
   <g id="line2d_35">
    <path d="M 43.359 65.51 
L 54.069 65.51 
" clip-path="url(#p4c0cca9823)" style="fill: none; stroke: #000000; stroke-width: 2; stroke-linecap: round"/>
   </g>
   <g id="line2d_36">
    <path d="M 43.359 50.21 
L 54.069 50.21 
" clip-path="url(#p4c0cca9823)" style="fill: none; stroke: #000000; stroke-width: 2; stroke-linecap: round"/>
   </g>
   <g id="line2d_37">
    <path d="M 96.603 57.86 
L 99.969 57.86 
" clip-path="url(#p4c0cca9823)" style="fill: none; stroke: #000000; stroke-width: 2; stroke-linecap: round"/>
   </g>
   <g id="line2d_38">
    <path d="M 73.959 73.16 
L 74.939274 73.128565 
L 75.915521 73.034387 
L 76.883727 72.877855 
L 77.839915 72.659611 
L 78.780156 72.380553 
L 79.700585 72.041826 
L 80.597421 71.644824 
L 81.466979 71.191176 
L 82.305684 70.682748 
L 83.110091 70.121628 
L 83.876894 69.510123 
L 84.602943 68.850745 
L 85.285253 68.146204 
L 85.921022 67.399394 
L 86.507635 66.613385 
L 87.042684 65.791406 
L 87.523969 64.936836 
L 87.949513 64.053185 
L 88.317567 63.144085 
L 88.626618 62.213272 
L 88.875397 61.26457 
L 89.062881 60.301878 
L 89.1883 59.329152 
L 89.251139 58.350389 
L 89.251139 57.369611 
L 89.1883 56.390848 
L 89.062881 55.418122 
L 88.875397 54.45543 
L 88.626618 53.506728 
L 88.317567 52.575915 
L 87.949513 51.666815 
L 87.523969 50.783164 
L 87.042684 49.928594 
L 86.507635 49.106615 
L 85.921022 48.320606 
L 85.285253 47.573796 
L 84.602943 46.869255 
L 83.876894 46.209877 
L 83.110091 45.598372 
L 82.305684 45.037252 
L 81.466979 44.528824 
L 80.597421 44.075176 
L 79.700585 43.678174 
L 78.780156 43.339447 
L 77.839915 43.060389 
L 76.883727 42.842145 
L 75.915521 42.685613 
L 74.939274 42.591435 
L 73.959 42.56 
L 73.959 42.56 
L 54.069 42.56 
L 54.069 57.86 
L 54.069 73.16 
L 73.959 73.16 
" clip-path="url(#p4c0cca9823)" style="fill: none; stroke: #000000; stroke-width: 2; stroke-linecap: round"/>
   </g>
   <g id="line2d_39">
    <path d="M 43.359 65.51 
L 54.069 65.51 
" clip-path="url(#p4c0cca9823)" style="fill: none; stroke: #000000; stroke-width: 2; stroke-linecap: round"/>
   </g>
   <g id="line2d_40">
    <path d="M 43.359 50.21 
L 54.069 50.21 
" clip-path="url(#p4c0cca9823)" style="fill: none; stroke: #000000; stroke-width: 2; stroke-linecap: round"/>
   </g>
   <g id="line2d_41">
    <path d="M 96.603 57.86 
L 99.969 57.86 
" clip-path="url(#p4c0cca9823)" style="fill: none; stroke: #000000; stroke-width: 2; stroke-linecap: round"/>
   </g>
   <g id="line2d_42">
    <path d="M 130.569 65.51 
L 131.549274 65.478565 
L 132.525521 65.384387 
L 133.493727 65.227855 
L 134.449915 65.009611 
L 135.390156 64.730553 
L 136.310585 64.391826 
L 137.207421 63.994824 
L 138.076979 63.541176 
L 138.915684 63.032748 
L 139.720091 62.471628 
L 140.486894 61.860123 
L 141.212943 61.200745 
L 141.895253 60.496204 
L 142.531022 59.749394 
L 143.117635 58.963385 
L 143.652684 58.141406 
L 144.133969 57.286836 
L 144.559513 56.403185 
L 144.927567 55.494085 
L 145.236618 54.563272 
L 145.485397 53.61457 
L 145.672881 52.651878 
L 145.7983 51.679152 
L 145.861139 50.700389 
L 145.861139 49.719611 
L 145.7983 48.740848 
L 145.672881 47.768122 
L 145.485397 46.80543 
L 145.236618 45.856728 
L 144.927567 44.925915 
L 144.559513 44.016815 
L 144.133969 43.133164 
L 143.652684 42.278594 
L 143.117635 41.456615 
L 142.531022 40.670606 
L 141.895253 39.923796 
L 141.212943 39.219255 
L 140.486894 38.559877 
L 139.720091 37.948372 
L 138.915684 37.387252 
L 138.076979 36.878824 
L 137.207421 36.425176 
L 136.310585 36.028174 
L 135.390156 35.689447 
L 134.449915 35.410389 
L 133.493727 35.192145 
L 132.525521 35.035613 
L 131.549274 34.941435 
L 130.569 34.91 
L 130.569 34.91 
L 110.679 34.91 
L 110.679 50.21 
L 110.679 65.51 
L 130.569 65.51 
" clip-path="url(#p4c0cca9823)" style="fill: none; stroke: #000000; stroke-width: 2; stroke-linecap: round"/>
   </g>
   <g id="line2d_43">
    <path d="M 99.969 57.86 
L 110.679 57.86 
" clip-path="url(#p4c0cca9823)" style="fill: none; stroke: #000000; stroke-width: 2; stroke-linecap: round"/>
   </g>
   <g id="line2d_44">
    <path d="M 99.969 42.56 
L 110.679 42.56 
" clip-path="url(#p4c0cca9823)" style="fill: none; stroke: #000000; stroke-width: 2; stroke-linecap: round"/>
   </g>
   <g id="line2d_45">
    <path d="M 153.213 50.21 
L 156.579 50.21 
" clip-path="url(#p4c0cca9823)" style="fill: none; stroke: #000000; stroke-width: 2; stroke-linecap: round"/>
   </g>
   <g id="line2d_46">
    <path d="M 130.569 65.51 
L 131.549274 65.478565 
L 132.525521 65.384387 
L 133.493727 65.227855 
L 134.449915 65.009611 
L 135.390156 64.730553 
L 136.310585 64.391826 
L 137.207421 63.994824 
L 138.076979 63.541176 
L 138.915684 63.032748 
L 139.720091 62.471628 
L 140.486894 61.860123 
L 141.212943 61.200745 
L 141.895253 60.496204 
L 142.531022 59.749394 
L 143.117635 58.963385 
L 143.652684 58.141406 
L 144.133969 57.286836 
L 144.559513 56.403185 
L 144.927567 55.494085 
L 145.236618 54.563272 
L 145.485397 53.61457 
L 145.672881 52.651878 
L 145.7983 51.679152 
L 145.861139 50.700389 
L 145.861139 49.719611 
L 145.7983 48.740848 
L 145.672881 47.768122 
L 145.485397 46.80543 
L 145.236618 45.856728 
L 144.927567 44.925915 
L 144.559513 44.016815 
L 144.133969 43.133164 
L 143.652684 42.278594 
L 143.117635 41.456615 
L 142.531022 40.670606 
L 141.895253 39.923796 
L 141.212943 39.219255 
L 140.486894 38.559877 
L 139.720091 37.948372 
L 138.915684 37.387252 
L 138.076979 36.878824 
L 137.207421 36.425176 
L 136.310585 36.028174 
L 135.390156 35.689447 
L 134.449915 35.410389 
L 133.493727 35.192145 
L 132.525521 35.035613 
L 131.549274 34.941435 
L 130.569 34.91 
L 130.569 34.91 
L 110.679 34.91 
L 110.679 50.21 
L 110.679 65.51 
L 130.569 65.51 
" clip-path="url(#p4c0cca9823)" style="fill: none; stroke: #000000; stroke-width: 2; stroke-linecap: round"/>
   </g>
   <g id="line2d_47">
    <path d="M 99.969 57.86 
L 110.679 57.86 
" clip-path="url(#p4c0cca9823)" style="fill: none; stroke: #000000; stroke-width: 2; stroke-linecap: round"/>
   </g>
   <g id="line2d_48">
    <path d="M 99.969 42.56 
L 110.679 42.56 
" clip-path="url(#p4c0cca9823)" style="fill: none; stroke: #000000; stroke-width: 2; stroke-linecap: round"/>
   </g>
   <g id="line2d_49">
    <path d="M 153.213 50.21 
L 156.579 50.21 
" clip-path="url(#p4c0cca9823)" style="fill: none; stroke: #000000; stroke-width: 2; stroke-linecap: round"/>
   </g>
   <g id="line2d_50">
    <path d="M 187.179 73.16 
L 188.159274 73.128565 
L 189.135521 73.034387 
L 190.103727 72.877855 
L 191.059915 72.659611 
L 192.000156 72.380553 
L 192.920585 72.041826 
L 193.817421 71.644824 
L 194.686979 71.191176 
L 195.525684 70.682748 
L 196.330091 70.121628 
L 197.096894 69.510123 
L 197.822943 68.850745 
L 198.505253 68.146204 
L 199.141022 67.399394 
L 199.727635 66.613385 
L 200.262684 65.791406 
L 200.743969 64.936836 
L 201.169513 64.053185 
L 201.537567 63.144085 
L 201.846618 62.213272 
L 202.095397 61.26457 
L 202.282881 60.301878 
L 202.4083 59.329152 
L 202.471139 58.350389 
L 202.471139 57.369611 
L 202.4083 56.390848 
L 202.282881 55.418122 
L 202.095397 54.45543 
L 201.846618 53.506728 
L 201.537567 52.575915 
L 201.169513 51.666815 
L 200.743969 50.783164 
L 200.262684 49.928594 
L 199.727635 49.106615 
L 199.141022 48.320606 
L 198.505253 47.573796 
L 197.822943 46.869255 
L 197.096894 46.209877 
L 196.330091 45.598372 
L 195.525684 45.037252 
L 194.686979 44.528824 
L 193.817421 44.075176 
L 192.920585 43.678174 
L 192.000156 43.339447 
L 191.059915 43.060389 
L 190.103727 42.842145 
L 189.135521 42.685613 
L 188.159274 42.591435 
L 187.179 42.56 
L 187.179 42.56 
L 167.289 42.56 
L 167.289 57.86 
L 167.289 73.16 
L 187.179 73.16 
" clip-path="url(#p4c0cca9823)" style="fill: none; stroke: #000000; stroke-width: 2; stroke-linecap: round"/>
   </g>
   <g id="line2d_51">
    <path d="M 156.579 65.51 
L 167.289 65.51 
" clip-path="url(#p4c0cca9823)" style="fill: none; stroke: #000000; stroke-width: 2; stroke-linecap: round"/>
   </g>
   <g id="line2d_52">
    <path d="M 156.579 50.21 
L 167.289 50.21 
" clip-path="url(#p4c0cca9823)" style="fill: none; stroke: #000000; stroke-width: 2; stroke-linecap: round"/>
   </g>
   <g id="line2d_53">
    <path d="M 209.823 57.86 
L 213.189 57.86 
" clip-path="url(#p4c0cca9823)" style="fill: none; stroke: #000000; stroke-width: 2; stroke-linecap: round"/>
   </g>
   <g id="line2d_54">
    <path d="M 187.179 73.16 
L 188.159274 73.128565 
L 189.135521 73.034387 
L 190.103727 72.877855 
L 191.059915 72.659611 
L 192.000156 72.380553 
L 192.920585 72.041826 
L 193.817421 71.644824 
L 194.686979 71.191176 
L 195.525684 70.682748 
L 196.330091 70.121628 
L 197.096894 69.510123 
L 197.822943 68.850745 
L 198.505253 68.146204 
L 199.141022 67.399394 
L 199.727635 66.613385 
L 200.262684 65.791406 
L 200.743969 64.936836 
L 201.169513 64.053185 
L 201.537567 63.144085 
L 201.846618 62.213272 
L 202.095397 61.26457 
L 202.282881 60.301878 
L 202.4083 59.329152 
L 202.471139 58.350389 
L 202.471139 57.369611 
L 202.4083 56.390848 
L 202.282881 55.418122 
L 202.095397 54.45543 
L 201.846618 53.506728 
L 201.537567 52.575915 
L 201.169513 51.666815 
L 200.743969 50.783164 
L 200.262684 49.928594 
L 199.727635 49.106615 
L 199.141022 48.320606 
L 198.505253 47.573796 
L 197.822943 46.869255 
L 197.096894 46.209877 
L 196.330091 45.598372 
L 195.525684 45.037252 
L 194.686979 44.528824 
L 193.817421 44.075176 
L 192.920585 43.678174 
L 192.000156 43.339447 
L 191.059915 43.060389 
L 190.103727 42.842145 
L 189.135521 42.685613 
L 188.159274 42.591435 
L 187.179 42.56 
L 187.179 42.56 
L 167.289 42.56 
L 167.289 57.86 
L 167.289 73.16 
L 187.179 73.16 
" clip-path="url(#p4c0cca9823)" style="fill: none; stroke: #000000; stroke-width: 2; stroke-linecap: round"/>
   </g>
   <g id="line2d_55">
    <path d="M 156.579 65.51 
L 167.289 65.51 
" clip-path="url(#p4c0cca9823)" style="fill: none; stroke: #000000; stroke-width: 2; stroke-linecap: round"/>
   </g>
   <g id="line2d_56">
    <path d="M 156.579 50.21 
L 167.289 50.21 
" clip-path="url(#p4c0cca9823)" style="fill: none; stroke: #000000; stroke-width: 2; stroke-linecap: round"/>
   </g>
   <g id="line2d_57">
    <path d="M 209.823 57.86 
L 213.189 57.86 
" clip-path="url(#p4c0cca9823)" style="fill: none; stroke: #000000; stroke-width: 2; stroke-linecap: round"/>
   </g>
   <g id="line2d_58">
    <path d="M 243.789 65.51 
L 244.769274 65.478565 
L 245.745521 65.384387 
L 246.713727 65.227855 
L 247.669915 65.009611 
L 248.610156 64.730553 
L 249.530585 64.391826 
L 250.427421 63.994824 
L 251.296979 63.541176 
L 252.135684 63.032748 
L 252.940091 62.471628 
L 253.706894 61.860123 
L 254.432943 61.200745 
L 255.115253 60.496204 
L 255.751022 59.749394 
L 256.337635 58.963385 
L 256.872684 58.141406 
L 257.353969 57.286836 
L 257.779513 56.403185 
L 258.147567 55.494085 
L 258.456618 54.563272 
L 258.705397 53.61457 
L 258.892881 52.651878 
L 259.0183 51.679152 
L 259.081139 50.700389 
L 259.081139 49.719611 
L 259.0183 48.740848 
L 258.892881 47.768122 
L 258.705397 46.80543 
L 258.456618 45.856728 
L 258.147567 44.925915 
L 257.779513 44.016815 
L 257.353969 43.133164 
L 256.872684 42.278594 
L 256.337635 41.456615 
L 255.751022 40.670606 
L 255.115253 39.923796 
L 254.432943 39.219255 
L 253.706894 38.559877 
L 252.940091 37.948372 
L 252.135684 37.387252 
L 251.296979 36.878824 
L 250.427421 36.425176 
L 249.530585 36.028174 
L 248.610156 35.689447 
L 247.669915 35.410389 
L 246.713727 35.192145 
L 245.745521 35.035613 
L 244.769274 34.941435 
L 243.789 34.91 
L 243.789 34.91 
L 223.899 34.91 
L 223.899 50.21 
L 223.899 65.51 
L 243.789 65.51 
" clip-path="url(#p4c0cca9823)" style="fill: none; stroke: #000000; stroke-width: 2; stroke-linecap: round"/>
   </g>
   <g id="line2d_59">
    <path d="M 213.189 57.86 
L 223.899 57.86 
" clip-path="url(#p4c0cca9823)" style="fill: none; stroke: #000000; stroke-width: 2; stroke-linecap: round"/>
   </g>
   <g id="line2d_60">
    <path d="M 213.189 42.56 
L 223.899 42.56 
" clip-path="url(#p4c0cca9823)" style="fill: none; stroke: #000000; stroke-width: 2; stroke-linecap: round"/>
   </g>
   <g id="line2d_61">
    <path d="M 266.433 50.21 
L 269.799 50.21 
" clip-path="url(#p4c0cca9823)" style="fill: none; stroke: #000000; stroke-width: 2; stroke-linecap: round"/>
   </g>
   <g id="line2d_62">
    <path d="M 243.789 65.51 
L 244.769274 65.478565 
L 245.745521 65.384387 
L 246.713727 65.227855 
L 247.669915 65.009611 
L 248.610156 64.730553 
L 249.530585 64.391826 
L 250.427421 63.994824 
L 251.296979 63.541176 
L 252.135684 63.032748 
L 252.940091 62.471628 
L 253.706894 61.860123 
L 254.432943 61.200745 
L 255.115253 60.496204 
L 255.751022 59.749394 
L 256.337635 58.963385 
L 256.872684 58.141406 
L 257.353969 57.286836 
L 257.779513 56.403185 
L 258.147567 55.494085 
L 258.456618 54.563272 
L 258.705397 53.61457 
L 258.892881 52.651878 
L 259.0183 51.679152 
L 259.081139 50.700389 
L 259.081139 49.719611 
L 259.0183 48.740848 
L 258.892881 47.768122 
L 258.705397 46.80543 
L 258.456618 45.856728 
L 258.147567 44.925915 
L 257.779513 44.016815 
L 257.353969 43.133164 
L 256.872684 42.278594 
L 256.337635 41.456615 
L 255.751022 40.670606 
L 255.115253 39.923796 
L 254.432943 39.219255 
L 253.706894 38.559877 
L 252.940091 37.948372 
L 252.135684 37.387252 
L 251.296979 36.878824 
L 250.427421 36.425176 
L 249.530585 36.028174 
L 248.610156 35.689447 
L 247.669915 35.410389 
L 246.713727 35.192145 
L 245.745521 35.035613 
L 244.769274 34.941435 
L 243.789 34.91 
L 243.789 34.91 
L 223.899 34.91 
L 223.899 50.21 
L 223.899 65.51 
L 243.789 65.51 
" clip-path="url(#p4c0cca9823)" style="fill: none; stroke: #000000; stroke-width: 2; stroke-linecap: round"/>
   </g>
   <g id="line2d_63">
    <path d="M 213.189 57.86 
L 223.899 57.86 
" clip-path="url(#p4c0cca9823)" style="fill: none; stroke: #000000; stroke-width: 2; stroke-linecap: round"/>
   </g>
   <g id="line2d_64">
    <path d="M 213.189 42.56 
L 223.899 42.56 
" clip-path="url(#p4c0cca9823)" style="fill: none; stroke: #000000; stroke-width: 2; stroke-linecap: round"/>
   </g>
   <g id="line2d_65">
    <path d="M 266.433 50.21 
L 269.799 50.21 
" clip-path="url(#p4c0cca9823)" style="fill: none; stroke: #000000; stroke-width: 2; stroke-linecap: round"/>
   </g>
   <g id="line2d_66">
    <path d="M 43.359 65.51 
L 43.359 80.81 
L 156.579 80.81 
L 156.579 65.51 
" clip-path="url(#p4c0cca9823)" style="fill: none; stroke: #000000; stroke-width: 2; stroke-linecap: round"/>
   </g>
   <g id="text_1">
    <g clip-path="url(#p4c0cca9823)">
     <!-- 0.75 -->
     <g transform="translate(12.466969 53.659219) scale(0.125 -0.125)">
      <defs>
       <path id="DejaVuSans-30" d="M 2034 4250 
Q 1547 4250 1301 3770 
Q 1056 3291 1056 2328 
Q 1056 1369 1301 889 
Q 1547 409 2034 409 
Q 2525 409 2770 889 
Q 3016 1369 3016 2328 
Q 3016 3291 2770 3770 
Q 2525 4250 2034 4250 
z
M 2034 4750 
Q 2819 4750 3233 4129 
Q 3647 3509 3647 2328 
Q 3647 1150 3233 529 
Q 2819 -91 2034 -91 
Q 1250 -91 836 529 
Q 422 1150 422 2328 
Q 422 3509 836 4129 
Q 1250 4750 2034 4750 
z
" transform="scale(0.015625)"/>
       <path id="DejaVuSans-2e" d="M 684 794 
L 1344 794 
L 1344 0 
L 684 0 
L 684 794 
z
" transform="scale(0.015625)"/>
       <path id="DejaVuSans-37" d="M 525 4666 
L 3525 4666 
L 3525 4397 
L 1831 0 
L 1172 0 
L 2766 4134 
L 525 4134 
L 525 4666 
z
" transform="scale(0.015625)"/>
       <path id="DejaVuSans-35" d="M 691 4666 
L 3169 4666 
L 3169 4134 
L 1269 4134 
L 1269 2991 
Q 1406 3038 1543 3061 
Q 1681 3084 1819 3084 
Q 2600 3084 3056 2656 
Q 3513 2228 3513 1497 
Q 3513 744 3044 326 
Q 2575 -91 1722 -91 
Q 1428 -91 1123 -41 
Q 819 9 494 109 
L 494 744 
Q 775 591 1075 516 
Q 1375 441 1709 441 
Q 2250 441 2565 725 
Q 2881 1009 2881 1497 
Q 2881 1984 2565 2268 
Q 2250 2553 1709 2553 
Q 1456 2553 1204 2497 
Q 953 2441 691 2322 
L 691 4666 
z
" transform="scale(0.015625)"/>
      </defs>
      <use xlink:href="#DejaVuSans-30"/>
      <use xlink:href="#DejaVuSans-2e" x="63.623047"/>
      <use xlink:href="#DejaVuSans-37" x="95.410156"/>
      <use xlink:href="#DejaVuSans-35" x="159.033203"/>
     </g>
    </g>
   </g>
   <g id="text_2">
    <g clip-path="url(#p4c0cca9823)">
     <!-- X -->
     <g transform="translate(31.7365 68.959219) scale(0.125 -0.125)">
      <defs>
       <path id="DejaVuSans-58" d="M 403 4666 
L 1081 4666 
L 2241 2931 
L 3406 4666 
L 4084 4666 
L 2584 2425 
L 4184 0 
L 3506 0 
L 2194 1984 
L 872 0 
L 191 0 
L 1856 2491 
L 403 4666 
z
" transform="scale(0.015625)"/>
      </defs>
      <use xlink:href="#DejaVuSans-58"/>
     </g>
    </g>
   </g>
   <g id="text_3">
    <g clip-path="url(#p4c0cca9823)">
     <!-- 0.75 -->
     <g transform="translate(12.466969 53.659219) scale(0.125 -0.125)">
      <use xlink:href="#DejaVuSans-30"/>
      <use xlink:href="#DejaVuSans-2e" x="63.623047"/>
      <use xlink:href="#DejaVuSans-37" x="95.410156"/>
      <use xlink:href="#DejaVuSans-35" x="159.033203"/>
     </g>
    </g>
   </g>
   <g id="text_4">
    <g clip-path="url(#p4c0cca9823)">
     <!-- X -->
     <g transform="translate(31.7365 68.959219) scale(0.125 -0.125)">
      <use xlink:href="#DejaVuSans-58"/>
     </g>
    </g>
   </g>
   <g id="text_5">
    <g clip-path="url(#p4c0cca9823)">
     <!-- G1 -->
     <g transform="translate(62.844664 58.249219) scale(0.125 -0.125)">
      <defs>
       <path id="DejaVuSans-47" d="M 3809 666 
L 3809 1919 
L 2778 1919 
L 2778 2438 
L 4434 2438 
L 4434 434 
Q 4069 175 3628 42 
Q 3188 -91 2688 -91 
Q 1594 -91 976 548 
Q 359 1188 359 2328 
Q 359 3472 976 4111 
Q 1594 4750 2688 4750 
Q 3144 4750 3555 4637 
Q 3966 4525 4313 4306 
L 4313 3634 
Q 3963 3931 3569 4081 
Q 3175 4231 2741 4231 
Q 1884 4231 1454 3753 
Q 1025 3275 1025 2328 
Q 1025 1384 1454 906 
Q 1884 428 2741 428 
Q 3075 428 3337 486 
Q 3600 544 3809 666 
z
" transform="scale(0.015625)"/>
       <path id="DejaVuSans-31" d="M 794 531 
L 1825 531 
L 1825 4091 
L 703 3866 
L 703 4441 
L 1819 4666 
L 2450 4666 
L 2450 531 
L 3481 531 
L 3481 0 
L 794 0 
L 794 531 
z
" transform="scale(0.015625)"/>
      </defs>
      <use xlink:href="#DejaVuSans-47"/>
      <use xlink:href="#DejaVuSans-31" x="77.490234"/>
     </g>
    </g>
   </g>
   <g id="text_6">
    <g clip-path="url(#p4c0cca9823)">
     <!-- 0.75 -->
     <g transform="translate(12.466969 53.659219) scale(0.125 -0.125)">
      <use xlink:href="#DejaVuSans-30"/>
      <use xlink:href="#DejaVuSans-2e" x="63.623047"/>
      <use xlink:href="#DejaVuSans-37" x="95.410156"/>
      <use xlink:href="#DejaVuSans-35" x="159.033203"/>
     </g>
    </g>
   </g>
   <g id="text_7">
    <g clip-path="url(#p4c0cca9823)">
     <!-- X -->
     <g transform="translate(31.7365 68.959219) scale(0.125 -0.125)">
      <use xlink:href="#DejaVuSans-58"/>
     </g>
    </g>
   </g>
   <g id="text_8">
    <g clip-path="url(#p4c0cca9823)">
     <!-- 0.75 -->
     <g transform="translate(12.466969 53.659219) scale(0.125 -0.125)">
      <use xlink:href="#DejaVuSans-30"/>
      <use xlink:href="#DejaVuSans-2e" x="63.623047"/>
      <use xlink:href="#DejaVuSans-37" x="95.410156"/>
      <use xlink:href="#DejaVuSans-35" x="159.033203"/>
     </g>
    </g>
   </g>
   <g id="text_9">
    <g clip-path="url(#p4c0cca9823)">
     <!-- X -->
     <g transform="translate(31.7365 68.959219) scale(0.125 -0.125)">
      <use xlink:href="#DejaVuSans-58"/>
     </g>
    </g>
   </g>
   <g id="text_10">
    <g clip-path="url(#p4c0cca9823)">
     <!-- G1 -->
     <g transform="translate(62.844664 58.249219) scale(0.125 -0.125)">
      <use xlink:href="#DejaVuSans-47"/>
      <use xlink:href="#DejaVuSans-31" x="77.490234"/>
     </g>
    </g>
   </g>
   <g id="text_11">
    <g clip-path="url(#p4c0cca9823)">
     <!-- 0.6667 -->
     <g transform="translate(56.230719 30.709219) scale(0.125 -0.125)">
      <defs>
       <path id="DejaVuSans-36" d="M 2113 2584 
Q 1688 2584 1439 2293 
Q 1191 2003 1191 1497 
Q 1191 994 1439 701 
Q 1688 409 2113 409 
Q 2538 409 2786 701 
Q 3034 994 3034 1497 
Q 3034 2003 2786 2293 
Q 2538 2584 2113 2584 
z
M 3366 4563 
L 3366 3988 
Q 3128 4100 2886 4159 
Q 2644 4219 2406 4219 
Q 1781 4219 1451 3797 
Q 1122 3375 1075 2522 
Q 1259 2794 1537 2939 
Q 1816 3084 2150 3084 
Q 2853 3084 3261 2657 
Q 3669 2231 3669 1497 
Q 3669 778 3244 343 
Q 2819 -91 2113 -91 
Q 1303 -91 875 529 
Q 447 1150 447 2328 
Q 447 3434 972 4092 
Q 1497 4750 2381 4750 
Q 2619 4750 2861 4703 
Q 3103 4656 3366 4563 
z
" transform="scale(0.015625)"/>
      </defs>
      <use xlink:href="#DejaVuSans-30"/>
      <use xlink:href="#DejaVuSans-2e" x="63.623047"/>
      <use xlink:href="#DejaVuSans-36" x="95.410156"/>
      <use xlink:href="#DejaVuSans-36" x="159.033203"/>
      <use xlink:href="#DejaVuSans-36" x="222.65625"/>
      <use xlink:href="#DejaVuSans-37" x="286.279297"/>
     </g>
    </g>
   </g>
   <g id="text_12">
    <g clip-path="url(#p4c0cca9823)">
     <!-- 0.6667 -->
     <g transform="translate(56.230719 30.709219) scale(0.125 -0.125)">
      <use xlink:href="#DejaVuSans-30"/>
      <use xlink:href="#DejaVuSans-2e" x="63.623047"/>
      <use xlink:href="#DejaVuSans-36" x="95.410156"/>
      <use xlink:href="#DejaVuSans-36" x="159.033203"/>
      <use xlink:href="#DejaVuSans-36" x="222.65625"/>
      <use xlink:href="#DejaVuSans-37" x="286.279297"/>
     </g>
    </g>
   </g>
   <g id="text_13">
    <g clip-path="url(#p4c0cca9823)">
     <!-- G2 -->
     <g transform="translate(119.454664 50.599219) scale(0.125 -0.125)">
      <defs>
       <path id="DejaVuSans-32" d="M 1228 531 
L 3431 531 
L 3431 0 
L 469 0 
L 469 531 
Q 828 903 1448 1529 
Q 2069 2156 2228 2338 
Q 2531 2678 2651 2914 
Q 2772 3150 2772 3378 
Q 2772 3750 2511 3984 
Q 2250 4219 1831 4219 
Q 1534 4219 1204 4116 
Q 875 4013 500 3803 
L 500 4441 
Q 881 4594 1212 4672 
Q 1544 4750 1819 4750 
Q 2544 4750 2975 4387 
Q 3406 4025 3406 3419 
Q 3406 3131 3298 2873 
Q 3191 2616 2906 2266 
Q 2828 2175 2409 1742 
Q 1991 1309 1228 531 
z
" transform="scale(0.015625)"/>
      </defs>
      <use xlink:href="#DejaVuSans-47"/>
      <use xlink:href="#DejaVuSans-32" x="77.490234"/>
     </g>
    </g>
   </g>
   <g id="text_14">
    <g clip-path="url(#p4c0cca9823)">
     <!-- 0.6667 -->
     <g transform="translate(56.230719 30.709219) scale(0.125 -0.125)">
      <use xlink:href="#DejaVuSans-30"/>
      <use xlink:href="#DejaVuSans-2e" x="63.623047"/>
      <use xlink:href="#DejaVuSans-36" x="95.410156"/>
      <use xlink:href="#DejaVuSans-36" x="159.033203"/>
      <use xlink:href="#DejaVuSans-36" x="222.65625"/>
      <use xlink:href="#DejaVuSans-37" x="286.279297"/>
     </g>
    </g>
   </g>
   <g id="text_15">
    <g clip-path="url(#p4c0cca9823)">
     <!-- 0.6667 -->
     <g transform="translate(56.230719 30.709219) scale(0.125 -0.125)">
      <use xlink:href="#DejaVuSans-30"/>
      <use xlink:href="#DejaVuSans-2e" x="63.623047"/>
      <use xlink:href="#DejaVuSans-36" x="95.410156"/>
      <use xlink:href="#DejaVuSans-36" x="159.033203"/>
      <use xlink:href="#DejaVuSans-36" x="222.65625"/>
      <use xlink:href="#DejaVuSans-37" x="286.279297"/>
     </g>
    </g>
   </g>
   <g id="text_16">
    <g clip-path="url(#p4c0cca9823)">
     <!-- G2 -->
     <g transform="translate(119.454664 50.599219) scale(0.125 -0.125)">
      <use xlink:href="#DejaVuSans-47"/>
      <use xlink:href="#DejaVuSans-32" x="77.490234"/>
     </g>
    </g>
   </g>
   <g id="text_17">
    <g clip-path="url(#p4c0cca9823)">
     <!-- G3 -->
     <g transform="translate(176.064664 58.249219) scale(0.125 -0.125)">
      <defs>
       <path id="DejaVuSans-33" d="M 2597 2516 
Q 3050 2419 3304 2112 
Q 3559 1806 3559 1356 
Q 3559 666 3084 287 
Q 2609 -91 1734 -91 
Q 1441 -91 1130 -33 
Q 819 25 488 141 
L 488 750 
Q 750 597 1062 519 
Q 1375 441 1716 441 
Q 2309 441 2620 675 
Q 2931 909 2931 1356 
Q 2931 1769 2642 2001 
Q 2353 2234 1838 2234 
L 1294 2234 
L 1294 2753 
L 1863 2753 
Q 2328 2753 2575 2939 
Q 2822 3125 2822 3475 
Q 2822 3834 2567 4026 
Q 2313 4219 1838 4219 
Q 1578 4219 1281 4162 
Q 984 4106 628 3988 
L 628 4550 
Q 988 4650 1302 4700 
Q 1616 4750 1894 4750 
Q 2613 4750 3031 4423 
Q 3450 4097 3450 3541 
Q 3450 3153 3228 2886 
Q 3006 2619 2597 2516 
z
" transform="scale(0.015625)"/>
      </defs>
      <use xlink:href="#DejaVuSans-47"/>
      <use xlink:href="#DejaVuSans-33" x="77.490234"/>
     </g>
    </g>
   </g>
   <g id="text_18">
    <g clip-path="url(#p4c0cca9823)">
     <!-- G3 -->
     <g transform="translate(176.064664 58.249219) scale(0.125 -0.125)">
      <use xlink:href="#DejaVuSans-47"/>
      <use xlink:href="#DejaVuSans-33" x="77.490234"/>
     </g>
    </g>
   </g>
   <g id="text_19">
    <g clip-path="url(#p4c0cca9823)">
     <!-- 0.2 -->
     <g transform="translate(193.310094 30.709219) scale(0.125 -0.125)">
      <use xlink:href="#DejaVuSans-30"/>
      <use xlink:href="#DejaVuSans-2e" x="63.623047"/>
      <use xlink:href="#DejaVuSans-32" x="95.410156"/>
     </g>
    </g>
   </g>
   <g id="text_20">
    <g clip-path="url(#p4c0cca9823)">
     <!-- $f(x)$ -->
     <g transform="translate(272.859 53.659219) scale(0.125 -0.125)">
      <defs>
       <path id="DejaVuSans-Oblique-66" d="M 3059 4863 
L 2969 4384 
L 2419 4384 
Q 2106 4384 1964 4261 
Q 1822 4138 1753 3809 
L 1691 3500 
L 2638 3500 
L 2553 3053 
L 1606 3053 
L 1013 0 
L 434 0 
L 1031 3053 
L 481 3053 
L 563 3500 
L 1113 3500 
L 1159 3744 
Q 1278 4363 1576 4613 
Q 1875 4863 2516 4863 
L 3059 4863 
z
" transform="scale(0.015625)"/>
       <path id="DejaVuSans-28" d="M 1984 4856 
Q 1566 4138 1362 3434 
Q 1159 2731 1159 2009 
Q 1159 1288 1364 580 
Q 1569 -128 1984 -844 
L 1484 -844 
Q 1016 -109 783 600 
Q 550 1309 550 2009 
Q 550 2706 781 3412 
Q 1013 4119 1484 4856 
L 1984 4856 
z
" transform="scale(0.015625)"/>
       <path id="DejaVuSans-Oblique-78" d="M 3841 3500 
L 2234 1784 
L 3219 0 
L 2559 0 
L 1819 1388 
L 531 0 
L -166 0 
L 1556 1844 
L 641 3500 
L 1300 3500 
L 1972 2234 
L 3144 3500 
L 3841 3500 
z
" transform="scale(0.015625)"/>
       <path id="DejaVuSans-29" d="M 513 4856 
L 1013 4856 
Q 1481 4119 1714 3412 
Q 1947 2706 1947 2009 
Q 1947 1309 1714 600 
Q 1481 -109 1013 -844 
L 513 -844 
Q 928 -128 1133 580 
Q 1338 1288 1338 2009 
Q 1338 2731 1133 3434 
Q 928 4138 513 4856 
z
" transform="scale(0.015625)"/>
      </defs>
      <use xlink:href="#DejaVuSans-Oblique-66" transform="translate(0 0.015625)"/>
      <use xlink:href="#DejaVuSans-28" transform="translate(35.205078 0.015625)"/>
      <use xlink:href="#DejaVuSans-Oblique-78" transform="translate(74.21875 0.015625)"/>
      <use xlink:href="#DejaVuSans-29" transform="translate(133.398438 0.015625)"/>
     </g>
    </g>
   </g>
   <g id="text_21">
    <g clip-path="url(#p4c0cca9823)">
     <!-- 0.2 -->
     <g transform="translate(193.310094 30.709219) scale(0.125 -0.125)">
      <use xlink:href="#DejaVuSans-30"/>
      <use xlink:href="#DejaVuSans-2e" x="63.623047"/>
      <use xlink:href="#DejaVuSans-32" x="95.410156"/>
     </g>
    </g>
   </g>
   <g id="text_22">
    <g clip-path="url(#p4c0cca9823)">
     <!-- $f(x)$ -->
     <g transform="translate(272.859 53.659219) scale(0.125 -0.125)">
      <use xlink:href="#DejaVuSans-Oblique-66" transform="translate(0 0.015625)"/>
      <use xlink:href="#DejaVuSans-28" transform="translate(35.205078 0.015625)"/>
      <use xlink:href="#DejaVuSans-Oblique-78" transform="translate(74.21875 0.015625)"/>
      <use xlink:href="#DejaVuSans-29" transform="translate(133.398438 0.015625)"/>
     </g>
    </g>
   </g>
   <g id="text_23">
    <g clip-path="url(#p4c0cca9823)">
     <!-- G4 -->
     <g transform="translate(232.674664 50.599219) scale(0.125 -0.125)">
      <defs>
       <path id="DejaVuSans-34" d="M 2419 4116 
L 825 1625 
L 2419 1625 
L 2419 4116 
z
M 2253 4666 
L 3047 4666 
L 3047 1625 
L 3713 1625 
L 3713 1100 
L 3047 1100 
L 3047 0 
L 2419 0 
L 2419 1100 
L 313 1100 
L 313 1709 
L 2253 4666 
z
" transform="scale(0.015625)"/>
      </defs>
      <use xlink:href="#DejaVuSans-47"/>
      <use xlink:href="#DejaVuSans-34" x="77.490234"/>
     </g>
    </g>
   </g>
   <g id="text_24">
    <g clip-path="url(#p4c0cca9823)">
     <!-- 0.2 -->
     <g transform="translate(193.310094 30.709219) scale(0.125 -0.125)">
      <use xlink:href="#DejaVuSans-30"/>
      <use xlink:href="#DejaVuSans-2e" x="63.623047"/>
      <use xlink:href="#DejaVuSans-32" x="95.410156"/>
     </g>
    </g>
   </g>
   <g id="text_25">
    <g clip-path="url(#p4c0cca9823)">
     <!-- $f(x)$ -->
     <g transform="translate(272.859 53.659219) scale(0.125 -0.125)">
      <use xlink:href="#DejaVuSans-Oblique-66" transform="translate(0 0.015625)"/>
      <use xlink:href="#DejaVuSans-28" transform="translate(35.205078 0.015625)"/>
      <use xlink:href="#DejaVuSans-Oblique-78" transform="translate(74.21875 0.015625)"/>
      <use xlink:href="#DejaVuSans-29" transform="translate(133.398438 0.015625)"/>
     </g>
    </g>
   </g>
   <g id="text_26">
    <g clip-path="url(#p4c0cca9823)">
     <!-- 0.2 -->
     <g transform="translate(193.310094 30.709219) scale(0.125 -0.125)">
      <use xlink:href="#DejaVuSans-30"/>
      <use xlink:href="#DejaVuSans-2e" x="63.623047"/>
      <use xlink:href="#DejaVuSans-32" x="95.410156"/>
     </g>
    </g>
   </g>
   <g id="text_27">
    <g clip-path="url(#p4c0cca9823)">
     <!-- $f(x)$ -->
     <g transform="translate(272.859 53.659219) scale(0.125 -0.125)">
      <use xlink:href="#DejaVuSans-Oblique-66" transform="translate(0 0.015625)"/>
      <use xlink:href="#DejaVuSans-28" transform="translate(35.205078 0.015625)"/>
      <use xlink:href="#DejaVuSans-Oblique-78" transform="translate(74.21875 0.015625)"/>
      <use xlink:href="#DejaVuSans-29" transform="translate(133.398438 0.015625)"/>
     </g>
    </g>
   </g>
   <g id="text_28">
    <g clip-path="url(#p4c0cca9823)">
     <!-- G4 -->
     <g transform="translate(232.674664 50.599219) scale(0.125 -0.125)">
      <use xlink:href="#DejaVuSans-47"/>
      <use xlink:href="#DejaVuSans-34" x="77.490234"/>
     </g>
    </g>
   </g>
   <g id="text_29">
    <g clip-path="url(#p4c0cca9823)">
     <!-- 0.75 -->
     <g transform="translate(12.466969 53.659219) scale(0.125 -0.125)">
      <use xlink:href="#DejaVuSans-30"/>
      <use xlink:href="#DejaVuSans-2e" x="63.623047"/>
      <use xlink:href="#DejaVuSans-37" x="95.410156"/>
      <use xlink:href="#DejaVuSans-35" x="159.033203"/>
     </g>
    </g>
   </g>
   <g id="text_30">
    <g clip-path="url(#p4c0cca9823)">
     <!-- X -->
     <g transform="translate(31.7365 68.959219) scale(0.125 -0.125)">
      <use xlink:href="#DejaVuSans-58"/>
     </g>
    </g>
   </g>
   <g id="text_31">
    <g clip-path="url(#p4c0cca9823)">
     <!-- 0.75 -->
     <g transform="translate(12.466969 53.659219) scale(0.125 -0.125)">
      <use xlink:href="#DejaVuSans-30"/>
      <use xlink:href="#DejaVuSans-2e" x="63.623047"/>
      <use xlink:href="#DejaVuSans-37" x="95.410156"/>
      <use xlink:href="#DejaVuSans-35" x="159.033203"/>
     </g>
    </g>
   </g>
   <g id="text_32">
    <g clip-path="url(#p4c0cca9823)">
     <!-- X -->
     <g transform="translate(31.7365 68.959219) scale(0.125 -0.125)">
      <use xlink:href="#DejaVuSans-58"/>
     </g>
    </g>
   </g>
   <g id="text_33">
    <g clip-path="url(#p4c0cca9823)">
     <!-- G1 -->
     <g transform="translate(62.844664 58.249219) scale(0.125 -0.125)">
      <use xlink:href="#DejaVuSans-47"/>
      <use xlink:href="#DejaVuSans-31" x="77.490234"/>
     </g>
    </g>
   </g>
   <g id="text_34">
    <g clip-path="url(#p4c0cca9823)">
     <!-- 0.75 -->
     <g transform="translate(12.466969 53.659219) scale(0.125 -0.125)">
      <use xlink:href="#DejaVuSans-30"/>
      <use xlink:href="#DejaVuSans-2e" x="63.623047"/>
      <use xlink:href="#DejaVuSans-37" x="95.410156"/>
      <use xlink:href="#DejaVuSans-35" x="159.033203"/>
     </g>
    </g>
   </g>
   <g id="text_35">
    <g clip-path="url(#p4c0cca9823)">
     <!-- X -->
     <g transform="translate(31.7365 68.959219) scale(0.125 -0.125)">
      <use xlink:href="#DejaVuSans-58"/>
     </g>
    </g>
   </g>
   <g id="text_36">
    <g clip-path="url(#p4c0cca9823)">
     <!-- 0.75 -->
     <g transform="translate(12.466969 53.659219) scale(0.125 -0.125)">
      <use xlink:href="#DejaVuSans-30"/>
      <use xlink:href="#DejaVuSans-2e" x="63.623047"/>
      <use xlink:href="#DejaVuSans-37" x="95.410156"/>
      <use xlink:href="#DejaVuSans-35" x="159.033203"/>
     </g>
    </g>
   </g>
   <g id="text_37">
    <g clip-path="url(#p4c0cca9823)">
     <!-- X -->
     <g transform="translate(31.7365 68.959219) scale(0.125 -0.125)">
      <use xlink:href="#DejaVuSans-58"/>
     </g>
    </g>
   </g>
   <g id="text_38">
    <g clip-path="url(#p4c0cca9823)">
     <!-- G1 -->
     <g transform="translate(62.844664 58.249219) scale(0.125 -0.125)">
      <use xlink:href="#DejaVuSans-47"/>
      <use xlink:href="#DejaVuSans-31" x="77.490234"/>
     </g>
    </g>
   </g>
   <g id="text_39">
    <g clip-path="url(#p4c0cca9823)">
     <!-- 0.6667 -->
     <g transform="translate(56.230719 30.709219) scale(0.125 -0.125)">
      <use xlink:href="#DejaVuSans-30"/>
      <use xlink:href="#DejaVuSans-2e" x="63.623047"/>
      <use xlink:href="#DejaVuSans-36" x="95.410156"/>
      <use xlink:href="#DejaVuSans-36" x="159.033203"/>
      <use xlink:href="#DejaVuSans-36" x="222.65625"/>
      <use xlink:href="#DejaVuSans-37" x="286.279297"/>
     </g>
    </g>
   </g>
   <g id="text_40">
    <g clip-path="url(#p4c0cca9823)">
     <!-- 0.6667 -->
     <g transform="translate(56.230719 30.709219) scale(0.125 -0.125)">
      <use xlink:href="#DejaVuSans-30"/>
      <use xlink:href="#DejaVuSans-2e" x="63.623047"/>
      <use xlink:href="#DejaVuSans-36" x="95.410156"/>
      <use xlink:href="#DejaVuSans-36" x="159.033203"/>
      <use xlink:href="#DejaVuSans-36" x="222.65625"/>
      <use xlink:href="#DejaVuSans-37" x="286.279297"/>
     </g>
    </g>
   </g>
   <g id="text_41">
    <g clip-path="url(#p4c0cca9823)">
     <!-- G2 -->
     <g transform="translate(119.454664 50.599219) scale(0.125 -0.125)">
      <use xlink:href="#DejaVuSans-47"/>
      <use xlink:href="#DejaVuSans-32" x="77.490234"/>
     </g>
    </g>
   </g>
   <g id="text_42">
    <g clip-path="url(#p4c0cca9823)">
     <!-- 0.6667 -->
     <g transform="translate(56.230719 30.709219) scale(0.125 -0.125)">
      <use xlink:href="#DejaVuSans-30"/>
      <use xlink:href="#DejaVuSans-2e" x="63.623047"/>
      <use xlink:href="#DejaVuSans-36" x="95.410156"/>
      <use xlink:href="#DejaVuSans-36" x="159.033203"/>
      <use xlink:href="#DejaVuSans-36" x="222.65625"/>
      <use xlink:href="#DejaVuSans-37" x="286.279297"/>
     </g>
    </g>
   </g>
   <g id="text_43">
    <g clip-path="url(#p4c0cca9823)">
     <!-- 0.6667 -->
     <g transform="translate(56.230719 30.709219) scale(0.125 -0.125)">
      <use xlink:href="#DejaVuSans-30"/>
      <use xlink:href="#DejaVuSans-2e" x="63.623047"/>
      <use xlink:href="#DejaVuSans-36" x="95.410156"/>
      <use xlink:href="#DejaVuSans-36" x="159.033203"/>
      <use xlink:href="#DejaVuSans-36" x="222.65625"/>
      <use xlink:href="#DejaVuSans-37" x="286.279297"/>
     </g>
    </g>
   </g>
   <g id="text_44">
    <g clip-path="url(#p4c0cca9823)">
     <!-- G2 -->
     <g transform="translate(119.454664 50.599219) scale(0.125 -0.125)">
      <use xlink:href="#DejaVuSans-47"/>
      <use xlink:href="#DejaVuSans-32" x="77.490234"/>
     </g>
    </g>
   </g>
   <g id="text_45">
    <g clip-path="url(#p4c0cca9823)">
     <!-- G3 -->
     <g transform="translate(176.064664 58.249219) scale(0.125 -0.125)">
      <use xlink:href="#DejaVuSans-47"/>
      <use xlink:href="#DejaVuSans-33" x="77.490234"/>
     </g>
    </g>
   </g>
   <g id="text_46">
    <g clip-path="url(#p4c0cca9823)">
     <!-- G3 -->
     <g transform="translate(176.064664 58.249219) scale(0.125 -0.125)">
      <use xlink:href="#DejaVuSans-47"/>
      <use xlink:href="#DejaVuSans-33" x="77.490234"/>
     </g>
    </g>
   </g>
   <g id="text_47">
    <g clip-path="url(#p4c0cca9823)">
     <!-- 0.2 -->
     <g transform="translate(193.310094 30.709219) scale(0.125 -0.125)">
      <use xlink:href="#DejaVuSans-30"/>
      <use xlink:href="#DejaVuSans-2e" x="63.623047"/>
      <use xlink:href="#DejaVuSans-32" x="95.410156"/>
     </g>
    </g>
   </g>
   <g id="text_48">
    <g clip-path="url(#p4c0cca9823)">
     <!-- $f(x)$ -->
     <g transform="translate(272.859 53.659219) scale(0.125 -0.125)">
      <use xlink:href="#DejaVuSans-Oblique-66" transform="translate(0 0.015625)"/>
      <use xlink:href="#DejaVuSans-28" transform="translate(35.205078 0.015625)"/>
      <use xlink:href="#DejaVuSans-Oblique-78" transform="translate(74.21875 0.015625)"/>
      <use xlink:href="#DejaVuSans-29" transform="translate(133.398438 0.015625)"/>
     </g>
    </g>
   </g>
   <g id="text_49">
    <g clip-path="url(#p4c0cca9823)">
     <!-- 0.2 -->
     <g transform="translate(193.310094 30.709219) scale(0.125 -0.125)">
      <use xlink:href="#DejaVuSans-30"/>
      <use xlink:href="#DejaVuSans-2e" x="63.623047"/>
      <use xlink:href="#DejaVuSans-32" x="95.410156"/>
     </g>
    </g>
   </g>
   <g id="text_50">
    <g clip-path="url(#p4c0cca9823)">
     <!-- $f(x)$ -->
     <g transform="translate(272.859 53.659219) scale(0.125 -0.125)">
      <use xlink:href="#DejaVuSans-Oblique-66" transform="translate(0 0.015625)"/>
      <use xlink:href="#DejaVuSans-28" transform="translate(35.205078 0.015625)"/>
      <use xlink:href="#DejaVuSans-Oblique-78" transform="translate(74.21875 0.015625)"/>
      <use xlink:href="#DejaVuSans-29" transform="translate(133.398438 0.015625)"/>
     </g>
    </g>
   </g>
   <g id="text_51">
    <g clip-path="url(#p4c0cca9823)">
     <!-- G4 -->
     <g transform="translate(232.674664 50.599219) scale(0.125 -0.125)">
      <use xlink:href="#DejaVuSans-47"/>
      <use xlink:href="#DejaVuSans-34" x="77.490234"/>
     </g>
    </g>
   </g>
   <g id="text_52">
    <g clip-path="url(#p4c0cca9823)">
     <!-- 0.2 -->
     <g transform="translate(193.310094 30.709219) scale(0.125 -0.125)">
      <use xlink:href="#DejaVuSans-30"/>
      <use xlink:href="#DejaVuSans-2e" x="63.623047"/>
      <use xlink:href="#DejaVuSans-32" x="95.410156"/>
     </g>
    </g>
   </g>
   <g id="text_53">
    <g clip-path="url(#p4c0cca9823)">
     <!-- $f(x)$ -->
     <g transform="translate(272.859 53.659219) scale(0.125 -0.125)">
      <use xlink:href="#DejaVuSans-Oblique-66" transform="translate(0 0.015625)"/>
      <use xlink:href="#DejaVuSans-28" transform="translate(35.205078 0.015625)"/>
      <use xlink:href="#DejaVuSans-Oblique-78" transform="translate(74.21875 0.015625)"/>
      <use xlink:href="#DejaVuSans-29" transform="translate(133.398438 0.015625)"/>
     </g>
    </g>
   </g>
   <g id="text_54">
    <g clip-path="url(#p4c0cca9823)">
     <!-- 0.2 -->
     <g transform="translate(193.310094 30.709219) scale(0.125 -0.125)">
      <use xlink:href="#DejaVuSans-30"/>
      <use xlink:href="#DejaVuSans-2e" x="63.623047"/>
      <use xlink:href="#DejaVuSans-32" x="95.410156"/>
     </g>
    </g>
   </g>
   <g id="text_55">
    <g clip-path="url(#p4c0cca9823)">
     <!-- $f(x)$ -->
     <g transform="translate(272.859 53.659219) scale(0.125 -0.125)">
      <use xlink:href="#DejaVuSans-Oblique-66" transform="translate(0 0.015625)"/>
      <use xlink:href="#DejaVuSans-28" transform="translate(35.205078 0.015625)"/>
      <use xlink:href="#DejaVuSans-Oblique-78" transform="translate(74.21875 0.015625)"/>
      <use xlink:href="#DejaVuSans-29" transform="translate(133.398438 0.015625)"/>
     </g>
    </g>
   </g>
   <g id="text_56">
    <g clip-path="url(#p4c0cca9823)">
     <!-- G4 -->
     <g transform="translate(232.674664 50.599219) scale(0.125 -0.125)">
      <use xlink:href="#DejaVuSans-47"/>
      <use xlink:href="#DejaVuSans-34" x="77.490234"/>
     </g>
    </g>
   </g>
  </g>
 </g>
 <defs>
  <clipPath id="p4c0cca9823">
   <rect x="7.2" y="7.2" width="299.166" height="76.67"/>
  </clipPath>
 </defs>
</svg>
