<?xml version="1.0" encoding="utf-8" standalone="no"?>
<!DOCTYPE svg PUBLIC "-//W3C//DTD SVG 1.1//EN"
  "http://www.w3.org/Graphics/SVG/1.1/DTD/svg11.dtd">
<svg xmlns:xlink="http://www.w3.org/1999/xlink" width="272.8068pt" height="115.72pt" viewBox="0 0 272.8068 115.72" xmlns="http://www.w3.org/2000/svg" version="1.1">
 <metadata>
  <rdf:RDF xmlns:dc="http://purl.org/dc/elements/1.1/" xmlns:cc="http://creativecommons.org/ns#" xmlns:rdf="http://www.w3.org/1999/02/22-rdf-syntax-ns#">
   <cc:Work>
    <dc:type rdf:resource="http://purl.org/dc/dcmitype/StillImage"/>
    <dc:date>2023-05-08T18:06:35.362649</dc:date>
    <dc:format>image/svg+xml</dc:format>
    <dc:creator>
     <cc:Agent>
      <dc:title>Matplotlib v3.6.3, https://matplotlib.org/</dc:title>
     </cc:Agent>
    </dc:creator>
   </cc:Work>
  </rdf:RDF>
 </metadata>
 <defs>
  <style type="text/css">*{stroke-linejoin: round; stroke-linecap: butt}</style>
 </defs>
 <g id="figure_1">
  <g id="patch_1">
   <path d="M 0 115.72 
L 272.8068 115.72 
L 272.8068 0 
L 0 0 
L 0 115.72 
z
" style="fill: none"/>
  </g>
  <g id="axes_1">
   <g id="patch_2">
    <path d="M 92.931 90.602 
C 93.904826 90.602 94.838897 90.215095 95.527496 89.526496 
C 96.216095 88.837897 96.603 87.903826 96.603 86.93 
C 96.603 85.956174 96.216095 85.022103 95.527496 84.333504 
C 94.838897 83.644905 93.904826 83.258 92.931 83.258 
C 91.957174 83.258 91.023103 83.644905 90.334504 84.333504 
C 89.645905 85.022103 89.259 85.956174 89.259 86.93 
C 89.259 87.903826 89.645905 88.837897 90.334504 89.526496 
C 91.023103 90.215095 91.957174 90.602 92.931 90.602 
L 92.931 90.602 
z
" clip-path="url(#p5c9c4d9a51)" style="fill: none; stroke: #000000; stroke-width: 2; stroke-linejoin: miter"/>
   </g>
   <g id="patch_3">
    <path d="M 92.931 90.602 
C 93.904826 90.602 94.838897 90.215095 95.527496 89.526496 
C 96.216095 88.837897 96.603 87.903826 96.603 86.93 
C 96.603 85.956174 96.216095 85.022103 95.527496 84.333504 
C 94.838897 83.644905 93.904826 83.258 92.931 83.258 
C 91.957174 83.258 91.023103 83.644905 90.334504 84.333504 
C 89.645905 85.022103 89.259 85.956174 89.259 86.93 
C 89.259 87.903826 89.645905 88.837897 90.334504 89.526496 
C 91.023103 90.215095 91.957174 90.602 92.931 90.602 
L 92.931 90.602 
z
" clip-path="url(#p5c9c4d9a51)" style="fill: none; stroke: #000000; stroke-width: 2; stroke-linejoin: miter"/>
   </g>
   <g id="patch_4">
    <path d="M 149.541 82.952 
C 150.514826 82.952 151.448897 82.565095 152.137496 81.876496 
C 152.826095 81.187897 153.213 80.253826 153.213 79.28 
C 153.213 78.306174 152.826095 77.372103 152.137496 76.683504 
C 151.448897 75.994905 150.514826 75.608 149.541 75.608 
C 148.567174 75.608 147.633103 75.994905 146.944504 76.683504 
C 146.255905 77.372103 145.869 78.306174 145.869 79.28 
C 145.869 80.253826 146.255905 81.187897 146.944504 81.876496 
C 147.633103 82.565095 148.567174 82.952 149.541 82.952 
L 149.541 82.952 
z
" clip-path="url(#p5c9c4d9a51)" style="fill: none; stroke: #000000; stroke-width: 2; stroke-linejoin: miter"/>
   </g>
   <g id="patch_5">
    <path d="M 149.541 82.952 
C 150.514826 82.952 151.448897 82.565095 152.137496 81.876496 
C 152.826095 81.187897 153.213 80.253826 153.213 79.28 
C 153.213 78.306174 152.826095 77.372103 152.137496 76.683504 
C 151.448897 75.994905 150.514826 75.608 149.541 75.608 
C 148.567174 75.608 147.633103 75.994905 146.944504 76.683504 
C 146.255905 77.372103 145.869 78.306174 145.869 79.28 
C 145.869 80.253826 146.255905 81.187897 146.944504 81.876496 
C 147.633103 82.565095 148.567174 82.952 149.541 82.952 
L 149.541 82.952 
z
" clip-path="url(#p5c9c4d9a51)" style="fill: none; stroke: #000000; stroke-width: 2; stroke-linejoin: miter"/>
   </g>
   <g id="patch_6">
    <path d="M 206.151 90.602 
C 207.124826 90.602 208.058897 90.215095 208.747496 89.526496 
C 209.436095 88.837897 209.823 87.903826 209.823 86.93 
C 209.823 85.956174 209.436095 85.022103 208.747496 84.333504 
C 208.058897 83.644905 207.124826 83.258 206.151 83.258 
C 205.177174 83.258 204.243103 83.644905 203.554504 84.333504 
C 202.865905 85.022103 202.479 85.956174 202.479 86.93 
C 202.479 87.903826 202.865905 88.837897 203.554504 89.526496 
C 204.243103 90.215095 205.177174 90.602 206.151 90.602 
L 206.151 90.602 
z
" clip-path="url(#p5c9c4d9a51)" style="fill: none; stroke: #000000; stroke-width: 2; stroke-linejoin: miter"/>
   </g>
   <g id="patch_7">
    <path d="M 206.151 90.602 
C 207.124826 90.602 208.058897 90.215095 208.747496 89.526496 
C 209.436095 88.837897 209.823 87.903826 209.823 86.93 
C 209.823 85.956174 209.436095 85.022103 208.747496 84.333504 
C 208.058897 83.644905 207.124826 83.258 206.151 83.258 
C 205.177174 83.258 204.243103 83.644905 203.554504 84.333504 
C 202.865905 85.022103 202.479 85.956174 202.479 86.93 
C 202.479 87.903826 202.865905 88.837897 203.554504 89.526496 
C 204.243103 90.215095 205.177174 90.602 206.151 90.602 
L 206.151 90.602 
z
" clip-path="url(#p5c9c4d9a51)" style="fill: none; stroke: #000000; stroke-width: 2; stroke-linejoin: miter"/>
   </g>
   <g id="patch_8">
    <path d="M 205.539 41.03 
C 206.512826 41.03 207.446897 40.643095 208.135496 39.954496 
C 208.824095 39.265897 209.211 38.331826 209.211 37.358 
C 209.211 36.384174 208.824095 35.450103 208.135496 34.761504 
C 207.446897 34.072905 206.512826 33.686 205.539 33.686 
C 204.565174 33.686 203.631103 34.072905 202.942504 34.761504 
C 202.253905 35.450103 201.867 36.384174 201.867 37.358 
C 201.867 38.331826 202.253905 39.265897 202.942504 39.954496 
C 203.631103 40.643095 204.565174 41.03 205.539 41.03 
L 205.539 41.03 
z
" clip-path="url(#p5c9c4d9a51)" style="fill: none; stroke: #000000; stroke-width: 2; stroke-linejoin: miter"/>
   </g>
   <g id="patch_9">
    <path d="M 205.539 41.03 
C 206.512826 41.03 207.446897 40.643095 208.135496 39.954496 
C 208.824095 39.265897 209.211 38.331826 209.211 37.358 
C 209.211 36.384174 208.824095 35.450103 208.135496 34.761504 
C 207.446897 34.072905 206.512826 33.686 205.539 33.686 
C 204.565174 33.686 203.631103 34.072905 202.942504 34.761504 
C 202.253905 35.450103 201.867 36.384174 201.867 37.358 
C 201.867 38.331826 202.253905 39.265897 202.942504 39.954496 
C 203.631103 40.643095 204.565174 41.03 205.539 41.03 
L 205.539 41.03 
z
" clip-path="url(#p5c9c4d9a51)" style="fill: none; stroke: #000000; stroke-width: 2; stroke-linejoin: miter"/>
   </g>
   <g id="patch_10">
    <path d="M 205.539 41.03 
C 206.512826 41.03 207.446897 40.643095 208.135496 39.954496 
C 208.824095 39.265897 209.211 38.331826 209.211 37.358 
C 209.211 36.384174 208.824095 35.450103 208.135496 34.761504 
C 207.446897 34.072905 206.512826 33.686 205.539 33.686 
C 204.565174 33.686 203.631103 34.072905 202.942504 34.761504 
C 202.253905 35.450103 201.867 36.384174 201.867 37.358 
C 201.867 38.331826 202.253905 39.265897 202.942504 39.954496 
C 203.631103 40.643095 204.565174 41.03 205.539 41.03 
L 205.539 41.03 
z
" clip-path="url(#p5c9c4d9a51)" style="fill: none; stroke: #000000; stroke-width: 2; stroke-linejoin: miter"/>
   </g>
   <g id="patch_11">
    <path d="M 92.931 90.602 
C 93.904826 90.602 94.838897 90.215095 95.527496 89.526496 
C 96.216095 88.837897 96.603 87.903826 96.603 86.93 
C 96.603 85.956174 96.216095 85.022103 95.527496 84.333504 
C 94.838897 83.644905 93.904826 83.258 92.931 83.258 
C 91.957174 83.258 91.023103 83.644905 90.334504 84.333504 
C 89.645905 85.022103 89.259 85.956174 89.259 86.93 
C 89.259 87.903826 89.645905 88.837897 90.334504 89.526496 
C 91.023103 90.215095 91.957174 90.602 92.931 90.602 
L 92.931 90.602 
z
" clip-path="url(#p5c9c4d9a51)" style="fill: none; stroke: #000000; stroke-width: 2; stroke-linejoin: miter"/>
   </g>
   <g id="patch_12">
    <path d="M 92.931 90.602 
C 93.904826 90.602 94.838897 90.215095 95.527496 89.526496 
C 96.216095 88.837897 96.603 87.903826 96.603 86.93 
C 96.603 85.956174 96.216095 85.022103 95.527496 84.333504 
C 94.838897 83.644905 93.904826 83.258 92.931 83.258 
C 91.957174 83.258 91.023103 83.644905 90.334504 84.333504 
C 89.645905 85.022103 89.259 85.956174 89.259 86.93 
C 89.259 87.903826 89.645905 88.837897 90.334504 89.526496 
C 91.023103 90.215095 91.957174 90.602 92.931 90.602 
L 92.931 90.602 
z
" clip-path="url(#p5c9c4d9a51)" style="fill: none; stroke: #000000; stroke-width: 2; stroke-linejoin: miter"/>
   </g>
   <g id="patch_13">
    <path d="M 149.541 82.952 
C 150.514826 82.952 151.448897 82.565095 152.137496 81.876496 
C 152.826095 81.187897 153.213 80.253826 153.213 79.28 
C 153.213 78.306174 152.826095 77.372103 152.137496 76.683504 
C 151.448897 75.994905 150.514826 75.608 149.541 75.608 
C 148.567174 75.608 147.633103 75.994905 146.944504 76.683504 
C 146.255905 77.372103 145.869 78.306174 145.869 79.28 
C 145.869 80.253826 146.255905 81.187897 146.944504 81.876496 
C 147.633103 82.565095 148.567174 82.952 149.541 82.952 
L 149.541 82.952 
z
" clip-path="url(#p5c9c4d9a51)" style="fill: none; stroke: #000000; stroke-width: 2; stroke-linejoin: miter"/>
   </g>
   <g id="patch_14">
    <path d="M 149.541 82.952 
C 150.514826 82.952 151.448897 82.565095 152.137496 81.876496 
C 152.826095 81.187897 153.213 80.253826 153.213 79.28 
C 153.213 78.306174 152.826095 77.372103 152.137496 76.683504 
C 151.448897 75.994905 150.514826 75.608 149.541 75.608 
C 148.567174 75.608 147.633103 75.994905 146.944504 76.683504 
C 146.255905 77.372103 145.869 78.306174 145.869 79.28 
C 145.869 80.253826 146.255905 81.187897 146.944504 81.876496 
C 147.633103 82.565095 148.567174 82.952 149.541 82.952 
L 149.541 82.952 
z
" clip-path="url(#p5c9c4d9a51)" style="fill: none; stroke: #000000; stroke-width: 2; stroke-linejoin: miter"/>
   </g>
   <g id="patch_15">
    <path d="M 206.151 90.602 
C 207.124826 90.602 208.058897 90.215095 208.747496 89.526496 
C 209.436095 88.837897 209.823 87.903826 209.823 86.93 
C 209.823 85.956174 209.436095 85.022103 208.747496 84.333504 
C 208.058897 83.644905 207.124826 83.258 206.151 83.258 
C 205.177174 83.258 204.243103 83.644905 203.554504 84.333504 
C 202.865905 85.022103 202.479 85.956174 202.479 86.93 
C 202.479 87.903826 202.865905 88.837897 203.554504 89.526496 
C 204.243103 90.215095 205.177174 90.602 206.151 90.602 
L 206.151 90.602 
z
" clip-path="url(#p5c9c4d9a51)" style="fill: none; stroke: #000000; stroke-width: 2; stroke-linejoin: miter"/>
   </g>
   <g id="patch_16">
    <path d="M 206.151 90.602 
C 207.124826 90.602 208.058897 90.215095 208.747496 89.526496 
C 209.436095 88.837897 209.823 87.903826 209.823 86.93 
C 209.823 85.956174 209.436095 85.022103 208.747496 84.333504 
C 208.058897 83.644905 207.124826 83.258 206.151 83.258 
C 205.177174 83.258 204.243103 83.644905 203.554504 84.333504 
C 202.865905 85.022103 202.479 85.956174 202.479 86.93 
C 202.479 87.903826 202.865905 88.837897 203.554504 89.526496 
C 204.243103 90.215095 205.177174 90.602 206.151 90.602 
L 206.151 90.602 
z
" clip-path="url(#p5c9c4d9a51)" style="fill: none; stroke: #000000; stroke-width: 2; stroke-linejoin: miter"/>
   </g>
   <g id="patch_17">
    <path d="M 205.539 41.03 
C 206.512826 41.03 207.446897 40.643095 208.135496 39.954496 
C 208.824095 39.265897 209.211 38.331826 209.211 37.358 
C 209.211 36.384174 208.824095 35.450103 208.135496 34.761504 
C 207.446897 34.072905 206.512826 33.686 205.539 33.686 
C 204.565174 33.686 203.631103 34.072905 202.942504 34.761504 
C 202.253905 35.450103 201.867 36.384174 201.867 37.358 
C 201.867 38.331826 202.253905 39.265897 202.942504 39.954496 
C 203.631103 40.643095 204.565174 41.03 205.539 41.03 
L 205.539 41.03 
z
" clip-path="url(#p5c9c4d9a51)" style="fill: none; stroke: #000000; stroke-width: 2; stroke-linejoin: miter"/>
   </g>
   <g id="patch_18">
    <path d="M 205.539 41.03 
C 206.512826 41.03 207.446897 40.643095 208.135496 39.954496 
C 208.824095 39.265897 209.211 38.331826 209.211 37.358 
C 209.211 36.384174 208.824095 35.450103 208.135496 34.761504 
C 207.446897 34.072905 206.512826 33.686 205.539 33.686 
C 204.565174 33.686 203.631103 34.072905 202.942504 34.761504 
C 202.253905 35.450103 201.867 36.384174 201.867 37.358 
C 201.867 38.331826 202.253905 39.265897 202.942504 39.954496 
C 203.631103 40.643095 204.565174 41.03 205.539 41.03 
L 205.539 41.03 
z
" clip-path="url(#p5c9c4d9a51)" style="fill: none; stroke: #000000; stroke-width: 2; stroke-linejoin: miter"/>
   </g>
   <g id="patch_19">
    <path d="M 205.539 41.03 
C 206.512826 41.03 207.446897 40.643095 208.135496 39.954496 
C 208.824095 39.265897 209.211 38.331826 209.211 37.358 
C 209.211 36.384174 208.824095 35.450103 208.135496 34.761504 
C 207.446897 34.072905 206.512826 33.686 205.539 33.686 
C 204.565174 33.686 203.631103 34.072905 202.942504 34.761504 
C 202.253905 35.450103 201.867 36.384174 201.867 37.358 
C 201.867 38.331826 202.253905 39.265897 202.942504 39.954496 
C 203.631103 40.643095 204.565174 41.03 205.539 41.03 
L 205.539 41.03 
z
" clip-path="url(#p5c9c4d9a51)" style="fill: none; stroke: #000000; stroke-width: 2; stroke-linejoin: miter"/>
   </g>
   <g id="line2d_1">
    <path d="M 73.959 102.23 
L 74.939274 102.198565 
L 75.915521 102.104387 
L 76.883727 101.947855 
L 77.839915 101.729611 
L 78.780156 101.450553 
L 79.700585 101.111826 
L 80.597421 100.714824 
L 81.466979 100.261176 
L 82.305684 99.752748 
L 83.110091 99.191628 
L 83.876894 98.580123 
L 84.602943 97.920745 
L 85.285253 97.216204 
L 85.921022 96.469394 
L 86.507635 95.683385 
L 87.042684 94.861406 
L 87.523969 94.006836 
L 87.949513 93.123185 
L 88.317567 92.214085 
L 88.626618 91.283272 
L 88.875397 90.33457 
L 89.062881 89.371878 
L 89.1883 88.399152 
L 89.251139 87.420389 
L 89.251139 86.439611 
L 89.1883 85.460848 
L 89.062881 84.488122 
L 88.875397 83.52543 
L 88.626618 82.576728 
L 88.317567 81.645915 
L 87.949513 80.736815 
L 87.523969 79.853164 
L 87.042684 78.998594 
L 86.507635 78.176615 
L 85.921022 77.390606 
L 85.285253 76.643796 
L 84.602943 75.939255 
L 83.876894 75.279877 
L 83.110091 74.668372 
L 82.305684 74.107252 
L 81.466979 73.598824 
L 80.597421 73.145176 
L 79.700585 72.748174 
L 78.780156 72.409447 
L 77.839915 72.130389 
L 76.883727 71.912145 
L 75.915521 71.755613 
L 74.939274 71.661435 
L 73.959 71.63 
L 73.959 71.63 
L 54.069 71.63 
L 54.069 86.93 
L 54.069 102.23 
L 73.959 102.23 
" clip-path="url(#p5c9c4d9a51)" style="fill: none; stroke: #000000; stroke-width: 2; stroke-linecap: round"/>
   </g>
   <g id="line2d_2">
    <path d="M 43.359 94.58 
L 54.069 94.58 
" clip-path="url(#p5c9c4d9a51)" style="fill: none; stroke: #000000; stroke-width: 2; stroke-linecap: round"/>
   </g>
   <g id="line2d_3">
    <path d="M 43.359 79.28 
L 54.069 79.28 
" clip-path="url(#p5c9c4d9a51)" style="fill: none; stroke: #000000; stroke-width: 2; stroke-linecap: round"/>
   </g>
   <g id="line2d_4">
    <path d="M 96.603 86.93 
L 99.969 86.93 
" clip-path="url(#p5c9c4d9a51)" style="fill: none; stroke: #000000; stroke-width: 2; stroke-linecap: round"/>
   </g>
   <g id="line2d_5">
    <path d="M 73.959 102.23 
L 74.939274 102.198565 
L 75.915521 102.104387 
L 76.883727 101.947855 
L 77.839915 101.729611 
L 78.780156 101.450553 
L 79.700585 101.111826 
L 80.597421 100.714824 
L 81.466979 100.261176 
L 82.305684 99.752748 
L 83.110091 99.191628 
L 83.876894 98.580123 
L 84.602943 97.920745 
L 85.285253 97.216204 
L 85.921022 96.469394 
L 86.507635 95.683385 
L 87.042684 94.861406 
L 87.523969 94.006836 
L 87.949513 93.123185 
L 88.317567 92.214085 
L 88.626618 91.283272 
L 88.875397 90.33457 
L 89.062881 89.371878 
L 89.1883 88.399152 
L 89.251139 87.420389 
L 89.251139 86.439611 
L 89.1883 85.460848 
L 89.062881 84.488122 
L 88.875397 83.52543 
L 88.626618 82.576728 
L 88.317567 81.645915 
L 87.949513 80.736815 
L 87.523969 79.853164 
L 87.042684 78.998594 
L 86.507635 78.176615 
L 85.921022 77.390606 
L 85.285253 76.643796 
L 84.602943 75.939255 
L 83.876894 75.279877 
L 83.110091 74.668372 
L 82.305684 74.107252 
L 81.466979 73.598824 
L 80.597421 73.145176 
L 79.700585 72.748174 
L 78.780156 72.409447 
L 77.839915 72.130389 
L 76.883727 71.912145 
L 75.915521 71.755613 
L 74.939274 71.661435 
L 73.959 71.63 
L 73.959 71.63 
L 54.069 71.63 
L 54.069 86.93 
L 54.069 102.23 
L 73.959 102.23 
" clip-path="url(#p5c9c4d9a51)" style="fill: none; stroke: #000000; stroke-width: 2; stroke-linecap: round"/>
   </g>
   <g id="line2d_6">
    <path d="M 43.359 94.58 
L 54.069 94.58 
" clip-path="url(#p5c9c4d9a51)" style="fill: none; stroke: #000000; stroke-width: 2; stroke-linecap: round"/>
   </g>
   <g id="line2d_7">
    <path d="M 43.359 79.28 
L 54.069 79.28 
" clip-path="url(#p5c9c4d9a51)" style="fill: none; stroke: #000000; stroke-width: 2; stroke-linecap: round"/>
   </g>
   <g id="line2d_8">
    <path d="M 96.603 86.93 
L 99.969 86.93 
" clip-path="url(#p5c9c4d9a51)" style="fill: none; stroke: #000000; stroke-width: 2; stroke-linecap: round"/>
   </g>
   <g id="line2d_9">
    <path d="M 130.569 94.58 
L 131.549274 94.548565 
L 132.525521 94.454387 
L 133.493727 94.297855 
L 134.449915 94.079611 
L 135.390156 93.800553 
L 136.310585 93.461826 
L 137.207421 93.064824 
L 138.076979 92.611176 
L 138.915684 92.102748 
L 139.720091 91.541628 
L 140.486894 90.930123 
L 141.212943 90.270745 
L 141.895253 89.566204 
L 142.531022 88.819394 
L 143.117635 88.033385 
L 143.652684 87.211406 
L 144.133969 86.356836 
L 144.559513 85.473185 
L 144.927567 84.564085 
L 145.236618 83.633272 
L 145.485397 82.68457 
L 145.672881 81.721878 
L 145.7983 80.749152 
L 145.861139 79.770389 
L 145.861139 78.789611 
L 145.7983 77.810848 
L 145.672881 76.838122 
L 145.485397 75.87543 
L 145.236618 74.926728 
L 144.927567 73.995915 
L 144.559513 73.086815 
L 144.133969 72.203164 
L 143.652684 71.348594 
L 143.117635 70.526615 
L 142.531022 69.740606 
L 141.895253 68.993796 
L 141.212943 68.289255 
L 140.486894 67.629877 
L 139.720091 67.018372 
L 138.915684 66.457252 
L 138.076979 65.948824 
L 137.207421 65.495176 
L 136.310585 65.098174 
L 135.390156 64.759447 
L 134.449915 64.480389 
L 133.493727 64.262145 
L 132.525521 64.105613 
L 131.549274 64.011435 
L 130.569 63.98 
L 130.569 63.98 
L 110.679 63.98 
L 110.679 79.28 
L 110.679 94.58 
L 130.569 94.58 
" clip-path="url(#p5c9c4d9a51)" style="fill: none; stroke: #000000; stroke-width: 2; stroke-linecap: round"/>
   </g>
   <g id="line2d_10">
    <path d="M 99.969 86.93 
L 110.679 86.93 
" clip-path="url(#p5c9c4d9a51)" style="fill: none; stroke: #000000; stroke-width: 2; stroke-linecap: round"/>
   </g>
   <g id="line2d_11">
    <path d="M 99.969 71.63 
L 110.679 71.63 
" clip-path="url(#p5c9c4d9a51)" style="fill: none; stroke: #000000; stroke-width: 2; stroke-linecap: round"/>
   </g>
   <g id="line2d_12">
    <path d="M 153.213 79.28 
L 156.579 79.28 
" clip-path="url(#p5c9c4d9a51)" style="fill: none; stroke: #000000; stroke-width: 2; stroke-linecap: round"/>
   </g>
   <g id="line2d_13">
    <path d="M 130.569 94.58 
L 131.549274 94.548565 
L 132.525521 94.454387 
L 133.493727 94.297855 
L 134.449915 94.079611 
L 135.390156 93.800553 
L 136.310585 93.461826 
L 137.207421 93.064824 
L 138.076979 92.611176 
L 138.915684 92.102748 
L 139.720091 91.541628 
L 140.486894 90.930123 
L 141.212943 90.270745 
L 141.895253 89.566204 
L 142.531022 88.819394 
L 143.117635 88.033385 
L 143.652684 87.211406 
L 144.133969 86.356836 
L 144.559513 85.473185 
L 144.927567 84.564085 
L 145.236618 83.633272 
L 145.485397 82.68457 
L 145.672881 81.721878 
L 145.7983 80.749152 
L 145.861139 79.770389 
L 145.861139 78.789611 
L 145.7983 77.810848 
L 145.672881 76.838122 
L 145.485397 75.87543 
L 145.236618 74.926728 
L 144.927567 73.995915 
L 144.559513 73.086815 
L 144.133969 72.203164 
L 143.652684 71.348594 
L 143.117635 70.526615 
L 142.531022 69.740606 
L 141.895253 68.993796 
L 141.212943 68.289255 
L 140.486894 67.629877 
L 139.720091 67.018372 
L 138.915684 66.457252 
L 138.076979 65.948824 
L 137.207421 65.495176 
L 136.310585 65.098174 
L 135.390156 64.759447 
L 134.449915 64.480389 
L 133.493727 64.262145 
L 132.525521 64.105613 
L 131.549274 64.011435 
L 130.569 63.98 
L 130.569 63.98 
L 110.679 63.98 
L 110.679 79.28 
L 110.679 94.58 
L 130.569 94.58 
" clip-path="url(#p5c9c4d9a51)" style="fill: none; stroke: #000000; stroke-width: 2; stroke-linecap: round"/>
   </g>
   <g id="line2d_14">
    <path d="M 99.969 86.93 
L 110.679 86.93 
" clip-path="url(#p5c9c4d9a51)" style="fill: none; stroke: #000000; stroke-width: 2; stroke-linecap: round"/>
   </g>
   <g id="line2d_15">
    <path d="M 99.969 71.63 
L 110.679 71.63 
" clip-path="url(#p5c9c4d9a51)" style="fill: none; stroke: #000000; stroke-width: 2; stroke-linecap: round"/>
   </g>
   <g id="line2d_16">
    <path d="M 153.213 79.28 
L 156.579 79.28 
" clip-path="url(#p5c9c4d9a51)" style="fill: none; stroke: #000000; stroke-width: 2; stroke-linecap: round"/>
   </g>
   <g id="line2d_17">
    <path d="M 187.179 102.23 
L 188.159274 102.198565 
L 189.135521 102.104387 
L 190.103727 101.947855 
L 191.059915 101.729611 
L 192.000156 101.450553 
L 192.920585 101.111826 
L 193.817421 100.714824 
L 194.686979 100.261176 
L 195.525684 99.752748 
L 196.330091 99.191628 
L 197.096894 98.580123 
L 197.822943 97.920745 
L 198.505253 97.216204 
L 199.141022 96.469394 
L 199.727635 95.683385 
L 200.262684 94.861406 
L 200.743969 94.006836 
L 201.169513 93.123185 
L 201.537567 92.214085 
L 201.846618 91.283272 
L 202.095397 90.33457 
L 202.282881 89.371878 
L 202.4083 88.399152 
L 202.471139 87.420389 
L 202.471139 86.439611 
L 202.4083 85.460848 
L 202.282881 84.488122 
L 202.095397 83.52543 
L 201.846618 82.576728 
L 201.537567 81.645915 
L 201.169513 80.736815 
L 200.743969 79.853164 
L 200.262684 78.998594 
L 199.727635 78.176615 
L 199.141022 77.390606 
L 198.505253 76.643796 
L 197.822943 75.939255 
L 197.096894 75.279877 
L 196.330091 74.668372 
L 195.525684 74.107252 
L 194.686979 73.598824 
L 193.817421 73.145176 
L 192.920585 72.748174 
L 192.000156 72.409447 
L 191.059915 72.130389 
L 190.103727 71.912145 
L 189.135521 71.755613 
L 188.159274 71.661435 
L 187.179 71.63 
L 187.179 71.63 
L 167.289 71.63 
L 167.289 86.93 
L 167.289 102.23 
L 187.179 102.23 
" clip-path="url(#p5c9c4d9a51)" style="fill: none; stroke: #000000; stroke-width: 2; stroke-linecap: round"/>
   </g>
   <g id="line2d_18">
    <path d="M 156.579 94.58 
L 167.289 94.58 
" clip-path="url(#p5c9c4d9a51)" style="fill: none; stroke: #000000; stroke-width: 2; stroke-linecap: round"/>
   </g>
   <g id="line2d_19">
    <path d="M 156.579 79.28 
L 167.289 79.28 
" clip-path="url(#p5c9c4d9a51)" style="fill: none; stroke: #000000; stroke-width: 2; stroke-linecap: round"/>
   </g>
   <g id="line2d_20">
    <path d="M 209.823 86.93 
L 213.189 86.93 
" clip-path="url(#p5c9c4d9a51)" style="fill: none; stroke: #000000; stroke-width: 2; stroke-linecap: round"/>
   </g>
   <g id="line2d_21">
    <path d="M 187.179 102.23 
L 188.159274 102.198565 
L 189.135521 102.104387 
L 190.103727 101.947855 
L 191.059915 101.729611 
L 192.000156 101.450553 
L 192.920585 101.111826 
L 193.817421 100.714824 
L 194.686979 100.261176 
L 195.525684 99.752748 
L 196.330091 99.191628 
L 197.096894 98.580123 
L 197.822943 97.920745 
L 198.505253 97.216204 
L 199.141022 96.469394 
L 199.727635 95.683385 
L 200.262684 94.861406 
L 200.743969 94.006836 
L 201.169513 93.123185 
L 201.537567 92.214085 
L 201.846618 91.283272 
L 202.095397 90.33457 
L 202.282881 89.371878 
L 202.4083 88.399152 
L 202.471139 87.420389 
L 202.471139 86.439611 
L 202.4083 85.460848 
L 202.282881 84.488122 
L 202.095397 83.52543 
L 201.846618 82.576728 
L 201.537567 81.645915 
L 201.169513 80.736815 
L 200.743969 79.853164 
L 200.262684 78.998594 
L 199.727635 78.176615 
L 199.141022 77.390606 
L 198.505253 76.643796 
L 197.822943 75.939255 
L 197.096894 75.279877 
L 196.330091 74.668372 
L 195.525684 74.107252 
L 194.686979 73.598824 
L 193.817421 73.145176 
L 192.920585 72.748174 
L 192.000156 72.409447 
L 191.059915 72.130389 
L 190.103727 71.912145 
L 189.135521 71.755613 
L 188.159274 71.661435 
L 187.179 71.63 
L 187.179 71.63 
L 167.289 71.63 
L 167.289 86.93 
L 167.289 102.23 
L 187.179 102.23 
" clip-path="url(#p5c9c4d9a51)" style="fill: none; stroke: #000000; stroke-width: 2; stroke-linecap: round"/>
   </g>
   <g id="line2d_22">
    <path d="M 156.579 94.58 
L 167.289 94.58 
" clip-path="url(#p5c9c4d9a51)" style="fill: none; stroke: #000000; stroke-width: 2; stroke-linecap: round"/>
   </g>
   <g id="line2d_23">
    <path d="M 156.579 79.28 
L 167.289 79.28 
" clip-path="url(#p5c9c4d9a51)" style="fill: none; stroke: #000000; stroke-width: 2; stroke-linecap: round"/>
   </g>
   <g id="line2d_24">
    <path d="M 209.823 86.93 
L 213.189 86.93 
" clip-path="url(#p5c9c4d9a51)" style="fill: none; stroke: #000000; stroke-width: 2; stroke-linecap: round"/>
   </g>
   <g id="line2d_25">
    <path d="M 220.839 56.33 
L 220.807565 55.349726 
L 220.713387 54.373479 
L 220.556855 53.405273 
L 220.338611 52.449085 
L 220.059553 51.508844 
L 219.720826 50.588415 
L 219.323824 49.691579 
L 218.870176 48.822021 
L 218.361748 47.983316 
L 217.800628 47.178909 
L 217.189123 46.412106 
L 216.529745 45.686057 
L 215.825204 45.003747 
L 215.078394 44.367978 
L 214.292385 43.781365 
L 213.470406 43.246316 
L 212.615836 42.765031 
L 211.732185 42.339487 
L 210.823085 41.971433 
L 209.892272 41.662382 
L 208.94357 41.413603 
L 207.980878 41.226119 
L 207.008152 41.1007 
L 206.029389 41.037861 
L 205.048611 41.037861 
L 204.069848 41.1007 
L 203.097122 41.226119 
L 202.13443 41.413603 
L 201.185728 41.662382 
L 200.254915 41.971433 
L 199.345815 42.339487 
L 198.462164 42.765031 
L 197.607594 43.246316 
L 196.785615 43.781365 
L 195.999606 44.367978 
L 195.252796 45.003747 
L 194.548255 45.686057 
L 193.888877 46.412106 
L 193.277372 47.178909 
L 192.716252 47.983316 
L 192.207824 48.822021 
L 191.754176 49.691579 
L 191.357174 50.588415 
L 191.018447 51.508844 
L 190.739389 52.449085 
L 190.521145 53.405273 
L 190.364613 54.373479 
L 190.270435 55.349726 
L 190.239 56.33 
L 190.239 56.33 
L 190.239 76.22 
L 205.539 76.22 
L 220.839 76.22 
L 220.839 56.33 
" clip-path="url(#p5c9c4d9a51)" style="fill: none; stroke: #000000; stroke-width: 2; stroke-linecap: round"/>
   </g>
   <g id="line2d_26">
    <path d="M 213.189 86.93 
L 213.189 76.22 
" clip-path="url(#p5c9c4d9a51)" style="fill: none; stroke: #000000; stroke-width: 2; stroke-linecap: round"/>
   </g>
   <g id="line2d_27">
    <path d="M 197.889 86.93 
L 197.889 76.22 
" clip-path="url(#p5c9c4d9a51)" style="fill: none; stroke: #000000; stroke-width: 2; stroke-linecap: round"/>
   </g>
   <g id="line2d_28">
    <path d="M 205.539 33.686 
L 205.539 30.32 
" clip-path="url(#p5c9c4d9a51)" style="fill: none; stroke: #000000; stroke-width: 2; stroke-linecap: round"/>
   </g>
   <g id="line2d_29">
    <path d="M 220.839 56.33 
L 220.807565 55.349726 
L 220.713387 54.373479 
L 220.556855 53.405273 
L 220.338611 52.449085 
L 220.059553 51.508844 
L 219.720826 50.588415 
L 219.323824 49.691579 
L 218.870176 48.822021 
L 218.361748 47.983316 
L 217.800628 47.178909 
L 217.189123 46.412106 
L 216.529745 45.686057 
L 215.825204 45.003747 
L 215.078394 44.367978 
L 214.292385 43.781365 
L 213.470406 43.246316 
L 212.615836 42.765031 
L 211.732185 42.339487 
L 210.823085 41.971433 
L 209.892272 41.662382 
L 208.94357 41.413603 
L 207.980878 41.226119 
L 207.008152 41.1007 
L 206.029389 41.037861 
L 205.048611 41.037861 
L 204.069848 41.1007 
L 203.097122 41.226119 
L 202.13443 41.413603 
L 201.185728 41.662382 
L 200.254915 41.971433 
L 199.345815 42.339487 
L 198.462164 42.765031 
L 197.607594 43.246316 
L 196.785615 43.781365 
L 195.999606 44.367978 
L 195.252796 45.003747 
L 194.548255 45.686057 
L 193.888877 46.412106 
L 193.277372 47.178909 
L 192.716252 47.983316 
L 192.207824 48.822021 
L 191.754176 49.691579 
L 191.357174 50.588415 
L 191.018447 51.508844 
L 190.739389 52.449085 
L 190.521145 53.405273 
L 190.364613 54.373479 
L 190.270435 55.349726 
L 190.239 56.33 
L 190.239 56.33 
L 190.239 76.22 
L 205.539 76.22 
L 220.839 76.22 
L 220.839 56.33 
" clip-path="url(#p5c9c4d9a51)" style="fill: none; stroke: #000000; stroke-width: 2; stroke-linecap: round"/>
   </g>
   <g id="line2d_30">
    <path d="M 213.189 86.93 
L 213.189 76.22 
" clip-path="url(#p5c9c4d9a51)" style="fill: none; stroke: #000000; stroke-width: 2; stroke-linecap: round"/>
   </g>
   <g id="line2d_31">
    <path d="M 197.889 86.93 
L 197.889 76.22 
" clip-path="url(#p5c9c4d9a51)" style="fill: none; stroke: #000000; stroke-width: 2; stroke-linecap: round"/>
   </g>
   <g id="line2d_32">
    <path d="M 205.539 33.686 
L 205.539 30.32 
" clip-path="url(#p5c9c4d9a51)" style="fill: none; stroke: #000000; stroke-width: 2; stroke-linecap: round"/>
   </g>
   <g id="line2d_33">
    <path d="M 99.969 86.93 
L 99.969 102.23 
L 156.579 102.23 
L 156.579 94.58 
" clip-path="url(#p5c9c4d9a51)" style="fill: none; stroke: #000000; stroke-width: 2; stroke-linecap: round"/>
   </g>
   <g id="line2d_34">
    <path d="M 220.839 56.33 
L 220.807565 55.349726 
L 220.713387 54.373479 
L 220.556855 53.405273 
L 220.338611 52.449085 
L 220.059553 51.508844 
L 219.720826 50.588415 
L 219.323824 49.691579 
L 218.870176 48.822021 
L 218.361748 47.983316 
L 217.800628 47.178909 
L 217.189123 46.412106 
L 216.529745 45.686057 
L 215.825204 45.003747 
L 215.078394 44.367978 
L 214.292385 43.781365 
L 213.470406 43.246316 
L 212.615836 42.765031 
L 211.732185 42.339487 
L 210.823085 41.971433 
L 209.892272 41.662382 
L 208.94357 41.413603 
L 207.980878 41.226119 
L 207.008152 41.1007 
L 206.029389 41.037861 
L 205.048611 41.037861 
L 204.069848 41.1007 
L 203.097122 41.226119 
L 202.13443 41.413603 
L 201.185728 41.662382 
L 200.254915 41.971433 
L 199.345815 42.339487 
L 198.462164 42.765031 
L 197.607594 43.246316 
L 196.785615 43.781365 
L 195.999606 44.367978 
L 195.252796 45.003747 
L 194.548255 45.686057 
L 193.888877 46.412106 
L 193.277372 47.178909 
L 192.716252 47.983316 
L 192.207824 48.822021 
L 191.754176 49.691579 
L 191.357174 50.588415 
L 191.018447 51.508844 
L 190.739389 52.449085 
L 190.521145 53.405273 
L 190.364613 54.373479 
L 190.270435 55.349726 
L 190.239 56.33 
L 190.239 56.33 
L 190.239 76.22 
L 205.539 76.22 
L 220.839 76.22 
L 220.839 56.33 
" clip-path="url(#p5c9c4d9a51)" style="fill: none; stroke: #000000; stroke-width: 2; stroke-linecap: round"/>
   </g>
   <g id="line2d_35">
    <path d="M 213.189 86.93 
L 213.189 76.22 
" clip-path="url(#p5c9c4d9a51)" style="fill: none; stroke: #000000; stroke-width: 2; stroke-linecap: round"/>
   </g>
   <g id="line2d_36">
    <path d="M 197.889 86.93 
L 197.889 76.22 
" clip-path="url(#p5c9c4d9a51)" style="fill: none; stroke: #000000; stroke-width: 2; stroke-linecap: round"/>
   </g>
   <g id="line2d_37">
    <path d="M 205.539 33.686 
L 205.539 30.32 
" clip-path="url(#p5c9c4d9a51)" style="fill: none; stroke: #000000; stroke-width: 2; stroke-linecap: round"/>
   </g>
   <g id="line2d_38">
    <path d="M 73.959 102.23 
L 74.939274 102.198565 
L 75.915521 102.104387 
L 76.883727 101.947855 
L 77.839915 101.729611 
L 78.780156 101.450553 
L 79.700585 101.111826 
L 80.597421 100.714824 
L 81.466979 100.261176 
L 82.305684 99.752748 
L 83.110091 99.191628 
L 83.876894 98.580123 
L 84.602943 97.920745 
L 85.285253 97.216204 
L 85.921022 96.469394 
L 86.507635 95.683385 
L 87.042684 94.861406 
L 87.523969 94.006836 
L 87.949513 93.123185 
L 88.317567 92.214085 
L 88.626618 91.283272 
L 88.875397 90.33457 
L 89.062881 89.371878 
L 89.1883 88.399152 
L 89.251139 87.420389 
L 89.251139 86.439611 
L 89.1883 85.460848 
L 89.062881 84.488122 
L 88.875397 83.52543 
L 88.626618 82.576728 
L 88.317567 81.645915 
L 87.949513 80.736815 
L 87.523969 79.853164 
L 87.042684 78.998594 
L 86.507635 78.176615 
L 85.921022 77.390606 
L 85.285253 76.643796 
L 84.602943 75.939255 
L 83.876894 75.279877 
L 83.110091 74.668372 
L 82.305684 74.107252 
L 81.466979 73.598824 
L 80.597421 73.145176 
L 79.700585 72.748174 
L 78.780156 72.409447 
L 77.839915 72.130389 
L 76.883727 71.912145 
L 75.915521 71.755613 
L 74.939274 71.661435 
L 73.959 71.63 
L 73.959 71.63 
L 54.069 71.63 
L 54.069 86.93 
L 54.069 102.23 
L 73.959 102.23 
" clip-path="url(#p5c9c4d9a51)" style="fill: none; stroke: #000000; stroke-width: 2; stroke-linecap: round"/>
   </g>
   <g id="line2d_39">
    <path d="M 43.359 94.58 
L 54.069 94.58 
" clip-path="url(#p5c9c4d9a51)" style="fill: none; stroke: #000000; stroke-width: 2; stroke-linecap: round"/>
   </g>
   <g id="line2d_40">
    <path d="M 43.359 79.28 
L 54.069 79.28 
" clip-path="url(#p5c9c4d9a51)" style="fill: none; stroke: #000000; stroke-width: 2; stroke-linecap: round"/>
   </g>
   <g id="line2d_41">
    <path d="M 96.603 86.93 
L 99.969 86.93 
" clip-path="url(#p5c9c4d9a51)" style="fill: none; stroke: #000000; stroke-width: 2; stroke-linecap: round"/>
   </g>
   <g id="line2d_42">
    <path d="M 73.959 102.23 
L 74.939274 102.198565 
L 75.915521 102.104387 
L 76.883727 101.947855 
L 77.839915 101.729611 
L 78.780156 101.450553 
L 79.700585 101.111826 
L 80.597421 100.714824 
L 81.466979 100.261176 
L 82.305684 99.752748 
L 83.110091 99.191628 
L 83.876894 98.580123 
L 84.602943 97.920745 
L 85.285253 97.216204 
L 85.921022 96.469394 
L 86.507635 95.683385 
L 87.042684 94.861406 
L 87.523969 94.006836 
L 87.949513 93.123185 
L 88.317567 92.214085 
L 88.626618 91.283272 
L 88.875397 90.33457 
L 89.062881 89.371878 
L 89.1883 88.399152 
L 89.251139 87.420389 
L 89.251139 86.439611 
L 89.1883 85.460848 
L 89.062881 84.488122 
L 88.875397 83.52543 
L 88.626618 82.576728 
L 88.317567 81.645915 
L 87.949513 80.736815 
L 87.523969 79.853164 
L 87.042684 78.998594 
L 86.507635 78.176615 
L 85.921022 77.390606 
L 85.285253 76.643796 
L 84.602943 75.939255 
L 83.876894 75.279877 
L 83.110091 74.668372 
L 82.305684 74.107252 
L 81.466979 73.598824 
L 80.597421 73.145176 
L 79.700585 72.748174 
L 78.780156 72.409447 
L 77.839915 72.130389 
L 76.883727 71.912145 
L 75.915521 71.755613 
L 74.939274 71.661435 
L 73.959 71.63 
L 73.959 71.63 
L 54.069 71.63 
L 54.069 86.93 
L 54.069 102.23 
L 73.959 102.23 
" clip-path="url(#p5c9c4d9a51)" style="fill: none; stroke: #000000; stroke-width: 2; stroke-linecap: round"/>
   </g>
   <g id="line2d_43">
    <path d="M 43.359 94.58 
L 54.069 94.58 
" clip-path="url(#p5c9c4d9a51)" style="fill: none; stroke: #000000; stroke-width: 2; stroke-linecap: round"/>
   </g>
   <g id="line2d_44">
    <path d="M 43.359 79.28 
L 54.069 79.28 
" clip-path="url(#p5c9c4d9a51)" style="fill: none; stroke: #000000; stroke-width: 2; stroke-linecap: round"/>
   </g>
   <g id="line2d_45">
    <path d="M 96.603 86.93 
L 99.969 86.93 
" clip-path="url(#p5c9c4d9a51)" style="fill: none; stroke: #000000; stroke-width: 2; stroke-linecap: round"/>
   </g>
   <g id="line2d_46">
    <path d="M 130.569 94.58 
L 131.549274 94.548565 
L 132.525521 94.454387 
L 133.493727 94.297855 
L 134.449915 94.079611 
L 135.390156 93.800553 
L 136.310585 93.461826 
L 137.207421 93.064824 
L 138.076979 92.611176 
L 138.915684 92.102748 
L 139.720091 91.541628 
L 140.486894 90.930123 
L 141.212943 90.270745 
L 141.895253 89.566204 
L 142.531022 88.819394 
L 143.117635 88.033385 
L 143.652684 87.211406 
L 144.133969 86.356836 
L 144.559513 85.473185 
L 144.927567 84.564085 
L 145.236618 83.633272 
L 145.485397 82.68457 
L 145.672881 81.721878 
L 145.7983 80.749152 
L 145.861139 79.770389 
L 145.861139 78.789611 
L 145.7983 77.810848 
L 145.672881 76.838122 
L 145.485397 75.87543 
L 145.236618 74.926728 
L 144.927567 73.995915 
L 144.559513 73.086815 
L 144.133969 72.203164 
L 143.652684 71.348594 
L 143.117635 70.526615 
L 142.531022 69.740606 
L 141.895253 68.993796 
L 141.212943 68.289255 
L 140.486894 67.629877 
L 139.720091 67.018372 
L 138.915684 66.457252 
L 138.076979 65.948824 
L 137.207421 65.495176 
L 136.310585 65.098174 
L 135.390156 64.759447 
L 134.449915 64.480389 
L 133.493727 64.262145 
L 132.525521 64.105613 
L 131.549274 64.011435 
L 130.569 63.98 
L 130.569 63.98 
L 110.679 63.98 
L 110.679 79.28 
L 110.679 94.58 
L 130.569 94.58 
" clip-path="url(#p5c9c4d9a51)" style="fill: none; stroke: #000000; stroke-width: 2; stroke-linecap: round"/>
   </g>
   <g id="line2d_47">
    <path d="M 99.969 86.93 
L 110.679 86.93 
" clip-path="url(#p5c9c4d9a51)" style="fill: none; stroke: #000000; stroke-width: 2; stroke-linecap: round"/>
   </g>
   <g id="line2d_48">
    <path d="M 99.969 71.63 
L 110.679 71.63 
" clip-path="url(#p5c9c4d9a51)" style="fill: none; stroke: #000000; stroke-width: 2; stroke-linecap: round"/>
   </g>
   <g id="line2d_49">
    <path d="M 153.213 79.28 
L 156.579 79.28 
" clip-path="url(#p5c9c4d9a51)" style="fill: none; stroke: #000000; stroke-width: 2; stroke-linecap: round"/>
   </g>
   <g id="line2d_50">
    <path d="M 130.569 94.58 
L 131.549274 94.548565 
L 132.525521 94.454387 
L 133.493727 94.297855 
L 134.449915 94.079611 
L 135.390156 93.800553 
L 136.310585 93.461826 
L 137.207421 93.064824 
L 138.076979 92.611176 
L 138.915684 92.102748 
L 139.720091 91.541628 
L 140.486894 90.930123 
L 141.212943 90.270745 
L 141.895253 89.566204 
L 142.531022 88.819394 
L 143.117635 88.033385 
L 143.652684 87.211406 
L 144.133969 86.356836 
L 144.559513 85.473185 
L 144.927567 84.564085 
L 145.236618 83.633272 
L 145.485397 82.68457 
L 145.672881 81.721878 
L 145.7983 80.749152 
L 145.861139 79.770389 
L 145.861139 78.789611 
L 145.7983 77.810848 
L 145.672881 76.838122 
L 145.485397 75.87543 
L 145.236618 74.926728 
L 144.927567 73.995915 
L 144.559513 73.086815 
L 144.133969 72.203164 
L 143.652684 71.348594 
L 143.117635 70.526615 
L 142.531022 69.740606 
L 141.895253 68.993796 
L 141.212943 68.289255 
L 140.486894 67.629877 
L 139.720091 67.018372 
L 138.915684 66.457252 
L 138.076979 65.948824 
L 137.207421 65.495176 
L 136.310585 65.098174 
L 135.390156 64.759447 
L 134.449915 64.480389 
L 133.493727 64.262145 
L 132.525521 64.105613 
L 131.549274 64.011435 
L 130.569 63.98 
L 130.569 63.98 
L 110.679 63.98 
L 110.679 79.28 
L 110.679 94.58 
L 130.569 94.58 
" clip-path="url(#p5c9c4d9a51)" style="fill: none; stroke: #000000; stroke-width: 2; stroke-linecap: round"/>
   </g>
   <g id="line2d_51">
    <path d="M 99.969 86.93 
L 110.679 86.93 
" clip-path="url(#p5c9c4d9a51)" style="fill: none; stroke: #000000; stroke-width: 2; stroke-linecap: round"/>
   </g>
   <g id="line2d_52">
    <path d="M 99.969 71.63 
L 110.679 71.63 
" clip-path="url(#p5c9c4d9a51)" style="fill: none; stroke: #000000; stroke-width: 2; stroke-linecap: round"/>
   </g>
   <g id="line2d_53">
    <path d="M 153.213 79.28 
L 156.579 79.28 
" clip-path="url(#p5c9c4d9a51)" style="fill: none; stroke: #000000; stroke-width: 2; stroke-linecap: round"/>
   </g>
   <g id="line2d_54">
    <path d="M 187.179 102.23 
L 188.159274 102.198565 
L 189.135521 102.104387 
L 190.103727 101.947855 
L 191.059915 101.729611 
L 192.000156 101.450553 
L 192.920585 101.111826 
L 193.817421 100.714824 
L 194.686979 100.261176 
L 195.525684 99.752748 
L 196.330091 99.191628 
L 197.096894 98.580123 
L 197.822943 97.920745 
L 198.505253 97.216204 
L 199.141022 96.469394 
L 199.727635 95.683385 
L 200.262684 94.861406 
L 200.743969 94.006836 
L 201.169513 93.123185 
L 201.537567 92.214085 
L 201.846618 91.283272 
L 202.095397 90.33457 
L 202.282881 89.371878 
L 202.4083 88.399152 
L 202.471139 87.420389 
L 202.471139 86.439611 
L 202.4083 85.460848 
L 202.282881 84.488122 
L 202.095397 83.52543 
L 201.846618 82.576728 
L 201.537567 81.645915 
L 201.169513 80.736815 
L 200.743969 79.853164 
L 200.262684 78.998594 
L 199.727635 78.176615 
L 199.141022 77.390606 
L 198.505253 76.643796 
L 197.822943 75.939255 
L 197.096894 75.279877 
L 196.330091 74.668372 
L 195.525684 74.107252 
L 194.686979 73.598824 
L 193.817421 73.145176 
L 192.920585 72.748174 
L 192.000156 72.409447 
L 191.059915 72.130389 
L 190.103727 71.912145 
L 189.135521 71.755613 
L 188.159274 71.661435 
L 187.179 71.63 
L 187.179 71.63 
L 167.289 71.63 
L 167.289 86.93 
L 167.289 102.23 
L 187.179 102.23 
" clip-path="url(#p5c9c4d9a51)" style="fill: none; stroke: #000000; stroke-width: 2; stroke-linecap: round"/>
   </g>
   <g id="line2d_55">
    <path d="M 156.579 94.58 
L 167.289 94.58 
" clip-path="url(#p5c9c4d9a51)" style="fill: none; stroke: #000000; stroke-width: 2; stroke-linecap: round"/>
   </g>
   <g id="line2d_56">
    <path d="M 156.579 79.28 
L 167.289 79.28 
" clip-path="url(#p5c9c4d9a51)" style="fill: none; stroke: #000000; stroke-width: 2; stroke-linecap: round"/>
   </g>
   <g id="line2d_57">
    <path d="M 209.823 86.93 
L 213.189 86.93 
" clip-path="url(#p5c9c4d9a51)" style="fill: none; stroke: #000000; stroke-width: 2; stroke-linecap: round"/>
   </g>
   <g id="line2d_58">
    <path d="M 187.179 102.23 
L 188.159274 102.198565 
L 189.135521 102.104387 
L 190.103727 101.947855 
L 191.059915 101.729611 
L 192.000156 101.450553 
L 192.920585 101.111826 
L 193.817421 100.714824 
L 194.686979 100.261176 
L 195.525684 99.752748 
L 196.330091 99.191628 
L 197.096894 98.580123 
L 197.822943 97.920745 
L 198.505253 97.216204 
L 199.141022 96.469394 
L 199.727635 95.683385 
L 200.262684 94.861406 
L 200.743969 94.006836 
L 201.169513 93.123185 
L 201.537567 92.214085 
L 201.846618 91.283272 
L 202.095397 90.33457 
L 202.282881 89.371878 
L 202.4083 88.399152 
L 202.471139 87.420389 
L 202.471139 86.439611 
L 202.4083 85.460848 
L 202.282881 84.488122 
L 202.095397 83.52543 
L 201.846618 82.576728 
L 201.537567 81.645915 
L 201.169513 80.736815 
L 200.743969 79.853164 
L 200.262684 78.998594 
L 199.727635 78.176615 
L 199.141022 77.390606 
L 198.505253 76.643796 
L 197.822943 75.939255 
L 197.096894 75.279877 
L 196.330091 74.668372 
L 195.525684 74.107252 
L 194.686979 73.598824 
L 193.817421 73.145176 
L 192.920585 72.748174 
L 192.000156 72.409447 
L 191.059915 72.130389 
L 190.103727 71.912145 
L 189.135521 71.755613 
L 188.159274 71.661435 
L 187.179 71.63 
L 187.179 71.63 
L 167.289 71.63 
L 167.289 86.93 
L 167.289 102.23 
L 187.179 102.23 
" clip-path="url(#p5c9c4d9a51)" style="fill: none; stroke: #000000; stroke-width: 2; stroke-linecap: round"/>
   </g>
   <g id="line2d_59">
    <path d="M 156.579 94.58 
L 167.289 94.58 
" clip-path="url(#p5c9c4d9a51)" style="fill: none; stroke: #000000; stroke-width: 2; stroke-linecap: round"/>
   </g>
   <g id="line2d_60">
    <path d="M 156.579 79.28 
L 167.289 79.28 
" clip-path="url(#p5c9c4d9a51)" style="fill: none; stroke: #000000; stroke-width: 2; stroke-linecap: round"/>
   </g>
   <g id="line2d_61">
    <path d="M 209.823 86.93 
L 213.189 86.93 
" clip-path="url(#p5c9c4d9a51)" style="fill: none; stroke: #000000; stroke-width: 2; stroke-linecap: round"/>
   </g>
   <g id="line2d_62">
    <path d="M 220.839 56.33 
L 220.807565 55.349726 
L 220.713387 54.373479 
L 220.556855 53.405273 
L 220.338611 52.449085 
L 220.059553 51.508844 
L 219.720826 50.588415 
L 219.323824 49.691579 
L 218.870176 48.822021 
L 218.361748 47.983316 
L 217.800628 47.178909 
L 217.189123 46.412106 
L 216.529745 45.686057 
L 215.825204 45.003747 
L 215.078394 44.367978 
L 214.292385 43.781365 
L 213.470406 43.246316 
L 212.615836 42.765031 
L 211.732185 42.339487 
L 210.823085 41.971433 
L 209.892272 41.662382 
L 208.94357 41.413603 
L 207.980878 41.226119 
L 207.008152 41.1007 
L 206.029389 41.037861 
L 205.048611 41.037861 
L 204.069848 41.1007 
L 203.097122 41.226119 
L 202.13443 41.413603 
L 201.185728 41.662382 
L 200.254915 41.971433 
L 199.345815 42.339487 
L 198.462164 42.765031 
L 197.607594 43.246316 
L 196.785615 43.781365 
L 195.999606 44.367978 
L 195.252796 45.003747 
L 194.548255 45.686057 
L 193.888877 46.412106 
L 193.277372 47.178909 
L 192.716252 47.983316 
L 192.207824 48.822021 
L 191.754176 49.691579 
L 191.357174 50.588415 
L 191.018447 51.508844 
L 190.739389 52.449085 
L 190.521145 53.405273 
L 190.364613 54.373479 
L 190.270435 55.349726 
L 190.239 56.33 
L 190.239 56.33 
L 190.239 76.22 
L 205.539 76.22 
L 220.839 76.22 
L 220.839 56.33 
" clip-path="url(#p5c9c4d9a51)" style="fill: none; stroke: #000000; stroke-width: 2; stroke-linecap: round"/>
   </g>
   <g id="line2d_63">
    <path d="M 213.189 86.93 
L 213.189 76.22 
" clip-path="url(#p5c9c4d9a51)" style="fill: none; stroke: #000000; stroke-width: 2; stroke-linecap: round"/>
   </g>
   <g id="line2d_64">
    <path d="M 197.889 86.93 
L 197.889 76.22 
" clip-path="url(#p5c9c4d9a51)" style="fill: none; stroke: #000000; stroke-width: 2; stroke-linecap: round"/>
   </g>
   <g id="line2d_65">
    <path d="M 205.539 33.686 
L 205.539 30.32 
" clip-path="url(#p5c9c4d9a51)" style="fill: none; stroke: #000000; stroke-width: 2; stroke-linecap: round"/>
   </g>
   <g id="line2d_66">
    <path d="M 220.839 56.33 
L 220.807565 55.349726 
L 220.713387 54.373479 
L 220.556855 53.405273 
L 220.338611 52.449085 
L 220.059553 51.508844 
L 219.720826 50.588415 
L 219.323824 49.691579 
L 218.870176 48.822021 
L 218.361748 47.983316 
L 217.800628 47.178909 
L 217.189123 46.412106 
L 216.529745 45.686057 
L 215.825204 45.003747 
L 215.078394 44.367978 
L 214.292385 43.781365 
L 213.470406 43.246316 
L 212.615836 42.765031 
L 211.732185 42.339487 
L 210.823085 41.971433 
L 209.892272 41.662382 
L 208.94357 41.413603 
L 207.980878 41.226119 
L 207.008152 41.1007 
L 206.029389 41.037861 
L 205.048611 41.037861 
L 204.069848 41.1007 
L 203.097122 41.226119 
L 202.13443 41.413603 
L 201.185728 41.662382 
L 200.254915 41.971433 
L 199.345815 42.339487 
L 198.462164 42.765031 
L 197.607594 43.246316 
L 196.785615 43.781365 
L 195.999606 44.367978 
L 195.252796 45.003747 
L 194.548255 45.686057 
L 193.888877 46.412106 
L 193.277372 47.178909 
L 192.716252 47.983316 
L 192.207824 48.822021 
L 191.754176 49.691579 
L 191.357174 50.588415 
L 191.018447 51.508844 
L 190.739389 52.449085 
L 190.521145 53.405273 
L 190.364613 54.373479 
L 190.270435 55.349726 
L 190.239 56.33 
L 190.239 56.33 
L 190.239 76.22 
L 205.539 76.22 
L 220.839 76.22 
L 220.839 56.33 
" clip-path="url(#p5c9c4d9a51)" style="fill: none; stroke: #000000; stroke-width: 2; stroke-linecap: round"/>
   </g>
   <g id="line2d_67">
    <path d="M 213.189 86.93 
L 213.189 76.22 
" clip-path="url(#p5c9c4d9a51)" style="fill: none; stroke: #000000; stroke-width: 2; stroke-linecap: round"/>
   </g>
   <g id="line2d_68">
    <path d="M 197.889 86.93 
L 197.889 76.22 
" clip-path="url(#p5c9c4d9a51)" style="fill: none; stroke: #000000; stroke-width: 2; stroke-linecap: round"/>
   </g>
   <g id="line2d_69">
    <path d="M 205.539 33.686 
L 205.539 30.32 
" clip-path="url(#p5c9c4d9a51)" style="fill: none; stroke: #000000; stroke-width: 2; stroke-linecap: round"/>
   </g>
   <g id="line2d_70">
    <path d="M 99.969 86.93 
L 99.969 102.23 
L 156.579 102.23 
L 156.579 94.58 
" clip-path="url(#p5c9c4d9a51)" style="fill: none; stroke: #000000; stroke-width: 2; stroke-linecap: round"/>
   </g>
   <g id="line2d_71">
    <path d="M 220.839 56.33 
L 220.807565 55.349726 
L 220.713387 54.373479 
L 220.556855 53.405273 
L 220.338611 52.449085 
L 220.059553 51.508844 
L 219.720826 50.588415 
L 219.323824 49.691579 
L 218.870176 48.822021 
L 218.361748 47.983316 
L 217.800628 47.178909 
L 217.189123 46.412106 
L 216.529745 45.686057 
L 215.825204 45.003747 
L 215.078394 44.367978 
L 214.292385 43.781365 
L 213.470406 43.246316 
L 212.615836 42.765031 
L 211.732185 42.339487 
L 210.823085 41.971433 
L 209.892272 41.662382 
L 208.94357 41.413603 
L 207.980878 41.226119 
L 207.008152 41.1007 
L 206.029389 41.037861 
L 205.048611 41.037861 
L 204.069848 41.1007 
L 203.097122 41.226119 
L 202.13443 41.413603 
L 201.185728 41.662382 
L 200.254915 41.971433 
L 199.345815 42.339487 
L 198.462164 42.765031 
L 197.607594 43.246316 
L 196.785615 43.781365 
L 195.999606 44.367978 
L 195.252796 45.003747 
L 194.548255 45.686057 
L 193.888877 46.412106 
L 193.277372 47.178909 
L 192.716252 47.983316 
L 192.207824 48.822021 
L 191.754176 49.691579 
L 191.357174 50.588415 
L 191.018447 51.508844 
L 190.739389 52.449085 
L 190.521145 53.405273 
L 190.364613 54.373479 
L 190.270435 55.349726 
L 190.239 56.33 
L 190.239 56.33 
L 190.239 76.22 
L 205.539 76.22 
L 220.839 76.22 
L 220.839 56.33 
" clip-path="url(#p5c9c4d9a51)" style="fill: none; stroke: #000000; stroke-width: 2; stroke-linecap: round"/>
   </g>
   <g id="line2d_72">
    <path d="M 213.189 86.93 
L 213.189 76.22 
" clip-path="url(#p5c9c4d9a51)" style="fill: none; stroke: #000000; stroke-width: 2; stroke-linecap: round"/>
   </g>
   <g id="line2d_73">
    <path d="M 197.889 86.93 
L 197.889 76.22 
" clip-path="url(#p5c9c4d9a51)" style="fill: none; stroke: #000000; stroke-width: 2; stroke-linecap: round"/>
   </g>
   <g id="line2d_74">
    <path d="M 205.539 33.686 
L 205.539 30.32 
" clip-path="url(#p5c9c4d9a51)" style="fill: none; stroke: #000000; stroke-width: 2; stroke-linecap: round"/>
   </g>
   <g id="text_1">
    <g clip-path="url(#p5c9c4d9a51)">
     <!-- 0.75 -->
     <g transform="translate(12.466969 82.729219) scale(0.125 -0.125)">
      <defs>
       <path id="DejaVuSans-30" d="M 2034 4250 
Q 1547 4250 1301 3770 
Q 1056 3291 1056 2328 
Q 1056 1369 1301 889 
Q 1547 409 2034 409 
Q 2525 409 2770 889 
Q 3016 1369 3016 2328 
Q 3016 3291 2770 3770 
Q 2525 4250 2034 4250 
z
M 2034 4750 
Q 2819 4750 3233 4129 
Q 3647 3509 3647 2328 
Q 3647 1150 3233 529 
Q 2819 -91 2034 -91 
Q 1250 -91 836 529 
Q 422 1150 422 2328 
Q 422 3509 836 4129 
Q 1250 4750 2034 4750 
z
" transform="scale(0.015625)"/>
       <path id="DejaVuSans-2e" d="M 684 794 
L 1344 794 
L 1344 0 
L 684 0 
L 684 794 
z
" transform="scale(0.015625)"/>
       <path id="DejaVuSans-37" d="M 525 4666 
L 3525 4666 
L 3525 4397 
L 1831 0 
L 1172 0 
L 2766 4134 
L 525 4134 
L 525 4666 
z
" transform="scale(0.015625)"/>
       <path id="DejaVuSans-35" d="M 691 4666 
L 3169 4666 
L 3169 4134 
L 1269 4134 
L 1269 2991 
Q 1406 3038 1543 3061 
Q 1681 3084 1819 3084 
Q 2600 3084 3056 2656 
Q 3513 2228 3513 1497 
Q 3513 744 3044 326 
Q 2575 -91 1722 -91 
Q 1428 -91 1123 -41 
Q 819 9 494 109 
L 494 744 
Q 775 591 1075 516 
Q 1375 441 1709 441 
Q 2250 441 2565 725 
Q 2881 1009 2881 1497 
Q 2881 1984 2565 2268 
Q 2250 2553 1709 2553 
Q 1456 2553 1204 2497 
Q 953 2441 691 2322 
L 691 4666 
z
" transform="scale(0.015625)"/>
      </defs>
      <use xlink:href="#DejaVuSans-30"/>
      <use xlink:href="#DejaVuSans-2e" x="63.623047"/>
      <use xlink:href="#DejaVuSans-37" x="95.410156"/>
      <use xlink:href="#DejaVuSans-35" x="159.033203"/>
     </g>
    </g>
   </g>
   <g id="text_2">
    <g clip-path="url(#p5c9c4d9a51)">
     <!-- X -->
     <g transform="translate(31.7365 98.029219) scale(0.125 -0.125)">
      <defs>
       <path id="DejaVuSans-58" d="M 403 4666 
L 1081 4666 
L 2241 2931 
L 3406 4666 
L 4084 4666 
L 2584 2425 
L 4184 0 
L 3506 0 
L 2194 1984 
L 872 0 
L 191 0 
L 1856 2491 
L 403 4666 
z
" transform="scale(0.015625)"/>
      </defs>
      <use xlink:href="#DejaVuSans-58"/>
     </g>
    </g>
   </g>
   <g id="text_3">
    <g clip-path="url(#p5c9c4d9a51)">
     <!-- 0.75 -->
     <g transform="translate(12.466969 82.729219) scale(0.125 -0.125)">
      <use xlink:href="#DejaVuSans-30"/>
      <use xlink:href="#DejaVuSans-2e" x="63.623047"/>
      <use xlink:href="#DejaVuSans-37" x="95.410156"/>
      <use xlink:href="#DejaVuSans-35" x="159.033203"/>
     </g>
    </g>
   </g>
   <g id="text_4">
    <g clip-path="url(#p5c9c4d9a51)">
     <!-- X -->
     <g transform="translate(31.7365 98.029219) scale(0.125 -0.125)">
      <use xlink:href="#DejaVuSans-58"/>
     </g>
    </g>
   </g>
   <g id="text_5">
    <g clip-path="url(#p5c9c4d9a51)">
     <!-- G1 -->
     <g transform="translate(62.844664 87.319219) scale(0.125 -0.125)">
      <defs>
       <path id="DejaVuSans-47" d="M 3809 666 
L 3809 1919 
L 2778 1919 
L 2778 2438 
L 4434 2438 
L 4434 434 
Q 4069 175 3628 42 
Q 3188 -91 2688 -91 
Q 1594 -91 976 548 
Q 359 1188 359 2328 
Q 359 3472 976 4111 
Q 1594 4750 2688 4750 
Q 3144 4750 3555 4637 
Q 3966 4525 4313 4306 
L 4313 3634 
Q 3963 3931 3569 4081 
Q 3175 4231 2741 4231 
Q 1884 4231 1454 3753 
Q 1025 3275 1025 2328 
Q 1025 1384 1454 906 
Q 1884 428 2741 428 
Q 3075 428 3337 486 
Q 3600 544 3809 666 
z
" transform="scale(0.015625)"/>
       <path id="DejaVuSans-31" d="M 794 531 
L 1825 531 
L 1825 4091 
L 703 3866 
L 703 4441 
L 1819 4666 
L 2450 4666 
L 2450 531 
L 3481 531 
L 3481 0 
L 794 0 
L 794 531 
z
" transform="scale(0.015625)"/>
      </defs>
      <use xlink:href="#DejaVuSans-47"/>
      <use xlink:href="#DejaVuSans-31" x="77.490234"/>
     </g>
    </g>
   </g>
   <g id="text_6">
    <g clip-path="url(#p5c9c4d9a51)">
     <!-- 0.75 -->
     <g transform="translate(12.466969 82.729219) scale(0.125 -0.125)">
      <use xlink:href="#DejaVuSans-30"/>
      <use xlink:href="#DejaVuSans-2e" x="63.623047"/>
      <use xlink:href="#DejaVuSans-37" x="95.410156"/>
      <use xlink:href="#DejaVuSans-35" x="159.033203"/>
     </g>
    </g>
   </g>
   <g id="text_7">
    <g clip-path="url(#p5c9c4d9a51)">
     <!-- X -->
     <g transform="translate(31.7365 98.029219) scale(0.125 -0.125)">
      <use xlink:href="#DejaVuSans-58"/>
     </g>
    </g>
   </g>
   <g id="text_8">
    <g clip-path="url(#p5c9c4d9a51)">
     <!-- 0.75 -->
     <g transform="translate(12.466969 82.729219) scale(0.125 -0.125)">
      <use xlink:href="#DejaVuSans-30"/>
      <use xlink:href="#DejaVuSans-2e" x="63.623047"/>
      <use xlink:href="#DejaVuSans-37" x="95.410156"/>
      <use xlink:href="#DejaVuSans-35" x="159.033203"/>
     </g>
    </g>
   </g>
   <g id="text_9">
    <g clip-path="url(#p5c9c4d9a51)">
     <!-- X -->
     <g transform="translate(31.7365 98.029219) scale(0.125 -0.125)">
      <use xlink:href="#DejaVuSans-58"/>
     </g>
    </g>
   </g>
   <g id="text_10">
    <g clip-path="url(#p5c9c4d9a51)">
     <!-- G1 -->
     <g transform="translate(62.844664 87.319219) scale(0.125 -0.125)">
      <use xlink:href="#DejaVuSans-47"/>
      <use xlink:href="#DejaVuSans-31" x="77.490234"/>
     </g>
    </g>
   </g>
   <g id="text_11">
    <g clip-path="url(#p5c9c4d9a51)">
     <!-- 0.6667 -->
     <g transform="translate(56.230719 59.779219) scale(0.125 -0.125)">
      <defs>
       <path id="DejaVuSans-36" d="M 2113 2584 
Q 1688 2584 1439 2293 
Q 1191 2003 1191 1497 
Q 1191 994 1439 701 
Q 1688 409 2113 409 
Q 2538 409 2786 701 
Q 3034 994 3034 1497 
Q 3034 2003 2786 2293 
Q 2538 2584 2113 2584 
z
M 3366 4563 
L 3366 3988 
Q 3128 4100 2886 4159 
Q 2644 4219 2406 4219 
Q 1781 4219 1451 3797 
Q 1122 3375 1075 2522 
Q 1259 2794 1537 2939 
Q 1816 3084 2150 3084 
Q 2853 3084 3261 2657 
Q 3669 2231 3669 1497 
Q 3669 778 3244 343 
Q 2819 -91 2113 -91 
Q 1303 -91 875 529 
Q 447 1150 447 2328 
Q 447 3434 972 4092 
Q 1497 4750 2381 4750 
Q 2619 4750 2861 4703 
Q 3103 4656 3366 4563 
z
" transform="scale(0.015625)"/>
      </defs>
      <use xlink:href="#DejaVuSans-30"/>
      <use xlink:href="#DejaVuSans-2e" x="63.623047"/>
      <use xlink:href="#DejaVuSans-36" x="95.410156"/>
      <use xlink:href="#DejaVuSans-36" x="159.033203"/>
      <use xlink:href="#DejaVuSans-36" x="222.65625"/>
      <use xlink:href="#DejaVuSans-37" x="286.279297"/>
     </g>
    </g>
   </g>
   <g id="text_12">
    <g clip-path="url(#p5c9c4d9a51)">
     <!-- 0.6667 -->
     <g transform="translate(56.230719 59.779219) scale(0.125 -0.125)">
      <use xlink:href="#DejaVuSans-30"/>
      <use xlink:href="#DejaVuSans-2e" x="63.623047"/>
      <use xlink:href="#DejaVuSans-36" x="95.410156"/>
      <use xlink:href="#DejaVuSans-36" x="159.033203"/>
      <use xlink:href="#DejaVuSans-36" x="222.65625"/>
      <use xlink:href="#DejaVuSans-37" x="286.279297"/>
     </g>
    </g>
   </g>
   <g id="text_13">
    <g clip-path="url(#p5c9c4d9a51)">
     <!-- G2 -->
     <g transform="translate(119.454664 79.669219) scale(0.125 -0.125)">
      <defs>
       <path id="DejaVuSans-32" d="M 1228 531 
L 3431 531 
L 3431 0 
L 469 0 
L 469 531 
Q 828 903 1448 1529 
Q 2069 2156 2228 2338 
Q 2531 2678 2651 2914 
Q 2772 3150 2772 3378 
Q 2772 3750 2511 3984 
Q 2250 4219 1831 4219 
Q 1534 4219 1204 4116 
Q 875 4013 500 3803 
L 500 4441 
Q 881 4594 1212 4672 
Q 1544 4750 1819 4750 
Q 2544 4750 2975 4387 
Q 3406 4025 3406 3419 
Q 3406 3131 3298 2873 
Q 3191 2616 2906 2266 
Q 2828 2175 2409 1742 
Q 1991 1309 1228 531 
z
" transform="scale(0.015625)"/>
      </defs>
      <use xlink:href="#DejaVuSans-47"/>
      <use xlink:href="#DejaVuSans-32" x="77.490234"/>
     </g>
    </g>
   </g>
   <g id="text_14">
    <g clip-path="url(#p5c9c4d9a51)">
     <!-- 0.6667 -->
     <g transform="translate(56.230719 59.779219) scale(0.125 -0.125)">
      <use xlink:href="#DejaVuSans-30"/>
      <use xlink:href="#DejaVuSans-2e" x="63.623047"/>
      <use xlink:href="#DejaVuSans-36" x="95.410156"/>
      <use xlink:href="#DejaVuSans-36" x="159.033203"/>
      <use xlink:href="#DejaVuSans-36" x="222.65625"/>
      <use xlink:href="#DejaVuSans-37" x="286.279297"/>
     </g>
    </g>
   </g>
   <g id="text_15">
    <g clip-path="url(#p5c9c4d9a51)">
     <!-- 0.6667 -->
     <g transform="translate(56.230719 59.779219) scale(0.125 -0.125)">
      <use xlink:href="#DejaVuSans-30"/>
      <use xlink:href="#DejaVuSans-2e" x="63.623047"/>
      <use xlink:href="#DejaVuSans-36" x="95.410156"/>
      <use xlink:href="#DejaVuSans-36" x="159.033203"/>
      <use xlink:href="#DejaVuSans-36" x="222.65625"/>
      <use xlink:href="#DejaVuSans-37" x="286.279297"/>
     </g>
    </g>
   </g>
   <g id="text_16">
    <g clip-path="url(#p5c9c4d9a51)">
     <!-- G2 -->
     <g transform="translate(119.454664 79.669219) scale(0.125 -0.125)">
      <use xlink:href="#DejaVuSans-47"/>
      <use xlink:href="#DejaVuSans-32" x="77.490234"/>
     </g>
    </g>
   </g>
   <g id="text_17">
    <g clip-path="url(#p5c9c4d9a51)">
     <!-- G3 -->
     <g transform="translate(176.064664 87.319219) scale(0.125 -0.125)">
      <defs>
       <path id="DejaVuSans-33" d="M 2597 2516 
Q 3050 2419 3304 2112 
Q 3559 1806 3559 1356 
Q 3559 666 3084 287 
Q 2609 -91 1734 -91 
Q 1441 -91 1130 -33 
Q 819 25 488 141 
L 488 750 
Q 750 597 1062 519 
Q 1375 441 1716 441 
Q 2309 441 2620 675 
Q 2931 909 2931 1356 
Q 2931 1769 2642 2001 
Q 2353 2234 1838 2234 
L 1294 2234 
L 1294 2753 
L 1863 2753 
Q 2328 2753 2575 2939 
Q 2822 3125 2822 3475 
Q 2822 3834 2567 4026 
Q 2313 4219 1838 4219 
Q 1578 4219 1281 4162 
Q 984 4106 628 3988 
L 628 4550 
Q 988 4650 1302 4700 
Q 1616 4750 1894 4750 
Q 2613 4750 3031 4423 
Q 3450 4097 3450 3541 
Q 3450 3153 3228 2886 
Q 3006 2619 2597 2516 
z
" transform="scale(0.015625)"/>
      </defs>
      <use xlink:href="#DejaVuSans-47"/>
      <use xlink:href="#DejaVuSans-33" x="77.490234"/>
     </g>
    </g>
   </g>
   <g id="text_18">
    <g clip-path="url(#p5c9c4d9a51)">
     <!-- G3 -->
     <g transform="translate(176.064664 87.319219) scale(0.125 -0.125)">
      <use xlink:href="#DejaVuSans-47"/>
      <use xlink:href="#DejaVuSans-33" x="77.490234"/>
     </g>
    </g>
   </g>
   <g id="text_19">
    <g clip-path="url(#p5c9c4d9a51)">
     <!-- 0.2 -->
     <g transform="translate(162.710094 90.379219) scale(0.125 -0.125)">
      <use xlink:href="#DejaVuSans-30"/>
      <use xlink:href="#DejaVuSans-2e" x="63.623047"/>
      <use xlink:href="#DejaVuSans-32" x="95.410156"/>
     </g>
    </g>
   </g>
   <g id="text_20">
    <g clip-path="url(#p5c9c4d9a51)">
     <!-- $f(x)$ -->
     <g transform="translate(205.539 30.709219) scale(0.125 -0.125)">
      <defs>
       <path id="DejaVuSans-Oblique-66" d="M 3059 4863 
L 2969 4384 
L 2419 4384 
Q 2106 4384 1964 4261 
Q 1822 4138 1753 3809 
L 1691 3500 
L 2638 3500 
L 2553 3053 
L 1606 3053 
L 1013 0 
L 434 0 
L 1031 3053 
L 481 3053 
L 563 3500 
L 1113 3500 
L 1159 3744 
Q 1278 4363 1576 4613 
Q 1875 4863 2516 4863 
L 3059 4863 
z
" transform="scale(0.015625)"/>
       <path id="DejaVuSans-28" d="M 1984 4856 
Q 1566 4138 1362 3434 
Q 1159 2731 1159 2009 
Q 1159 1288 1364 580 
Q 1569 -128 1984 -844 
L 1484 -844 
Q 1016 -109 783 600 
Q 550 1309 550 2009 
Q 550 2706 781 3412 
Q 1013 4119 1484 4856 
L 1984 4856 
z
" transform="scale(0.015625)"/>
       <path id="DejaVuSans-Oblique-78" d="M 3841 3500 
L 2234 1784 
L 3219 0 
L 2559 0 
L 1819 1388 
L 531 0 
L -166 0 
L 1556 1844 
L 641 3500 
L 1300 3500 
L 1972 2234 
L 3144 3500 
L 3841 3500 
z
" transform="scale(0.015625)"/>
       <path id="DejaVuSans-29" d="M 513 4856 
L 1013 4856 
Q 1481 4119 1714 3412 
Q 1947 2706 1947 2009 
Q 1947 1309 1714 600 
Q 1481 -109 1013 -844 
L 513 -844 
Q 928 -128 1133 580 
Q 1338 1288 1338 2009 
Q 1338 2731 1133 3434 
Q 928 4138 513 4856 
z
" transform="scale(0.015625)"/>
      </defs>
      <use xlink:href="#DejaVuSans-Oblique-66" transform="translate(0 0.015625)"/>
      <use xlink:href="#DejaVuSans-28" transform="translate(35.205078 0.015625)"/>
      <use xlink:href="#DejaVuSans-Oblique-78" transform="translate(74.21875 0.015625)"/>
      <use xlink:href="#DejaVuSans-29" transform="translate(133.398438 0.015625)"/>
     </g>
    </g>
   </g>
   <g id="text_21">
    <g clip-path="url(#p5c9c4d9a51)">
     <!-- 0.2 -->
     <g transform="translate(162.710094 90.379219) scale(0.125 -0.125)">
      <use xlink:href="#DejaVuSans-30"/>
      <use xlink:href="#DejaVuSans-2e" x="63.623047"/>
      <use xlink:href="#DejaVuSans-32" x="95.410156"/>
     </g>
    </g>
   </g>
   <g id="text_22">
    <g clip-path="url(#p5c9c4d9a51)">
     <!-- $f(x)$ -->
     <g transform="translate(205.539 30.709219) scale(0.125 -0.125)">
      <use xlink:href="#DejaVuSans-Oblique-66" transform="translate(0 0.015625)"/>
      <use xlink:href="#DejaVuSans-28" transform="translate(35.205078 0.015625)"/>
      <use xlink:href="#DejaVuSans-Oblique-78" transform="translate(74.21875 0.015625)"/>
      <use xlink:href="#DejaVuSans-29" transform="translate(133.398438 0.015625)"/>
     </g>
    </g>
   </g>
   <g id="text_23">
    <g clip-path="url(#p5c9c4d9a51)">
     <!-- G4 -->
     <g transform="translate(193.659664 62.074219) scale(0.125 -0.125)">
      <defs>
       <path id="DejaVuSans-34" d="M 2419 4116 
L 825 1625 
L 2419 1625 
L 2419 4116 
z
M 2253 4666 
L 3047 4666 
L 3047 1625 
L 3713 1625 
L 3713 1100 
L 3047 1100 
L 3047 0 
L 2419 0 
L 2419 1100 
L 313 1100 
L 313 1709 
L 2253 4666 
z
" transform="scale(0.015625)"/>
      </defs>
      <use xlink:href="#DejaVuSans-47"/>
      <use xlink:href="#DejaVuSans-34" x="77.490234"/>
     </g>
    </g>
   </g>
   <g id="text_24">
    <g clip-path="url(#p5c9c4d9a51)">
     <!-- 0.2 -->
     <g transform="translate(162.710094 90.379219) scale(0.125 -0.125)">
      <use xlink:href="#DejaVuSans-30"/>
      <use xlink:href="#DejaVuSans-2e" x="63.623047"/>
      <use xlink:href="#DejaVuSans-32" x="95.410156"/>
     </g>
    </g>
   </g>
   <g id="text_25">
    <g clip-path="url(#p5c9c4d9a51)">
     <!-- $f(x)$ -->
     <g transform="translate(205.539 30.709219) scale(0.125 -0.125)">
      <use xlink:href="#DejaVuSans-Oblique-66" transform="translate(0 0.015625)"/>
      <use xlink:href="#DejaVuSans-28" transform="translate(35.205078 0.015625)"/>
      <use xlink:href="#DejaVuSans-Oblique-78" transform="translate(74.21875 0.015625)"/>
      <use xlink:href="#DejaVuSans-29" transform="translate(133.398438 0.015625)"/>
     </g>
    </g>
   </g>
   <g id="text_26">
    <g clip-path="url(#p5c9c4d9a51)">
     <!-- G4 -->
     <g transform="translate(193.659664 62.074219) scale(0.125 -0.125)">
      <use xlink:href="#DejaVuSans-47"/>
      <use xlink:href="#DejaVuSans-34" x="77.490234"/>
     </g>
    </g>
   </g>
   <g id="text_27">
    <g clip-path="url(#p5c9c4d9a51)">
     <!-- fuck you -->
     <g transform="translate(205.539 30.709219) scale(0.125 -0.125)">
      <defs>
       <path id="DejaVuSans-66" d="M 2375 4863 
L 2375 4384 
L 1825 4384 
Q 1516 4384 1395 4259 
Q 1275 4134 1275 3809 
L 1275 3500 
L 2222 3500 
L 2222 3053 
L 1275 3053 
L 1275 0 
L 697 0 
L 697 3053 
L 147 3053 
L 147 3500 
L 697 3500 
L 697 3744 
Q 697 4328 969 4595 
Q 1241 4863 1831 4863 
L 2375 4863 
z
" transform="scale(0.015625)"/>
       <path id="DejaVuSans-75" d="M 544 1381 
L 544 3500 
L 1119 3500 
L 1119 1403 
Q 1119 906 1312 657 
Q 1506 409 1894 409 
Q 2359 409 2629 706 
Q 2900 1003 2900 1516 
L 2900 3500 
L 3475 3500 
L 3475 0 
L 2900 0 
L 2900 538 
Q 2691 219 2414 64 
Q 2138 -91 1772 -91 
Q 1169 -91 856 284 
Q 544 659 544 1381 
z
M 1991 3584 
L 1991 3584 
z
" transform="scale(0.015625)"/>
       <path id="DejaVuSans-63" d="M 3122 3366 
L 3122 2828 
Q 2878 2963 2633 3030 
Q 2388 3097 2138 3097 
Q 1578 3097 1268 2742 
Q 959 2388 959 1747 
Q 959 1106 1268 751 
Q 1578 397 2138 397 
Q 2388 397 2633 464 
Q 2878 531 3122 666 
L 3122 134 
Q 2881 22 2623 -34 
Q 2366 -91 2075 -91 
Q 1284 -91 818 406 
Q 353 903 353 1747 
Q 353 2603 823 3093 
Q 1294 3584 2113 3584 
Q 2378 3584 2631 3529 
Q 2884 3475 3122 3366 
z
" transform="scale(0.015625)"/>
       <path id="DejaVuSans-6b" d="M 581 4863 
L 1159 4863 
L 1159 1991 
L 2875 3500 
L 3609 3500 
L 1753 1863 
L 3688 0 
L 2938 0 
L 1159 1709 
L 1159 0 
L 581 0 
L 581 4863 
z
" transform="scale(0.015625)"/>
       <path id="DejaVuSans-20" transform="scale(0.015625)"/>
       <path id="DejaVuSans-79" d="M 2059 -325 
Q 1816 -950 1584 -1140 
Q 1353 -1331 966 -1331 
L 506 -1331 
L 506 -850 
L 844 -850 
Q 1081 -850 1212 -737 
Q 1344 -625 1503 -206 
L 1606 56 
L 191 3500 
L 800 3500 
L 1894 763 
L 2988 3500 
L 3597 3500 
L 2059 -325 
z
" transform="scale(0.015625)"/>
       <path id="DejaVuSans-6f" d="M 1959 3097 
Q 1497 3097 1228 2736 
Q 959 2375 959 1747 
Q 959 1119 1226 758 
Q 1494 397 1959 397 
Q 2419 397 2687 759 
Q 2956 1122 2956 1747 
Q 2956 2369 2687 2733 
Q 2419 3097 1959 3097 
z
M 1959 3584 
Q 2709 3584 3137 3096 
Q 3566 2609 3566 1747 
Q 3566 888 3137 398 
Q 2709 -91 1959 -91 
Q 1206 -91 779 398 
Q 353 888 353 1747 
Q 353 2609 779 3096 
Q 1206 3584 1959 3584 
z
" transform="scale(0.015625)"/>
      </defs>
      <use xlink:href="#DejaVuSans-66"/>
      <use xlink:href="#DejaVuSans-75" x="35.205078"/>
      <use xlink:href="#DejaVuSans-63" x="98.583984"/>
      <use xlink:href="#DejaVuSans-6b" x="153.564453"/>
      <use xlink:href="#DejaVuSans-20" x="211.474609"/>
      <use xlink:href="#DejaVuSans-79" x="243.261719"/>
      <use xlink:href="#DejaVuSans-6f" x="302.441406"/>
      <use xlink:href="#DejaVuSans-75" x="363.623047"/>
     </g>
    </g>
   </g>
   <g id="text_28">
    <g clip-path="url(#p5c9c4d9a51)">
     <!-- 0.2 -->
     <g transform="translate(162.710094 90.379219) scale(0.125 -0.125)">
      <use xlink:href="#DejaVuSans-30"/>
      <use xlink:href="#DejaVuSans-2e" x="63.623047"/>
      <use xlink:href="#DejaVuSans-32" x="95.410156"/>
     </g>
    </g>
   </g>
   <g id="text_29">
    <g clip-path="url(#p5c9c4d9a51)">
     <!-- $f(x)$ -->
     <g transform="translate(205.539 30.709219) scale(0.125 -0.125)">
      <use xlink:href="#DejaVuSans-Oblique-66" transform="translate(0 0.015625)"/>
      <use xlink:href="#DejaVuSans-28" transform="translate(35.205078 0.015625)"/>
      <use xlink:href="#DejaVuSans-Oblique-78" transform="translate(74.21875 0.015625)"/>
      <use xlink:href="#DejaVuSans-29" transform="translate(133.398438 0.015625)"/>
     </g>
    </g>
   </g>
   <g id="text_30">
    <g clip-path="url(#p5c9c4d9a51)">
     <!-- 0.2 -->
     <g transform="translate(162.710094 90.379219) scale(0.125 -0.125)">
      <use xlink:href="#DejaVuSans-30"/>
      <use xlink:href="#DejaVuSans-2e" x="63.623047"/>
      <use xlink:href="#DejaVuSans-32" x="95.410156"/>
     </g>
    </g>
   </g>
   <g id="text_31">
    <g clip-path="url(#p5c9c4d9a51)">
     <!-- $f(x)$ -->
     <g transform="translate(205.539 30.709219) scale(0.125 -0.125)">
      <use xlink:href="#DejaVuSans-Oblique-66" transform="translate(0 0.015625)"/>
      <use xlink:href="#DejaVuSans-28" transform="translate(35.205078 0.015625)"/>
      <use xlink:href="#DejaVuSans-Oblique-78" transform="translate(74.21875 0.015625)"/>
      <use xlink:href="#DejaVuSans-29" transform="translate(133.398438 0.015625)"/>
     </g>
    </g>
   </g>
   <g id="text_32">
    <g clip-path="url(#p5c9c4d9a51)">
     <!-- G4 -->
     <g transform="translate(193.659664 62.074219) scale(0.125 -0.125)">
      <use xlink:href="#DejaVuSans-47"/>
      <use xlink:href="#DejaVuSans-34" x="77.490234"/>
     </g>
    </g>
   </g>
   <g id="text_33">
    <g clip-path="url(#p5c9c4d9a51)">
     <!-- 0.2 -->
     <g transform="translate(162.710094 90.379219) scale(0.125 -0.125)">
      <use xlink:href="#DejaVuSans-30"/>
      <use xlink:href="#DejaVuSans-2e" x="63.623047"/>
      <use xlink:href="#DejaVuSans-32" x="95.410156"/>
     </g>
    </g>
   </g>
   <g id="text_34">
    <g clip-path="url(#p5c9c4d9a51)">
     <!-- $f(x)$ -->
     <g transform="translate(205.539 30.709219) scale(0.125 -0.125)">
      <use xlink:href="#DejaVuSans-Oblique-66" transform="translate(0 0.015625)"/>
      <use xlink:href="#DejaVuSans-28" transform="translate(35.205078 0.015625)"/>
      <use xlink:href="#DejaVuSans-Oblique-78" transform="translate(74.21875 0.015625)"/>
      <use xlink:href="#DejaVuSans-29" transform="translate(133.398438 0.015625)"/>
     </g>
    </g>
   </g>
   <g id="text_35">
    <g clip-path="url(#p5c9c4d9a51)">
     <!-- G4 -->
     <g transform="translate(193.659664 62.074219) scale(0.125 -0.125)">
      <use xlink:href="#DejaVuSans-47"/>
      <use xlink:href="#DejaVuSans-34" x="77.490234"/>
     </g>
    </g>
   </g>
   <g id="text_36">
    <g clip-path="url(#p5c9c4d9a51)">
     <!-- fuck you -->
     <g transform="translate(205.539 30.709219) scale(0.125 -0.125)">
      <use xlink:href="#DejaVuSans-66"/>
      <use xlink:href="#DejaVuSans-75" x="35.205078"/>
      <use xlink:href="#DejaVuSans-63" x="98.583984"/>
      <use xlink:href="#DejaVuSans-6b" x="153.564453"/>
      <use xlink:href="#DejaVuSans-20" x="211.474609"/>
      <use xlink:href="#DejaVuSans-79" x="243.261719"/>
      <use xlink:href="#DejaVuSans-6f" x="302.441406"/>
      <use xlink:href="#DejaVuSans-75" x="363.623047"/>
     </g>
    </g>
   </g>
   <g id="text_37">
    <g clip-path="url(#p5c9c4d9a51)">
     <!-- 0.2 -->
     <g transform="translate(162.710094 90.379219) scale(0.125 -0.125)">
      <use xlink:href="#DejaVuSans-30"/>
      <use xlink:href="#DejaVuSans-2e" x="63.623047"/>
      <use xlink:href="#DejaVuSans-32" x="95.410156"/>
     </g>
    </g>
   </g>
   <g id="text_38">
    <g clip-path="url(#p5c9c4d9a51)">
     <!-- $f(x)$ -->
     <g transform="translate(205.539 30.709219) scale(0.125 -0.125)">
      <use xlink:href="#DejaVuSans-Oblique-66" transform="translate(0 0.015625)"/>
      <use xlink:href="#DejaVuSans-28" transform="translate(35.205078 0.015625)"/>
      <use xlink:href="#DejaVuSans-Oblique-78" transform="translate(74.21875 0.015625)"/>
      <use xlink:href="#DejaVuSans-29" transform="translate(133.398438 0.015625)"/>
     </g>
    </g>
   </g>
   <g id="text_39">
    <g clip-path="url(#p5c9c4d9a51)">
     <!-- 0.2 -->
     <g transform="translate(162.710094 90.379219) scale(0.125 -0.125)">
      <use xlink:href="#DejaVuSans-30"/>
      <use xlink:href="#DejaVuSans-2e" x="63.623047"/>
      <use xlink:href="#DejaVuSans-32" x="95.410156"/>
     </g>
    </g>
   </g>
   <g id="text_40">
    <g clip-path="url(#p5c9c4d9a51)">
     <!-- $f(x)$ -->
     <g transform="translate(205.539 30.709219) scale(0.125 -0.125)">
      <use xlink:href="#DejaVuSans-Oblique-66" transform="translate(0 0.015625)"/>
      <use xlink:href="#DejaVuSans-28" transform="translate(35.205078 0.015625)"/>
      <use xlink:href="#DejaVuSans-Oblique-78" transform="translate(74.21875 0.015625)"/>
      <use xlink:href="#DejaVuSans-29" transform="translate(133.398438 0.015625)"/>
     </g>
    </g>
   </g>
   <g id="text_41">
    <g clip-path="url(#p5c9c4d9a51)">
     <!-- G4 -->
     <g transform="translate(193.659664 62.074219) scale(0.125 -0.125)">
      <use xlink:href="#DejaVuSans-47"/>
      <use xlink:href="#DejaVuSans-34" x="77.490234"/>
     </g>
    </g>
   </g>
   <g id="text_42">
    <g clip-path="url(#p5c9c4d9a51)">
     <!-- 0.2 -->
     <g transform="translate(162.710094 90.379219) scale(0.125 -0.125)">
      <use xlink:href="#DejaVuSans-30"/>
      <use xlink:href="#DejaVuSans-2e" x="63.623047"/>
      <use xlink:href="#DejaVuSans-32" x="95.410156"/>
     </g>
    </g>
   </g>
   <g id="text_43">
    <g clip-path="url(#p5c9c4d9a51)">
     <!-- $f(x)$ -->
     <g transform="translate(205.539 30.709219) scale(0.125 -0.125)">
      <use xlink:href="#DejaVuSans-Oblique-66" transform="translate(0 0.015625)"/>
      <use xlink:href="#DejaVuSans-28" transform="translate(35.205078 0.015625)"/>
      <use xlink:href="#DejaVuSans-Oblique-78" transform="translate(74.21875 0.015625)"/>
      <use xlink:href="#DejaVuSans-29" transform="translate(133.398438 0.015625)"/>
     </g>
    </g>
   </g>
   <g id="text_44">
    <g clip-path="url(#p5c9c4d9a51)">
     <!-- G4 -->
     <g transform="translate(193.659664 62.074219) scale(0.125 -0.125)">
      <use xlink:href="#DejaVuSans-47"/>
      <use xlink:href="#DejaVuSans-34" x="77.490234"/>
     </g>
    </g>
   </g>
   <g id="text_45">
    <g clip-path="url(#p5c9c4d9a51)">
     <!-- fuck you -->
     <g transform="translate(205.539 30.709219) scale(0.125 -0.125)">
      <use xlink:href="#DejaVuSans-66"/>
      <use xlink:href="#DejaVuSans-75" x="35.205078"/>
      <use xlink:href="#DejaVuSans-63" x="98.583984"/>
      <use xlink:href="#DejaVuSans-6b" x="153.564453"/>
      <use xlink:href="#DejaVuSans-20" x="211.474609"/>
      <use xlink:href="#DejaVuSans-79" x="243.261719"/>
      <use xlink:href="#DejaVuSans-6f" x="302.441406"/>
      <use xlink:href="#DejaVuSans-75" x="363.623047"/>
     </g>
    </g>
   </g>
   <g id="text_46">
    <g clip-path="url(#p5c9c4d9a51)">
     <!-- 0.75 -->
     <g transform="translate(12.466969 82.729219) scale(0.125 -0.125)">
      <use xlink:href="#DejaVuSans-30"/>
      <use xlink:href="#DejaVuSans-2e" x="63.623047"/>
      <use xlink:href="#DejaVuSans-37" x="95.410156"/>
      <use xlink:href="#DejaVuSans-35" x="159.033203"/>
     </g>
    </g>
   </g>
   <g id="text_47">
    <g clip-path="url(#p5c9c4d9a51)">
     <!-- X -->
     <g transform="translate(31.7365 98.029219) scale(0.125 -0.125)">
      <use xlink:href="#DejaVuSans-58"/>
     </g>
    </g>
   </g>
   <g id="text_48">
    <g clip-path="url(#p5c9c4d9a51)">
     <!-- 0.75 -->
     <g transform="translate(12.466969 82.729219) scale(0.125 -0.125)">
      <use xlink:href="#DejaVuSans-30"/>
      <use xlink:href="#DejaVuSans-2e" x="63.623047"/>
      <use xlink:href="#DejaVuSans-37" x="95.410156"/>
      <use xlink:href="#DejaVuSans-35" x="159.033203"/>
     </g>
    </g>
   </g>
   <g id="text_49">
    <g clip-path="url(#p5c9c4d9a51)">
     <!-- X -->
     <g transform="translate(31.7365 98.029219) scale(0.125 -0.125)">
      <use xlink:href="#DejaVuSans-58"/>
     </g>
    </g>
   </g>
   <g id="text_50">
    <g clip-path="url(#p5c9c4d9a51)">
     <!-- G1 -->
     <g transform="translate(62.844664 87.319219) scale(0.125 -0.125)">
      <use xlink:href="#DejaVuSans-47"/>
      <use xlink:href="#DejaVuSans-31" x="77.490234"/>
     </g>
    </g>
   </g>
   <g id="text_51">
    <g clip-path="url(#p5c9c4d9a51)">
     <!-- 0.75 -->
     <g transform="translate(12.466969 82.729219) scale(0.125 -0.125)">
      <use xlink:href="#DejaVuSans-30"/>
      <use xlink:href="#DejaVuSans-2e" x="63.623047"/>
      <use xlink:href="#DejaVuSans-37" x="95.410156"/>
      <use xlink:href="#DejaVuSans-35" x="159.033203"/>
     </g>
    </g>
   </g>
   <g id="text_52">
    <g clip-path="url(#p5c9c4d9a51)">
     <!-- X -->
     <g transform="translate(31.7365 98.029219) scale(0.125 -0.125)">
      <use xlink:href="#DejaVuSans-58"/>
     </g>
    </g>
   </g>
   <g id="text_53">
    <g clip-path="url(#p5c9c4d9a51)">
     <!-- 0.75 -->
     <g transform="translate(12.466969 82.729219) scale(0.125 -0.125)">
      <use xlink:href="#DejaVuSans-30"/>
      <use xlink:href="#DejaVuSans-2e" x="63.623047"/>
      <use xlink:href="#DejaVuSans-37" x="95.410156"/>
      <use xlink:href="#DejaVuSans-35" x="159.033203"/>
     </g>
    </g>
   </g>
   <g id="text_54">
    <g clip-path="url(#p5c9c4d9a51)">
     <!-- X -->
     <g transform="translate(31.7365 98.029219) scale(0.125 -0.125)">
      <use xlink:href="#DejaVuSans-58"/>
     </g>
    </g>
   </g>
   <g id="text_55">
    <g clip-path="url(#p5c9c4d9a51)">
     <!-- G1 -->
     <g transform="translate(62.844664 87.319219) scale(0.125 -0.125)">
      <use xlink:href="#DejaVuSans-47"/>
      <use xlink:href="#DejaVuSans-31" x="77.490234"/>
     </g>
    </g>
   </g>
   <g id="text_56">
    <g clip-path="url(#p5c9c4d9a51)">
     <!-- 0.6667 -->
     <g transform="translate(56.230719 59.779219) scale(0.125 -0.125)">
      <use xlink:href="#DejaVuSans-30"/>
      <use xlink:href="#DejaVuSans-2e" x="63.623047"/>
      <use xlink:href="#DejaVuSans-36" x="95.410156"/>
      <use xlink:href="#DejaVuSans-36" x="159.033203"/>
      <use xlink:href="#DejaVuSans-36" x="222.65625"/>
      <use xlink:href="#DejaVuSans-37" x="286.279297"/>
     </g>
    </g>
   </g>
   <g id="text_57">
    <g clip-path="url(#p5c9c4d9a51)">
     <!-- 0.6667 -->
     <g transform="translate(56.230719 59.779219) scale(0.125 -0.125)">
      <use xlink:href="#DejaVuSans-30"/>
      <use xlink:href="#DejaVuSans-2e" x="63.623047"/>
      <use xlink:href="#DejaVuSans-36" x="95.410156"/>
      <use xlink:href="#DejaVuSans-36" x="159.033203"/>
      <use xlink:href="#DejaVuSans-36" x="222.65625"/>
      <use xlink:href="#DejaVuSans-37" x="286.279297"/>
     </g>
    </g>
   </g>
   <g id="text_58">
    <g clip-path="url(#p5c9c4d9a51)">
     <!-- G2 -->
     <g transform="translate(119.454664 79.669219) scale(0.125 -0.125)">
      <use xlink:href="#DejaVuSans-47"/>
      <use xlink:href="#DejaVuSans-32" x="77.490234"/>
     </g>
    </g>
   </g>
   <g id="text_59">
    <g clip-path="url(#p5c9c4d9a51)">
     <!-- 0.6667 -->
     <g transform="translate(56.230719 59.779219) scale(0.125 -0.125)">
      <use xlink:href="#DejaVuSans-30"/>
      <use xlink:href="#DejaVuSans-2e" x="63.623047"/>
      <use xlink:href="#DejaVuSans-36" x="95.410156"/>
      <use xlink:href="#DejaVuSans-36" x="159.033203"/>
      <use xlink:href="#DejaVuSans-36" x="222.65625"/>
      <use xlink:href="#DejaVuSans-37" x="286.279297"/>
     </g>
    </g>
   </g>
   <g id="text_60">
    <g clip-path="url(#p5c9c4d9a51)">
     <!-- 0.6667 -->
     <g transform="translate(56.230719 59.779219) scale(0.125 -0.125)">
      <use xlink:href="#DejaVuSans-30"/>
      <use xlink:href="#DejaVuSans-2e" x="63.623047"/>
      <use xlink:href="#DejaVuSans-36" x="95.410156"/>
      <use xlink:href="#DejaVuSans-36" x="159.033203"/>
      <use xlink:href="#DejaVuSans-36" x="222.65625"/>
      <use xlink:href="#DejaVuSans-37" x="286.279297"/>
     </g>
    </g>
   </g>
   <g id="text_61">
    <g clip-path="url(#p5c9c4d9a51)">
     <!-- G2 -->
     <g transform="translate(119.454664 79.669219) scale(0.125 -0.125)">
      <use xlink:href="#DejaVuSans-47"/>
      <use xlink:href="#DejaVuSans-32" x="77.490234"/>
     </g>
    </g>
   </g>
   <g id="text_62">
    <g clip-path="url(#p5c9c4d9a51)">
     <!-- G3 -->
     <g transform="translate(176.064664 87.319219) scale(0.125 -0.125)">
      <use xlink:href="#DejaVuSans-47"/>
      <use xlink:href="#DejaVuSans-33" x="77.490234"/>
     </g>
    </g>
   </g>
   <g id="text_63">
    <g clip-path="url(#p5c9c4d9a51)">
     <!-- G3 -->
     <g transform="translate(176.064664 87.319219) scale(0.125 -0.125)">
      <use xlink:href="#DejaVuSans-47"/>
      <use xlink:href="#DejaVuSans-33" x="77.490234"/>
     </g>
    </g>
   </g>
   <g id="text_64">
    <g clip-path="url(#p5c9c4d9a51)">
     <!-- 0.2 -->
     <g transform="translate(162.710094 90.379219) scale(0.125 -0.125)">
      <use xlink:href="#DejaVuSans-30"/>
      <use xlink:href="#DejaVuSans-2e" x="63.623047"/>
      <use xlink:href="#DejaVuSans-32" x="95.410156"/>
     </g>
    </g>
   </g>
   <g id="text_65">
    <g clip-path="url(#p5c9c4d9a51)">
     <!-- $f(x)$ -->
     <g transform="translate(205.539 30.709219) scale(0.125 -0.125)">
      <use xlink:href="#DejaVuSans-Oblique-66" transform="translate(0 0.015625)"/>
      <use xlink:href="#DejaVuSans-28" transform="translate(35.205078 0.015625)"/>
      <use xlink:href="#DejaVuSans-Oblique-78" transform="translate(74.21875 0.015625)"/>
      <use xlink:href="#DejaVuSans-29" transform="translate(133.398438 0.015625)"/>
     </g>
    </g>
   </g>
   <g id="text_66">
    <g clip-path="url(#p5c9c4d9a51)">
     <!-- 0.2 -->
     <g transform="translate(162.710094 90.379219) scale(0.125 -0.125)">
      <use xlink:href="#DejaVuSans-30"/>
      <use xlink:href="#DejaVuSans-2e" x="63.623047"/>
      <use xlink:href="#DejaVuSans-32" x="95.410156"/>
     </g>
    </g>
   </g>
   <g id="text_67">
    <g clip-path="url(#p5c9c4d9a51)">
     <!-- $f(x)$ -->
     <g transform="translate(205.539 30.709219) scale(0.125 -0.125)">
      <use xlink:href="#DejaVuSans-Oblique-66" transform="translate(0 0.015625)"/>
      <use xlink:href="#DejaVuSans-28" transform="translate(35.205078 0.015625)"/>
      <use xlink:href="#DejaVuSans-Oblique-78" transform="translate(74.21875 0.015625)"/>
      <use xlink:href="#DejaVuSans-29" transform="translate(133.398438 0.015625)"/>
     </g>
    </g>
   </g>
   <g id="text_68">
    <g clip-path="url(#p5c9c4d9a51)">
     <!-- G4 -->
     <g transform="translate(193.659664 62.074219) scale(0.125 -0.125)">
      <use xlink:href="#DejaVuSans-47"/>
      <use xlink:href="#DejaVuSans-34" x="77.490234"/>
     </g>
    </g>
   </g>
   <g id="text_69">
    <g clip-path="url(#p5c9c4d9a51)">
     <!-- 0.2 -->
     <g transform="translate(162.710094 90.379219) scale(0.125 -0.125)">
      <use xlink:href="#DejaVuSans-30"/>
      <use xlink:href="#DejaVuSans-2e" x="63.623047"/>
      <use xlink:href="#DejaVuSans-32" x="95.410156"/>
     </g>
    </g>
   </g>
   <g id="text_70">
    <g clip-path="url(#p5c9c4d9a51)">
     <!-- $f(x)$ -->
     <g transform="translate(205.539 30.709219) scale(0.125 -0.125)">
      <use xlink:href="#DejaVuSans-Oblique-66" transform="translate(0 0.015625)"/>
      <use xlink:href="#DejaVuSans-28" transform="translate(35.205078 0.015625)"/>
      <use xlink:href="#DejaVuSans-Oblique-78" transform="translate(74.21875 0.015625)"/>
      <use xlink:href="#DejaVuSans-29" transform="translate(133.398438 0.015625)"/>
     </g>
    </g>
   </g>
   <g id="text_71">
    <g clip-path="url(#p5c9c4d9a51)">
     <!-- G4 -->
     <g transform="translate(193.659664 62.074219) scale(0.125 -0.125)">
      <use xlink:href="#DejaVuSans-47"/>
      <use xlink:href="#DejaVuSans-34" x="77.490234"/>
     </g>
    </g>
   </g>
   <g id="text_72">
    <g clip-path="url(#p5c9c4d9a51)">
     <!-- fuck you -->
     <g transform="translate(205.539 30.709219) scale(0.125 -0.125)">
      <use xlink:href="#DejaVuSans-66"/>
      <use xlink:href="#DejaVuSans-75" x="35.205078"/>
      <use xlink:href="#DejaVuSans-63" x="98.583984"/>
      <use xlink:href="#DejaVuSans-6b" x="153.564453"/>
      <use xlink:href="#DejaVuSans-20" x="211.474609"/>
      <use xlink:href="#DejaVuSans-79" x="243.261719"/>
      <use xlink:href="#DejaVuSans-6f" x="302.441406"/>
      <use xlink:href="#DejaVuSans-75" x="363.623047"/>
     </g>
    </g>
   </g>
   <g id="text_73">
    <g clip-path="url(#p5c9c4d9a51)">
     <!-- 0.2 -->
     <g transform="translate(162.710094 90.379219) scale(0.125 -0.125)">
      <use xlink:href="#DejaVuSans-30"/>
      <use xlink:href="#DejaVuSans-2e" x="63.623047"/>
      <use xlink:href="#DejaVuSans-32" x="95.410156"/>
     </g>
    </g>
   </g>
   <g id="text_74">
    <g clip-path="url(#p5c9c4d9a51)">
     <!-- $f(x)$ -->
     <g transform="translate(205.539 30.709219) scale(0.125 -0.125)">
      <use xlink:href="#DejaVuSans-Oblique-66" transform="translate(0 0.015625)"/>
      <use xlink:href="#DejaVuSans-28" transform="translate(35.205078 0.015625)"/>
      <use xlink:href="#DejaVuSans-Oblique-78" transform="translate(74.21875 0.015625)"/>
      <use xlink:href="#DejaVuSans-29" transform="translate(133.398438 0.015625)"/>
     </g>
    </g>
   </g>
   <g id="text_75">
    <g clip-path="url(#p5c9c4d9a51)">
     <!-- 0.2 -->
     <g transform="translate(162.710094 90.379219) scale(0.125 -0.125)">
      <use xlink:href="#DejaVuSans-30"/>
      <use xlink:href="#DejaVuSans-2e" x="63.623047"/>
      <use xlink:href="#DejaVuSans-32" x="95.410156"/>
     </g>
    </g>
   </g>
   <g id="text_76">
    <g clip-path="url(#p5c9c4d9a51)">
     <!-- $f(x)$ -->
     <g transform="translate(205.539 30.709219) scale(0.125 -0.125)">
      <use xlink:href="#DejaVuSans-Oblique-66" transform="translate(0 0.015625)"/>
      <use xlink:href="#DejaVuSans-28" transform="translate(35.205078 0.015625)"/>
      <use xlink:href="#DejaVuSans-Oblique-78" transform="translate(74.21875 0.015625)"/>
      <use xlink:href="#DejaVuSans-29" transform="translate(133.398438 0.015625)"/>
     </g>
    </g>
   </g>
   <g id="text_77">
    <g clip-path="url(#p5c9c4d9a51)">
     <!-- G4 -->
     <g transform="translate(193.659664 62.074219) scale(0.125 -0.125)">
      <use xlink:href="#DejaVuSans-47"/>
      <use xlink:href="#DejaVuSans-34" x="77.490234"/>
     </g>
    </g>
   </g>
   <g id="text_78">
    <g clip-path="url(#p5c9c4d9a51)">
     <!-- 0.2 -->
     <g transform="translate(162.710094 90.379219) scale(0.125 -0.125)">
      <use xlink:href="#DejaVuSans-30"/>
      <use xlink:href="#DejaVuSans-2e" x="63.623047"/>
      <use xlink:href="#DejaVuSans-32" x="95.410156"/>
     </g>
    </g>
   </g>
   <g id="text_79">
    <g clip-path="url(#p5c9c4d9a51)">
     <!-- $f(x)$ -->
     <g transform="translate(205.539 30.709219) scale(0.125 -0.125)">
      <use xlink:href="#DejaVuSans-Oblique-66" transform="translate(0 0.015625)"/>
      <use xlink:href="#DejaVuSans-28" transform="translate(35.205078 0.015625)"/>
      <use xlink:href="#DejaVuSans-Oblique-78" transform="translate(74.21875 0.015625)"/>
      <use xlink:href="#DejaVuSans-29" transform="translate(133.398438 0.015625)"/>
     </g>
    </g>
   </g>
   <g id="text_80">
    <g clip-path="url(#p5c9c4d9a51)">
     <!-- G4 -->
     <g transform="translate(193.659664 62.074219) scale(0.125 -0.125)">
      <use xlink:href="#DejaVuSans-47"/>
      <use xlink:href="#DejaVuSans-34" x="77.490234"/>
     </g>
    </g>
   </g>
   <g id="text_81">
    <g clip-path="url(#p5c9c4d9a51)">
     <!-- fuck you -->
     <g transform="translate(205.539 30.709219) scale(0.125 -0.125)">
      <use xlink:href="#DejaVuSans-66"/>
      <use xlink:href="#DejaVuSans-75" x="35.205078"/>
      <use xlink:href="#DejaVuSans-63" x="98.583984"/>
      <use xlink:href="#DejaVuSans-6b" x="153.564453"/>
      <use xlink:href="#DejaVuSans-20" x="211.474609"/>
      <use xlink:href="#DejaVuSans-79" x="243.261719"/>
      <use xlink:href="#DejaVuSans-6f" x="302.441406"/>
      <use xlink:href="#DejaVuSans-75" x="363.623047"/>
     </g>
    </g>
   </g>
   <g id="text_82">
    <g clip-path="url(#p5c9c4d9a51)">
     <!-- 0.2 -->
     <g transform="translate(162.710094 90.379219) scale(0.125 -0.125)">
      <use xlink:href="#DejaVuSans-30"/>
      <use xlink:href="#DejaVuSans-2e" x="63.623047"/>
      <use xlink:href="#DejaVuSans-32" x="95.410156"/>
     </g>
    </g>
   </g>
   <g id="text_83">
    <g clip-path="url(#p5c9c4d9a51)">
     <!-- $f(x)$ -->
     <g transform="translate(205.539 30.709219) scale(0.125 -0.125)">
      <use xlink:href="#DejaVuSans-Oblique-66" transform="translate(0 0.015625)"/>
      <use xlink:href="#DejaVuSans-28" transform="translate(35.205078 0.015625)"/>
      <use xlink:href="#DejaVuSans-Oblique-78" transform="translate(74.21875 0.015625)"/>
      <use xlink:href="#DejaVuSans-29" transform="translate(133.398438 0.015625)"/>
     </g>
    </g>
   </g>
   <g id="text_84">
    <g clip-path="url(#p5c9c4d9a51)">
     <!-- 0.2 -->
     <g transform="translate(162.710094 90.379219) scale(0.125 -0.125)">
      <use xlink:href="#DejaVuSans-30"/>
      <use xlink:href="#DejaVuSans-2e" x="63.623047"/>
      <use xlink:href="#DejaVuSans-32" x="95.410156"/>
     </g>
    </g>
   </g>
   <g id="text_85">
    <g clip-path="url(#p5c9c4d9a51)">
     <!-- $f(x)$ -->
     <g transform="translate(205.539 30.709219) scale(0.125 -0.125)">
      <use xlink:href="#DejaVuSans-Oblique-66" transform="translate(0 0.015625)"/>
      <use xlink:href="#DejaVuSans-28" transform="translate(35.205078 0.015625)"/>
      <use xlink:href="#DejaVuSans-Oblique-78" transform="translate(74.21875 0.015625)"/>
      <use xlink:href="#DejaVuSans-29" transform="translate(133.398438 0.015625)"/>
     </g>
    </g>
   </g>
   <g id="text_86">
    <g clip-path="url(#p5c9c4d9a51)">
     <!-- G4 -->
     <g transform="translate(193.659664 62.074219) scale(0.125 -0.125)">
      <use xlink:href="#DejaVuSans-47"/>
      <use xlink:href="#DejaVuSans-34" x="77.490234"/>
     </g>
    </g>
   </g>
   <g id="text_87">
    <g clip-path="url(#p5c9c4d9a51)">
     <!-- 0.2 -->
     <g transform="translate(162.710094 90.379219) scale(0.125 -0.125)">
      <use xlink:href="#DejaVuSans-30"/>
      <use xlink:href="#DejaVuSans-2e" x="63.623047"/>
      <use xlink:href="#DejaVuSans-32" x="95.410156"/>
     </g>
    </g>
   </g>
   <g id="text_88">
    <g clip-path="url(#p5c9c4d9a51)">
     <!-- $f(x)$ -->
     <g transform="translate(205.539 30.709219) scale(0.125 -0.125)">
      <use xlink:href="#DejaVuSans-Oblique-66" transform="translate(0 0.015625)"/>
      <use xlink:href="#DejaVuSans-28" transform="translate(35.205078 0.015625)"/>
      <use xlink:href="#DejaVuSans-Oblique-78" transform="translate(74.21875 0.015625)"/>
      <use xlink:href="#DejaVuSans-29" transform="translate(133.398438 0.015625)"/>
     </g>
    </g>
   </g>
   <g id="text_89">
    <g clip-path="url(#p5c9c4d9a51)">
     <!-- G4 -->
     <g transform="translate(193.659664 62.074219) scale(0.125 -0.125)">
      <use xlink:href="#DejaVuSans-47"/>
      <use xlink:href="#DejaVuSans-34" x="77.490234"/>
     </g>
    </g>
   </g>
   <g id="text_90">
    <g clip-path="url(#p5c9c4d9a51)">
     <!-- fuck you -->
     <g transform="translate(205.539 30.709219) scale(0.125 -0.125)">
      <use xlink:href="#DejaVuSans-66"/>
      <use xlink:href="#DejaVuSans-75" x="35.205078"/>
      <use xlink:href="#DejaVuSans-63" x="98.583984"/>
      <use xlink:href="#DejaVuSans-6b" x="153.564453"/>
      <use xlink:href="#DejaVuSans-20" x="211.474609"/>
      <use xlink:href="#DejaVuSans-79" x="243.261719"/>
      <use xlink:href="#DejaVuSans-6f" x="302.441406"/>
      <use xlink:href="#DejaVuSans-75" x="363.623047"/>
     </g>
    </g>
   </g>
  </g>
 </g>
 <defs>
  <clipPath id="p5c9c4d9a51">
   <rect x="7.2" y="7.2" width="258.4068" height="101.32"/>
  </clipPath>
 </defs>
</svg>
