<?xml version="1.0" encoding="utf-8" standalone="no"?>
<!DOCTYPE svg PUBLIC "-//W3C//DTD SVG 1.1//EN"
  "http://www.w3.org/Graphics/SVG/1.1/DTD/svg11.dtd">
<svg xmlns:xlink="http://www.w3.org/1999/xlink" width="412.7916pt" height="94.3pt" viewBox="0 0 412.7916 94.3" xmlns="http://www.w3.org/2000/svg" version="1.1">
 <metadata>
  <rdf:RDF xmlns:dc="http://purl.org/dc/elements/1.1/" xmlns:cc="http://creativecommons.org/ns#" xmlns:rdf="http://www.w3.org/1999/02/22-rdf-syntax-ns#">
   <cc:Work>
    <dc:type rdf:resource="http://purl.org/dc/dcmitype/StillImage"/>
    <dc:date>2023-05-08T19:18:52.016665</dc:date>
    <dc:format>image/svg+xml</dc:format>
    <dc:creator>
     <cc:Agent>
      <dc:title>Matplotlib v3.7.1, https://matplotlib.org/</dc:title>
     </cc:Agent>
    </dc:creator>
   </cc:Work>
  </rdf:RDF>
 </metadata>
 <defs>
  <style type="text/css">*{stroke-linejoin: round; stroke-linecap: butt}</style>
 </defs>
 <g id="figure_1">
  <g id="patch_1">
   <path d="M 0 94.3 
L 412.7916 94.3 
L 412.7916 0 
L 0 0 
L 0 94.3 
z
" style="fill: none"/>
  </g>
  <g id="axes_1">
   <g id="patch_2">
    <path d="M 133.6188 61.532 
C 134.592626 61.532 135.526697 61.145095 136.215296 60.456496 
C 136.903895 59.767897 137.2908 58.833826 137.2908 57.86 
C 137.2908 56.886174 136.903895 55.952103 136.215296 55.263504 
C 135.526697 54.574905 134.592626 54.188 133.6188 54.188 
C 132.644974 54.188 131.710903 54.574905 131.022304 55.263504 
C 130.333705 55.952103 129.9468 56.886174 129.9468 57.86 
C 129.9468 58.833826 130.333705 59.767897 131.022304 60.456496 
C 131.710903 61.145095 132.644974 61.532 133.6188 61.532 
L 133.6188 61.532 
z
" clip-path="url(#p521d06d915)" style="fill: none; stroke: #000000; stroke-width: 2; stroke-linejoin: miter"/>
   </g>
   <g id="patch_3">
    <path d="M 133.6188 61.532 
C 134.592626 61.532 135.526697 61.145095 136.215296 60.456496 
C 136.903895 59.767897 137.2908 58.833826 137.2908 57.86 
C 137.2908 56.886174 136.903895 55.952103 136.215296 55.263504 
C 135.526697 54.574905 134.592626 54.188 133.6188 54.188 
C 132.644974 54.188 131.710903 54.574905 131.022304 55.263504 
C 130.333705 55.952103 129.9468 56.886174 129.9468 57.86 
C 129.9468 58.833826 130.333705 59.767897 131.022304 60.456496 
C 131.710903 61.145095 132.644974 61.532 133.6188 61.532 
L 133.6188 61.532 
z
" clip-path="url(#p521d06d915)" style="fill: none; stroke: #000000; stroke-width: 2; stroke-linejoin: miter"/>
   </g>
   <g id="patch_4">
    <path d="M 190.2288 53.882 
C 191.202626 53.882 192.136697 53.495095 192.825296 52.806496 
C 193.513895 52.117897 193.9008 51.183826 193.9008 50.21 
C 193.9008 49.236174 193.513895 48.302103 192.825296 47.613504 
C 192.136697 46.924905 191.202626 46.538 190.2288 46.538 
C 189.254974 46.538 188.320903 46.924905 187.632304 47.613504 
C 186.943705 48.302103 186.5568 49.236174 186.5568 50.21 
C 186.5568 51.183826 186.943705 52.117897 187.632304 52.806496 
C 188.320903 53.495095 189.254974 53.882 190.2288 53.882 
L 190.2288 53.882 
z
" clip-path="url(#p521d06d915)" style="fill: none; stroke: #000000; stroke-width: 2; stroke-linejoin: miter"/>
   </g>
   <g id="patch_5">
    <path d="M 190.2288 53.882 
C 191.202626 53.882 192.136697 53.495095 192.825296 52.806496 
C 193.513895 52.117897 193.9008 51.183826 193.9008 50.21 
C 193.9008 49.236174 193.513895 48.302103 192.825296 47.613504 
C 192.136697 46.924905 191.202626 46.538 190.2288 46.538 
C 189.254974 46.538 188.320903 46.924905 187.632304 47.613504 
C 186.943705 48.302103 186.5568 49.236174 186.5568 50.21 
C 186.5568 51.183826 186.943705 52.117897 187.632304 52.806496 
C 188.320903 53.495095 189.254974 53.882 190.2288 53.882 
L 190.2288 53.882 
z
" clip-path="url(#p521d06d915)" style="fill: none; stroke: #000000; stroke-width: 2; stroke-linejoin: miter"/>
   </g>
   <g id="patch_6">
    <path d="M 246.8388 61.532 
C 247.812626 61.532 248.746697 61.145095 249.435296 60.456496 
C 250.123895 59.767897 250.5108 58.833826 250.5108 57.86 
C 250.5108 56.886174 250.123895 55.952103 249.435296 55.263504 
C 248.746697 54.574905 247.812626 54.188 246.8388 54.188 
C 245.864974 54.188 244.930903 54.574905 244.242304 55.263504 
C 243.553705 55.952103 243.1668 56.886174 243.1668 57.86 
C 243.1668 58.833826 243.553705 59.767897 244.242304 60.456496 
C 244.930903 61.145095 245.864974 61.532 246.8388 61.532 
L 246.8388 61.532 
z
" clip-path="url(#p521d06d915)" style="fill: none; stroke: #000000; stroke-width: 2; stroke-linejoin: miter"/>
   </g>
   <g id="patch_7">
    <path d="M 246.8388 61.532 
C 247.812626 61.532 248.746697 61.145095 249.435296 60.456496 
C 250.123895 59.767897 250.5108 58.833826 250.5108 57.86 
C 250.5108 56.886174 250.123895 55.952103 249.435296 55.263504 
C 248.746697 54.574905 247.812626 54.188 246.8388 54.188 
C 245.864974 54.188 244.930903 54.574905 244.242304 55.263504 
C 243.553705 55.952103 243.1668 56.886174 243.1668 57.86 
C 243.1668 58.833826 243.553705 59.767897 244.242304 60.456496 
C 244.930903 61.145095 245.864974 61.532 246.8388 61.532 
L 246.8388 61.532 
z
" clip-path="url(#p521d06d915)" style="fill: none; stroke: #000000; stroke-width: 2; stroke-linejoin: miter"/>
   </g>
   <g id="patch_8">
    <path d="M 303.4488 53.882 
C 304.422626 53.882 305.356697 53.495095 306.045296 52.806496 
C 306.733895 52.117897 307.1208 51.183826 307.1208 50.21 
C 307.1208 49.236174 306.733895 48.302103 306.045296 47.613504 
C 305.356697 46.924905 304.422626 46.538 303.4488 46.538 
C 302.474974 46.538 301.540903 46.924905 300.852304 47.613504 
C 300.163705 48.302103 299.7768 49.236174 299.7768 50.21 
C 299.7768 51.183826 300.163705 52.117897 300.852304 52.806496 
C 301.540903 53.495095 302.474974 53.882 303.4488 53.882 
L 303.4488 53.882 
z
" clip-path="url(#p521d06d915)" style="fill: none; stroke: #000000; stroke-width: 2; stroke-linejoin: miter"/>
   </g>
   <g id="patch_9">
    <path d="M 303.4488 53.882 
C 304.422626 53.882 305.356697 53.495095 306.045296 52.806496 
C 306.733895 52.117897 307.1208 51.183826 307.1208 50.21 
C 307.1208 49.236174 306.733895 48.302103 306.045296 47.613504 
C 305.356697 46.924905 304.422626 46.538 303.4488 46.538 
C 302.474974 46.538 301.540903 46.924905 300.852304 47.613504 
C 300.163705 48.302103 299.7768 49.236174 299.7768 50.21 
C 299.7768 51.183826 300.163705 52.117897 300.852304 52.806496 
C 301.540903 53.495095 302.474974 53.882 303.4488 53.882 
L 303.4488 53.882 
z
" clip-path="url(#p521d06d915)" style="fill: none; stroke: #000000; stroke-width: 2; stroke-linejoin: miter"/>
   </g>
   <g id="line2d_1">
    <path d="M 58.0368 80.81 
L 59.017074 80.778565 
L 59.993321 80.684387 
L 60.961527 80.527855 
L 61.917715 80.309611 
L 62.857956 80.030553 
L 63.778385 79.691826 
L 64.675221 79.294824 
L 65.544779 78.841176 
L 66.383484 78.332748 
L 67.187891 77.771628 
L 67.954694 77.160123 
L 68.680743 76.500745 
L 69.363053 75.796204 
L 69.998822 75.049394 
L 70.585435 74.263385 
L 71.120484 73.441406 
L 71.601769 72.586836 
L 72.027313 71.703185 
L 72.395367 70.794085 
L 72.704418 69.863272 
L 72.953197 68.91457 
L 73.140681 67.951878 
L 73.2661 66.979152 
L 73.328939 66.000389 
L 73.328939 65.019611 
L 73.2661 64.040848 
L 73.140681 63.068122 
L 72.953197 62.10543 
L 72.704418 61.156728 
L 72.395367 60.225915 
L 72.027313 59.316815 
L 71.601769 58.433164 
L 71.120484 57.578594 
L 70.585435 56.756615 
L 69.998822 55.970606 
L 69.363053 55.223796 
L 68.680743 54.519255 
L 67.954694 53.859877 
L 67.187891 53.248372 
L 66.383484 52.687252 
L 65.544779 52.178824 
L 64.675221 51.725176 
L 63.778385 51.328174 
L 62.857956 50.989447 
L 61.917715 50.710389 
L 60.961527 50.492145 
L 59.993321 50.335613 
L 59.017074 50.241435 
L 58.0368 50.21 
L 58.0368 50.21 
L 38.1468 50.21 
L 38.1468 65.51 
L 38.1468 80.81 
L 58.0368 80.81 
" clip-path="url(#p521d06d915)" style="fill: none; stroke: #000000; stroke-width: 2; stroke-linecap: round"/>
   </g>
   <g id="line2d_2">
    <path d="M 27.4368 73.16 
L 38.1468 73.16 
" clip-path="url(#p521d06d915)" style="fill: none; stroke: #000000; stroke-width: 2; stroke-linecap: round"/>
   </g>
   <g id="line2d_3">
    <path d="M 27.4368 57.86 
L 38.1468 57.86 
" clip-path="url(#p521d06d915)" style="fill: none; stroke: #000000; stroke-width: 2; stroke-linecap: round"/>
   </g>
   <g id="line2d_4">
    <path d="M 73.3368 65.51 
L 84.0468 65.51 
" clip-path="url(#p521d06d915)" style="fill: none; stroke: #000000; stroke-width: 2; stroke-linecap: round"/>
   </g>
   <g id="line2d_5">
    <path d="M 58.0368 80.81 
L 59.017074 80.778565 
L 59.993321 80.684387 
L 60.961527 80.527855 
L 61.917715 80.309611 
L 62.857956 80.030553 
L 63.778385 79.691826 
L 64.675221 79.294824 
L 65.544779 78.841176 
L 66.383484 78.332748 
L 67.187891 77.771628 
L 67.954694 77.160123 
L 68.680743 76.500745 
L 69.363053 75.796204 
L 69.998822 75.049394 
L 70.585435 74.263385 
L 71.120484 73.441406 
L 71.601769 72.586836 
L 72.027313 71.703185 
L 72.395367 70.794085 
L 72.704418 69.863272 
L 72.953197 68.91457 
L 73.140681 67.951878 
L 73.2661 66.979152 
L 73.328939 66.000389 
L 73.328939 65.019611 
L 73.2661 64.040848 
L 73.140681 63.068122 
L 72.953197 62.10543 
L 72.704418 61.156728 
L 72.395367 60.225915 
L 72.027313 59.316815 
L 71.601769 58.433164 
L 71.120484 57.578594 
L 70.585435 56.756615 
L 69.998822 55.970606 
L 69.363053 55.223796 
L 68.680743 54.519255 
L 67.954694 53.859877 
L 67.187891 53.248372 
L 66.383484 52.687252 
L 65.544779 52.178824 
L 64.675221 51.725176 
L 63.778385 51.328174 
L 62.857956 50.989447 
L 61.917715 50.710389 
L 60.961527 50.492145 
L 59.993321 50.335613 
L 59.017074 50.241435 
L 58.0368 50.21 
L 58.0368 50.21 
L 38.1468 50.21 
L 38.1468 65.51 
L 38.1468 80.81 
L 58.0368 80.81 
" clip-path="url(#p521d06d915)" style="fill: none; stroke: #000000; stroke-width: 2; stroke-linecap: round"/>
   </g>
   <g id="line2d_6">
    <path d="M 27.4368 73.16 
L 38.1468 73.16 
" clip-path="url(#p521d06d915)" style="fill: none; stroke: #000000; stroke-width: 2; stroke-linecap: round"/>
   </g>
   <g id="line2d_7">
    <path d="M 27.4368 57.86 
L 38.1468 57.86 
" clip-path="url(#p521d06d915)" style="fill: none; stroke: #000000; stroke-width: 2; stroke-linecap: round"/>
   </g>
   <g id="line2d_8">
    <path d="M 73.3368 65.51 
L 84.0468 65.51 
" clip-path="url(#p521d06d915)" style="fill: none; stroke: #000000; stroke-width: 2; stroke-linecap: round"/>
   </g>
   <g id="line2d_9">
    <path d="M 114.6468 73.16 
L 115.627074 73.128565 
L 116.603321 73.034387 
L 117.571527 72.877855 
L 118.527715 72.659611 
L 119.467956 72.380553 
L 120.388385 72.041826 
L 121.285221 71.644824 
L 122.154779 71.191176 
L 122.993484 70.682748 
L 123.797891 70.121628 
L 124.564694 69.510123 
L 125.290743 68.850745 
L 125.973053 68.146204 
L 126.608822 67.399394 
L 127.195435 66.613385 
L 127.730484 65.791406 
L 128.211769 64.936836 
L 128.637313 64.053185 
L 129.005367 63.144085 
L 129.314418 62.213272 
L 129.563197 61.26457 
L 129.750681 60.301878 
L 129.8761 59.329152 
L 129.938939 58.350389 
L 129.938939 57.369611 
L 129.8761 56.390848 
L 129.750681 55.418122 
L 129.563197 54.45543 
L 129.314418 53.506728 
L 129.005367 52.575915 
L 128.637313 51.666815 
L 128.211769 50.783164 
L 127.730484 49.928594 
L 127.195435 49.106615 
L 126.608822 48.320606 
L 125.973053 47.573796 
L 125.290743 46.869255 
L 124.564694 46.209877 
L 123.797891 45.598372 
L 122.993484 45.037252 
L 122.154779 44.528824 
L 121.285221 44.075176 
L 120.388385 43.678174 
L 119.467956 43.339447 
L 118.527715 43.060389 
L 117.571527 42.842145 
L 116.603321 42.685613 
L 115.627074 42.591435 
L 114.6468 42.56 
L 114.6468 42.56 
L 94.7568 42.56 
L 94.7568 57.86 
L 94.7568 73.16 
L 114.6468 73.16 
" clip-path="url(#p521d06d915)" style="fill: none; stroke: #000000; stroke-width: 2; stroke-linecap: round"/>
   </g>
   <g id="line2d_10">
    <path d="M 84.0468 65.51 
L 94.7568 65.51 
" clip-path="url(#p521d06d915)" style="fill: none; stroke: #000000; stroke-width: 2; stroke-linecap: round"/>
   </g>
   <g id="line2d_11">
    <path d="M 84.0468 50.21 
L 94.7568 50.21 
" clip-path="url(#p521d06d915)" style="fill: none; stroke: #000000; stroke-width: 2; stroke-linecap: round"/>
   </g>
   <g id="line2d_12">
    <path d="M 137.2908 57.86 
L 140.6568 57.86 
" clip-path="url(#p521d06d915)" style="fill: none; stroke: #000000; stroke-width: 2; stroke-linecap: round"/>
   </g>
   <g id="line2d_13">
    <path d="M 114.6468 73.16 
L 115.627074 73.128565 
L 116.603321 73.034387 
L 117.571527 72.877855 
L 118.527715 72.659611 
L 119.467956 72.380553 
L 120.388385 72.041826 
L 121.285221 71.644824 
L 122.154779 71.191176 
L 122.993484 70.682748 
L 123.797891 70.121628 
L 124.564694 69.510123 
L 125.290743 68.850745 
L 125.973053 68.146204 
L 126.608822 67.399394 
L 127.195435 66.613385 
L 127.730484 65.791406 
L 128.211769 64.936836 
L 128.637313 64.053185 
L 129.005367 63.144085 
L 129.314418 62.213272 
L 129.563197 61.26457 
L 129.750681 60.301878 
L 129.8761 59.329152 
L 129.938939 58.350389 
L 129.938939 57.369611 
L 129.8761 56.390848 
L 129.750681 55.418122 
L 129.563197 54.45543 
L 129.314418 53.506728 
L 129.005367 52.575915 
L 128.637313 51.666815 
L 128.211769 50.783164 
L 127.730484 49.928594 
L 127.195435 49.106615 
L 126.608822 48.320606 
L 125.973053 47.573796 
L 125.290743 46.869255 
L 124.564694 46.209877 
L 123.797891 45.598372 
L 122.993484 45.037252 
L 122.154779 44.528824 
L 121.285221 44.075176 
L 120.388385 43.678174 
L 119.467956 43.339447 
L 118.527715 43.060389 
L 117.571527 42.842145 
L 116.603321 42.685613 
L 115.627074 42.591435 
L 114.6468 42.56 
L 114.6468 42.56 
L 94.7568 42.56 
L 94.7568 57.86 
L 94.7568 73.16 
L 114.6468 73.16 
" clip-path="url(#p521d06d915)" style="fill: none; stroke: #000000; stroke-width: 2; stroke-linecap: round"/>
   </g>
   <g id="line2d_14">
    <path d="M 84.0468 65.51 
L 94.7568 65.51 
" clip-path="url(#p521d06d915)" style="fill: none; stroke: #000000; stroke-width: 2; stroke-linecap: round"/>
   </g>
   <g id="line2d_15">
    <path d="M 84.0468 50.21 
L 94.7568 50.21 
" clip-path="url(#p521d06d915)" style="fill: none; stroke: #000000; stroke-width: 2; stroke-linecap: round"/>
   </g>
   <g id="line2d_16">
    <path d="M 137.2908 57.86 
L 140.6568 57.86 
" clip-path="url(#p521d06d915)" style="fill: none; stroke: #000000; stroke-width: 2; stroke-linecap: round"/>
   </g>
   <g id="line2d_17">
    <path d="M 171.2568 65.51 
L 172.237074 65.478565 
L 173.213321 65.384387 
L 174.181527 65.227855 
L 175.137715 65.009611 
L 176.077956 64.730553 
L 176.998385 64.391826 
L 177.895221 63.994824 
L 178.764779 63.541176 
L 179.603484 63.032748 
L 180.407891 62.471628 
L 181.174694 61.860123 
L 181.900743 61.200745 
L 182.583053 60.496204 
L 183.218822 59.749394 
L 183.805435 58.963385 
L 184.340484 58.141406 
L 184.821769 57.286836 
L 185.247313 56.403185 
L 185.615367 55.494085 
L 185.924418 54.563272 
L 186.173197 53.61457 
L 186.360681 52.651878 
L 186.4861 51.679152 
L 186.548939 50.700389 
L 186.548939 49.719611 
L 186.4861 48.740848 
L 186.360681 47.768122 
L 186.173197 46.80543 
L 185.924418 45.856728 
L 185.615367 44.925915 
L 185.247313 44.016815 
L 184.821769 43.133164 
L 184.340484 42.278594 
L 183.805435 41.456615 
L 183.218822 40.670606 
L 182.583053 39.923796 
L 181.900743 39.219255 
L 181.174694 38.559877 
L 180.407891 37.948372 
L 179.603484 37.387252 
L 178.764779 36.878824 
L 177.895221 36.425176 
L 176.998385 36.028174 
L 176.077956 35.689447 
L 175.137715 35.410389 
L 174.181527 35.192145 
L 173.213321 35.035613 
L 172.237074 34.941435 
L 171.2568 34.91 
L 171.2568 34.91 
L 151.3668 34.91 
L 151.3668 50.21 
L 151.3668 65.51 
L 171.2568 65.51 
" clip-path="url(#p521d06d915)" style="fill: none; stroke: #000000; stroke-width: 2; stroke-linecap: round"/>
   </g>
   <g id="line2d_18">
    <path d="M 140.6568 57.86 
L 151.3668 57.86 
" clip-path="url(#p521d06d915)" style="fill: none; stroke: #000000; stroke-width: 2; stroke-linecap: round"/>
   </g>
   <g id="line2d_19">
    <path d="M 140.6568 42.56 
L 151.3668 42.56 
" clip-path="url(#p521d06d915)" style="fill: none; stroke: #000000; stroke-width: 2; stroke-linecap: round"/>
   </g>
   <g id="line2d_20">
    <path d="M 193.9008 50.21 
L 197.2668 50.21 
" clip-path="url(#p521d06d915)" style="fill: none; stroke: #000000; stroke-width: 2; stroke-linecap: round"/>
   </g>
   <g id="line2d_21">
    <path d="M 171.2568 65.51 
L 172.237074 65.478565 
L 173.213321 65.384387 
L 174.181527 65.227855 
L 175.137715 65.009611 
L 176.077956 64.730553 
L 176.998385 64.391826 
L 177.895221 63.994824 
L 178.764779 63.541176 
L 179.603484 63.032748 
L 180.407891 62.471628 
L 181.174694 61.860123 
L 181.900743 61.200745 
L 182.583053 60.496204 
L 183.218822 59.749394 
L 183.805435 58.963385 
L 184.340484 58.141406 
L 184.821769 57.286836 
L 185.247313 56.403185 
L 185.615367 55.494085 
L 185.924418 54.563272 
L 186.173197 53.61457 
L 186.360681 52.651878 
L 186.4861 51.679152 
L 186.548939 50.700389 
L 186.548939 49.719611 
L 186.4861 48.740848 
L 186.360681 47.768122 
L 186.173197 46.80543 
L 185.924418 45.856728 
L 185.615367 44.925915 
L 185.247313 44.016815 
L 184.821769 43.133164 
L 184.340484 42.278594 
L 183.805435 41.456615 
L 183.218822 40.670606 
L 182.583053 39.923796 
L 181.900743 39.219255 
L 181.174694 38.559877 
L 180.407891 37.948372 
L 179.603484 37.387252 
L 178.764779 36.878824 
L 177.895221 36.425176 
L 176.998385 36.028174 
L 176.077956 35.689447 
L 175.137715 35.410389 
L 174.181527 35.192145 
L 173.213321 35.035613 
L 172.237074 34.941435 
L 171.2568 34.91 
L 171.2568 34.91 
L 151.3668 34.91 
L 151.3668 50.21 
L 151.3668 65.51 
L 171.2568 65.51 
" clip-path="url(#p521d06d915)" style="fill: none; stroke: #000000; stroke-width: 2; stroke-linecap: round"/>
   </g>
   <g id="line2d_22">
    <path d="M 140.6568 57.86 
L 151.3668 57.86 
" clip-path="url(#p521d06d915)" style="fill: none; stroke: #000000; stroke-width: 2; stroke-linecap: round"/>
   </g>
   <g id="line2d_23">
    <path d="M 140.6568 42.56 
L 151.3668 42.56 
" clip-path="url(#p521d06d915)" style="fill: none; stroke: #000000; stroke-width: 2; stroke-linecap: round"/>
   </g>
   <g id="line2d_24">
    <path d="M 193.9008 50.21 
L 197.2668 50.21 
" clip-path="url(#p521d06d915)" style="fill: none; stroke: #000000; stroke-width: 2; stroke-linecap: round"/>
   </g>
   <g id="line2d_25">
    <path d="M 227.8668 73.16 
L 228.847074 73.128565 
L 229.823321 73.034387 
L 230.791527 72.877855 
L 231.747715 72.659611 
L 232.687956 72.380553 
L 233.608385 72.041826 
L 234.505221 71.644824 
L 235.374779 71.191176 
L 236.213484 70.682748 
L 237.017891 70.121628 
L 237.784694 69.510123 
L 238.510743 68.850745 
L 239.193053 68.146204 
L 239.828822 67.399394 
L 240.415435 66.613385 
L 240.950484 65.791406 
L 241.431769 64.936836 
L 241.857313 64.053185 
L 242.225367 63.144085 
L 242.534418 62.213272 
L 242.783197 61.26457 
L 242.970681 60.301878 
L 243.0961 59.329152 
L 243.158939 58.350389 
L 243.158939 57.369611 
L 243.0961 56.390848 
L 242.970681 55.418122 
L 242.783197 54.45543 
L 242.534418 53.506728 
L 242.225367 52.575915 
L 241.857313 51.666815 
L 241.431769 50.783164 
L 240.950484 49.928594 
L 240.415435 49.106615 
L 239.828822 48.320606 
L 239.193053 47.573796 
L 238.510743 46.869255 
L 237.784694 46.209877 
L 237.017891 45.598372 
L 236.213484 45.037252 
L 235.374779 44.528824 
L 234.505221 44.075176 
L 233.608385 43.678174 
L 232.687956 43.339447 
L 231.747715 43.060389 
L 230.791527 42.842145 
L 229.823321 42.685613 
L 228.847074 42.591435 
L 227.8668 42.56 
L 227.8668 42.56 
L 207.9768 42.56 
L 207.9768 57.86 
L 207.9768 73.16 
L 227.8668 73.16 
" clip-path="url(#p521d06d915)" style="fill: none; stroke: #000000; stroke-width: 2; stroke-linecap: round"/>
   </g>
   <g id="line2d_26">
    <path d="M 197.2668 65.51 
L 207.9768 65.51 
" clip-path="url(#p521d06d915)" style="fill: none; stroke: #000000; stroke-width: 2; stroke-linecap: round"/>
   </g>
   <g id="line2d_27">
    <path d="M 197.2668 50.21 
L 207.9768 50.21 
" clip-path="url(#p521d06d915)" style="fill: none; stroke: #000000; stroke-width: 2; stroke-linecap: round"/>
   </g>
   <g id="line2d_28">
    <path d="M 250.5108 57.86 
L 253.8768 57.86 
" clip-path="url(#p521d06d915)" style="fill: none; stroke: #000000; stroke-width: 2; stroke-linecap: round"/>
   </g>
   <g id="line2d_29">
    <path d="M 227.8668 73.16 
L 228.847074 73.128565 
L 229.823321 73.034387 
L 230.791527 72.877855 
L 231.747715 72.659611 
L 232.687956 72.380553 
L 233.608385 72.041826 
L 234.505221 71.644824 
L 235.374779 71.191176 
L 236.213484 70.682748 
L 237.017891 70.121628 
L 237.784694 69.510123 
L 238.510743 68.850745 
L 239.193053 68.146204 
L 239.828822 67.399394 
L 240.415435 66.613385 
L 240.950484 65.791406 
L 241.431769 64.936836 
L 241.857313 64.053185 
L 242.225367 63.144085 
L 242.534418 62.213272 
L 242.783197 61.26457 
L 242.970681 60.301878 
L 243.0961 59.329152 
L 243.158939 58.350389 
L 243.158939 57.369611 
L 243.0961 56.390848 
L 242.970681 55.418122 
L 242.783197 54.45543 
L 242.534418 53.506728 
L 242.225367 52.575915 
L 241.857313 51.666815 
L 241.431769 50.783164 
L 240.950484 49.928594 
L 240.415435 49.106615 
L 239.828822 48.320606 
L 239.193053 47.573796 
L 238.510743 46.869255 
L 237.784694 46.209877 
L 237.017891 45.598372 
L 236.213484 45.037252 
L 235.374779 44.528824 
L 234.505221 44.075176 
L 233.608385 43.678174 
L 232.687956 43.339447 
L 231.747715 43.060389 
L 230.791527 42.842145 
L 229.823321 42.685613 
L 228.847074 42.591435 
L 227.8668 42.56 
L 227.8668 42.56 
L 207.9768 42.56 
L 207.9768 57.86 
L 207.9768 73.16 
L 227.8668 73.16 
" clip-path="url(#p521d06d915)" style="fill: none; stroke: #000000; stroke-width: 2; stroke-linecap: round"/>
   </g>
   <g id="line2d_30">
    <path d="M 197.2668 65.51 
L 207.9768 65.51 
" clip-path="url(#p521d06d915)" style="fill: none; stroke: #000000; stroke-width: 2; stroke-linecap: round"/>
   </g>
   <g id="line2d_31">
    <path d="M 197.2668 50.21 
L 207.9768 50.21 
" clip-path="url(#p521d06d915)" style="fill: none; stroke: #000000; stroke-width: 2; stroke-linecap: round"/>
   </g>
   <g id="line2d_32">
    <path d="M 250.5108 57.86 
L 253.8768 57.86 
" clip-path="url(#p521d06d915)" style="fill: none; stroke: #000000; stroke-width: 2; stroke-linecap: round"/>
   </g>
   <g id="line2d_33">
    <path d="M 84.0468 65.51 
L 84.0468 80.81 
L 197.2668 80.81 
L 197.2668 65.51 
" clip-path="url(#p521d06d915)" style="fill: none; stroke: #000000; stroke-width: 2; stroke-linecap: round"/>
   </g>
   <g id="line2d_34">
    <path d="M 284.4768 65.51 
L 285.457074 65.478565 
L 286.433321 65.384387 
L 287.401527 65.227855 
L 288.357715 65.009611 
L 289.297956 64.730553 
L 290.218385 64.391826 
L 291.115221 63.994824 
L 291.984779 63.541176 
L 292.823484 63.032748 
L 293.627891 62.471628 
L 294.394694 61.860123 
L 295.120743 61.200745 
L 295.803053 60.496204 
L 296.438822 59.749394 
L 297.025435 58.963385 
L 297.560484 58.141406 
L 298.041769 57.286836 
L 298.467313 56.403185 
L 298.835367 55.494085 
L 299.144418 54.563272 
L 299.393197 53.61457 
L 299.580681 52.651878 
L 299.7061 51.679152 
L 299.768939 50.700389 
L 299.768939 49.719611 
L 299.7061 48.740848 
L 299.580681 47.768122 
L 299.393197 46.80543 
L 299.144418 45.856728 
L 298.835367 44.925915 
L 298.467313 44.016815 
L 298.041769 43.133164 
L 297.560484 42.278594 
L 297.025435 41.456615 
L 296.438822 40.670606 
L 295.803053 39.923796 
L 295.120743 39.219255 
L 294.394694 38.559877 
L 293.627891 37.948372 
L 292.823484 37.387252 
L 291.984779 36.878824 
L 291.115221 36.425176 
L 290.218385 36.028174 
L 289.297956 35.689447 
L 288.357715 35.410389 
L 287.401527 35.192145 
L 286.433321 35.035613 
L 285.457074 34.941435 
L 284.4768 34.91 
L 284.4768 34.91 
L 264.5868 34.91 
L 264.5868 50.21 
L 264.5868 65.51 
L 284.4768 65.51 
" clip-path="url(#p521d06d915)" style="fill: none; stroke: #000000; stroke-width: 2; stroke-linecap: round"/>
   </g>
   <g id="line2d_35">
    <path d="M 253.8768 57.86 
L 264.5868 57.86 
" clip-path="url(#p521d06d915)" style="fill: none; stroke: #000000; stroke-width: 2; stroke-linecap: round"/>
   </g>
   <g id="line2d_36">
    <path d="M 253.8768 42.56 
L 264.5868 42.56 
" clip-path="url(#p521d06d915)" style="fill: none; stroke: #000000; stroke-width: 2; stroke-linecap: round"/>
   </g>
   <g id="line2d_37">
    <path d="M 307.1208 50.21 
L 310.4868 50.21 
" clip-path="url(#p521d06d915)" style="fill: none; stroke: #000000; stroke-width: 2; stroke-linecap: round"/>
   </g>
   <g id="line2d_38">
    <path d="M 284.4768 65.51 
L 285.457074 65.478565 
L 286.433321 65.384387 
L 287.401527 65.227855 
L 288.357715 65.009611 
L 289.297956 64.730553 
L 290.218385 64.391826 
L 291.115221 63.994824 
L 291.984779 63.541176 
L 292.823484 63.032748 
L 293.627891 62.471628 
L 294.394694 61.860123 
L 295.120743 61.200745 
L 295.803053 60.496204 
L 296.438822 59.749394 
L 297.025435 58.963385 
L 297.560484 58.141406 
L 298.041769 57.286836 
L 298.467313 56.403185 
L 298.835367 55.494085 
L 299.144418 54.563272 
L 299.393197 53.61457 
L 299.580681 52.651878 
L 299.7061 51.679152 
L 299.768939 50.700389 
L 299.768939 49.719611 
L 299.7061 48.740848 
L 299.580681 47.768122 
L 299.393197 46.80543 
L 299.144418 45.856728 
L 298.835367 44.925915 
L 298.467313 44.016815 
L 298.041769 43.133164 
L 297.560484 42.278594 
L 297.025435 41.456615 
L 296.438822 40.670606 
L 295.803053 39.923796 
L 295.120743 39.219255 
L 294.394694 38.559877 
L 293.627891 37.948372 
L 292.823484 37.387252 
L 291.984779 36.878824 
L 291.115221 36.425176 
L 290.218385 36.028174 
L 289.297956 35.689447 
L 288.357715 35.410389 
L 287.401527 35.192145 
L 286.433321 35.035613 
L 285.457074 34.941435 
L 284.4768 34.91 
L 284.4768 34.91 
L 264.5868 34.91 
L 264.5868 50.21 
L 264.5868 65.51 
L 284.4768 65.51 
" clip-path="url(#p521d06d915)" style="fill: none; stroke: #000000; stroke-width: 2; stroke-linecap: round"/>
   </g>
   <g id="line2d_39">
    <path d="M 253.8768 57.86 
L 264.5868 57.86 
" clip-path="url(#p521d06d915)" style="fill: none; stroke: #000000; stroke-width: 2; stroke-linecap: round"/>
   </g>
   <g id="line2d_40">
    <path d="M 253.8768 42.56 
L 264.5868 42.56 
" clip-path="url(#p521d06d915)" style="fill: none; stroke: #000000; stroke-width: 2; stroke-linecap: round"/>
   </g>
   <g id="line2d_41">
    <path d="M 307.1208 50.21 
L 310.4868 50.21 
" clip-path="url(#p521d06d915)" style="fill: none; stroke: #000000; stroke-width: 2; stroke-linecap: round"/>
   </g>
   <g id="line2d_42">
    <path d="M 341.0868 73.16 
L 342.067074 73.128565 
L 343.043321 73.034387 
L 344.011527 72.877855 
L 344.967715 72.659611 
L 345.907956 72.380553 
L 346.828385 72.041826 
L 347.725221 71.644824 
L 348.594779 71.191176 
L 349.433484 70.682748 
L 350.237891 70.121628 
L 351.004694 69.510123 
L 351.730743 68.850745 
L 352.413053 68.146204 
L 353.048822 67.399394 
L 353.635435 66.613385 
L 354.170484 65.791406 
L 354.651769 64.936836 
L 355.077313 64.053185 
L 355.445367 63.144085 
L 355.754418 62.213272 
L 356.003197 61.26457 
L 356.190681 60.301878 
L 356.3161 59.329152 
L 356.378939 58.350389 
L 356.378939 57.369611 
L 356.3161 56.390848 
L 356.190681 55.418122 
L 356.003197 54.45543 
L 355.754418 53.506728 
L 355.445367 52.575915 
L 355.077313 51.666815 
L 354.651769 50.783164 
L 354.170484 49.928594 
L 353.635435 49.106615 
L 353.048822 48.320606 
L 352.413053 47.573796 
L 351.730743 46.869255 
L 351.004694 46.209877 
L 350.237891 45.598372 
L 349.433484 45.037252 
L 348.594779 44.528824 
L 347.725221 44.075176 
L 346.828385 43.678174 
L 345.907956 43.339447 
L 344.967715 43.060389 
L 344.011527 42.842145 
L 343.043321 42.685613 
L 342.067074 42.591435 
L 341.0868 42.56 
L 341.0868 42.56 
L 321.1968 42.56 
L 321.1968 57.86 
L 321.1968 73.16 
L 341.0868 73.16 
" clip-path="url(#p521d06d915)" style="fill: none; stroke: #000000; stroke-width: 2; stroke-linecap: round"/>
   </g>
   <g id="line2d_43">
    <path d="M 310.4868 65.51 
L 321.1968 65.51 
" clip-path="url(#p521d06d915)" style="fill: none; stroke: #000000; stroke-width: 2; stroke-linecap: round"/>
   </g>
   <g id="line2d_44">
    <path d="M 310.4868 50.21 
L 321.1968 50.21 
" clip-path="url(#p521d06d915)" style="fill: none; stroke: #000000; stroke-width: 2; stroke-linecap: round"/>
   </g>
   <g id="line2d_45">
    <path d="M 356.3868 57.86 
L 367.0968 57.86 
" clip-path="url(#p521d06d915)" style="fill: none; stroke: #000000; stroke-width: 2; stroke-linecap: round"/>
   </g>
   <g id="line2d_46">
    <path d="M 341.0868 73.16 
L 342.067074 73.128565 
L 343.043321 73.034387 
L 344.011527 72.877855 
L 344.967715 72.659611 
L 345.907956 72.380553 
L 346.828385 72.041826 
L 347.725221 71.644824 
L 348.594779 71.191176 
L 349.433484 70.682748 
L 350.237891 70.121628 
L 351.004694 69.510123 
L 351.730743 68.850745 
L 352.413053 68.146204 
L 353.048822 67.399394 
L 353.635435 66.613385 
L 354.170484 65.791406 
L 354.651769 64.936836 
L 355.077313 64.053185 
L 355.445367 63.144085 
L 355.754418 62.213272 
L 356.003197 61.26457 
L 356.190681 60.301878 
L 356.3161 59.329152 
L 356.378939 58.350389 
L 356.378939 57.369611 
L 356.3161 56.390848 
L 356.190681 55.418122 
L 356.003197 54.45543 
L 355.754418 53.506728 
L 355.445367 52.575915 
L 355.077313 51.666815 
L 354.651769 50.783164 
L 354.170484 49.928594 
L 353.635435 49.106615 
L 353.048822 48.320606 
L 352.413053 47.573796 
L 351.730743 46.869255 
L 351.004694 46.209877 
L 350.237891 45.598372 
L 349.433484 45.037252 
L 348.594779 44.528824 
L 347.725221 44.075176 
L 346.828385 43.678174 
L 345.907956 43.339447 
L 344.967715 43.060389 
L 344.011527 42.842145 
L 343.043321 42.685613 
L 342.067074 42.591435 
L 341.0868 42.56 
L 341.0868 42.56 
L 321.1968 42.56 
L 321.1968 57.86 
L 321.1968 73.16 
L 341.0868 73.16 
" clip-path="url(#p521d06d915)" style="fill: none; stroke: #000000; stroke-width: 2; stroke-linecap: round"/>
   </g>
   <g id="line2d_47">
    <path d="M 310.4868 65.51 
L 321.1968 65.51 
" clip-path="url(#p521d06d915)" style="fill: none; stroke: #000000; stroke-width: 2; stroke-linecap: round"/>
   </g>
   <g id="line2d_48">
    <path d="M 310.4868 50.21 
L 321.1968 50.21 
" clip-path="url(#p521d06d915)" style="fill: none; stroke: #000000; stroke-width: 2; stroke-linecap: round"/>
   </g>
   <g id="line2d_49">
    <path d="M 356.3868 57.86 
L 367.0968 57.86 
" clip-path="url(#p521d06d915)" style="fill: none; stroke: #000000; stroke-width: 2; stroke-linecap: round"/>
   </g>
   <g id="line2d_50">
    <path d="M 84.0468 65.51 
L 84.0468 80.81 
L 310.4868 80.81 
L 310.4868 65.51 
" clip-path="url(#p521d06d915)" style="fill: none; stroke: #000000; stroke-width: 2; stroke-linecap: round"/>
   </g>
   <g id="line2d_51">
    <path d="M 341.0868 73.16 
L 342.067074 73.128565 
L 343.043321 73.034387 
L 344.011527 72.877855 
L 344.967715 72.659611 
L 345.907956 72.380553 
L 346.828385 72.041826 
L 347.725221 71.644824 
L 348.594779 71.191176 
L 349.433484 70.682748 
L 350.237891 70.121628 
L 351.004694 69.510123 
L 351.730743 68.850745 
L 352.413053 68.146204 
L 353.048822 67.399394 
L 353.635435 66.613385 
L 354.170484 65.791406 
L 354.651769 64.936836 
L 355.077313 64.053185 
L 355.445367 63.144085 
L 355.754418 62.213272 
L 356.003197 61.26457 
L 356.190681 60.301878 
L 356.3161 59.329152 
L 356.378939 58.350389 
L 356.378939 57.369611 
L 356.3161 56.390848 
L 356.190681 55.418122 
L 356.003197 54.45543 
L 355.754418 53.506728 
L 355.445367 52.575915 
L 355.077313 51.666815 
L 354.651769 50.783164 
L 354.170484 49.928594 
L 353.635435 49.106615 
L 353.048822 48.320606 
L 352.413053 47.573796 
L 351.730743 46.869255 
L 351.004694 46.209877 
L 350.237891 45.598372 
L 349.433484 45.037252 
L 348.594779 44.528824 
L 347.725221 44.075176 
L 346.828385 43.678174 
L 345.907956 43.339447 
L 344.967715 43.060389 
L 344.011527 42.842145 
L 343.043321 42.685613 
L 342.067074 42.591435 
L 341.0868 42.56 
L 341.0868 42.56 
L 321.1968 42.56 
L 321.1968 57.86 
L 321.1968 73.16 
L 341.0868 73.16 
" clip-path="url(#p521d06d915)" style="fill: none; stroke: #000000; stroke-width: 2; stroke-linecap: round"/>
   </g>
   <g id="line2d_52">
    <path d="M 310.4868 65.51 
L 321.1968 65.51 
" clip-path="url(#p521d06d915)" style="fill: none; stroke: #000000; stroke-width: 2; stroke-linecap: round"/>
   </g>
   <g id="line2d_53">
    <path d="M 310.4868 50.21 
L 321.1968 50.21 
" clip-path="url(#p521d06d915)" style="fill: none; stroke: #000000; stroke-width: 2; stroke-linecap: round"/>
   </g>
   <g id="line2d_54">
    <path d="M 356.3868 57.86 
L 367.0968 57.86 
" clip-path="url(#p521d06d915)" style="fill: none; stroke: #000000; stroke-width: 2; stroke-linecap: round"/>
   </g>
   <g id="text_1">
    <g clip-path="url(#p521d06d915)">
     <!-- X -->
     <g transform="translate(15.8143 61.309219) scale(0.125 -0.125)">
      <defs>
       <path id="DejaVuSans-58" d="M 403 4666 
L 1081 4666 
L 2241 2931 
L 3406 4666 
L 4084 4666 
L 2584 2425 
L 4184 0 
L 3506 0 
L 2194 1984 
L 872 0 
L 191 0 
L 1856 2491 
L 403 4666 
z
" transform="scale(0.015625)"/>
      </defs>
      <use xlink:href="#DejaVuSans-58"/>
     </g>
    </g>
   </g>
   <g id="text_2">
    <g clip-path="url(#p521d06d915)">
     <!-- X -->
     <g transform="translate(15.8143 76.609219) scale(0.125 -0.125)">
      <use xlink:href="#DejaVuSans-58"/>
     </g>
    </g>
   </g>
   <g id="text_3">
    <g clip-path="url(#p521d06d915)">
     <!-- X -->
     <g transform="translate(15.8143 61.309219) scale(0.125 -0.125)">
      <use xlink:href="#DejaVuSans-58"/>
     </g>
    </g>
   </g>
   <g id="text_4">
    <g clip-path="url(#p521d06d915)">
     <!-- X -->
     <g transform="translate(15.8143 76.609219) scale(0.125 -0.125)">
      <use xlink:href="#DejaVuSans-58"/>
     </g>
    </g>
   </g>
   <g id="text_5">
    <g clip-path="url(#p521d06d915)">
     <!-- G1 -->
     <g transform="translate(46.922464 65.899219) scale(0.125 -0.125)">
      <defs>
       <path id="DejaVuSans-47" d="M 3809 666 
L 3809 1919 
L 2778 1919 
L 2778 2438 
L 4434 2438 
L 4434 434 
Q 4069 175 3628 42 
Q 3188 -91 2688 -91 
Q 1594 -91 976 548 
Q 359 1188 359 2328 
Q 359 3472 976 4111 
Q 1594 4750 2688 4750 
Q 3144 4750 3555 4637 
Q 3966 4525 4313 4306 
L 4313 3634 
Q 3963 3931 3569 4081 
Q 3175 4231 2741 4231 
Q 1884 4231 1454 3753 
Q 1025 3275 1025 2328 
Q 1025 1384 1454 906 
Q 1884 428 2741 428 
Q 3075 428 3337 486 
Q 3600 544 3809 666 
z
" transform="scale(0.015625)"/>
       <path id="DejaVuSans-31" d="M 794 531 
L 1825 531 
L 1825 4091 
L 703 3866 
L 703 4441 
L 1819 4666 
L 2450 4666 
L 2450 531 
L 3481 531 
L 3481 0 
L 794 0 
L 794 531 
z
" transform="scale(0.015625)"/>
      </defs>
      <use xlink:href="#DejaVuSans-47"/>
      <use xlink:href="#DejaVuSans-31" x="77.490234"/>
     </g>
    </g>
   </g>
   <g id="text_6">
    <g clip-path="url(#p521d06d915)">
     <!-- X -->
     <g transform="translate(15.8143 61.309219) scale(0.125 -0.125)">
      <use xlink:href="#DejaVuSans-58"/>
     </g>
    </g>
   </g>
   <g id="text_7">
    <g clip-path="url(#p521d06d915)">
     <!-- X -->
     <g transform="translate(15.8143 76.609219) scale(0.125 -0.125)">
      <use xlink:href="#DejaVuSans-58"/>
     </g>
    </g>
   </g>
   <g id="text_8">
    <g clip-path="url(#p521d06d915)">
     <!-- X -->
     <g transform="translate(15.8143 61.309219) scale(0.125 -0.125)">
      <use xlink:href="#DejaVuSans-58"/>
     </g>
    </g>
   </g>
   <g id="text_9">
    <g clip-path="url(#p521d06d915)">
     <!-- X -->
     <g transform="translate(15.8143 76.609219) scale(0.125 -0.125)">
      <use xlink:href="#DejaVuSans-58"/>
     </g>
    </g>
   </g>
   <g id="text_10">
    <g clip-path="url(#p521d06d915)">
     <!-- G1 -->
     <g transform="translate(46.922464 65.899219) scale(0.125 -0.125)">
      <use xlink:href="#DejaVuSans-47"/>
      <use xlink:href="#DejaVuSans-31" x="77.490234"/>
     </g>
    </g>
   </g>
   <g id="text_11">
    <g clip-path="url(#p521d06d915)">
     <!-- 0.2907 -->
     <g transform="translate(40.308519 38.359219) scale(0.125 -0.125)">
      <defs>
       <path id="DejaVuSans-30" d="M 2034 4250 
Q 1547 4250 1301 3770 
Q 1056 3291 1056 2328 
Q 1056 1369 1301 889 
Q 1547 409 2034 409 
Q 2525 409 2770 889 
Q 3016 1369 3016 2328 
Q 3016 3291 2770 3770 
Q 2525 4250 2034 4250 
z
M 2034 4750 
Q 2819 4750 3233 4129 
Q 3647 3509 3647 2328 
Q 3647 1150 3233 529 
Q 2819 -91 2034 -91 
Q 1250 -91 836 529 
Q 422 1150 422 2328 
Q 422 3509 836 4129 
Q 1250 4750 2034 4750 
z
" transform="scale(0.015625)"/>
       <path id="DejaVuSans-2e" d="M 684 794 
L 1344 794 
L 1344 0 
L 684 0 
L 684 794 
z
" transform="scale(0.015625)"/>
       <path id="DejaVuSans-32" d="M 1228 531 
L 3431 531 
L 3431 0 
L 469 0 
L 469 531 
Q 828 903 1448 1529 
Q 2069 2156 2228 2338 
Q 2531 2678 2651 2914 
Q 2772 3150 2772 3378 
Q 2772 3750 2511 3984 
Q 2250 4219 1831 4219 
Q 1534 4219 1204 4116 
Q 875 4013 500 3803 
L 500 4441 
Q 881 4594 1212 4672 
Q 1544 4750 1819 4750 
Q 2544 4750 2975 4387 
Q 3406 4025 3406 3419 
Q 3406 3131 3298 2873 
Q 3191 2616 2906 2266 
Q 2828 2175 2409 1742 
Q 1991 1309 1228 531 
z
" transform="scale(0.015625)"/>
       <path id="DejaVuSans-39" d="M 703 97 
L 703 672 
Q 941 559 1184 500 
Q 1428 441 1663 441 
Q 2288 441 2617 861 
Q 2947 1281 2994 2138 
Q 2813 1869 2534 1725 
Q 2256 1581 1919 1581 
Q 1219 1581 811 2004 
Q 403 2428 403 3163 
Q 403 3881 828 4315 
Q 1253 4750 1959 4750 
Q 2769 4750 3195 4129 
Q 3622 3509 3622 2328 
Q 3622 1225 3098 567 
Q 2575 -91 1691 -91 
Q 1453 -91 1209 -44 
Q 966 3 703 97 
z
M 1959 2075 
Q 2384 2075 2632 2365 
Q 2881 2656 2881 3163 
Q 2881 3666 2632 3958 
Q 2384 4250 1959 4250 
Q 1534 4250 1286 3958 
Q 1038 3666 1038 3163 
Q 1038 2656 1286 2365 
Q 1534 2075 1959 2075 
z
" transform="scale(0.015625)"/>
       <path id="DejaVuSans-37" d="M 525 4666 
L 3525 4666 
L 3525 4397 
L 1831 0 
L 1172 0 
L 2766 4134 
L 525 4134 
L 525 4666 
z
" transform="scale(0.015625)"/>
      </defs>
      <use xlink:href="#DejaVuSans-30"/>
      <use xlink:href="#DejaVuSans-2e" x="63.623047"/>
      <use xlink:href="#DejaVuSans-32" x="95.410156"/>
      <use xlink:href="#DejaVuSans-39" x="159.033203"/>
      <use xlink:href="#DejaVuSans-30" x="222.65625"/>
      <use xlink:href="#DejaVuSans-37" x="286.279297"/>
     </g>
    </g>
   </g>
   <g id="text_12">
    <g clip-path="url(#p521d06d915)">
     <!-- 0.2907 -->
     <g transform="translate(40.308519 38.359219) scale(0.125 -0.125)">
      <use xlink:href="#DejaVuSans-30"/>
      <use xlink:href="#DejaVuSans-2e" x="63.623047"/>
      <use xlink:href="#DejaVuSans-32" x="95.410156"/>
      <use xlink:href="#DejaVuSans-39" x="159.033203"/>
      <use xlink:href="#DejaVuSans-30" x="222.65625"/>
      <use xlink:href="#DejaVuSans-37" x="286.279297"/>
     </g>
    </g>
   </g>
   <g id="text_13">
    <g clip-path="url(#p521d06d915)">
     <!-- G2 -->
     <g transform="translate(103.532464 58.249219) scale(0.125 -0.125)">
      <use xlink:href="#DejaVuSans-47"/>
      <use xlink:href="#DejaVuSans-32" x="77.490234"/>
     </g>
    </g>
   </g>
   <g id="text_14">
    <g clip-path="url(#p521d06d915)">
     <!-- 0.2907 -->
     <g transform="translate(40.308519 38.359219) scale(0.125 -0.125)">
      <use xlink:href="#DejaVuSans-30"/>
      <use xlink:href="#DejaVuSans-2e" x="63.623047"/>
      <use xlink:href="#DejaVuSans-32" x="95.410156"/>
      <use xlink:href="#DejaVuSans-39" x="159.033203"/>
      <use xlink:href="#DejaVuSans-30" x="222.65625"/>
      <use xlink:href="#DejaVuSans-37" x="286.279297"/>
     </g>
    </g>
   </g>
   <g id="text_15">
    <g clip-path="url(#p521d06d915)">
     <!-- 0.2907 -->
     <g transform="translate(40.308519 38.359219) scale(0.125 -0.125)">
      <use xlink:href="#DejaVuSans-30"/>
      <use xlink:href="#DejaVuSans-2e" x="63.623047"/>
      <use xlink:href="#DejaVuSans-32" x="95.410156"/>
      <use xlink:href="#DejaVuSans-39" x="159.033203"/>
      <use xlink:href="#DejaVuSans-30" x="222.65625"/>
      <use xlink:href="#DejaVuSans-37" x="286.279297"/>
     </g>
    </g>
   </g>
   <g id="text_16">
    <g clip-path="url(#p521d06d915)">
     <!-- G2 -->
     <g transform="translate(103.532464 58.249219) scale(0.125 -0.125)">
      <use xlink:href="#DejaVuSans-47"/>
      <use xlink:href="#DejaVuSans-32" x="77.490234"/>
     </g>
    </g>
   </g>
   <g id="text_17">
    <g clip-path="url(#p521d06d915)">
     <!-- 0.5832 -->
     <g transform="translate(96.918519 30.709219) scale(0.125 -0.125)">
      <defs>
       <path id="DejaVuSans-35" d="M 691 4666 
L 3169 4666 
L 3169 4134 
L 1269 4134 
L 1269 2991 
Q 1406 3038 1543 3061 
Q 1681 3084 1819 3084 
Q 2600 3084 3056 2656 
Q 3513 2228 3513 1497 
Q 3513 744 3044 326 
Q 2575 -91 1722 -91 
Q 1428 -91 1123 -41 
Q 819 9 494 109 
L 494 744 
Q 775 591 1075 516 
Q 1375 441 1709 441 
Q 2250 441 2565 725 
Q 2881 1009 2881 1497 
Q 2881 1984 2565 2268 
Q 2250 2553 1709 2553 
Q 1456 2553 1204 2497 
Q 953 2441 691 2322 
L 691 4666 
z
" transform="scale(0.015625)"/>
       <path id="DejaVuSans-38" d="M 2034 2216 
Q 1584 2216 1326 1975 
Q 1069 1734 1069 1313 
Q 1069 891 1326 650 
Q 1584 409 2034 409 
Q 2484 409 2743 651 
Q 3003 894 3003 1313 
Q 3003 1734 2745 1975 
Q 2488 2216 2034 2216 
z
M 1403 2484 
Q 997 2584 770 2862 
Q 544 3141 544 3541 
Q 544 4100 942 4425 
Q 1341 4750 2034 4750 
Q 2731 4750 3128 4425 
Q 3525 4100 3525 3541 
Q 3525 3141 3298 2862 
Q 3072 2584 2669 2484 
Q 3125 2378 3379 2068 
Q 3634 1759 3634 1313 
Q 3634 634 3220 271 
Q 2806 -91 2034 -91 
Q 1263 -91 848 271 
Q 434 634 434 1313 
Q 434 1759 690 2068 
Q 947 2378 1403 2484 
z
M 1172 3481 
Q 1172 3119 1398 2916 
Q 1625 2713 2034 2713 
Q 2441 2713 2670 2916 
Q 2900 3119 2900 3481 
Q 2900 3844 2670 4047 
Q 2441 4250 2034 4250 
Q 1625 4250 1398 4047 
Q 1172 3844 1172 3481 
z
" transform="scale(0.015625)"/>
       <path id="DejaVuSans-33" d="M 2597 2516 
Q 3050 2419 3304 2112 
Q 3559 1806 3559 1356 
Q 3559 666 3084 287 
Q 2609 -91 1734 -91 
Q 1441 -91 1130 -33 
Q 819 25 488 141 
L 488 750 
Q 750 597 1062 519 
Q 1375 441 1716 441 
Q 2309 441 2620 675 
Q 2931 909 2931 1356 
Q 2931 1769 2642 2001 
Q 2353 2234 1838 2234 
L 1294 2234 
L 1294 2753 
L 1863 2753 
Q 2328 2753 2575 2939 
Q 2822 3125 2822 3475 
Q 2822 3834 2567 4026 
Q 2313 4219 1838 4219 
Q 1578 4219 1281 4162 
Q 984 4106 628 3988 
L 628 4550 
Q 988 4650 1302 4700 
Q 1616 4750 1894 4750 
Q 2613 4750 3031 4423 
Q 3450 4097 3450 3541 
Q 3450 3153 3228 2886 
Q 3006 2619 2597 2516 
z
" transform="scale(0.015625)"/>
      </defs>
      <use xlink:href="#DejaVuSans-30"/>
      <use xlink:href="#DejaVuSans-2e" x="63.623047"/>
      <use xlink:href="#DejaVuSans-35" x="95.410156"/>
      <use xlink:href="#DejaVuSans-38" x="159.033203"/>
      <use xlink:href="#DejaVuSans-33" x="222.65625"/>
      <use xlink:href="#DejaVuSans-32" x="286.279297"/>
     </g>
    </g>
   </g>
   <g id="text_18">
    <g clip-path="url(#p521d06d915)">
     <!-- 0.5832 -->
     <g transform="translate(96.918519 30.709219) scale(0.125 -0.125)">
      <use xlink:href="#DejaVuSans-30"/>
      <use xlink:href="#DejaVuSans-2e" x="63.623047"/>
      <use xlink:href="#DejaVuSans-35" x="95.410156"/>
      <use xlink:href="#DejaVuSans-38" x="159.033203"/>
      <use xlink:href="#DejaVuSans-33" x="222.65625"/>
      <use xlink:href="#DejaVuSans-32" x="286.279297"/>
     </g>
    </g>
   </g>
   <g id="text_19">
    <g clip-path="url(#p521d06d915)">
     <!-- G3 -->
     <g transform="translate(160.142464 50.599219) scale(0.125 -0.125)">
      <use xlink:href="#DejaVuSans-47"/>
      <use xlink:href="#DejaVuSans-33" x="77.490234"/>
     </g>
    </g>
   </g>
   <g id="text_20">
    <g clip-path="url(#p521d06d915)">
     <!-- 0.5832 -->
     <g transform="translate(96.918519 30.709219) scale(0.125 -0.125)">
      <use xlink:href="#DejaVuSans-30"/>
      <use xlink:href="#DejaVuSans-2e" x="63.623047"/>
      <use xlink:href="#DejaVuSans-35" x="95.410156"/>
      <use xlink:href="#DejaVuSans-38" x="159.033203"/>
      <use xlink:href="#DejaVuSans-33" x="222.65625"/>
      <use xlink:href="#DejaVuSans-32" x="286.279297"/>
     </g>
    </g>
   </g>
   <g id="text_21">
    <g clip-path="url(#p521d06d915)">
     <!-- 0.5832 -->
     <g transform="translate(96.918519 30.709219) scale(0.125 -0.125)">
      <use xlink:href="#DejaVuSans-30"/>
      <use xlink:href="#DejaVuSans-2e" x="63.623047"/>
      <use xlink:href="#DejaVuSans-35" x="95.410156"/>
      <use xlink:href="#DejaVuSans-38" x="159.033203"/>
      <use xlink:href="#DejaVuSans-33" x="222.65625"/>
      <use xlink:href="#DejaVuSans-32" x="286.279297"/>
     </g>
    </g>
   </g>
   <g id="text_22">
    <g clip-path="url(#p521d06d915)">
     <!-- G3 -->
     <g transform="translate(160.142464 50.599219) scale(0.125 -0.125)">
      <use xlink:href="#DejaVuSans-47"/>
      <use xlink:href="#DejaVuSans-33" x="77.490234"/>
     </g>
    </g>
   </g>
   <g id="text_23">
    <g clip-path="url(#p521d06d915)">
     <!-- G4 -->
     <g transform="translate(216.752464 58.249219) scale(0.125 -0.125)">
      <defs>
       <path id="DejaVuSans-34" d="M 2419 4116 
L 825 1625 
L 2419 1625 
L 2419 4116 
z
M 2253 4666 
L 3047 4666 
L 3047 1625 
L 3713 1625 
L 3713 1100 
L 3047 1100 
L 3047 0 
L 2419 0 
L 2419 1100 
L 313 1100 
L 313 1709 
L 2253 4666 
z
" transform="scale(0.015625)"/>
      </defs>
      <use xlink:href="#DejaVuSans-47"/>
      <use xlink:href="#DejaVuSans-34" x="77.490234"/>
     </g>
    </g>
   </g>
   <g id="text_24">
    <g clip-path="url(#p521d06d915)">
     <!-- G4 -->
     <g transform="translate(216.752464 58.249219) scale(0.125 -0.125)">
      <use xlink:href="#DejaVuSans-47"/>
      <use xlink:href="#DejaVuSans-34" x="77.490234"/>
     </g>
    </g>
   </g>
   <g id="text_25">
    <g clip-path="url(#p521d06d915)">
     <!-- 0.5 -->
     <g transform="translate(233.997894 30.709219) scale(0.125 -0.125)">
      <use xlink:href="#DejaVuSans-30"/>
      <use xlink:href="#DejaVuSans-2e" x="63.623047"/>
      <use xlink:href="#DejaVuSans-35" x="95.410156"/>
     </g>
    </g>
   </g>
   <g id="text_26">
    <g clip-path="url(#p521d06d915)">
     <!-- 0.5 -->
     <g transform="translate(233.997894 30.709219) scale(0.125 -0.125)">
      <use xlink:href="#DejaVuSans-30"/>
      <use xlink:href="#DejaVuSans-2e" x="63.623047"/>
      <use xlink:href="#DejaVuSans-35" x="95.410156"/>
     </g>
    </g>
   </g>
   <g id="text_27">
    <g clip-path="url(#p521d06d915)">
     <!-- G5 -->
     <g transform="translate(273.362464 50.599219) scale(0.125 -0.125)">
      <use xlink:href="#DejaVuSans-47"/>
      <use xlink:href="#DejaVuSans-35" x="77.490234"/>
     </g>
    </g>
   </g>
   <g id="text_28">
    <g clip-path="url(#p521d06d915)">
     <!-- 0.5 -->
     <g transform="translate(233.997894 30.709219) scale(0.125 -0.125)">
      <use xlink:href="#DejaVuSans-30"/>
      <use xlink:href="#DejaVuSans-2e" x="63.623047"/>
      <use xlink:href="#DejaVuSans-35" x="95.410156"/>
     </g>
    </g>
   </g>
   <g id="text_29">
    <g clip-path="url(#p521d06d915)">
     <!-- 0.5 -->
     <g transform="translate(233.997894 30.709219) scale(0.125 -0.125)">
      <use xlink:href="#DejaVuSans-30"/>
      <use xlink:href="#DejaVuSans-2e" x="63.623047"/>
      <use xlink:href="#DejaVuSans-35" x="95.410156"/>
     </g>
    </g>
   </g>
   <g id="text_30">
    <g clip-path="url(#p521d06d915)">
     <!-- G5 -->
     <g transform="translate(273.362464 50.599219) scale(0.125 -0.125)">
      <use xlink:href="#DejaVuSans-47"/>
      <use xlink:href="#DejaVuSans-35" x="77.490234"/>
     </g>
    </g>
   </g>
   <g id="text_31">
    <g clip-path="url(#p521d06d915)">
     <!-- G6 -->
     <g transform="translate(329.972464 58.249219) scale(0.125 -0.125)">
      <defs>
       <path id="DejaVuSans-36" d="M 2113 2584 
Q 1688 2584 1439 2293 
Q 1191 2003 1191 1497 
Q 1191 994 1439 701 
Q 1688 409 2113 409 
Q 2538 409 2786 701 
Q 3034 994 3034 1497 
Q 3034 2003 2786 2293 
Q 2538 2584 2113 2584 
z
M 3366 4563 
L 3366 3988 
Q 3128 4100 2886 4159 
Q 2644 4219 2406 4219 
Q 1781 4219 1451 3797 
Q 1122 3375 1075 2522 
Q 1259 2794 1537 2939 
Q 1816 3084 2150 3084 
Q 2853 3084 3261 2657 
Q 3669 2231 3669 1497 
Q 3669 778 3244 343 
Q 2819 -91 2113 -91 
Q 1303 -91 875 529 
Q 447 1150 447 2328 
Q 447 3434 972 4092 
Q 1497 4750 2381 4750 
Q 2619 4750 2861 4703 
Q 3103 4656 3366 4563 
z
" transform="scale(0.015625)"/>
      </defs>
      <use xlink:href="#DejaVuSans-47"/>
      <use xlink:href="#DejaVuSans-36" x="77.490234"/>
     </g>
    </g>
   </g>
   <g id="text_32">
    <g clip-path="url(#p521d06d915)">
     <!-- G6 -->
     <g transform="translate(329.972464 58.249219) scale(0.125 -0.125)">
      <use xlink:href="#DejaVuSans-47"/>
      <use xlink:href="#DejaVuSans-36" x="77.490234"/>
     </g>
    </g>
   </g>
   <g id="text_33">
    <g clip-path="url(#p521d06d915)">
     <!-- $f(X)$ -->
     <g transform="translate(370.1568 61.309219) scale(0.125 -0.125)">
      <defs>
       <path id="DejaVuSans-Oblique-66" d="M 3059 4863 
L 2969 4384 
L 2419 4384 
Q 2106 4384 1964 4261 
Q 1822 4138 1753 3809 
L 1691 3500 
L 2638 3500 
L 2553 3053 
L 1606 3053 
L 1013 0 
L 434 0 
L 1031 3053 
L 481 3053 
L 563 3500 
L 1113 3500 
L 1159 3744 
Q 1278 4363 1576 4613 
Q 1875 4863 2516 4863 
L 3059 4863 
z
" transform="scale(0.015625)"/>
       <path id="DejaVuSans-28" d="M 1984 4856 
Q 1566 4138 1362 3434 
Q 1159 2731 1159 2009 
Q 1159 1288 1364 580 
Q 1569 -128 1984 -844 
L 1484 -844 
Q 1016 -109 783 600 
Q 550 1309 550 2009 
Q 550 2706 781 3412 
Q 1013 4119 1484 4856 
L 1984 4856 
z
" transform="scale(0.015625)"/>
       <path id="DejaVuSans-Oblique-58" d="M 878 4666 
L 1516 4666 
L 2316 2981 
L 3763 4666 
L 4500 4666 
L 2578 2438 
L 3738 0 
L 3103 0 
L 2163 1966 
L 459 0 
L -275 0 
L 1906 2509 
L 878 4666 
z
" transform="scale(0.015625)"/>
       <path id="DejaVuSans-29" d="M 513 4856 
L 1013 4856 
Q 1481 4119 1714 3412 
Q 1947 2706 1947 2009 
Q 1947 1309 1714 600 
Q 1481 -109 1013 -844 
L 513 -844 
Q 928 -128 1133 580 
Q 1338 1288 1338 2009 
Q 1338 2731 1133 3434 
Q 928 4138 513 4856 
z
" transform="scale(0.015625)"/>
      </defs>
      <use xlink:href="#DejaVuSans-Oblique-66" transform="translate(0 0.015625)"/>
      <use xlink:href="#DejaVuSans-28" transform="translate(35.205078 0.015625)"/>
      <use xlink:href="#DejaVuSans-Oblique-58" transform="translate(74.21875 0.015625)"/>
      <use xlink:href="#DejaVuSans-29" transform="translate(142.724609 0.015625)"/>
     </g>
    </g>
   </g>
   <g id="text_34">
    <g clip-path="url(#p521d06d915)">
     <!-- G6 -->
     <g transform="translate(329.972464 58.249219) scale(0.125 -0.125)">
      <use xlink:href="#DejaVuSans-47"/>
      <use xlink:href="#DejaVuSans-36" x="77.490234"/>
     </g>
    </g>
   </g>
   <g id="text_35">
    <g clip-path="url(#p521d06d915)">
     <!-- G6 -->
     <g transform="translate(329.972464 58.249219) scale(0.125 -0.125)">
      <use xlink:href="#DejaVuSans-47"/>
      <use xlink:href="#DejaVuSans-36" x="77.490234"/>
     </g>
    </g>
   </g>
   <g id="text_36">
    <g clip-path="url(#p521d06d915)">
     <!-- $f(X)$ -->
     <g transform="translate(370.1568 61.309219) scale(0.125 -0.125)">
      <use xlink:href="#DejaVuSans-Oblique-66" transform="translate(0 0.015625)"/>
      <use xlink:href="#DejaVuSans-28" transform="translate(35.205078 0.015625)"/>
      <use xlink:href="#DejaVuSans-Oblique-58" transform="translate(74.21875 0.015625)"/>
      <use xlink:href="#DejaVuSans-29" transform="translate(142.724609 0.015625)"/>
     </g>
    </g>
   </g>
   <g id="text_37">
    <g clip-path="url(#p521d06d915)">
     <!-- G6 -->
     <g transform="translate(329.972464 58.249219) scale(0.125 -0.125)">
      <use xlink:href="#DejaVuSans-47"/>
      <use xlink:href="#DejaVuSans-36" x="77.490234"/>
     </g>
    </g>
   </g>
   <g id="text_38">
    <g clip-path="url(#p521d06d915)">
     <!-- G6 -->
     <g transform="translate(329.972464 58.249219) scale(0.125 -0.125)">
      <use xlink:href="#DejaVuSans-47"/>
      <use xlink:href="#DejaVuSans-36" x="77.490234"/>
     </g>
    </g>
   </g>
   <g id="text_39">
    <g clip-path="url(#p521d06d915)">
     <!-- $f(X)$ -->
     <g transform="translate(370.1568 61.309219) scale(0.125 -0.125)">
      <use xlink:href="#DejaVuSans-Oblique-66" transform="translate(0 0.015625)"/>
      <use xlink:href="#DejaVuSans-28" transform="translate(35.205078 0.015625)"/>
      <use xlink:href="#DejaVuSans-Oblique-58" transform="translate(74.21875 0.015625)"/>
      <use xlink:href="#DejaVuSans-29" transform="translate(142.724609 0.015625)"/>
     </g>
    </g>
   </g>
  </g>
 </g>
 <defs>
  <clipPath id="p521d06d915">
   <rect x="7.2" y="7.2" width="398.3916" height="79.9"/>
  </clipPath>
 </defs>
</svg>
