<?xml version="1.0" encoding="utf-8" standalone="no"?>
<!DOCTYPE svg PUBLIC "-//W3C//DTD SVG 1.1//EN"
  "http://www.w3.org/Graphics/SVG/1.1/DTD/svg11.dtd">
<svg xmlns:xlink="http://www.w3.org/1999/xlink" width="190.228906pt" height="56.7pt" viewBox="0 0 190.228906 56.7" xmlns="http://www.w3.org/2000/svg" version="1.1">
 <metadata>
  <rdf:RDF xmlns:dc="http://purl.org/dc/elements/1.1/" xmlns:cc="http://creativecommons.org/ns#" xmlns:rdf="http://www.w3.org/1999/02/22-rdf-syntax-ns#">
   <cc:Work>
    <dc:type rdf:resource="http://purl.org/dc/dcmitype/StillImage"/>
    <dc:date>2023-12-31T13:23:04.112023</dc:date>
    <dc:format>image/svg+xml</dc:format>
    <dc:creator>
     <cc:Agent>
      <dc:title>Matplotlib v3.8.2, https://matplotlib.org/</dc:title>
     </cc:Agent>
    </dc:creator>
   </cc:Work>
  </rdf:RDF>
 </metadata>
 <defs>
  <style type="text/css">*{stroke-linejoin: round; stroke-linecap: butt}</style>
 </defs>
 <g id="figure_1">
  <g id="patch_1">
   <path d="M 0 56.7 
L 190.228906 56.7 
L 190.228906 0 
L 0 0 
L 0 56.7 
z
" style="fill: none"/>
  </g>
  <g id="axes_1">
   <g id="patch_2">
    <path d="M 85.398906 28.17 
C 86.544584 28.17 87.643491 27.714818 88.453608 26.904701 
C 89.263724 26.094585 89.718906 24.995677 89.718906 23.85 
C 89.718906 22.704323 89.263724 21.605415 88.453608 20.795299 
C 87.643491 19.985182 86.544584 19.53 85.398906 19.53 
C 84.253229 19.53 83.154321 19.985182 82.344205 20.795299 
C 81.534089 21.605415 81.078906 22.704323 81.078906 23.85 
C 81.078906 24.995677 81.534089 26.094585 82.344205 26.904701 
C 83.154321 27.714818 84.253229 28.17 85.398906 28.17 
L 85.398906 28.17 
z
" clip-path="url(#p96b378e426)" style="fill: none; stroke: #000000; stroke-width: 2; stroke-linejoin: miter"/>
   </g>
   <g id="patch_3">
    <path d="M 85.398906 28.17 
C 86.544584 28.17 87.643491 27.714818 88.453608 26.904701 
C 89.263724 26.094585 89.718906 24.995677 89.718906 23.85 
C 89.718906 22.704323 89.263724 21.605415 88.453608 20.795299 
C 87.643491 19.985182 86.544584 19.53 85.398906 19.53 
C 84.253229 19.53 83.154321 19.985182 82.344205 20.795299 
C 81.534089 21.605415 81.078906 22.704323 81.078906 23.85 
C 81.078906 24.995677 81.534089 26.094585 82.344205 26.904701 
C 83.154321 27.714818 84.253229 28.17 85.398906 28.17 
L 85.398906 28.17 
z
" clip-path="url(#p96b378e426)" style="fill: none; stroke: #000000; stroke-width: 2; stroke-linejoin: miter"/>
   </g>
   <g id="patch_4">
    <path d="M 151.998906 37.17 
C 153.144584 37.17 154.243491 36.714818 155.053608 35.904701 
C 155.863724 35.094585 156.318906 33.995677 156.318906 32.85 
C 156.318906 31.704323 155.863724 30.605415 155.053608 29.795299 
C 154.243491 28.985182 153.144584 28.53 151.998906 28.53 
C 150.853229 28.53 149.754321 28.985182 148.944205 29.795299 
C 148.134089 30.605415 147.678906 31.704323 147.678906 32.85 
C 147.678906 33.995677 148.134089 35.094585 148.944205 35.904701 
C 149.754321 36.714818 150.853229 37.17 151.998906 37.17 
L 151.998906 37.17 
z
" clip-path="url(#p96b378e426)" style="fill: none; stroke: #000000; stroke-width: 2; stroke-linejoin: miter"/>
   </g>
   <g id="patch_5">
    <path d="M 151.998906 37.17 
C 153.144584 37.17 154.243491 36.714818 155.053608 35.904701 
C 155.863724 35.094585 156.318906 33.995677 156.318906 32.85 
C 156.318906 31.704323 155.863724 30.605415 155.053608 29.795299 
C 154.243491 28.985182 153.144584 28.53 151.998906 28.53 
C 150.853229 28.53 149.754321 28.985182 148.944205 29.795299 
C 148.134089 30.605415 147.678906 31.704323 147.678906 32.85 
C 147.678906 33.995677 148.134089 35.094585 148.944205 35.904701 
C 149.754321 36.714818 150.853229 37.17 151.998906 37.17 
L 151.998906 37.17 
z
" clip-path="url(#p96b378e426)" style="fill: none; stroke: #000000; stroke-width: 2; stroke-linejoin: miter"/>
   </g>
   <g id="patch_6">
    <path d="M 151.998906 37.17 
C 153.144584 37.17 154.243491 36.714818 155.053608 35.904701 
C 155.863724 35.094585 156.318906 33.995677 156.318906 32.85 
C 156.318906 31.704323 155.863724 30.605415 155.053608 29.795299 
C 154.243491 28.985182 153.144584 28.53 151.998906 28.53 
C 150.853229 28.53 149.754321 28.985182 148.944205 29.795299 
C 148.134089 30.605415 147.678906 31.704323 147.678906 32.85 
C 147.678906 33.995677 148.134089 35.094585 148.944205 35.904701 
C 149.754321 36.714818 150.853229 37.17 151.998906 37.17 
L 151.998906 37.17 
z
" clip-path="url(#p96b378e426)" style="fill: none; stroke: #000000; stroke-width: 2; stroke-linejoin: miter"/>
   </g>
   <g id="line2d_1">
    <path d="M 63.078906 41.85 
L 64.23217 41.813017 
L 65.380695 41.70222 
L 66.519762 41.518065 
L 67.644689 41.261308 
L 68.750854 40.933003 
L 69.833712 40.534502 
L 70.888814 40.06744 
L 71.911822 39.533737 
L 72.898534 38.935586 
L 73.844896 38.275445 
L 74.747017 37.556027 
L 75.601192 36.780288 
L 76.40391 35.951416 
L 77.151873 35.072816 
L 77.842007 34.1481 
L 78.471476 33.181066 
L 79.037694 32.175689 
L 79.538333 31.1361 
L 79.971338 30.066571 
L 80.334928 28.971497 
L 80.627609 27.855377 
L 80.848178 26.722798 
L 80.99573 25.578414 
L 81.069658 24.426928 
L 81.069658 23.273072 
L 80.99573 22.121586 
L 80.848178 20.977202 
L 80.627609 19.844623 
L 80.334928 18.728503 
L 79.971338 17.633429 
L 79.538333 16.5639 
L 79.037694 15.524311 
L 78.471476 14.518934 
L 77.842007 13.5519 
L 77.151873 12.627184 
L 76.40391 11.748584 
L 75.601192 10.919712 
L 74.747017 10.143973 
L 73.844896 9.424555 
L 72.898534 8.764414 
L 71.911822 8.166263 
L 70.888814 7.63256 
L 69.833712 7.165498 
L 68.750854 6.766997 
L 67.644689 6.438692 
L 66.519762 6.181935 
L 65.380695 5.99778 
L 64.23217 5.886983 
L 63.078906 5.85 
L 63.078906 5.85 
L 39.678906 5.85 
L 39.678906 23.85 
L 39.678906 41.85 
L 63.078906 41.85 
" clip-path="url(#p96b378e426)" style="fill: none; stroke: #000000; stroke-width: 2; stroke-linecap: round"/>
   </g>
   <g id="line2d_2">
    <path d="M 27.078906 32.85 
L 39.678906 32.85 
" clip-path="url(#p96b378e426)" style="fill: none; stroke: #000000; stroke-width: 2; stroke-linecap: round"/>
   </g>
   <g id="line2d_3">
    <path d="M 27.078906 14.85 
L 39.678906 14.85 
" clip-path="url(#p96b378e426)" style="fill: none; stroke: #000000; stroke-width: 2; stroke-linecap: round"/>
   </g>
   <g id="line2d_4">
    <path d="M 89.718906 23.85 
L 93.678906 23.85 
" clip-path="url(#p96b378e426)" style="fill: none; stroke: #000000; stroke-width: 2; stroke-linecap: round"/>
   </g>
   <g id="line2d_5">
    <path d="M 63.078906 41.85 
L 64.23217 41.813017 
L 65.380695 41.70222 
L 66.519762 41.518065 
L 67.644689 41.261308 
L 68.750854 40.933003 
L 69.833712 40.534502 
L 70.888814 40.06744 
L 71.911822 39.533737 
L 72.898534 38.935586 
L 73.844896 38.275445 
L 74.747017 37.556027 
L 75.601192 36.780288 
L 76.40391 35.951416 
L 77.151873 35.072816 
L 77.842007 34.1481 
L 78.471476 33.181066 
L 79.037694 32.175689 
L 79.538333 31.1361 
L 79.971338 30.066571 
L 80.334928 28.971497 
L 80.627609 27.855377 
L 80.848178 26.722798 
L 80.99573 25.578414 
L 81.069658 24.426928 
L 81.069658 23.273072 
L 80.99573 22.121586 
L 80.848178 20.977202 
L 80.627609 19.844623 
L 80.334928 18.728503 
L 79.971338 17.633429 
L 79.538333 16.5639 
L 79.037694 15.524311 
L 78.471476 14.518934 
L 77.842007 13.5519 
L 77.151873 12.627184 
L 76.40391 11.748584 
L 75.601192 10.919712 
L 74.747017 10.143973 
L 73.844896 9.424555 
L 72.898534 8.764414 
L 71.911822 8.166263 
L 70.888814 7.63256 
L 69.833712 7.165498 
L 68.750854 6.766997 
L 67.644689 6.438692 
L 66.519762 6.181935 
L 65.380695 5.99778 
L 64.23217 5.886983 
L 63.078906 5.85 
L 63.078906 5.85 
L 39.678906 5.85 
L 39.678906 23.85 
L 39.678906 41.85 
L 63.078906 41.85 
" clip-path="url(#p96b378e426)" style="fill: none; stroke: #000000; stroke-width: 2; stroke-linecap: round"/>
   </g>
   <g id="line2d_6">
    <path d="M 27.078906 32.85 
L 39.678906 32.85 
" clip-path="url(#p96b378e426)" style="fill: none; stroke: #000000; stroke-width: 2; stroke-linecap: round"/>
   </g>
   <g id="line2d_7">
    <path d="M 27.078906 14.85 
L 39.678906 14.85 
" clip-path="url(#p96b378e426)" style="fill: none; stroke: #000000; stroke-width: 2; stroke-linecap: round"/>
   </g>
   <g id="line2d_8">
    <path d="M 89.718906 23.85 
L 93.678906 23.85 
" clip-path="url(#p96b378e426)" style="fill: none; stroke: #000000; stroke-width: 2; stroke-linecap: round"/>
   </g>
   <g id="line2d_9">
    <path d="M 129.678906 50.85 
L 130.83217 50.813017 
L 131.980695 50.70222 
L 133.119762 50.518065 
L 134.244689 50.261308 
L 135.350854 49.933003 
L 136.433712 49.534502 
L 137.488814 49.06744 
L 138.511822 48.533737 
L 139.498534 47.935586 
L 140.444896 47.275445 
L 141.347017 46.556027 
L 142.201192 45.780288 
L 143.00391 44.951416 
L 143.751873 44.072816 
L 144.442007 43.1481 
L 145.071476 42.181066 
L 145.637694 41.175689 
L 146.138333 40.1361 
L 146.571338 39.066571 
L 146.934928 37.971497 
L 147.227609 36.855377 
L 147.448178 35.722798 
L 147.59573 34.578414 
L 147.669658 33.426928 
L 147.669658 32.273072 
L 147.59573 31.121586 
L 147.448178 29.977202 
L 147.227609 28.844623 
L 146.934928 27.728503 
L 146.571338 26.633429 
L 146.138333 25.5639 
L 145.637694 24.524311 
L 145.071476 23.518934 
L 144.442007 22.5519 
L 143.751873 21.627184 
L 143.00391 20.748584 
L 142.201192 19.919712 
L 141.347017 19.143973 
L 140.444896 18.424555 
L 139.498534 17.764414 
L 138.511822 17.166263 
L 137.488814 16.63256 
L 136.433712 16.165498 
L 135.350854 15.766997 
L 134.244689 15.438692 
L 133.119762 15.181935 
L 131.980695 14.99778 
L 130.83217 14.886983 
L 129.678906 14.85 
L 129.678906 14.85 
L 106.278906 14.85 
L 106.278906 32.85 
L 106.278906 50.85 
L 129.678906 50.85 
" clip-path="url(#p96b378e426)" style="fill: none; stroke: #000000; stroke-width: 2; stroke-linecap: round"/>
   </g>
   <g id="line2d_10">
    <path d="M 93.678906 41.85 
L 106.278906 41.85 
" clip-path="url(#p96b378e426)" style="fill: none; stroke: #000000; stroke-width: 2; stroke-linecap: round"/>
   </g>
   <g id="line2d_11">
    <path d="M 93.678906 23.85 
L 106.278906 23.85 
" clip-path="url(#p96b378e426)" style="fill: none; stroke: #000000; stroke-width: 2; stroke-linecap: round"/>
   </g>
   <g id="line2d_12">
    <path d="M 156.318906 32.85 
L 160.278906 32.85 
" clip-path="url(#p96b378e426)" style="fill: none; stroke: #000000; stroke-width: 2; stroke-linecap: round"/>
   </g>
   <g id="line2d_13">
    <path d="M 129.678906 50.85 
L 130.83217 50.813017 
L 131.980695 50.70222 
L 133.119762 50.518065 
L 134.244689 50.261308 
L 135.350854 49.933003 
L 136.433712 49.534502 
L 137.488814 49.06744 
L 138.511822 48.533737 
L 139.498534 47.935586 
L 140.444896 47.275445 
L 141.347017 46.556027 
L 142.201192 45.780288 
L 143.00391 44.951416 
L 143.751873 44.072816 
L 144.442007 43.1481 
L 145.071476 42.181066 
L 145.637694 41.175689 
L 146.138333 40.1361 
L 146.571338 39.066571 
L 146.934928 37.971497 
L 147.227609 36.855377 
L 147.448178 35.722798 
L 147.59573 34.578414 
L 147.669658 33.426928 
L 147.669658 32.273072 
L 147.59573 31.121586 
L 147.448178 29.977202 
L 147.227609 28.844623 
L 146.934928 27.728503 
L 146.571338 26.633429 
L 146.138333 25.5639 
L 145.637694 24.524311 
L 145.071476 23.518934 
L 144.442007 22.5519 
L 143.751873 21.627184 
L 143.00391 20.748584 
L 142.201192 19.919712 
L 141.347017 19.143973 
L 140.444896 18.424555 
L 139.498534 17.764414 
L 138.511822 17.166263 
L 137.488814 16.63256 
L 136.433712 16.165498 
L 135.350854 15.766997 
L 134.244689 15.438692 
L 133.119762 15.181935 
L 131.980695 14.99778 
L 130.83217 14.886983 
L 129.678906 14.85 
L 129.678906 14.85 
L 106.278906 14.85 
L 106.278906 32.85 
L 106.278906 50.85 
L 129.678906 50.85 
" clip-path="url(#p96b378e426)" style="fill: none; stroke: #000000; stroke-width: 2; stroke-linecap: round"/>
   </g>
   <g id="line2d_14">
    <path d="M 93.678906 41.85 
L 106.278906 41.85 
" clip-path="url(#p96b378e426)" style="fill: none; stroke: #000000; stroke-width: 2; stroke-linecap: round"/>
   </g>
   <g id="line2d_15">
    <path d="M 93.678906 23.85 
L 106.278906 23.85 
" clip-path="url(#p96b378e426)" style="fill: none; stroke: #000000; stroke-width: 2; stroke-linecap: round"/>
   </g>
   <g id="line2d_16">
    <path d="M 156.318906 32.85 
L 160.278906 32.85 
" clip-path="url(#p96b378e426)" style="fill: none; stroke: #000000; stroke-width: 2; stroke-linecap: round"/>
   </g>
   <g id="line2d_17">
    <path d="M 27.078906 32.85 
L 27.078906 50.85 
L 93.678906 50.85 
L 93.678906 41.85 
" clip-path="url(#p96b378e426)" style="fill: none; stroke: #000000; stroke-width: 2; stroke-linecap: round"/>
   </g>
   <g id="line2d_18">
    <path d="M 129.678906 50.85 
L 130.83217 50.813017 
L 131.980695 50.70222 
L 133.119762 50.518065 
L 134.244689 50.261308 
L 135.350854 49.933003 
L 136.433712 49.534502 
L 137.488814 49.06744 
L 138.511822 48.533737 
L 139.498534 47.935586 
L 140.444896 47.275445 
L 141.347017 46.556027 
L 142.201192 45.780288 
L 143.00391 44.951416 
L 143.751873 44.072816 
L 144.442007 43.1481 
L 145.071476 42.181066 
L 145.637694 41.175689 
L 146.138333 40.1361 
L 146.571338 39.066571 
L 146.934928 37.971497 
L 147.227609 36.855377 
L 147.448178 35.722798 
L 147.59573 34.578414 
L 147.669658 33.426928 
L 147.669658 32.273072 
L 147.59573 31.121586 
L 147.448178 29.977202 
L 147.227609 28.844623 
L 146.934928 27.728503 
L 146.571338 26.633429 
L 146.138333 25.5639 
L 145.637694 24.524311 
L 145.071476 23.518934 
L 144.442007 22.5519 
L 143.751873 21.627184 
L 143.00391 20.748584 
L 142.201192 19.919712 
L 141.347017 19.143973 
L 140.444896 18.424555 
L 139.498534 17.764414 
L 138.511822 17.166263 
L 137.488814 16.63256 
L 136.433712 16.165498 
L 135.350854 15.766997 
L 134.244689 15.438692 
L 133.119762 15.181935 
L 131.980695 14.99778 
L 130.83217 14.886983 
L 129.678906 14.85 
L 129.678906 14.85 
L 106.278906 14.85 
L 106.278906 32.85 
L 106.278906 50.85 
L 129.678906 50.85 
" clip-path="url(#p96b378e426)" style="fill: none; stroke: #000000; stroke-width: 2; stroke-linecap: round"/>
   </g>
   <g id="line2d_19">
    <path d="M 93.678906 41.85 
L 106.278906 41.85 
" clip-path="url(#p96b378e426)" style="fill: none; stroke: #000000; stroke-width: 2; stroke-linecap: round"/>
   </g>
   <g id="line2d_20">
    <path d="M 93.678906 23.85 
L 106.278906 23.85 
" clip-path="url(#p96b378e426)" style="fill: none; stroke: #000000; stroke-width: 2; stroke-linecap: round"/>
   </g>
   <g id="line2d_21">
    <path d="M 156.318906 32.85 
L 160.278906 32.85 
" clip-path="url(#p96b378e426)" style="fill: none; stroke: #000000; stroke-width: 2; stroke-linecap: round"/>
   </g>
   <g id="text_1">
    <!-- 0.5 -->
    <g transform="translate(3.6 18.299219) scale(0.125 -0.125)">
     <defs>
      <path id="DejaVuSans-30" d="M 2034 4250 
Q 1547 4250 1301 3770 
Q 1056 3291 1056 2328 
Q 1056 1369 1301 889 
Q 1547 409 2034 409 
Q 2525 409 2770 889 
Q 3016 1369 3016 2328 
Q 3016 3291 2770 3770 
Q 2525 4250 2034 4250 
z
M 2034 4750 
Q 2819 4750 3233 4129 
Q 3647 3509 3647 2328 
Q 3647 1150 3233 529 
Q 2819 -91 2034 -91 
Q 1250 -91 836 529 
Q 422 1150 422 2328 
Q 422 3509 836 4129 
Q 1250 4750 2034 4750 
z
" transform="scale(0.015625)"/>
      <path id="DejaVuSans-2e" d="M 684 794 
L 1344 794 
L 1344 0 
L 684 0 
L 684 794 
z
" transform="scale(0.015625)"/>
      <path id="DejaVuSans-35" d="M 691 4666 
L 3169 4666 
L 3169 4134 
L 1269 4134 
L 1269 2991 
Q 1406 3038 1543 3061 
Q 1681 3084 1819 3084 
Q 2600 3084 3056 2656 
Q 3513 2228 3513 1497 
Q 3513 744 3044 326 
Q 2575 -91 1722 -91 
Q 1428 -91 1123 -41 
Q 819 9 494 109 
L 494 744 
Q 775 591 1075 516 
Q 1375 441 1709 441 
Q 2250 441 2565 725 
Q 2881 1009 2881 1497 
Q 2881 1984 2565 2268 
Q 2250 2553 1709 2553 
Q 1456 2553 1204 2497 
Q 953 2441 691 2322 
L 691 4666 
z
" transform="scale(0.015625)"/>
     </defs>
     <use xlink:href="#DejaVuSans-30"/>
     <use xlink:href="#DejaVuSans-2e" x="63.623047"/>
     <use xlink:href="#DejaVuSans-35" x="95.410156"/>
    </g>
   </g>
   <g id="text_2">
    <!-- X -->
    <g transform="translate(14.916406 36.299219) scale(0.125 -0.125)">
     <defs>
      <path id="DejaVuSans-58" d="M 403 4666 
L 1081 4666 
L 2241 2931 
L 3406 4666 
L 4084 4666 
L 2584 2425 
L 4184 0 
L 3506 0 
L 2194 1984 
L 872 0 
L 191 0 
L 1856 2491 
L 403 4666 
z
" transform="scale(0.015625)"/>
     </defs>
     <use xlink:href="#DejaVuSans-58"/>
    </g>
   </g>
   <g id="text_3">
    <!-- 0.5 -->
    <g transform="translate(3.6 18.299219) scale(0.125 -0.125)">
     <use xlink:href="#DejaVuSans-30"/>
     <use xlink:href="#DejaVuSans-2e" x="63.623047"/>
     <use xlink:href="#DejaVuSans-35" x="95.410156"/>
    </g>
   </g>
   <g id="text_4">
    <!-- X -->
    <g transform="translate(14.916406 36.299219) scale(0.125 -0.125)">
     <use xlink:href="#DejaVuSans-58"/>
    </g>
   </g>
   <g id="text_5">
    <!-- G1 -->
    <g transform="translate(51.55957 23.699219) scale(0.125 -0.125)">
     <defs>
      <path id="DejaVuSans-47" d="M 3809 666 
L 3809 1919 
L 2778 1919 
L 2778 2438 
L 4434 2438 
L 4434 434 
Q 4069 175 3628 42 
Q 3188 -91 2688 -91 
Q 1594 -91 976 548 
Q 359 1188 359 2328 
Q 359 3472 976 4111 
Q 1594 4750 2688 4750 
Q 3144 4750 3555 4637 
Q 3966 4525 4313 4306 
L 4313 3634 
Q 3963 3931 3569 4081 
Q 3175 4231 2741 4231 
Q 1884 4231 1454 3753 
Q 1025 3275 1025 2328 
Q 1025 1384 1454 906 
Q 1884 428 2741 428 
Q 3075 428 3337 486 
Q 3600 544 3809 666 
z
" transform="scale(0.015625)"/>
      <path id="DejaVuSans-31" d="M 794 531 
L 1825 531 
L 1825 4091 
L 703 3866 
L 703 4441 
L 1819 4666 
L 2450 4666 
L 2450 531 
L 3481 531 
L 3481 0 
L 794 0 
L 794 531 
z
" transform="scale(0.015625)"/>
     </defs>
     <use xlink:href="#DejaVuSans-47"/>
     <use xlink:href="#DejaVuSans-31" x="77.490234"/>
    </g>
   </g>
   <g id="text_6">
    <!-- 0.5 -->
    <g transform="translate(3.6 18.299219) scale(0.125 -0.125)">
     <use xlink:href="#DejaVuSans-30"/>
     <use xlink:href="#DejaVuSans-2e" x="63.623047"/>
     <use xlink:href="#DejaVuSans-35" x="95.410156"/>
    </g>
   </g>
   <g id="text_7">
    <!-- X -->
    <g transform="translate(14.916406 36.299219) scale(0.125 -0.125)">
     <use xlink:href="#DejaVuSans-58"/>
    </g>
   </g>
   <g id="text_8">
    <!-- 0.5 -->
    <g transform="translate(3.6 18.299219) scale(0.125 -0.125)">
     <use xlink:href="#DejaVuSans-30"/>
     <use xlink:href="#DejaVuSans-2e" x="63.623047"/>
     <use xlink:href="#DejaVuSans-35" x="95.410156"/>
    </g>
   </g>
   <g id="text_9">
    <!-- X -->
    <g transform="translate(14.916406 36.299219) scale(0.125 -0.125)">
     <use xlink:href="#DejaVuSans-58"/>
    </g>
   </g>
   <g id="text_10">
    <!-- G1 -->
    <g transform="translate(51.55957 23.699219) scale(0.125 -0.125)">
     <use xlink:href="#DejaVuSans-47"/>
     <use xlink:href="#DejaVuSans-31" x="77.490234"/>
    </g>
   </g>
   <g id="text_11">
    <!-- G2 -->
    <g transform="translate(118.15957 32.699219) scale(0.125 -0.125)">
     <defs>
      <path id="DejaVuSans-32" d="M 1228 531 
L 3431 531 
L 3431 0 
L 469 0 
L 469 531 
Q 828 903 1448 1529 
Q 2069 2156 2228 2338 
Q 2531 2678 2651 2914 
Q 2772 3150 2772 3378 
Q 2772 3750 2511 3984 
Q 2250 4219 1831 4219 
Q 1534 4219 1204 4116 
Q 875 4013 500 3803 
L 500 4441 
Q 881 4594 1212 4672 
Q 1544 4750 1819 4750 
Q 2544 4750 2975 4387 
Q 3406 4025 3406 3419 
Q 3406 3131 3298 2873 
Q 3191 2616 2906 2266 
Q 2828 2175 2409 1742 
Q 1991 1309 1228 531 
z
" transform="scale(0.015625)"/>
     </defs>
     <use xlink:href="#DejaVuSans-47"/>
     <use xlink:href="#DejaVuSans-32" x="77.490234"/>
    </g>
   </g>
   <g id="text_12">
    <!-- G2 -->
    <g transform="translate(118.15957 32.699219) scale(0.125 -0.125)">
     <use xlink:href="#DejaVuSans-47"/>
     <use xlink:href="#DejaVuSans-32" x="77.490234"/>
    </g>
   </g>
   <g id="text_13">
    <!-- $f(X)$ -->
    <g transform="translate(163.878906 36.299219) scale(0.125 -0.125)">
     <defs>
      <path id="DejaVuSans-Oblique-66" d="M 3059 4863 
L 2969 4384 
L 2419 4384 
Q 2106 4384 1964 4261 
Q 1822 4138 1753 3809 
L 1691 3500 
L 2638 3500 
L 2553 3053 
L 1606 3053 
L 1013 0 
L 434 0 
L 1031 3053 
L 481 3053 
L 563 3500 
L 1113 3500 
L 1159 3744 
Q 1278 4363 1576 4613 
Q 1875 4863 2516 4863 
L 3059 4863 
z
" transform="scale(0.015625)"/>
      <path id="DejaVuSans-28" d="M 1984 4856 
Q 1566 4138 1362 3434 
Q 1159 2731 1159 2009 
Q 1159 1288 1364 580 
Q 1569 -128 1984 -844 
L 1484 -844 
Q 1016 -109 783 600 
Q 550 1309 550 2009 
Q 550 2706 781 3412 
Q 1013 4119 1484 4856 
L 1984 4856 
z
" transform="scale(0.015625)"/>
      <path id="DejaVuSans-Oblique-58" d="M 878 4666 
L 1516 4666 
L 2316 2981 
L 3763 4666 
L 4500 4666 
L 2578 2438 
L 3738 0 
L 3103 0 
L 2163 1966 
L 459 0 
L -275 0 
L 1906 2509 
L 878 4666 
z
" transform="scale(0.015625)"/>
      <path id="DejaVuSans-29" d="M 513 4856 
L 1013 4856 
Q 1481 4119 1714 3412 
Q 1947 2706 1947 2009 
Q 1947 1309 1714 600 
Q 1481 -109 1013 -844 
L 513 -844 
Q 928 -128 1133 580 
Q 1338 1288 1338 2009 
Q 1338 2731 1133 3434 
Q 928 4138 513 4856 
z
" transform="scale(0.015625)"/>
     </defs>
     <use xlink:href="#DejaVuSans-Oblique-66" transform="translate(0 0.015625)"/>
     <use xlink:href="#DejaVuSans-28" transform="translate(35.205078 0.015625)"/>
     <use xlink:href="#DejaVuSans-Oblique-58" transform="translate(74.21875 0.015625)"/>
     <use xlink:href="#DejaVuSans-29" transform="translate(142.724609 0.015625)"/>
    </g>
   </g>
   <g id="text_14">
    <!-- G2 -->
    <g transform="translate(118.15957 32.699219) scale(0.125 -0.125)">
     <use xlink:href="#DejaVuSans-47"/>
     <use xlink:href="#DejaVuSans-32" x="77.490234"/>
    </g>
   </g>
   <g id="text_15">
    <!-- G2 -->
    <g transform="translate(118.15957 32.699219) scale(0.125 -0.125)">
     <use xlink:href="#DejaVuSans-47"/>
     <use xlink:href="#DejaVuSans-32" x="77.490234"/>
    </g>
   </g>
   <g id="text_16">
    <!-- $f(X)$ -->
    <g transform="translate(163.878906 36.299219) scale(0.125 -0.125)">
     <use xlink:href="#DejaVuSans-Oblique-66" transform="translate(0 0.015625)"/>
     <use xlink:href="#DejaVuSans-28" transform="translate(35.205078 0.015625)"/>
     <use xlink:href="#DejaVuSans-Oblique-58" transform="translate(74.21875 0.015625)"/>
     <use xlink:href="#DejaVuSans-29" transform="translate(142.724609 0.015625)"/>
    </g>
   </g>
   <g id="text_17">
    <!-- G2 -->
    <g transform="translate(118.15957 32.699219) scale(0.125 -0.125)">
     <use xlink:href="#DejaVuSans-47"/>
     <use xlink:href="#DejaVuSans-32" x="77.490234"/>
    </g>
   </g>
   <g id="text_18">
    <!-- G2 -->
    <g transform="translate(118.15957 32.699219) scale(0.125 -0.125)">
     <use xlink:href="#DejaVuSans-47"/>
     <use xlink:href="#DejaVuSans-32" x="77.490234"/>
    </g>
   </g>
   <g id="text_19">
    <!-- $f(X)$ -->
    <g transform="translate(163.878906 36.299219) scale(0.125 -0.125)">
     <use xlink:href="#DejaVuSans-Oblique-66" transform="translate(0 0.015625)"/>
     <use xlink:href="#DejaVuSans-28" transform="translate(35.205078 0.015625)"/>
     <use xlink:href="#DejaVuSans-Oblique-58" transform="translate(74.21875 0.015625)"/>
     <use xlink:href="#DejaVuSans-29" transform="translate(142.724609 0.015625)"/>
    </g>
   </g>
  </g>
 </g>
 <defs>
  <clipPath id="p96b378e426">
   <rect x="20.418906" y="3.6" width="146.52" height="49.5"/>
  </clipPath>
 </defs>
</svg>
