<?xml version="1.0" encoding="utf-8" standalone="no"?>
<!DOCTYPE svg PUBLIC "-//W3C//DTD SVG 1.1//EN"
  "http://www.w3.org/Graphics/SVG/1.1/DTD/svg11.dtd">
<svg xmlns:xlink="http://www.w3.org/1999/xlink" width="331.382031pt" height="78.948828pt" viewBox="0 0 331.382031 78.948828" xmlns="http://www.w3.org/2000/svg" version="1.1">
 <metadata>
  <rdf:RDF xmlns:dc="http://purl.org/dc/elements/1.1/" xmlns:cc="http://creativecommons.org/ns#" xmlns:rdf="http://www.w3.org/1999/02/22-rdf-syntax-ns#">
   <cc:Work>
    <dc:type rdf:resource="http://purl.org/dc/dcmitype/StillImage"/>
    <dc:date>2023-12-12T16:07:08.254607</dc:date>
    <dc:format>image/svg+xml</dc:format>
    <dc:creator>
     <cc:Agent>
      <dc:title>Matplotlib v3.8.2, https://matplotlib.org/</dc:title>
     </cc:Agent>
    </dc:creator>
   </cc:Work>
  </rdf:RDF>
 </metadata>
 <defs>
  <style type="text/css">*{stroke-linejoin: round; stroke-linecap: butt}</style>
 </defs>
 <g id="figure_1">
  <g id="patch_1">
   <path d="M 0 78.948828 
L 331.382031 78.948828 
L 331.382031 0 
L 0 0 
L 0 78.948828 
z
" style="fill: none"/>
  </g>
  <g id="axes_1">
   <g id="patch_2">
    <path d="M 93.352031 49.968828 
C 94.497709 49.968828 95.596616 49.513646 96.406733 48.703529 
C 97.216849 47.893413 97.672031 46.794506 97.672031 45.648828 
C 97.672031 44.503151 97.216849 43.404243 96.406733 42.594127 
C 95.596616 41.784011 94.497709 41.328828 93.352031 41.328828 
C 92.206354 41.328828 91.107446 41.784011 90.29733 42.594127 
C 89.487214 43.404243 89.032031 44.503151 89.032031 45.648828 
C 89.032031 46.794506 89.487214 47.893413 90.29733 48.703529 
C 91.107446 49.513646 92.206354 49.968828 93.352031 49.968828 
L 93.352031 49.968828 
z
" clip-path="url(#pe12591b1e9)" style="fill: none; stroke: #000000; stroke-width: 2; stroke-linejoin: miter"/>
   </g>
   <g id="patch_3">
    <path d="M 93.352031 49.968828 
C 94.497709 49.968828 95.596616 49.513646 96.406733 48.703529 
C 97.216849 47.893413 97.672031 46.794506 97.672031 45.648828 
C 97.672031 44.503151 97.216849 43.404243 96.406733 42.594127 
C 95.596616 41.784011 94.497709 41.328828 93.352031 41.328828 
C 92.206354 41.328828 91.107446 41.784011 90.29733 42.594127 
C 89.487214 43.404243 89.032031 44.503151 89.032031 45.648828 
C 89.032031 46.794506 89.487214 47.893413 90.29733 48.703529 
C 91.107446 49.513646 92.206354 49.968828 93.352031 49.968828 
L 93.352031 49.968828 
z
" clip-path="url(#pe12591b1e9)" style="fill: none; stroke: #000000; stroke-width: 2; stroke-linejoin: miter"/>
   </g>
   <g id="patch_4">
    <path d="M 159.952031 40.968828 
C 161.097709 40.968828 162.196616 40.513646 163.006733 39.703529 
C 163.816849 38.893413 164.272031 37.794506 164.272031 36.648828 
C 164.272031 35.503151 163.816849 34.404243 163.006733 33.594127 
C 162.196616 32.784011 161.097709 32.328828 159.952031 32.328828 
C 158.806354 32.328828 157.707446 32.784011 156.89733 33.594127 
C 156.087214 34.404243 155.632031 35.503151 155.632031 36.648828 
C 155.632031 37.794506 156.087214 38.893413 156.89733 39.703529 
C 157.707446 40.513646 158.806354 40.968828 159.952031 40.968828 
L 159.952031 40.968828 
z
" clip-path="url(#pe12591b1e9)" style="fill: none; stroke: #000000; stroke-width: 2; stroke-linejoin: miter"/>
   </g>
   <g id="patch_5">
    <path d="M 159.952031 40.968828 
C 161.097709 40.968828 162.196616 40.513646 163.006733 39.703529 
C 163.816849 38.893413 164.272031 37.794506 164.272031 36.648828 
C 164.272031 35.503151 163.816849 34.404243 163.006733 33.594127 
C 162.196616 32.784011 161.097709 32.328828 159.952031 32.328828 
C 158.806354 32.328828 157.707446 32.784011 156.89733 33.594127 
C 156.087214 34.404243 155.632031 35.503151 155.632031 36.648828 
C 155.632031 37.794506 156.087214 38.893413 156.89733 39.703529 
C 157.707446 40.513646 158.806354 40.968828 159.952031 40.968828 
L 159.952031 40.968828 
z
" clip-path="url(#pe12591b1e9)" style="fill: none; stroke: #000000; stroke-width: 2; stroke-linejoin: miter"/>
   </g>
   <g id="patch_6">
    <path d="M 226.552031 49.968828 
C 227.697709 49.968828 228.796616 49.513646 229.606733 48.703529 
C 230.416849 47.893413 230.872031 46.794506 230.872031 45.648828 
C 230.872031 44.503151 230.416849 43.404243 229.606733 42.594127 
C 228.796616 41.784011 227.697709 41.328828 226.552031 41.328828 
C 225.406354 41.328828 224.307446 41.784011 223.49733 42.594127 
C 222.687214 43.404243 222.232031 44.503151 222.232031 45.648828 
C 222.232031 46.794506 222.687214 47.893413 223.49733 48.703529 
C 224.307446 49.513646 225.406354 49.968828 226.552031 49.968828 
L 226.552031 49.968828 
z
" clip-path="url(#pe12591b1e9)" style="fill: none; stroke: #000000; stroke-width: 2; stroke-linejoin: miter"/>
   </g>
   <g id="patch_7">
    <path d="M 226.552031 49.968828 
C 227.697709 49.968828 228.796616 49.513646 229.606733 48.703529 
C 230.416849 47.893413 230.872031 46.794506 230.872031 45.648828 
C 230.872031 44.503151 230.416849 43.404243 229.606733 42.594127 
C 228.796616 41.784011 227.697709 41.328828 226.552031 41.328828 
C 225.406354 41.328828 224.307446 41.784011 223.49733 42.594127 
C 222.687214 43.404243 222.232031 44.503151 222.232031 45.648828 
C 222.232031 46.794506 222.687214 47.893413 223.49733 48.703529 
C 224.307446 49.513646 225.406354 49.968828 226.552031 49.968828 
L 226.552031 49.968828 
z
" clip-path="url(#pe12591b1e9)" style="fill: none; stroke: #000000; stroke-width: 2; stroke-linejoin: miter"/>
   </g>
   <g id="patch_8">
    <path d="M 293.152031 40.968828 
C 294.297709 40.968828 295.396616 40.513646 296.206733 39.703529 
C 297.016849 38.893413 297.472031 37.794506 297.472031 36.648828 
C 297.472031 35.503151 297.016849 34.404243 296.206733 33.594127 
C 295.396616 32.784011 294.297709 32.328828 293.152031 32.328828 
C 292.006354 32.328828 290.907446 32.784011 290.09733 33.594127 
C 289.287214 34.404243 288.832031 35.503151 288.832031 36.648828 
C 288.832031 37.794506 289.287214 38.893413 290.09733 39.703529 
C 290.907446 40.513646 292.006354 40.968828 293.152031 40.968828 
L 293.152031 40.968828 
z
" clip-path="url(#pe12591b1e9)" style="fill: none; stroke: #000000; stroke-width: 2; stroke-linejoin: miter"/>
   </g>
   <g id="patch_9">
    <path d="M 293.152031 40.968828 
C 294.297709 40.968828 295.396616 40.513646 296.206733 39.703529 
C 297.016849 38.893413 297.472031 37.794506 297.472031 36.648828 
C 297.472031 35.503151 297.016849 34.404243 296.206733 33.594127 
C 295.396616 32.784011 294.297709 32.328828 293.152031 32.328828 
C 292.006354 32.328828 290.907446 32.784011 290.09733 33.594127 
C 289.287214 34.404243 288.832031 35.503151 288.832031 36.648828 
C 288.832031 37.794506 289.287214 38.893413 290.09733 39.703529 
C 290.907446 40.513646 292.006354 40.968828 293.152031 40.968828 
L 293.152031 40.968828 
z
" clip-path="url(#pe12591b1e9)" style="fill: none; stroke: #000000; stroke-width: 2; stroke-linejoin: miter"/>
   </g>
   <g id="patch_10">
    <path d="M 293.152031 40.968828 
C 294.297709 40.968828 295.396616 40.513646 296.206733 39.703529 
C 297.016849 38.893413 297.472031 37.794506 297.472031 36.648828 
C 297.472031 35.503151 297.016849 34.404243 296.206733 33.594127 
C 295.396616 32.784011 294.297709 32.328828 293.152031 32.328828 
C 292.006354 32.328828 290.907446 32.784011 290.09733 33.594127 
C 289.287214 34.404243 288.832031 35.503151 288.832031 36.648828 
C 288.832031 37.794506 289.287214 38.893413 290.09733 39.703529 
C 290.907446 40.513646 292.006354 40.968828 293.152031 40.968828 
L 293.152031 40.968828 
z
" clip-path="url(#pe12591b1e9)" style="fill: none; stroke: #000000; stroke-width: 2; stroke-linejoin: miter"/>
   </g>
   <g id="line2d_1">
    <path d="M 71.032031 63.648828 
L 72.185295 63.611845 
L 73.33382 63.501048 
L 74.472887 63.316893 
L 75.597814 63.060136 
L 76.703979 62.731832 
L 77.786837 62.33333 
L 78.841939 61.866268 
L 79.864947 61.332565 
L 80.851659 60.734414 
L 81.798021 60.074273 
L 82.700142 59.354855 
L 83.554317 58.579116 
L 84.357035 57.750244 
L 85.104998 56.871645 
L 85.795132 55.946928 
L 86.424601 54.979894 
L 86.990819 53.974517 
L 87.491458 52.934928 
L 87.924463 51.865399 
L 88.288053 50.770325 
L 88.580734 49.654205 
L 88.801303 48.521626 
L 88.948855 47.377243 
L 89.022783 46.225757 
L 89.022783 45.0719 
L 88.948855 43.920414 
L 88.801303 42.77603 
L 88.580734 41.643451 
L 88.288053 40.527332 
L 87.924463 39.432257 
L 87.491458 38.362728 
L 86.990819 37.323139 
L 86.424601 36.317762 
L 85.795132 35.350728 
L 85.104998 34.426012 
L 84.357035 33.547412 
L 83.554317 32.71854 
L 82.700142 31.942801 
L 81.798021 31.223383 
L 80.851659 30.563242 
L 79.864947 29.965091 
L 78.841939 29.431389 
L 77.786837 28.964326 
L 76.703979 28.565825 
L 75.597814 28.237521 
L 74.472887 27.980763 
L 73.33382 27.796608 
L 72.185295 27.685811 
L 71.032031 27.648828 
L 71.032031 27.648828 
L 47.632031 27.648828 
L 47.632031 45.648828 
L 47.632031 63.648828 
L 71.032031 63.648828 
" clip-path="url(#pe12591b1e9)" style="fill: none; stroke: #000000; stroke-width: 2; stroke-linecap: round"/>
   </g>
   <g id="line2d_2">
    <path d="M 35.032031 54.648828 
L 47.632031 54.648828 
" clip-path="url(#pe12591b1e9)" style="fill: none; stroke: #000000; stroke-width: 2; stroke-linecap: round"/>
   </g>
   <g id="line2d_3">
    <path d="M 35.032031 36.648828 
L 47.632031 36.648828 
" clip-path="url(#pe12591b1e9)" style="fill: none; stroke: #000000; stroke-width: 2; stroke-linecap: round"/>
   </g>
   <g id="line2d_4">
    <path d="M 97.672031 45.648828 
L 101.632031 45.648828 
" clip-path="url(#pe12591b1e9)" style="fill: none; stroke: #000000; stroke-width: 2; stroke-linecap: round"/>
   </g>
   <g id="line2d_5">
    <path d="M 71.032031 63.648828 
L 72.185295 63.611845 
L 73.33382 63.501048 
L 74.472887 63.316893 
L 75.597814 63.060136 
L 76.703979 62.731832 
L 77.786837 62.33333 
L 78.841939 61.866268 
L 79.864947 61.332565 
L 80.851659 60.734414 
L 81.798021 60.074273 
L 82.700142 59.354855 
L 83.554317 58.579116 
L 84.357035 57.750244 
L 85.104998 56.871645 
L 85.795132 55.946928 
L 86.424601 54.979894 
L 86.990819 53.974517 
L 87.491458 52.934928 
L 87.924463 51.865399 
L 88.288053 50.770325 
L 88.580734 49.654205 
L 88.801303 48.521626 
L 88.948855 47.377243 
L 89.022783 46.225757 
L 89.022783 45.0719 
L 88.948855 43.920414 
L 88.801303 42.77603 
L 88.580734 41.643451 
L 88.288053 40.527332 
L 87.924463 39.432257 
L 87.491458 38.362728 
L 86.990819 37.323139 
L 86.424601 36.317762 
L 85.795132 35.350728 
L 85.104998 34.426012 
L 84.357035 33.547412 
L 83.554317 32.71854 
L 82.700142 31.942801 
L 81.798021 31.223383 
L 80.851659 30.563242 
L 79.864947 29.965091 
L 78.841939 29.431389 
L 77.786837 28.964326 
L 76.703979 28.565825 
L 75.597814 28.237521 
L 74.472887 27.980763 
L 73.33382 27.796608 
L 72.185295 27.685811 
L 71.032031 27.648828 
L 71.032031 27.648828 
L 47.632031 27.648828 
L 47.632031 45.648828 
L 47.632031 63.648828 
L 71.032031 63.648828 
" clip-path="url(#pe12591b1e9)" style="fill: none; stroke: #000000; stroke-width: 2; stroke-linecap: round"/>
   </g>
   <g id="line2d_6">
    <path d="M 35.032031 54.648828 
L 47.632031 54.648828 
" clip-path="url(#pe12591b1e9)" style="fill: none; stroke: #000000; stroke-width: 2; stroke-linecap: round"/>
   </g>
   <g id="line2d_7">
    <path d="M 35.032031 36.648828 
L 47.632031 36.648828 
" clip-path="url(#pe12591b1e9)" style="fill: none; stroke: #000000; stroke-width: 2; stroke-linecap: round"/>
   </g>
   <g id="line2d_8">
    <path d="M 97.672031 45.648828 
L 101.632031 45.648828 
" clip-path="url(#pe12591b1e9)" style="fill: none; stroke: #000000; stroke-width: 2; stroke-linecap: round"/>
   </g>
   <g id="line2d_9">
    <path d="M 137.632031 54.648828 
L 138.785295 54.611845 
L 139.93382 54.501048 
L 141.072887 54.316893 
L 142.197814 54.060136 
L 143.303979 53.731832 
L 144.386837 53.33333 
L 145.441939 52.866268 
L 146.464947 52.332565 
L 147.451659 51.734414 
L 148.398021 51.074273 
L 149.300142 50.354855 
L 150.154317 49.579116 
L 150.957035 48.750244 
L 151.704998 47.871645 
L 152.395132 46.946928 
L 153.024601 45.979894 
L 153.590819 44.974517 
L 154.091458 43.934928 
L 154.524463 42.865399 
L 154.888053 41.770325 
L 155.180734 40.654205 
L 155.401303 39.521626 
L 155.548855 38.377243 
L 155.622783 37.225757 
L 155.622783 36.0719 
L 155.548855 34.920414 
L 155.401303 33.77603 
L 155.180734 32.643451 
L 154.888053 31.527332 
L 154.524463 30.432257 
L 154.091458 29.362728 
L 153.590819 28.323139 
L 153.024601 27.317762 
L 152.395132 26.350728 
L 151.704998 25.426012 
L 150.957035 24.547412 
L 150.154317 23.71854 
L 149.300142 22.942801 
L 148.398021 22.223383 
L 147.451659 21.563242 
L 146.464947 20.965091 
L 145.441939 20.431389 
L 144.386837 19.964326 
L 143.303979 19.565825 
L 142.197814 19.237521 
L 141.072887 18.980763 
L 139.93382 18.796608 
L 138.785295 18.685811 
L 137.632031 18.648828 
L 137.632031 18.648828 
L 114.232031 18.648828 
L 114.232031 36.648828 
L 114.232031 54.648828 
L 137.632031 54.648828 
" clip-path="url(#pe12591b1e9)" style="fill: none; stroke: #000000; stroke-width: 2; stroke-linecap: round"/>
   </g>
   <g id="line2d_10">
    <path d="M 101.632031 45.648828 
L 114.232031 45.648828 
" clip-path="url(#pe12591b1e9)" style="fill: none; stroke: #000000; stroke-width: 2; stroke-linecap: round"/>
   </g>
   <g id="line2d_11">
    <path d="M 101.632031 27.648828 
L 114.232031 27.648828 
" clip-path="url(#pe12591b1e9)" style="fill: none; stroke: #000000; stroke-width: 2; stroke-linecap: round"/>
   </g>
   <g id="line2d_12">
    <path d="M 164.272031 36.648828 
L 168.232031 36.648828 
" clip-path="url(#pe12591b1e9)" style="fill: none; stroke: #000000; stroke-width: 2; stroke-linecap: round"/>
   </g>
   <g id="line2d_13">
    <path d="M 137.632031 54.648828 
L 138.785295 54.611845 
L 139.93382 54.501048 
L 141.072887 54.316893 
L 142.197814 54.060136 
L 143.303979 53.731832 
L 144.386837 53.33333 
L 145.441939 52.866268 
L 146.464947 52.332565 
L 147.451659 51.734414 
L 148.398021 51.074273 
L 149.300142 50.354855 
L 150.154317 49.579116 
L 150.957035 48.750244 
L 151.704998 47.871645 
L 152.395132 46.946928 
L 153.024601 45.979894 
L 153.590819 44.974517 
L 154.091458 43.934928 
L 154.524463 42.865399 
L 154.888053 41.770325 
L 155.180734 40.654205 
L 155.401303 39.521626 
L 155.548855 38.377243 
L 155.622783 37.225757 
L 155.622783 36.0719 
L 155.548855 34.920414 
L 155.401303 33.77603 
L 155.180734 32.643451 
L 154.888053 31.527332 
L 154.524463 30.432257 
L 154.091458 29.362728 
L 153.590819 28.323139 
L 153.024601 27.317762 
L 152.395132 26.350728 
L 151.704998 25.426012 
L 150.957035 24.547412 
L 150.154317 23.71854 
L 149.300142 22.942801 
L 148.398021 22.223383 
L 147.451659 21.563242 
L 146.464947 20.965091 
L 145.441939 20.431389 
L 144.386837 19.964326 
L 143.303979 19.565825 
L 142.197814 19.237521 
L 141.072887 18.980763 
L 139.93382 18.796608 
L 138.785295 18.685811 
L 137.632031 18.648828 
L 137.632031 18.648828 
L 114.232031 18.648828 
L 114.232031 36.648828 
L 114.232031 54.648828 
L 137.632031 54.648828 
" clip-path="url(#pe12591b1e9)" style="fill: none; stroke: #000000; stroke-width: 2; stroke-linecap: round"/>
   </g>
   <g id="line2d_14">
    <path d="M 101.632031 45.648828 
L 114.232031 45.648828 
" clip-path="url(#pe12591b1e9)" style="fill: none; stroke: #000000; stroke-width: 2; stroke-linecap: round"/>
   </g>
   <g id="line2d_15">
    <path d="M 101.632031 27.648828 
L 114.232031 27.648828 
" clip-path="url(#pe12591b1e9)" style="fill: none; stroke: #000000; stroke-width: 2; stroke-linecap: round"/>
   </g>
   <g id="line2d_16">
    <path d="M 164.272031 36.648828 
L 168.232031 36.648828 
" clip-path="url(#pe12591b1e9)" style="fill: none; stroke: #000000; stroke-width: 2; stroke-linecap: round"/>
   </g>
   <g id="line2d_17">
    <path d="M 204.232031 63.648828 
L 205.385295 63.611845 
L 206.53382 63.501048 
L 207.672887 63.316893 
L 208.797814 63.060136 
L 209.903979 62.731832 
L 210.986837 62.33333 
L 212.041939 61.866268 
L 213.064947 61.332565 
L 214.051659 60.734414 
L 214.998021 60.074273 
L 215.900142 59.354855 
L 216.754317 58.579116 
L 217.557035 57.750244 
L 218.304998 56.871645 
L 218.995132 55.946928 
L 219.624601 54.979894 
L 220.190819 53.974517 
L 220.691458 52.934928 
L 221.124463 51.865399 
L 221.488053 50.770325 
L 221.780734 49.654205 
L 222.001303 48.521626 
L 222.148855 47.377243 
L 222.222783 46.225757 
L 222.222783 45.0719 
L 222.148855 43.920414 
L 222.001303 42.77603 
L 221.780734 41.643451 
L 221.488053 40.527332 
L 221.124463 39.432257 
L 220.691458 38.362728 
L 220.190819 37.323139 
L 219.624601 36.317762 
L 218.995132 35.350728 
L 218.304998 34.426012 
L 217.557035 33.547412 
L 216.754317 32.71854 
L 215.900142 31.942801 
L 214.998021 31.223383 
L 214.051659 30.563242 
L 213.064947 29.965091 
L 212.041939 29.431389 
L 210.986837 28.964326 
L 209.903979 28.565825 
L 208.797814 28.237521 
L 207.672887 27.980763 
L 206.53382 27.796608 
L 205.385295 27.685811 
L 204.232031 27.648828 
L 204.232031 27.648828 
L 180.832031 27.648828 
L 180.832031 45.648828 
L 180.832031 63.648828 
L 204.232031 63.648828 
" clip-path="url(#pe12591b1e9)" style="fill: none; stroke: #000000; stroke-width: 2; stroke-linecap: round"/>
   </g>
   <g id="line2d_18">
    <path d="M 168.232031 54.648828 
L 180.832031 54.648828 
" clip-path="url(#pe12591b1e9)" style="fill: none; stroke: #000000; stroke-width: 2; stroke-linecap: round"/>
   </g>
   <g id="line2d_19">
    <path d="M 168.232031 36.648828 
L 180.832031 36.648828 
" clip-path="url(#pe12591b1e9)" style="fill: none; stroke: #000000; stroke-width: 2; stroke-linecap: round"/>
   </g>
   <g id="line2d_20">
    <path d="M 230.872031 45.648828 
L 234.832031 45.648828 
" clip-path="url(#pe12591b1e9)" style="fill: none; stroke: #000000; stroke-width: 2; stroke-linecap: round"/>
   </g>
   <g id="line2d_21">
    <path d="M 204.232031 63.648828 
L 205.385295 63.611845 
L 206.53382 63.501048 
L 207.672887 63.316893 
L 208.797814 63.060136 
L 209.903979 62.731832 
L 210.986837 62.33333 
L 212.041939 61.866268 
L 213.064947 61.332565 
L 214.051659 60.734414 
L 214.998021 60.074273 
L 215.900142 59.354855 
L 216.754317 58.579116 
L 217.557035 57.750244 
L 218.304998 56.871645 
L 218.995132 55.946928 
L 219.624601 54.979894 
L 220.190819 53.974517 
L 220.691458 52.934928 
L 221.124463 51.865399 
L 221.488053 50.770325 
L 221.780734 49.654205 
L 222.001303 48.521626 
L 222.148855 47.377243 
L 222.222783 46.225757 
L 222.222783 45.0719 
L 222.148855 43.920414 
L 222.001303 42.77603 
L 221.780734 41.643451 
L 221.488053 40.527332 
L 221.124463 39.432257 
L 220.691458 38.362728 
L 220.190819 37.323139 
L 219.624601 36.317762 
L 218.995132 35.350728 
L 218.304998 34.426012 
L 217.557035 33.547412 
L 216.754317 32.71854 
L 215.900142 31.942801 
L 214.998021 31.223383 
L 214.051659 30.563242 
L 213.064947 29.965091 
L 212.041939 29.431389 
L 210.986837 28.964326 
L 209.903979 28.565825 
L 208.797814 28.237521 
L 207.672887 27.980763 
L 206.53382 27.796608 
L 205.385295 27.685811 
L 204.232031 27.648828 
L 204.232031 27.648828 
L 180.832031 27.648828 
L 180.832031 45.648828 
L 180.832031 63.648828 
L 204.232031 63.648828 
" clip-path="url(#pe12591b1e9)" style="fill: none; stroke: #000000; stroke-width: 2; stroke-linecap: round"/>
   </g>
   <g id="line2d_22">
    <path d="M 168.232031 54.648828 
L 180.832031 54.648828 
" clip-path="url(#pe12591b1e9)" style="fill: none; stroke: #000000; stroke-width: 2; stroke-linecap: round"/>
   </g>
   <g id="line2d_23">
    <path d="M 168.232031 36.648828 
L 180.832031 36.648828 
" clip-path="url(#pe12591b1e9)" style="fill: none; stroke: #000000; stroke-width: 2; stroke-linecap: round"/>
   </g>
   <g id="line2d_24">
    <path d="M 230.872031 45.648828 
L 234.832031 45.648828 
" clip-path="url(#pe12591b1e9)" style="fill: none; stroke: #000000; stroke-width: 2; stroke-linecap: round"/>
   </g>
   <g id="line2d_25">
    <path d="M 35.032031 54.648828 
L 35.032031 72.648828 
L 168.232031 72.648828 
L 168.232031 54.648828 
" clip-path="url(#pe12591b1e9)" style="fill: none; stroke: #000000; stroke-width: 2; stroke-linecap: round"/>
   </g>
   <g id="line2d_26">
    <path d="M 270.832031 54.648828 
L 271.985295 54.611845 
L 273.13382 54.501048 
L 274.272887 54.316893 
L 275.397814 54.060136 
L 276.503979 53.731832 
L 277.586837 53.33333 
L 278.641939 52.866268 
L 279.664947 52.332565 
L 280.651659 51.734414 
L 281.598021 51.074273 
L 282.500142 50.354855 
L 283.354317 49.579116 
L 284.157035 48.750244 
L 284.904998 47.871645 
L 285.595132 46.946928 
L 286.224601 45.979894 
L 286.790819 44.974517 
L 287.291458 43.934928 
L 287.724463 42.865399 
L 288.088053 41.770325 
L 288.380734 40.654205 
L 288.601303 39.521626 
L 288.748855 38.377243 
L 288.822783 37.225757 
L 288.822783 36.0719 
L 288.748855 34.920414 
L 288.601303 33.77603 
L 288.380734 32.643451 
L 288.088053 31.527332 
L 287.724463 30.432257 
L 287.291458 29.362728 
L 286.790819 28.323139 
L 286.224601 27.317762 
L 285.595132 26.350728 
L 284.904998 25.426012 
L 284.157035 24.547412 
L 283.354317 23.71854 
L 282.500142 22.942801 
L 281.598021 22.223383 
L 280.651659 21.563242 
L 279.664947 20.965091 
L 278.641939 20.431389 
L 277.586837 19.964326 
L 276.503979 19.565825 
L 275.397814 19.237521 
L 274.272887 18.980763 
L 273.13382 18.796608 
L 271.985295 18.685811 
L 270.832031 18.648828 
L 270.832031 18.648828 
L 247.432031 18.648828 
L 247.432031 36.648828 
L 247.432031 54.648828 
L 270.832031 54.648828 
" clip-path="url(#pe12591b1e9)" style="fill: none; stroke: #000000; stroke-width: 2; stroke-linecap: round"/>
   </g>
   <g id="line2d_27">
    <path d="M 234.832031 45.648828 
L 247.432031 45.648828 
" clip-path="url(#pe12591b1e9)" style="fill: none; stroke: #000000; stroke-width: 2; stroke-linecap: round"/>
   </g>
   <g id="line2d_28">
    <path d="M 234.832031 27.648828 
L 247.432031 27.648828 
" clip-path="url(#pe12591b1e9)" style="fill: none; stroke: #000000; stroke-width: 2; stroke-linecap: round"/>
   </g>
   <g id="line2d_29">
    <path d="M 297.472031 36.648828 
L 301.432031 36.648828 
" clip-path="url(#pe12591b1e9)" style="fill: none; stroke: #000000; stroke-width: 2; stroke-linecap: round"/>
   </g>
   <g id="line2d_30">
    <path d="M 270.832031 54.648828 
L 271.985295 54.611845 
L 273.13382 54.501048 
L 274.272887 54.316893 
L 275.397814 54.060136 
L 276.503979 53.731832 
L 277.586837 53.33333 
L 278.641939 52.866268 
L 279.664947 52.332565 
L 280.651659 51.734414 
L 281.598021 51.074273 
L 282.500142 50.354855 
L 283.354317 49.579116 
L 284.157035 48.750244 
L 284.904998 47.871645 
L 285.595132 46.946928 
L 286.224601 45.979894 
L 286.790819 44.974517 
L 287.291458 43.934928 
L 287.724463 42.865399 
L 288.088053 41.770325 
L 288.380734 40.654205 
L 288.601303 39.521626 
L 288.748855 38.377243 
L 288.822783 37.225757 
L 288.822783 36.0719 
L 288.748855 34.920414 
L 288.601303 33.77603 
L 288.380734 32.643451 
L 288.088053 31.527332 
L 287.724463 30.432257 
L 287.291458 29.362728 
L 286.790819 28.323139 
L 286.224601 27.317762 
L 285.595132 26.350728 
L 284.904998 25.426012 
L 284.157035 24.547412 
L 283.354317 23.71854 
L 282.500142 22.942801 
L 281.598021 22.223383 
L 280.651659 21.563242 
L 279.664947 20.965091 
L 278.641939 20.431389 
L 277.586837 19.964326 
L 276.503979 19.565825 
L 275.397814 19.237521 
L 274.272887 18.980763 
L 273.13382 18.796608 
L 271.985295 18.685811 
L 270.832031 18.648828 
L 270.832031 18.648828 
L 247.432031 18.648828 
L 247.432031 36.648828 
L 247.432031 54.648828 
L 270.832031 54.648828 
" clip-path="url(#pe12591b1e9)" style="fill: none; stroke: #000000; stroke-width: 2; stroke-linecap: round"/>
   </g>
   <g id="line2d_31">
    <path d="M 234.832031 45.648828 
L 247.432031 45.648828 
" clip-path="url(#pe12591b1e9)" style="fill: none; stroke: #000000; stroke-width: 2; stroke-linecap: round"/>
   </g>
   <g id="line2d_32">
    <path d="M 234.832031 27.648828 
L 247.432031 27.648828 
" clip-path="url(#pe12591b1e9)" style="fill: none; stroke: #000000; stroke-width: 2; stroke-linecap: round"/>
   </g>
   <g id="line2d_33">
    <path d="M 297.472031 36.648828 
L 301.432031 36.648828 
" clip-path="url(#pe12591b1e9)" style="fill: none; stroke: #000000; stroke-width: 2; stroke-linecap: round"/>
   </g>
   <g id="line2d_34">
    <path d="M 270.832031 54.648828 
L 271.985295 54.611845 
L 273.13382 54.501048 
L 274.272887 54.316893 
L 275.397814 54.060136 
L 276.503979 53.731832 
L 277.586837 53.33333 
L 278.641939 52.866268 
L 279.664947 52.332565 
L 280.651659 51.734414 
L 281.598021 51.074273 
L 282.500142 50.354855 
L 283.354317 49.579116 
L 284.157035 48.750244 
L 284.904998 47.871645 
L 285.595132 46.946928 
L 286.224601 45.979894 
L 286.790819 44.974517 
L 287.291458 43.934928 
L 287.724463 42.865399 
L 288.088053 41.770325 
L 288.380734 40.654205 
L 288.601303 39.521626 
L 288.748855 38.377243 
L 288.822783 37.225757 
L 288.822783 36.0719 
L 288.748855 34.920414 
L 288.601303 33.77603 
L 288.380734 32.643451 
L 288.088053 31.527332 
L 287.724463 30.432257 
L 287.291458 29.362728 
L 286.790819 28.323139 
L 286.224601 27.317762 
L 285.595132 26.350728 
L 284.904998 25.426012 
L 284.157035 24.547412 
L 283.354317 23.71854 
L 282.500142 22.942801 
L 281.598021 22.223383 
L 280.651659 21.563242 
L 279.664947 20.965091 
L 278.641939 20.431389 
L 277.586837 19.964326 
L 276.503979 19.565825 
L 275.397814 19.237521 
L 274.272887 18.980763 
L 273.13382 18.796608 
L 271.985295 18.685811 
L 270.832031 18.648828 
L 270.832031 18.648828 
L 247.432031 18.648828 
L 247.432031 36.648828 
L 247.432031 54.648828 
L 270.832031 54.648828 
" clip-path="url(#pe12591b1e9)" style="fill: none; stroke: #000000; stroke-width: 2; stroke-linecap: round"/>
   </g>
   <g id="line2d_35">
    <path d="M 234.832031 45.648828 
L 247.432031 45.648828 
" clip-path="url(#pe12591b1e9)" style="fill: none; stroke: #000000; stroke-width: 2; stroke-linecap: round"/>
   </g>
   <g id="line2d_36">
    <path d="M 234.832031 27.648828 
L 247.432031 27.648828 
" clip-path="url(#pe12591b1e9)" style="fill: none; stroke: #000000; stroke-width: 2; stroke-linecap: round"/>
   </g>
   <g id="line2d_37">
    <path d="M 297.472031 36.648828 
L 301.432031 36.648828 
" clip-path="url(#pe12591b1e9)" style="fill: none; stroke: #000000; stroke-width: 2; stroke-linecap: round"/>
   </g>
   <g id="text_1">
    <!-- 0.75 -->
    <g transform="translate(3.6 40.098047) scale(0.125 -0.125)">
     <defs>
      <path id="DejaVuSans-30" d="M 2034 4250 
Q 1547 4250 1301 3770 
Q 1056 3291 1056 2328 
Q 1056 1369 1301 889 
Q 1547 409 2034 409 
Q 2525 409 2770 889 
Q 3016 1369 3016 2328 
Q 3016 3291 2770 3770 
Q 2525 4250 2034 4250 
z
M 2034 4750 
Q 2819 4750 3233 4129 
Q 3647 3509 3647 2328 
Q 3647 1150 3233 529 
Q 2819 -91 2034 -91 
Q 1250 -91 836 529 
Q 422 1150 422 2328 
Q 422 3509 836 4129 
Q 1250 4750 2034 4750 
z
" transform="scale(0.015625)"/>
      <path id="DejaVuSans-2e" d="M 684 794 
L 1344 794 
L 1344 0 
L 684 0 
L 684 794 
z
" transform="scale(0.015625)"/>
      <path id="DejaVuSans-37" d="M 525 4666 
L 3525 4666 
L 3525 4397 
L 1831 0 
L 1172 0 
L 2766 4134 
L 525 4134 
L 525 4666 
z
" transform="scale(0.015625)"/>
      <path id="DejaVuSans-35" d="M 691 4666 
L 3169 4666 
L 3169 4134 
L 1269 4134 
L 1269 2991 
Q 1406 3038 1543 3061 
Q 1681 3084 1819 3084 
Q 2600 3084 3056 2656 
Q 3513 2228 3513 1497 
Q 3513 744 3044 326 
Q 2575 -91 1722 -91 
Q 1428 -91 1123 -41 
Q 819 9 494 109 
L 494 744 
Q 775 591 1075 516 
Q 1375 441 1709 441 
Q 2250 441 2565 725 
Q 2881 1009 2881 1497 
Q 2881 1984 2565 2268 
Q 2250 2553 1709 2553 
Q 1456 2553 1204 2497 
Q 953 2441 691 2322 
L 691 4666 
z
" transform="scale(0.015625)"/>
     </defs>
     <use xlink:href="#DejaVuSans-30"/>
     <use xlink:href="#DejaVuSans-2e" x="63.623047"/>
     <use xlink:href="#DejaVuSans-37" x="95.410156"/>
     <use xlink:href="#DejaVuSans-35" x="159.033203"/>
    </g>
   </g>
   <g id="text_2">
    <!-- X -->
    <g transform="translate(22.869531 58.098047) scale(0.125 -0.125)">
     <defs>
      <path id="DejaVuSans-58" d="M 403 4666 
L 1081 4666 
L 2241 2931 
L 3406 4666 
L 4084 4666 
L 2584 2425 
L 4184 0 
L 3506 0 
L 2194 1984 
L 872 0 
L 191 0 
L 1856 2491 
L 403 4666 
z
" transform="scale(0.015625)"/>
     </defs>
     <use xlink:href="#DejaVuSans-58"/>
    </g>
   </g>
   <g id="text_3">
    <!-- 0.75 -->
    <g transform="translate(3.6 40.098047) scale(0.125 -0.125)">
     <use xlink:href="#DejaVuSans-30"/>
     <use xlink:href="#DejaVuSans-2e" x="63.623047"/>
     <use xlink:href="#DejaVuSans-37" x="95.410156"/>
     <use xlink:href="#DejaVuSans-35" x="159.033203"/>
    </g>
   </g>
   <g id="text_4">
    <!-- X -->
    <g transform="translate(22.869531 58.098047) scale(0.125 -0.125)">
     <use xlink:href="#DejaVuSans-58"/>
    </g>
   </g>
   <g id="text_5">
    <!-- G1 -->
    <g transform="translate(59.512695 45.498047) scale(0.125 -0.125)">
     <defs>
      <path id="DejaVuSans-47" d="M 3809 666 
L 3809 1919 
L 2778 1919 
L 2778 2438 
L 4434 2438 
L 4434 434 
Q 4069 175 3628 42 
Q 3188 -91 2688 -91 
Q 1594 -91 976 548 
Q 359 1188 359 2328 
Q 359 3472 976 4111 
Q 1594 4750 2688 4750 
Q 3144 4750 3555 4637 
Q 3966 4525 4313 4306 
L 4313 3634 
Q 3963 3931 3569 4081 
Q 3175 4231 2741 4231 
Q 1884 4231 1454 3753 
Q 1025 3275 1025 2328 
Q 1025 1384 1454 906 
Q 1884 428 2741 428 
Q 3075 428 3337 486 
Q 3600 544 3809 666 
z
" transform="scale(0.015625)"/>
      <path id="DejaVuSans-31" d="M 794 531 
L 1825 531 
L 1825 4091 
L 703 3866 
L 703 4441 
L 1819 4666 
L 2450 4666 
L 2450 531 
L 3481 531 
L 3481 0 
L 794 0 
L 794 531 
z
" transform="scale(0.015625)"/>
     </defs>
     <use xlink:href="#DejaVuSans-47"/>
     <use xlink:href="#DejaVuSans-31" x="77.490234"/>
    </g>
   </g>
   <g id="text_6">
    <!-- 0.75 -->
    <g transform="translate(3.6 40.098047) scale(0.125 -0.125)">
     <use xlink:href="#DejaVuSans-30"/>
     <use xlink:href="#DejaVuSans-2e" x="63.623047"/>
     <use xlink:href="#DejaVuSans-37" x="95.410156"/>
     <use xlink:href="#DejaVuSans-35" x="159.033203"/>
    </g>
   </g>
   <g id="text_7">
    <!-- X -->
    <g transform="translate(22.869531 58.098047) scale(0.125 -0.125)">
     <use xlink:href="#DejaVuSans-58"/>
    </g>
   </g>
   <g id="text_8">
    <!-- 0.75 -->
    <g transform="translate(3.6 40.098047) scale(0.125 -0.125)">
     <use xlink:href="#DejaVuSans-30"/>
     <use xlink:href="#DejaVuSans-2e" x="63.623047"/>
     <use xlink:href="#DejaVuSans-37" x="95.410156"/>
     <use xlink:href="#DejaVuSans-35" x="159.033203"/>
    </g>
   </g>
   <g id="text_9">
    <!-- X -->
    <g transform="translate(22.869531 58.098047) scale(0.125 -0.125)">
     <use xlink:href="#DejaVuSans-58"/>
    </g>
   </g>
   <g id="text_10">
    <!-- G1 -->
    <g transform="translate(59.512695 45.498047) scale(0.125 -0.125)">
     <use xlink:href="#DejaVuSans-47"/>
     <use xlink:href="#DejaVuSans-31" x="77.490234"/>
    </g>
   </g>
   <g id="text_11">
    <!-- 0.6667 -->
    <g transform="translate(57.89375 13.098047) scale(0.125 -0.125)">
     <defs>
      <path id="DejaVuSans-36" d="M 2113 2584 
Q 1688 2584 1439 2293 
Q 1191 2003 1191 1497 
Q 1191 994 1439 701 
Q 1688 409 2113 409 
Q 2538 409 2786 701 
Q 3034 994 3034 1497 
Q 3034 2003 2786 2293 
Q 2538 2584 2113 2584 
z
M 3366 4563 
L 3366 3988 
Q 3128 4100 2886 4159 
Q 2644 4219 2406 4219 
Q 1781 4219 1451 3797 
Q 1122 3375 1075 2522 
Q 1259 2794 1537 2939 
Q 1816 3084 2150 3084 
Q 2853 3084 3261 2657 
Q 3669 2231 3669 1497 
Q 3669 778 3244 343 
Q 2819 -91 2113 -91 
Q 1303 -91 875 529 
Q 447 1150 447 2328 
Q 447 3434 972 4092 
Q 1497 4750 2381 4750 
Q 2619 4750 2861 4703 
Q 3103 4656 3366 4563 
z
" transform="scale(0.015625)"/>
     </defs>
     <use xlink:href="#DejaVuSans-30"/>
     <use xlink:href="#DejaVuSans-2e" x="63.623047"/>
     <use xlink:href="#DejaVuSans-36" x="95.410156"/>
     <use xlink:href="#DejaVuSans-36" x="159.033203"/>
     <use xlink:href="#DejaVuSans-36" x="222.65625"/>
     <use xlink:href="#DejaVuSans-37" x="286.279297"/>
    </g>
   </g>
   <g id="text_12">
    <!-- 0.6667 -->
    <g transform="translate(57.89375 13.098047) scale(0.125 -0.125)">
     <use xlink:href="#DejaVuSans-30"/>
     <use xlink:href="#DejaVuSans-2e" x="63.623047"/>
     <use xlink:href="#DejaVuSans-36" x="95.410156"/>
     <use xlink:href="#DejaVuSans-36" x="159.033203"/>
     <use xlink:href="#DejaVuSans-36" x="222.65625"/>
     <use xlink:href="#DejaVuSans-37" x="286.279297"/>
    </g>
   </g>
   <g id="text_13">
    <!-- G2 -->
    <g transform="translate(126.112695 36.498047) scale(0.125 -0.125)">
     <defs>
      <path id="DejaVuSans-32" d="M 1228 531 
L 3431 531 
L 3431 0 
L 469 0 
L 469 531 
Q 828 903 1448 1529 
Q 2069 2156 2228 2338 
Q 2531 2678 2651 2914 
Q 2772 3150 2772 3378 
Q 2772 3750 2511 3984 
Q 2250 4219 1831 4219 
Q 1534 4219 1204 4116 
Q 875 4013 500 3803 
L 500 4441 
Q 881 4594 1212 4672 
Q 1544 4750 1819 4750 
Q 2544 4750 2975 4387 
Q 3406 4025 3406 3419 
Q 3406 3131 3298 2873 
Q 3191 2616 2906 2266 
Q 2828 2175 2409 1742 
Q 1991 1309 1228 531 
z
" transform="scale(0.015625)"/>
     </defs>
     <use xlink:href="#DejaVuSans-47"/>
     <use xlink:href="#DejaVuSans-32" x="77.490234"/>
    </g>
   </g>
   <g id="text_14">
    <!-- 0.6667 -->
    <g transform="translate(57.89375 13.098047) scale(0.125 -0.125)">
     <use xlink:href="#DejaVuSans-30"/>
     <use xlink:href="#DejaVuSans-2e" x="63.623047"/>
     <use xlink:href="#DejaVuSans-36" x="95.410156"/>
     <use xlink:href="#DejaVuSans-36" x="159.033203"/>
     <use xlink:href="#DejaVuSans-36" x="222.65625"/>
     <use xlink:href="#DejaVuSans-37" x="286.279297"/>
    </g>
   </g>
   <g id="text_15">
    <!-- 0.6667 -->
    <g transform="translate(57.89375 13.098047) scale(0.125 -0.125)">
     <use xlink:href="#DejaVuSans-30"/>
     <use xlink:href="#DejaVuSans-2e" x="63.623047"/>
     <use xlink:href="#DejaVuSans-36" x="95.410156"/>
     <use xlink:href="#DejaVuSans-36" x="159.033203"/>
     <use xlink:href="#DejaVuSans-36" x="222.65625"/>
     <use xlink:href="#DejaVuSans-37" x="286.279297"/>
    </g>
   </g>
   <g id="text_16">
    <!-- G2 -->
    <g transform="translate(126.112695 36.498047) scale(0.125 -0.125)">
     <use xlink:href="#DejaVuSans-47"/>
     <use xlink:href="#DejaVuSans-32" x="77.490234"/>
    </g>
   </g>
   <g id="text_17">
    <!-- G3 -->
    <g transform="translate(192.712695 45.498047) scale(0.125 -0.125)">
     <defs>
      <path id="DejaVuSans-33" d="M 2597 2516 
Q 3050 2419 3304 2112 
Q 3559 1806 3559 1356 
Q 3559 666 3084 287 
Q 2609 -91 1734 -91 
Q 1441 -91 1130 -33 
Q 819 25 488 141 
L 488 750 
Q 750 597 1062 519 
Q 1375 441 1716 441 
Q 2309 441 2620 675 
Q 2931 909 2931 1356 
Q 2931 1769 2642 2001 
Q 2353 2234 1838 2234 
L 1294 2234 
L 1294 2753 
L 1863 2753 
Q 2328 2753 2575 2939 
Q 2822 3125 2822 3475 
Q 2822 3834 2567 4026 
Q 2313 4219 1838 4219 
Q 1578 4219 1281 4162 
Q 984 4106 628 3988 
L 628 4550 
Q 988 4650 1302 4700 
Q 1616 4750 1894 4750 
Q 2613 4750 3031 4423 
Q 3450 4097 3450 3541 
Q 3450 3153 3228 2886 
Q 3006 2619 2597 2516 
z
" transform="scale(0.015625)"/>
     </defs>
     <use xlink:href="#DejaVuSans-47"/>
     <use xlink:href="#DejaVuSans-33" x="77.490234"/>
    </g>
   </g>
   <g id="text_18">
    <!-- G3 -->
    <g transform="translate(192.712695 45.498047) scale(0.125 -0.125)">
     <use xlink:href="#DejaVuSans-47"/>
     <use xlink:href="#DejaVuSans-33" x="77.490234"/>
    </g>
   </g>
   <g id="text_19">
    <!-- 0.2 -->
    <g transform="translate(214.953125 13.098047) scale(0.125 -0.125)">
     <use xlink:href="#DejaVuSans-30"/>
     <use xlink:href="#DejaVuSans-2e" x="63.623047"/>
     <use xlink:href="#DejaVuSans-32" x="95.410156"/>
    </g>
   </g>
   <g id="text_20">
    <!-- 0.2 -->
    <g transform="translate(214.953125 13.098047) scale(0.125 -0.125)">
     <use xlink:href="#DejaVuSans-30"/>
     <use xlink:href="#DejaVuSans-2e" x="63.623047"/>
     <use xlink:href="#DejaVuSans-32" x="95.410156"/>
    </g>
   </g>
   <g id="text_21">
    <!-- G4 -->
    <g transform="translate(259.312695 36.498047) scale(0.125 -0.125)">
     <defs>
      <path id="DejaVuSans-34" d="M 2419 4116 
L 825 1625 
L 2419 1625 
L 2419 4116 
z
M 2253 4666 
L 3047 4666 
L 3047 1625 
L 3713 1625 
L 3713 1100 
L 3047 1100 
L 3047 0 
L 2419 0 
L 2419 1100 
L 313 1100 
L 313 1709 
L 2253 4666 
z
" transform="scale(0.015625)"/>
     </defs>
     <use xlink:href="#DejaVuSans-47"/>
     <use xlink:href="#DejaVuSans-34" x="77.490234"/>
    </g>
   </g>
   <g id="text_22">
    <!-- 0.2 -->
    <g transform="translate(214.953125 13.098047) scale(0.125 -0.125)">
     <use xlink:href="#DejaVuSans-30"/>
     <use xlink:href="#DejaVuSans-2e" x="63.623047"/>
     <use xlink:href="#DejaVuSans-32" x="95.410156"/>
    </g>
   </g>
   <g id="text_23">
    <!-- G4 -->
    <g transform="translate(259.312695 36.498047) scale(0.125 -0.125)">
     <use xlink:href="#DejaVuSans-47"/>
     <use xlink:href="#DejaVuSans-34" x="77.490234"/>
    </g>
   </g>
   <g id="text_24">
    <!-- $f(X)$ -->
    <g transform="translate(305.032031 40.098047) scale(0.125 -0.125)">
     <defs>
      <path id="DejaVuSans-Oblique-66" d="M 3059 4863 
L 2969 4384 
L 2419 4384 
Q 2106 4384 1964 4261 
Q 1822 4138 1753 3809 
L 1691 3500 
L 2638 3500 
L 2553 3053 
L 1606 3053 
L 1013 0 
L 434 0 
L 1031 3053 
L 481 3053 
L 563 3500 
L 1113 3500 
L 1159 3744 
Q 1278 4363 1576 4613 
Q 1875 4863 2516 4863 
L 3059 4863 
z
" transform="scale(0.015625)"/>
      <path id="DejaVuSans-28" d="M 1984 4856 
Q 1566 4138 1362 3434 
Q 1159 2731 1159 2009 
Q 1159 1288 1364 580 
Q 1569 -128 1984 -844 
L 1484 -844 
Q 1016 -109 783 600 
Q 550 1309 550 2009 
Q 550 2706 781 3412 
Q 1013 4119 1484 4856 
L 1984 4856 
z
" transform="scale(0.015625)"/>
      <path id="DejaVuSans-Oblique-58" d="M 878 4666 
L 1516 4666 
L 2316 2981 
L 3763 4666 
L 4500 4666 
L 2578 2438 
L 3738 0 
L 3103 0 
L 2163 1966 
L 459 0 
L -275 0 
L 1906 2509 
L 878 4666 
z
" transform="scale(0.015625)"/>
      <path id="DejaVuSans-29" d="M 513 4856 
L 1013 4856 
Q 1481 4119 1714 3412 
Q 1947 2706 1947 2009 
Q 1947 1309 1714 600 
Q 1481 -109 1013 -844 
L 513 -844 
Q 928 -128 1133 580 
Q 1338 1288 1338 2009 
Q 1338 2731 1133 3434 
Q 928 4138 513 4856 
z
" transform="scale(0.015625)"/>
     </defs>
     <use xlink:href="#DejaVuSans-Oblique-66" transform="translate(0 0.015625)"/>
     <use xlink:href="#DejaVuSans-28" transform="translate(35.205078 0.015625)"/>
     <use xlink:href="#DejaVuSans-Oblique-58" transform="translate(74.21875 0.015625)"/>
     <use xlink:href="#DejaVuSans-29" transform="translate(142.724609 0.015625)"/>
    </g>
   </g>
   <g id="text_25">
    <!-- 0.2 -->
    <g transform="translate(214.953125 13.098047) scale(0.125 -0.125)">
     <use xlink:href="#DejaVuSans-30"/>
     <use xlink:href="#DejaVuSans-2e" x="63.623047"/>
     <use xlink:href="#DejaVuSans-32" x="95.410156"/>
    </g>
   </g>
   <g id="text_26">
    <!-- 0.2 -->
    <g transform="translate(214.953125 13.098047) scale(0.125 -0.125)">
     <use xlink:href="#DejaVuSans-30"/>
     <use xlink:href="#DejaVuSans-2e" x="63.623047"/>
     <use xlink:href="#DejaVuSans-32" x="95.410156"/>
    </g>
   </g>
   <g id="text_27">
    <!-- G4 -->
    <g transform="translate(259.312695 36.498047) scale(0.125 -0.125)">
     <use xlink:href="#DejaVuSans-47"/>
     <use xlink:href="#DejaVuSans-34" x="77.490234"/>
    </g>
   </g>
   <g id="text_28">
    <!-- 0.2 -->
    <g transform="translate(214.953125 13.098047) scale(0.125 -0.125)">
     <use xlink:href="#DejaVuSans-30"/>
     <use xlink:href="#DejaVuSans-2e" x="63.623047"/>
     <use xlink:href="#DejaVuSans-32" x="95.410156"/>
    </g>
   </g>
   <g id="text_29">
    <!-- G4 -->
    <g transform="translate(259.312695 36.498047) scale(0.125 -0.125)">
     <use xlink:href="#DejaVuSans-47"/>
     <use xlink:href="#DejaVuSans-34" x="77.490234"/>
    </g>
   </g>
   <g id="text_30">
    <!-- $f(X)$ -->
    <g transform="translate(305.032031 40.098047) scale(0.125 -0.125)">
     <use xlink:href="#DejaVuSans-Oblique-66" transform="translate(0 0.015625)"/>
     <use xlink:href="#DejaVuSans-28" transform="translate(35.205078 0.015625)"/>
     <use xlink:href="#DejaVuSans-Oblique-58" transform="translate(74.21875 0.015625)"/>
     <use xlink:href="#DejaVuSans-29" transform="translate(142.724609 0.015625)"/>
    </g>
   </g>
   <g id="text_31">
    <!-- 0.2 -->
    <g transform="translate(214.953125 13.098047) scale(0.125 -0.125)">
     <use xlink:href="#DejaVuSans-30"/>
     <use xlink:href="#DejaVuSans-2e" x="63.623047"/>
     <use xlink:href="#DejaVuSans-32" x="95.410156"/>
    </g>
   </g>
   <g id="text_32">
    <!-- 0.2 -->
    <g transform="translate(214.953125 13.098047) scale(0.125 -0.125)">
     <use xlink:href="#DejaVuSans-30"/>
     <use xlink:href="#DejaVuSans-2e" x="63.623047"/>
     <use xlink:href="#DejaVuSans-32" x="95.410156"/>
    </g>
   </g>
   <g id="text_33">
    <!-- G4 -->
    <g transform="translate(259.312695 36.498047) scale(0.125 -0.125)">
     <use xlink:href="#DejaVuSans-47"/>
     <use xlink:href="#DejaVuSans-34" x="77.490234"/>
    </g>
   </g>
   <g id="text_34">
    <!-- 0.2 -->
    <g transform="translate(214.953125 13.098047) scale(0.125 -0.125)">
     <use xlink:href="#DejaVuSans-30"/>
     <use xlink:href="#DejaVuSans-2e" x="63.623047"/>
     <use xlink:href="#DejaVuSans-32" x="95.410156"/>
    </g>
   </g>
   <g id="text_35">
    <!-- G4 -->
    <g transform="translate(259.312695 36.498047) scale(0.125 -0.125)">
     <use xlink:href="#DejaVuSans-47"/>
     <use xlink:href="#DejaVuSans-34" x="77.490234"/>
    </g>
   </g>
   <g id="text_36">
    <!-- $f(X)$ -->
    <g transform="translate(305.032031 40.098047) scale(0.125 -0.125)">
     <use xlink:href="#DejaVuSans-Oblique-66" transform="translate(0 0.015625)"/>
     <use xlink:href="#DejaVuSans-28" transform="translate(35.205078 0.015625)"/>
     <use xlink:href="#DejaVuSans-Oblique-58" transform="translate(74.21875 0.015625)"/>
     <use xlink:href="#DejaVuSans-29" transform="translate(142.724609 0.015625)"/>
    </g>
   </g>
  </g>
 </g>
 <defs>
  <clipPath id="pe12591b1e9">
   <rect x="21.712031" y="15.948828" width="293.04" height="59.4"/>
  </clipPath>
 </defs>
</svg>
