<?xml version="1.0" encoding="utf-8" standalone="no"?>
<!DOCTYPE svg PUBLIC "-//W3C//DTD SVG 1.1//EN"
  "http://www.w3.org/Graphics/SVG/1.1/DTD/svg11.dtd">
<svg xmlns:xlink="http://www.w3.org/1999/xlink" width="535.1508pt" height="91.07pt" viewBox="0 0 535.1508 91.07" xmlns="http://www.w3.org/2000/svg" version="1.1">
 <metadata>
  <rdf:RDF xmlns:dc="http://purl.org/dc/elements/1.1/" xmlns:cc="http://creativecommons.org/ns#" xmlns:rdf="http://www.w3.org/1999/02/22-rdf-syntax-ns#">
   <cc:Work>
    <dc:type rdf:resource="http://purl.org/dc/dcmitype/StillImage"/>
    <dc:date>2023-06-09T16:12:04.158781</dc:date>
    <dc:format>image/svg+xml</dc:format>
    <dc:creator>
     <cc:Agent>
      <dc:title>Matplotlib v3.7.1, https://matplotlib.org/</dc:title>
     </cc:Agent>
    </dc:creator>
   </cc:Work>
  </rdf:RDF>
 </metadata>
 <defs>
  <style type="text/css">*{stroke-linejoin: round; stroke-linecap: butt}</style>
 </defs>
 <g id="figure_1">
  <g id="patch_1">
   <path d="M 0 91.07 
L 535.1508 91.07 
L 535.1508 0 
L 0 0 
L 0 91.07 
z
" style="fill: none"/>
  </g>
  <g id="axes_1">
   <g id="patch_2">
    <path d="M 86.148 61.532 
C 87.121826 61.532 88.055897 61.145095 88.744496 60.456496 
C 89.433095 59.767897 89.82 58.833826 89.82 57.86 
C 89.82 56.886174 89.433095 55.952103 88.744496 55.263504 
C 88.055897 54.574905 87.121826 54.188 86.148 54.188 
C 85.174174 54.188 84.240103 54.574905 83.551504 55.263504 
C 82.862905 55.952103 82.476 56.886174 82.476 57.86 
C 82.476 58.833826 82.862905 59.767897 83.551504 60.456496 
C 84.240103 61.145095 85.174174 61.532 86.148 61.532 
L 86.148 61.532 
z
" clip-path="url(#p4e0a528b1d)" style="fill: none; stroke: #000000; stroke-width: 2; stroke-linejoin: miter"/>
   </g>
   <g id="patch_3">
    <path d="M 86.148 61.532 
C 87.121826 61.532 88.055897 61.145095 88.744496 60.456496 
C 89.433095 59.767897 89.82 58.833826 89.82 57.86 
C 89.82 56.886174 89.433095 55.952103 88.744496 55.263504 
C 88.055897 54.574905 87.121826 54.188 86.148 54.188 
C 85.174174 54.188 84.240103 54.574905 83.551504 55.263504 
C 82.862905 55.952103 82.476 56.886174 82.476 57.86 
C 82.476 58.833826 82.862905 59.767897 83.551504 60.456496 
C 84.240103 61.145095 85.174174 61.532 86.148 61.532 
L 86.148 61.532 
z
" clip-path="url(#p4e0a528b1d)" style="fill: none; stroke: #000000; stroke-width: 2; stroke-linejoin: miter"/>
   </g>
   <g id="patch_4">
    <path d="M 199.368 61.532 
C 200.341826 61.532 201.275897 61.145095 201.964496 60.456496 
C 202.653095 59.767897 203.04 58.833826 203.04 57.86 
C 203.04 56.886174 202.653095 55.952103 201.964496 55.263504 
C 201.275897 54.574905 200.341826 54.188 199.368 54.188 
C 198.394174 54.188 197.460103 54.574905 196.771504 55.263504 
C 196.082905 55.952103 195.696 56.886174 195.696 57.86 
C 195.696 58.833826 196.082905 59.767897 196.771504 60.456496 
C 197.460103 61.145095 198.394174 61.532 199.368 61.532 
L 199.368 61.532 
z
" clip-path="url(#p4e0a528b1d)" style="fill: none; stroke: #000000; stroke-width: 2; stroke-linejoin: miter"/>
   </g>
   <g id="patch_5">
    <path d="M 199.368 61.532 
C 200.341826 61.532 201.275897 61.145095 201.964496 60.456496 
C 202.653095 59.767897 203.04 58.833826 203.04 57.86 
C 203.04 56.886174 202.653095 55.952103 201.964496 55.263504 
C 201.275897 54.574905 200.341826 54.188 199.368 54.188 
C 198.394174 54.188 197.460103 54.574905 196.771504 55.263504 
C 196.082905 55.952103 195.696 56.886174 195.696 57.86 
C 195.696 58.833826 196.082905 59.767897 196.771504 60.456496 
C 197.460103 61.145095 198.394174 61.532 199.368 61.532 
L 199.368 61.532 
z
" clip-path="url(#p4e0a528b1d)" style="fill: none; stroke: #000000; stroke-width: 2; stroke-linejoin: miter"/>
   </g>
   <g id="patch_6">
    <path d="M 312.588 61.532 
C 313.561826 61.532 314.495897 61.145095 315.184496 60.456496 
C 315.873095 59.767897 316.26 58.833826 316.26 57.86 
C 316.26 56.886174 315.873095 55.952103 315.184496 55.263504 
C 314.495897 54.574905 313.561826 54.188 312.588 54.188 
C 311.614174 54.188 310.680103 54.574905 309.991504 55.263504 
C 309.302905 55.952103 308.916 56.886174 308.916 57.86 
C 308.916 58.833826 309.302905 59.767897 309.991504 60.456496 
C 310.680103 61.145095 311.614174 61.532 312.588 61.532 
L 312.588 61.532 
z
" clip-path="url(#p4e0a528b1d)" style="fill: none; stroke: #000000; stroke-width: 2; stroke-linejoin: miter"/>
   </g>
   <g id="patch_7">
    <path d="M 312.588 61.532 
C 313.561826 61.532 314.495897 61.145095 315.184496 60.456496 
C 315.873095 59.767897 316.26 58.833826 316.26 57.86 
C 316.26 56.886174 315.873095 55.952103 315.184496 55.263504 
C 314.495897 54.574905 313.561826 54.188 312.588 54.188 
C 311.614174 54.188 310.680103 54.574905 309.991504 55.263504 
C 309.302905 55.952103 308.916 56.886174 308.916 57.86 
C 308.916 58.833826 309.302905 59.767897 309.991504 60.456496 
C 310.680103 61.145095 311.614174 61.532 312.588 61.532 
L 312.588 61.532 
z
" clip-path="url(#p4e0a528b1d)" style="fill: none; stroke: #000000; stroke-width: 2; stroke-linejoin: miter"/>
   </g>
   <g id="patch_8">
    <path d="M 425.808 61.532 
C 426.781826 61.532 427.715897 61.145095 428.404496 60.456496 
C 429.093095 59.767897 429.48 58.833826 429.48 57.86 
C 429.48 56.886174 429.093095 55.952103 428.404496 55.263504 
C 427.715897 54.574905 426.781826 54.188 425.808 54.188 
C 424.834174 54.188 423.900103 54.574905 423.211504 55.263504 
C 422.522905 55.952103 422.136 56.886174 422.136 57.86 
C 422.136 58.833826 422.522905 59.767897 423.211504 60.456496 
C 423.900103 61.145095 424.834174 61.532 425.808 61.532 
L 425.808 61.532 
z
" clip-path="url(#p4e0a528b1d)" style="fill: none; stroke: #000000; stroke-width: 2; stroke-linejoin: miter"/>
   </g>
   <g id="patch_9">
    <path d="M 425.808 61.532 
C 426.781826 61.532 427.715897 61.145095 428.404496 60.456496 
C 429.093095 59.767897 429.48 58.833826 429.48 57.86 
C 429.48 56.886174 429.093095 55.952103 428.404496 55.263504 
C 427.715897 54.574905 426.781826 54.188 425.808 54.188 
C 424.834174 54.188 423.900103 54.574905 423.211504 55.263504 
C 422.522905 55.952103 422.136 56.886174 422.136 57.86 
C 422.136 58.833826 422.522905 59.767897 423.211504 60.456496 
C 423.900103 61.145095 424.834174 61.532 425.808 61.532 
L 425.808 61.532 
z
" clip-path="url(#p4e0a528b1d)" style="fill: none; stroke: #000000; stroke-width: 2; stroke-linejoin: miter"/>
   </g>
   <g id="patch_10">
    <path d="M 482.418 69.182 
C 483.391826 69.182 484.325897 68.795095 485.014496 68.106496 
C 485.703095 67.417897 486.09 66.483826 486.09 65.51 
C 486.09 64.536174 485.703095 63.602103 485.014496 62.913504 
C 484.325897 62.224905 483.391826 61.838 482.418 61.838 
C 481.444174 61.838 480.510103 62.224905 479.821504 62.913504 
C 479.132905 63.602103 478.746 64.536174 478.746 65.51 
C 478.746 66.483826 479.132905 67.417897 479.821504 68.106496 
C 480.510103 68.795095 481.444174 69.182 482.418 69.182 
L 482.418 69.182 
z
" clip-path="url(#p4e0a528b1d)" style="fill: none; stroke: #000000; stroke-width: 2; stroke-linejoin: miter"/>
   </g>
   <g id="patch_11">
    <path d="M 482.418 69.182 
C 483.391826 69.182 484.325897 68.795095 485.014496 68.106496 
C 485.703095 67.417897 486.09 66.483826 486.09 65.51 
C 486.09 64.536174 485.703095 63.602103 485.014496 62.913504 
C 484.325897 62.224905 483.391826 61.838 482.418 61.838 
C 481.444174 61.838 480.510103 62.224905 479.821504 62.913504 
C 479.132905 63.602103 478.746 64.536174 478.746 65.51 
C 478.746 66.483826 479.132905 67.417897 479.821504 68.106496 
C 480.510103 68.795095 481.444174 69.182 482.418 69.182 
L 482.418 69.182 
z
" clip-path="url(#p4e0a528b1d)" style="fill: none; stroke: #000000; stroke-width: 2; stroke-linejoin: miter"/>
   </g>
   <g id="patch_12">
    <path d="M 482.418 69.182 
C 483.391826 69.182 484.325897 68.795095 485.014496 68.106496 
C 485.703095 67.417897 486.09 66.483826 486.09 65.51 
C 486.09 64.536174 485.703095 63.602103 485.014496 62.913504 
C 484.325897 62.224905 483.391826 61.838 482.418 61.838 
C 481.444174 61.838 480.510103 62.224905 479.821504 62.913504 
C 479.132905 63.602103 478.746 64.536174 478.746 65.51 
C 478.746 66.483826 479.132905 67.417897 479.821504 68.106496 
C 480.510103 68.795095 481.444174 69.182 482.418 69.182 
L 482.418 69.182 
z
" clip-path="url(#p4e0a528b1d)" style="fill: none; stroke: #000000; stroke-width: 2; stroke-linejoin: miter"/>
   </g>
   <g id="line2d_1">
    <path d="M 67.176 73.16 
L 68.156274 73.128565 
L 69.132521 73.034387 
L 70.100727 72.877855 
L 71.056915 72.659611 
L 71.997156 72.380553 
L 72.917585 72.041826 
L 73.814421 71.644824 
L 74.683979 71.191176 
L 75.522684 70.682748 
L 76.327091 70.121628 
L 77.093894 69.510123 
L 77.819943 68.850745 
L 78.502253 68.146204 
L 79.138022 67.399394 
L 79.724635 66.613385 
L 80.259684 65.791406 
L 80.740969 64.936836 
L 81.166513 64.053185 
L 81.534567 63.144085 
L 81.843618 62.213272 
L 82.092397 61.26457 
L 82.279881 60.301878 
L 82.4053 59.329152 
L 82.468139 58.350389 
L 82.468139 57.369611 
L 82.4053 56.390848 
L 82.279881 55.418122 
L 82.092397 54.45543 
L 81.843618 53.506728 
L 81.534567 52.575915 
L 81.166513 51.666815 
L 80.740969 50.783164 
L 80.259684 49.928594 
L 79.724635 49.106615 
L 79.138022 48.320606 
L 78.502253 47.573796 
L 77.819943 46.869255 
L 77.093894 46.209877 
L 76.327091 45.598372 
L 75.522684 45.037252 
L 74.683979 44.528824 
L 73.814421 44.075176 
L 72.917585 43.678174 
L 71.997156 43.339447 
L 71.056915 43.060389 
L 70.100727 42.842145 
L 69.132521 42.685613 
L 68.156274 42.591435 
L 67.176 42.56 
L 67.176 42.56 
L 47.286 42.56 
L 47.286 57.86 
L 47.286 73.16 
L 67.176 73.16 
" clip-path="url(#p4e0a528b1d)" style="fill: none; stroke: #000000; stroke-width: 2; stroke-linecap: round"/>
   </g>
   <g id="line2d_2">
    <path d="M 36.576 65.51 
L 47.286 65.51 
" clip-path="url(#p4e0a528b1d)" style="fill: none; stroke: #000000; stroke-width: 2; stroke-linecap: round"/>
   </g>
   <g id="line2d_3">
    <path d="M 36.576 50.21 
L 47.286 50.21 
" clip-path="url(#p4e0a528b1d)" style="fill: none; stroke: #000000; stroke-width: 2; stroke-linecap: round"/>
   </g>
   <g id="line2d_4">
    <path d="M 89.82 57.86 
L 93.186 57.86 
" clip-path="url(#p4e0a528b1d)" style="fill: none; stroke: #000000; stroke-width: 2; stroke-linecap: round"/>
   </g>
   <g id="line2d_5">
    <path d="M 67.176 73.16 
L 68.156274 73.128565 
L 69.132521 73.034387 
L 70.100727 72.877855 
L 71.056915 72.659611 
L 71.997156 72.380553 
L 72.917585 72.041826 
L 73.814421 71.644824 
L 74.683979 71.191176 
L 75.522684 70.682748 
L 76.327091 70.121628 
L 77.093894 69.510123 
L 77.819943 68.850745 
L 78.502253 68.146204 
L 79.138022 67.399394 
L 79.724635 66.613385 
L 80.259684 65.791406 
L 80.740969 64.936836 
L 81.166513 64.053185 
L 81.534567 63.144085 
L 81.843618 62.213272 
L 82.092397 61.26457 
L 82.279881 60.301878 
L 82.4053 59.329152 
L 82.468139 58.350389 
L 82.468139 57.369611 
L 82.4053 56.390848 
L 82.279881 55.418122 
L 82.092397 54.45543 
L 81.843618 53.506728 
L 81.534567 52.575915 
L 81.166513 51.666815 
L 80.740969 50.783164 
L 80.259684 49.928594 
L 79.724635 49.106615 
L 79.138022 48.320606 
L 78.502253 47.573796 
L 77.819943 46.869255 
L 77.093894 46.209877 
L 76.327091 45.598372 
L 75.522684 45.037252 
L 74.683979 44.528824 
L 73.814421 44.075176 
L 72.917585 43.678174 
L 71.997156 43.339447 
L 71.056915 43.060389 
L 70.100727 42.842145 
L 69.132521 42.685613 
L 68.156274 42.591435 
L 67.176 42.56 
L 67.176 42.56 
L 47.286 42.56 
L 47.286 57.86 
L 47.286 73.16 
L 67.176 73.16 
" clip-path="url(#p4e0a528b1d)" style="fill: none; stroke: #000000; stroke-width: 2; stroke-linecap: round"/>
   </g>
   <g id="line2d_6">
    <path d="M 36.576 65.51 
L 47.286 65.51 
" clip-path="url(#p4e0a528b1d)" style="fill: none; stroke: #000000; stroke-width: 2; stroke-linecap: round"/>
   </g>
   <g id="line2d_7">
    <path d="M 36.576 50.21 
L 47.286 50.21 
" clip-path="url(#p4e0a528b1d)" style="fill: none; stroke: #000000; stroke-width: 2; stroke-linecap: round"/>
   </g>
   <g id="line2d_8">
    <path d="M 89.82 57.86 
L 93.186 57.86 
" clip-path="url(#p4e0a528b1d)" style="fill: none; stroke: #000000; stroke-width: 2; stroke-linecap: round"/>
   </g>
   <g id="line2d_9">
    <path d="M 123.786 65.51 
L 124.766274 65.478565 
L 125.742521 65.384387 
L 126.710727 65.227855 
L 127.666915 65.009611 
L 128.607156 64.730553 
L 129.527585 64.391826 
L 130.424421 63.994824 
L 131.293979 63.541176 
L 132.132684 63.032748 
L 132.937091 62.471628 
L 133.703894 61.860123 
L 134.429943 61.200745 
L 135.112253 60.496204 
L 135.748022 59.749394 
L 136.334635 58.963385 
L 136.869684 58.141406 
L 137.350969 57.286836 
L 137.776513 56.403185 
L 138.144567 55.494085 
L 138.453618 54.563272 
L 138.702397 53.61457 
L 138.889881 52.651878 
L 139.0153 51.679152 
L 139.078139 50.700389 
L 139.078139 49.719611 
L 139.0153 48.740848 
L 138.889881 47.768122 
L 138.702397 46.80543 
L 138.453618 45.856728 
L 138.144567 44.925915 
L 137.776513 44.016815 
L 137.350969 43.133164 
L 136.869684 42.278594 
L 136.334635 41.456615 
L 135.748022 40.670606 
L 135.112253 39.923796 
L 134.429943 39.219255 
L 133.703894 38.559877 
L 132.937091 37.948372 
L 132.132684 37.387252 
L 131.293979 36.878824 
L 130.424421 36.425176 
L 129.527585 36.028174 
L 128.607156 35.689447 
L 127.666915 35.410389 
L 126.710727 35.192145 
L 125.742521 35.035613 
L 124.766274 34.941435 
L 123.786 34.91 
L 123.786 34.91 
L 103.896 34.91 
L 103.896 50.21 
L 103.896 65.51 
L 123.786 65.51 
" clip-path="url(#p4e0a528b1d)" style="fill: none; stroke: #000000; stroke-width: 2; stroke-linecap: round"/>
   </g>
   <g id="line2d_10">
    <path d="M 93.186 57.86 
L 103.896 57.86 
" clip-path="url(#p4e0a528b1d)" style="fill: none; stroke: #000000; stroke-width: 2; stroke-linecap: round"/>
   </g>
   <g id="line2d_11">
    <path d="M 93.186 42.56 
L 103.896 42.56 
" clip-path="url(#p4e0a528b1d)" style="fill: none; stroke: #000000; stroke-width: 2; stroke-linecap: round"/>
   </g>
   <g id="line2d_12">
    <path d="M 139.086 50.21 
L 149.796 50.21 
" clip-path="url(#p4e0a528b1d)" style="fill: none; stroke: #000000; stroke-width: 2; stroke-linecap: round"/>
   </g>
   <g id="line2d_13">
    <path d="M 123.786 65.51 
L 124.766274 65.478565 
L 125.742521 65.384387 
L 126.710727 65.227855 
L 127.666915 65.009611 
L 128.607156 64.730553 
L 129.527585 64.391826 
L 130.424421 63.994824 
L 131.293979 63.541176 
L 132.132684 63.032748 
L 132.937091 62.471628 
L 133.703894 61.860123 
L 134.429943 61.200745 
L 135.112253 60.496204 
L 135.748022 59.749394 
L 136.334635 58.963385 
L 136.869684 58.141406 
L 137.350969 57.286836 
L 137.776513 56.403185 
L 138.144567 55.494085 
L 138.453618 54.563272 
L 138.702397 53.61457 
L 138.889881 52.651878 
L 139.0153 51.679152 
L 139.078139 50.700389 
L 139.078139 49.719611 
L 139.0153 48.740848 
L 138.889881 47.768122 
L 138.702397 46.80543 
L 138.453618 45.856728 
L 138.144567 44.925915 
L 137.776513 44.016815 
L 137.350969 43.133164 
L 136.869684 42.278594 
L 136.334635 41.456615 
L 135.748022 40.670606 
L 135.112253 39.923796 
L 134.429943 39.219255 
L 133.703894 38.559877 
L 132.937091 37.948372 
L 132.132684 37.387252 
L 131.293979 36.878824 
L 130.424421 36.425176 
L 129.527585 36.028174 
L 128.607156 35.689447 
L 127.666915 35.410389 
L 126.710727 35.192145 
L 125.742521 35.035613 
L 124.766274 34.941435 
L 123.786 34.91 
L 123.786 34.91 
L 103.896 34.91 
L 103.896 50.21 
L 103.896 65.51 
L 123.786 65.51 
" clip-path="url(#p4e0a528b1d)" style="fill: none; stroke: #000000; stroke-width: 2; stroke-linecap: round"/>
   </g>
   <g id="line2d_14">
    <path d="M 93.186 57.86 
L 103.896 57.86 
" clip-path="url(#p4e0a528b1d)" style="fill: none; stroke: #000000; stroke-width: 2; stroke-linecap: round"/>
   </g>
   <g id="line2d_15">
    <path d="M 93.186 42.56 
L 103.896 42.56 
" clip-path="url(#p4e0a528b1d)" style="fill: none; stroke: #000000; stroke-width: 2; stroke-linecap: round"/>
   </g>
   <g id="line2d_16">
    <path d="M 139.086 50.21 
L 149.796 50.21 
" clip-path="url(#p4e0a528b1d)" style="fill: none; stroke: #000000; stroke-width: 2; stroke-linecap: round"/>
   </g>
   <g id="line2d_17">
    <path d="M 180.396 73.16 
L 181.376274 73.128565 
L 182.352521 73.034387 
L 183.320727 72.877855 
L 184.276915 72.659611 
L 185.217156 72.380553 
L 186.137585 72.041826 
L 187.034421 71.644824 
L 187.903979 71.191176 
L 188.742684 70.682748 
L 189.547091 70.121628 
L 190.313894 69.510123 
L 191.039943 68.850745 
L 191.722253 68.146204 
L 192.358022 67.399394 
L 192.944635 66.613385 
L 193.479684 65.791406 
L 193.960969 64.936836 
L 194.386513 64.053185 
L 194.754567 63.144085 
L 195.063618 62.213272 
L 195.312397 61.26457 
L 195.499881 60.301878 
L 195.6253 59.329152 
L 195.688139 58.350389 
L 195.688139 57.369611 
L 195.6253 56.390848 
L 195.499881 55.418122 
L 195.312397 54.45543 
L 195.063618 53.506728 
L 194.754567 52.575915 
L 194.386513 51.666815 
L 193.960969 50.783164 
L 193.479684 49.928594 
L 192.944635 49.106615 
L 192.358022 48.320606 
L 191.722253 47.573796 
L 191.039943 46.869255 
L 190.313894 46.209877 
L 189.547091 45.598372 
L 188.742684 45.037252 
L 187.903979 44.528824 
L 187.034421 44.075176 
L 186.137585 43.678174 
L 185.217156 43.339447 
L 184.276915 43.060389 
L 183.320727 42.842145 
L 182.352521 42.685613 
L 181.376274 42.591435 
L 180.396 42.56 
L 180.396 42.56 
L 160.506 42.56 
L 160.506 57.86 
L 160.506 73.16 
L 180.396 73.16 
" clip-path="url(#p4e0a528b1d)" style="fill: none; stroke: #000000; stroke-width: 2; stroke-linecap: round"/>
   </g>
   <g id="line2d_18">
    <path d="M 149.796 65.51 
L 160.506 65.51 
" clip-path="url(#p4e0a528b1d)" style="fill: none; stroke: #000000; stroke-width: 2; stroke-linecap: round"/>
   </g>
   <g id="line2d_19">
    <path d="M 149.796 50.21 
L 160.506 50.21 
" clip-path="url(#p4e0a528b1d)" style="fill: none; stroke: #000000; stroke-width: 2; stroke-linecap: round"/>
   </g>
   <g id="line2d_20">
    <path d="M 203.04 57.86 
L 206.406 57.86 
" clip-path="url(#p4e0a528b1d)" style="fill: none; stroke: #000000; stroke-width: 2; stroke-linecap: round"/>
   </g>
   <g id="line2d_21">
    <path d="M 180.396 73.16 
L 181.376274 73.128565 
L 182.352521 73.034387 
L 183.320727 72.877855 
L 184.276915 72.659611 
L 185.217156 72.380553 
L 186.137585 72.041826 
L 187.034421 71.644824 
L 187.903979 71.191176 
L 188.742684 70.682748 
L 189.547091 70.121628 
L 190.313894 69.510123 
L 191.039943 68.850745 
L 191.722253 68.146204 
L 192.358022 67.399394 
L 192.944635 66.613385 
L 193.479684 65.791406 
L 193.960969 64.936836 
L 194.386513 64.053185 
L 194.754567 63.144085 
L 195.063618 62.213272 
L 195.312397 61.26457 
L 195.499881 60.301878 
L 195.6253 59.329152 
L 195.688139 58.350389 
L 195.688139 57.369611 
L 195.6253 56.390848 
L 195.499881 55.418122 
L 195.312397 54.45543 
L 195.063618 53.506728 
L 194.754567 52.575915 
L 194.386513 51.666815 
L 193.960969 50.783164 
L 193.479684 49.928594 
L 192.944635 49.106615 
L 192.358022 48.320606 
L 191.722253 47.573796 
L 191.039943 46.869255 
L 190.313894 46.209877 
L 189.547091 45.598372 
L 188.742684 45.037252 
L 187.903979 44.528824 
L 187.034421 44.075176 
L 186.137585 43.678174 
L 185.217156 43.339447 
L 184.276915 43.060389 
L 183.320727 42.842145 
L 182.352521 42.685613 
L 181.376274 42.591435 
L 180.396 42.56 
L 180.396 42.56 
L 160.506 42.56 
L 160.506 57.86 
L 160.506 73.16 
L 180.396 73.16 
" clip-path="url(#p4e0a528b1d)" style="fill: none; stroke: #000000; stroke-width: 2; stroke-linecap: round"/>
   </g>
   <g id="line2d_22">
    <path d="M 149.796 65.51 
L 160.506 65.51 
" clip-path="url(#p4e0a528b1d)" style="fill: none; stroke: #000000; stroke-width: 2; stroke-linecap: round"/>
   </g>
   <g id="line2d_23">
    <path d="M 149.796 50.21 
L 160.506 50.21 
" clip-path="url(#p4e0a528b1d)" style="fill: none; stroke: #000000; stroke-width: 2; stroke-linecap: round"/>
   </g>
   <g id="line2d_24">
    <path d="M 203.04 57.86 
L 206.406 57.86 
" clip-path="url(#p4e0a528b1d)" style="fill: none; stroke: #000000; stroke-width: 2; stroke-linecap: round"/>
   </g>
   <g id="line2d_25">
    <path d="M 36.576 65.51 
L 36.576 80.81 
L 149.796 80.81 
L 149.796 65.51 
" clip-path="url(#p4e0a528b1d)" style="fill: none; stroke: #000000; stroke-width: 2; stroke-linecap: round"/>
   </g>
   <g id="line2d_26">
    <path d="M 237.006 65.51 
L 237.986274 65.478565 
L 238.962521 65.384387 
L 239.930727 65.227855 
L 240.886915 65.009611 
L 241.827156 64.730553 
L 242.747585 64.391826 
L 243.644421 63.994824 
L 244.513979 63.541176 
L 245.352684 63.032748 
L 246.157091 62.471628 
L 246.923894 61.860123 
L 247.649943 61.200745 
L 248.332253 60.496204 
L 248.968022 59.749394 
L 249.554635 58.963385 
L 250.089684 58.141406 
L 250.570969 57.286836 
L 250.996513 56.403185 
L 251.364567 55.494085 
L 251.673618 54.563272 
L 251.922397 53.61457 
L 252.109881 52.651878 
L 252.2353 51.679152 
L 252.298139 50.700389 
L 252.298139 49.719611 
L 252.2353 48.740848 
L 252.109881 47.768122 
L 251.922397 46.80543 
L 251.673618 45.856728 
L 251.364567 44.925915 
L 250.996513 44.016815 
L 250.570969 43.133164 
L 250.089684 42.278594 
L 249.554635 41.456615 
L 248.968022 40.670606 
L 248.332253 39.923796 
L 247.649943 39.219255 
L 246.923894 38.559877 
L 246.157091 37.948372 
L 245.352684 37.387252 
L 244.513979 36.878824 
L 243.644421 36.425176 
L 242.747585 36.028174 
L 241.827156 35.689447 
L 240.886915 35.410389 
L 239.930727 35.192145 
L 238.962521 35.035613 
L 237.986274 34.941435 
L 237.006 34.91 
L 237.006 34.91 
L 217.116 34.91 
L 217.116 50.21 
L 217.116 65.51 
L 237.006 65.51 
" clip-path="url(#p4e0a528b1d)" style="fill: none; stroke: #000000; stroke-width: 2; stroke-linecap: round"/>
   </g>
   <g id="line2d_27">
    <path d="M 206.406 57.86 
L 217.116 57.86 
" clip-path="url(#p4e0a528b1d)" style="fill: none; stroke: #000000; stroke-width: 2; stroke-linecap: round"/>
   </g>
   <g id="line2d_28">
    <path d="M 206.406 42.56 
L 217.116 42.56 
" clip-path="url(#p4e0a528b1d)" style="fill: none; stroke: #000000; stroke-width: 2; stroke-linecap: round"/>
   </g>
   <g id="line2d_29">
    <path d="M 252.306 50.21 
L 263.016 50.21 
" clip-path="url(#p4e0a528b1d)" style="fill: none; stroke: #000000; stroke-width: 2; stroke-linecap: round"/>
   </g>
   <g id="line2d_30">
    <path d="M 237.006 65.51 
L 237.986274 65.478565 
L 238.962521 65.384387 
L 239.930727 65.227855 
L 240.886915 65.009611 
L 241.827156 64.730553 
L 242.747585 64.391826 
L 243.644421 63.994824 
L 244.513979 63.541176 
L 245.352684 63.032748 
L 246.157091 62.471628 
L 246.923894 61.860123 
L 247.649943 61.200745 
L 248.332253 60.496204 
L 248.968022 59.749394 
L 249.554635 58.963385 
L 250.089684 58.141406 
L 250.570969 57.286836 
L 250.996513 56.403185 
L 251.364567 55.494085 
L 251.673618 54.563272 
L 251.922397 53.61457 
L 252.109881 52.651878 
L 252.2353 51.679152 
L 252.298139 50.700389 
L 252.298139 49.719611 
L 252.2353 48.740848 
L 252.109881 47.768122 
L 251.922397 46.80543 
L 251.673618 45.856728 
L 251.364567 44.925915 
L 250.996513 44.016815 
L 250.570969 43.133164 
L 250.089684 42.278594 
L 249.554635 41.456615 
L 248.968022 40.670606 
L 248.332253 39.923796 
L 247.649943 39.219255 
L 246.923894 38.559877 
L 246.157091 37.948372 
L 245.352684 37.387252 
L 244.513979 36.878824 
L 243.644421 36.425176 
L 242.747585 36.028174 
L 241.827156 35.689447 
L 240.886915 35.410389 
L 239.930727 35.192145 
L 238.962521 35.035613 
L 237.986274 34.941435 
L 237.006 34.91 
L 237.006 34.91 
L 217.116 34.91 
L 217.116 50.21 
L 217.116 65.51 
L 237.006 65.51 
" clip-path="url(#p4e0a528b1d)" style="fill: none; stroke: #000000; stroke-width: 2; stroke-linecap: round"/>
   </g>
   <g id="line2d_31">
    <path d="M 206.406 57.86 
L 217.116 57.86 
" clip-path="url(#p4e0a528b1d)" style="fill: none; stroke: #000000; stroke-width: 2; stroke-linecap: round"/>
   </g>
   <g id="line2d_32">
    <path d="M 206.406 42.56 
L 217.116 42.56 
" clip-path="url(#p4e0a528b1d)" style="fill: none; stroke: #000000; stroke-width: 2; stroke-linecap: round"/>
   </g>
   <g id="line2d_33">
    <path d="M 252.306 50.21 
L 263.016 50.21 
" clip-path="url(#p4e0a528b1d)" style="fill: none; stroke: #000000; stroke-width: 2; stroke-linecap: round"/>
   </g>
   <g id="line2d_34">
    <path d="M 293.616 73.16 
L 294.596274 73.128565 
L 295.572521 73.034387 
L 296.540727 72.877855 
L 297.496915 72.659611 
L 298.437156 72.380553 
L 299.357585 72.041826 
L 300.254421 71.644824 
L 301.123979 71.191176 
L 301.962684 70.682748 
L 302.767091 70.121628 
L 303.533894 69.510123 
L 304.259943 68.850745 
L 304.942253 68.146204 
L 305.578022 67.399394 
L 306.164635 66.613385 
L 306.699684 65.791406 
L 307.180969 64.936836 
L 307.606513 64.053185 
L 307.974567 63.144085 
L 308.283618 62.213272 
L 308.532397 61.26457 
L 308.719881 60.301878 
L 308.8453 59.329152 
L 308.908139 58.350389 
L 308.908139 57.369611 
L 308.8453 56.390848 
L 308.719881 55.418122 
L 308.532397 54.45543 
L 308.283618 53.506728 
L 307.974567 52.575915 
L 307.606513 51.666815 
L 307.180969 50.783164 
L 306.699684 49.928594 
L 306.164635 49.106615 
L 305.578022 48.320606 
L 304.942253 47.573796 
L 304.259943 46.869255 
L 303.533894 46.209877 
L 302.767091 45.598372 
L 301.962684 45.037252 
L 301.123979 44.528824 
L 300.254421 44.075176 
L 299.357585 43.678174 
L 298.437156 43.339447 
L 297.496915 43.060389 
L 296.540727 42.842145 
L 295.572521 42.685613 
L 294.596274 42.591435 
L 293.616 42.56 
L 293.616 42.56 
L 273.726 42.56 
L 273.726 57.86 
L 273.726 73.16 
L 293.616 73.16 
" clip-path="url(#p4e0a528b1d)" style="fill: none; stroke: #000000; stroke-width: 2; stroke-linecap: round"/>
   </g>
   <g id="line2d_35">
    <path d="M 263.016 65.51 
L 273.726 65.51 
" clip-path="url(#p4e0a528b1d)" style="fill: none; stroke: #000000; stroke-width: 2; stroke-linecap: round"/>
   </g>
   <g id="line2d_36">
    <path d="M 263.016 50.21 
L 273.726 50.21 
" clip-path="url(#p4e0a528b1d)" style="fill: none; stroke: #000000; stroke-width: 2; stroke-linecap: round"/>
   </g>
   <g id="line2d_37">
    <path d="M 316.26 57.86 
L 319.626 57.86 
" clip-path="url(#p4e0a528b1d)" style="fill: none; stroke: #000000; stroke-width: 2; stroke-linecap: round"/>
   </g>
   <g id="line2d_38">
    <path d="M 293.616 73.16 
L 294.596274 73.128565 
L 295.572521 73.034387 
L 296.540727 72.877855 
L 297.496915 72.659611 
L 298.437156 72.380553 
L 299.357585 72.041826 
L 300.254421 71.644824 
L 301.123979 71.191176 
L 301.962684 70.682748 
L 302.767091 70.121628 
L 303.533894 69.510123 
L 304.259943 68.850745 
L 304.942253 68.146204 
L 305.578022 67.399394 
L 306.164635 66.613385 
L 306.699684 65.791406 
L 307.180969 64.936836 
L 307.606513 64.053185 
L 307.974567 63.144085 
L 308.283618 62.213272 
L 308.532397 61.26457 
L 308.719881 60.301878 
L 308.8453 59.329152 
L 308.908139 58.350389 
L 308.908139 57.369611 
L 308.8453 56.390848 
L 308.719881 55.418122 
L 308.532397 54.45543 
L 308.283618 53.506728 
L 307.974567 52.575915 
L 307.606513 51.666815 
L 307.180969 50.783164 
L 306.699684 49.928594 
L 306.164635 49.106615 
L 305.578022 48.320606 
L 304.942253 47.573796 
L 304.259943 46.869255 
L 303.533894 46.209877 
L 302.767091 45.598372 
L 301.962684 45.037252 
L 301.123979 44.528824 
L 300.254421 44.075176 
L 299.357585 43.678174 
L 298.437156 43.339447 
L 297.496915 43.060389 
L 296.540727 42.842145 
L 295.572521 42.685613 
L 294.596274 42.591435 
L 293.616 42.56 
L 293.616 42.56 
L 273.726 42.56 
L 273.726 57.86 
L 273.726 73.16 
L 293.616 73.16 
" clip-path="url(#p4e0a528b1d)" style="fill: none; stroke: #000000; stroke-width: 2; stroke-linecap: round"/>
   </g>
   <g id="line2d_39">
    <path d="M 263.016 65.51 
L 273.726 65.51 
" clip-path="url(#p4e0a528b1d)" style="fill: none; stroke: #000000; stroke-width: 2; stroke-linecap: round"/>
   </g>
   <g id="line2d_40">
    <path d="M 263.016 50.21 
L 273.726 50.21 
" clip-path="url(#p4e0a528b1d)" style="fill: none; stroke: #000000; stroke-width: 2; stroke-linecap: round"/>
   </g>
   <g id="line2d_41">
    <path d="M 316.26 57.86 
L 319.626 57.86 
" clip-path="url(#p4e0a528b1d)" style="fill: none; stroke: #000000; stroke-width: 2; stroke-linecap: round"/>
   </g>
   <g id="line2d_42">
    <path d="M 36.576 65.51 
L 36.576 80.81 
L 263.016 80.81 
L 263.016 65.51 
" clip-path="url(#p4e0a528b1d)" style="fill: none; stroke: #000000; stroke-width: 2; stroke-linecap: round"/>
   </g>
   <g id="line2d_43">
    <path d="M 350.226 65.51 
L 351.206274 65.478565 
L 352.182521 65.384387 
L 353.150727 65.227855 
L 354.106915 65.009611 
L 355.047156 64.730553 
L 355.967585 64.391826 
L 356.864421 63.994824 
L 357.733979 63.541176 
L 358.572684 63.032748 
L 359.377091 62.471628 
L 360.143894 61.860123 
L 360.869943 61.200745 
L 361.552253 60.496204 
L 362.188022 59.749394 
L 362.774635 58.963385 
L 363.309684 58.141406 
L 363.790969 57.286836 
L 364.216513 56.403185 
L 364.584567 55.494085 
L 364.893618 54.563272 
L 365.142397 53.61457 
L 365.329881 52.651878 
L 365.4553 51.679152 
L 365.518139 50.700389 
L 365.518139 49.719611 
L 365.4553 48.740848 
L 365.329881 47.768122 
L 365.142397 46.80543 
L 364.893618 45.856728 
L 364.584567 44.925915 
L 364.216513 44.016815 
L 363.790969 43.133164 
L 363.309684 42.278594 
L 362.774635 41.456615 
L 362.188022 40.670606 
L 361.552253 39.923796 
L 360.869943 39.219255 
L 360.143894 38.559877 
L 359.377091 37.948372 
L 358.572684 37.387252 
L 357.733979 36.878824 
L 356.864421 36.425176 
L 355.967585 36.028174 
L 355.047156 35.689447 
L 354.106915 35.410389 
L 353.150727 35.192145 
L 352.182521 35.035613 
L 351.206274 34.941435 
L 350.226 34.91 
L 350.226 34.91 
L 330.336 34.91 
L 330.336 50.21 
L 330.336 65.51 
L 350.226 65.51 
" clip-path="url(#p4e0a528b1d)" style="fill: none; stroke: #000000; stroke-width: 2; stroke-linecap: round"/>
   </g>
   <g id="line2d_44">
    <path d="M 319.626 57.86 
L 330.336 57.86 
" clip-path="url(#p4e0a528b1d)" style="fill: none; stroke: #000000; stroke-width: 2; stroke-linecap: round"/>
   </g>
   <g id="line2d_45">
    <path d="M 319.626 42.56 
L 330.336 42.56 
" clip-path="url(#p4e0a528b1d)" style="fill: none; stroke: #000000; stroke-width: 2; stroke-linecap: round"/>
   </g>
   <g id="line2d_46">
    <path d="M 365.526 50.21 
L 376.236 50.21 
" clip-path="url(#p4e0a528b1d)" style="fill: none; stroke: #000000; stroke-width: 2; stroke-linecap: round"/>
   </g>
   <g id="line2d_47">
    <path d="M 350.226 65.51 
L 351.206274 65.478565 
L 352.182521 65.384387 
L 353.150727 65.227855 
L 354.106915 65.009611 
L 355.047156 64.730553 
L 355.967585 64.391826 
L 356.864421 63.994824 
L 357.733979 63.541176 
L 358.572684 63.032748 
L 359.377091 62.471628 
L 360.143894 61.860123 
L 360.869943 61.200745 
L 361.552253 60.496204 
L 362.188022 59.749394 
L 362.774635 58.963385 
L 363.309684 58.141406 
L 363.790969 57.286836 
L 364.216513 56.403185 
L 364.584567 55.494085 
L 364.893618 54.563272 
L 365.142397 53.61457 
L 365.329881 52.651878 
L 365.4553 51.679152 
L 365.518139 50.700389 
L 365.518139 49.719611 
L 365.4553 48.740848 
L 365.329881 47.768122 
L 365.142397 46.80543 
L 364.893618 45.856728 
L 364.584567 44.925915 
L 364.216513 44.016815 
L 363.790969 43.133164 
L 363.309684 42.278594 
L 362.774635 41.456615 
L 362.188022 40.670606 
L 361.552253 39.923796 
L 360.869943 39.219255 
L 360.143894 38.559877 
L 359.377091 37.948372 
L 358.572684 37.387252 
L 357.733979 36.878824 
L 356.864421 36.425176 
L 355.967585 36.028174 
L 355.047156 35.689447 
L 354.106915 35.410389 
L 353.150727 35.192145 
L 352.182521 35.035613 
L 351.206274 34.941435 
L 350.226 34.91 
L 350.226 34.91 
L 330.336 34.91 
L 330.336 50.21 
L 330.336 65.51 
L 350.226 65.51 
" clip-path="url(#p4e0a528b1d)" style="fill: none; stroke: #000000; stroke-width: 2; stroke-linecap: round"/>
   </g>
   <g id="line2d_48">
    <path d="M 319.626 57.86 
L 330.336 57.86 
" clip-path="url(#p4e0a528b1d)" style="fill: none; stroke: #000000; stroke-width: 2; stroke-linecap: round"/>
   </g>
   <g id="line2d_49">
    <path d="M 319.626 42.56 
L 330.336 42.56 
" clip-path="url(#p4e0a528b1d)" style="fill: none; stroke: #000000; stroke-width: 2; stroke-linecap: round"/>
   </g>
   <g id="line2d_50">
    <path d="M 365.526 50.21 
L 376.236 50.21 
" clip-path="url(#p4e0a528b1d)" style="fill: none; stroke: #000000; stroke-width: 2; stroke-linecap: round"/>
   </g>
   <g id="line2d_51">
    <path d="M 406.836 73.16 
L 407.816274 73.128565 
L 408.792521 73.034387 
L 409.760727 72.877855 
L 410.716915 72.659611 
L 411.657156 72.380553 
L 412.577585 72.041826 
L 413.474421 71.644824 
L 414.343979 71.191176 
L 415.182684 70.682748 
L 415.987091 70.121628 
L 416.753894 69.510123 
L 417.479943 68.850745 
L 418.162253 68.146204 
L 418.798022 67.399394 
L 419.384635 66.613385 
L 419.919684 65.791406 
L 420.400969 64.936836 
L 420.826513 64.053185 
L 421.194567 63.144085 
L 421.503618 62.213272 
L 421.752397 61.26457 
L 421.939881 60.301878 
L 422.0653 59.329152 
L 422.128139 58.350389 
L 422.128139 57.369611 
L 422.0653 56.390848 
L 421.939881 55.418122 
L 421.752397 54.45543 
L 421.503618 53.506728 
L 421.194567 52.575915 
L 420.826513 51.666815 
L 420.400969 50.783164 
L 419.919684 49.928594 
L 419.384635 49.106615 
L 418.798022 48.320606 
L 418.162253 47.573796 
L 417.479943 46.869255 
L 416.753894 46.209877 
L 415.987091 45.598372 
L 415.182684 45.037252 
L 414.343979 44.528824 
L 413.474421 44.075176 
L 412.577585 43.678174 
L 411.657156 43.339447 
L 410.716915 43.060389 
L 409.760727 42.842145 
L 408.792521 42.685613 
L 407.816274 42.591435 
L 406.836 42.56 
L 406.836 42.56 
L 386.946 42.56 
L 386.946 57.86 
L 386.946 73.16 
L 406.836 73.16 
" clip-path="url(#p4e0a528b1d)" style="fill: none; stroke: #000000; stroke-width: 2; stroke-linecap: round"/>
   </g>
   <g id="line2d_52">
    <path d="M 376.236 65.51 
L 386.946 65.51 
" clip-path="url(#p4e0a528b1d)" style="fill: none; stroke: #000000; stroke-width: 2; stroke-linecap: round"/>
   </g>
   <g id="line2d_53">
    <path d="M 376.236 50.21 
L 386.946 50.21 
" clip-path="url(#p4e0a528b1d)" style="fill: none; stroke: #000000; stroke-width: 2; stroke-linecap: round"/>
   </g>
   <g id="line2d_54">
    <path d="M 429.48 57.86 
L 432.846 57.86 
" clip-path="url(#p4e0a528b1d)" style="fill: none; stroke: #000000; stroke-width: 2; stroke-linecap: round"/>
   </g>
   <g id="line2d_55">
    <path d="M 406.836 73.16 
L 407.816274 73.128565 
L 408.792521 73.034387 
L 409.760727 72.877855 
L 410.716915 72.659611 
L 411.657156 72.380553 
L 412.577585 72.041826 
L 413.474421 71.644824 
L 414.343979 71.191176 
L 415.182684 70.682748 
L 415.987091 70.121628 
L 416.753894 69.510123 
L 417.479943 68.850745 
L 418.162253 68.146204 
L 418.798022 67.399394 
L 419.384635 66.613385 
L 419.919684 65.791406 
L 420.400969 64.936836 
L 420.826513 64.053185 
L 421.194567 63.144085 
L 421.503618 62.213272 
L 421.752397 61.26457 
L 421.939881 60.301878 
L 422.0653 59.329152 
L 422.128139 58.350389 
L 422.128139 57.369611 
L 422.0653 56.390848 
L 421.939881 55.418122 
L 421.752397 54.45543 
L 421.503618 53.506728 
L 421.194567 52.575915 
L 420.826513 51.666815 
L 420.400969 50.783164 
L 419.919684 49.928594 
L 419.384635 49.106615 
L 418.798022 48.320606 
L 418.162253 47.573796 
L 417.479943 46.869255 
L 416.753894 46.209877 
L 415.987091 45.598372 
L 415.182684 45.037252 
L 414.343979 44.528824 
L 413.474421 44.075176 
L 412.577585 43.678174 
L 411.657156 43.339447 
L 410.716915 43.060389 
L 409.760727 42.842145 
L 408.792521 42.685613 
L 407.816274 42.591435 
L 406.836 42.56 
L 406.836 42.56 
L 386.946 42.56 
L 386.946 57.86 
L 386.946 73.16 
L 406.836 73.16 
" clip-path="url(#p4e0a528b1d)" style="fill: none; stroke: #000000; stroke-width: 2; stroke-linecap: round"/>
   </g>
   <g id="line2d_56">
    <path d="M 376.236 65.51 
L 386.946 65.51 
" clip-path="url(#p4e0a528b1d)" style="fill: none; stroke: #000000; stroke-width: 2; stroke-linecap: round"/>
   </g>
   <g id="line2d_57">
    <path d="M 376.236 50.21 
L 386.946 50.21 
" clip-path="url(#p4e0a528b1d)" style="fill: none; stroke: #000000; stroke-width: 2; stroke-linecap: round"/>
   </g>
   <g id="line2d_58">
    <path d="M 429.48 57.86 
L 432.846 57.86 
" clip-path="url(#p4e0a528b1d)" style="fill: none; stroke: #000000; stroke-width: 2; stroke-linecap: round"/>
   </g>
   <g id="line2d_59">
    <path d="M 36.576 65.51 
L 36.576 80.81 
L 376.236 80.81 
L 376.236 65.51 
" clip-path="url(#p4e0a528b1d)" style="fill: none; stroke: #000000; stroke-width: 2; stroke-linecap: round"/>
   </g>
   <g id="line2d_60">
    <path d="M 463.446 80.81 
L 464.426274 80.778565 
L 465.402521 80.684387 
L 466.370727 80.527855 
L 467.326915 80.309611 
L 468.267156 80.030553 
L 469.187585 79.691826 
L 470.084421 79.294824 
L 470.953979 78.841176 
L 471.792684 78.332748 
L 472.597091 77.771628 
L 473.363894 77.160123 
L 474.089943 76.500745 
L 474.772253 75.796204 
L 475.408022 75.049394 
L 475.994635 74.263385 
L 476.529684 73.441406 
L 477.010969 72.586836 
L 477.436513 71.703185 
L 477.804567 70.794085 
L 478.113618 69.863272 
L 478.362397 68.91457 
L 478.549881 67.951878 
L 478.6753 66.979152 
L 478.738139 66.000389 
L 478.738139 65.019611 
L 478.6753 64.040848 
L 478.549881 63.068122 
L 478.362397 62.10543 
L 478.113618 61.156728 
L 477.804567 60.225915 
L 477.436513 59.316815 
L 477.010969 58.433164 
L 476.529684 57.578594 
L 475.994635 56.756615 
L 475.408022 55.970606 
L 474.772253 55.223796 
L 474.089943 54.519255 
L 473.363894 53.859877 
L 472.597091 53.248372 
L 471.792684 52.687252 
L 470.953979 52.178824 
L 470.084421 51.725176 
L 469.187585 51.328174 
L 468.267156 50.989447 
L 467.326915 50.710389 
L 466.370727 50.492145 
L 465.402521 50.335613 
L 464.426274 50.241435 
L 463.446 50.21 
L 463.446 50.21 
L 443.556 50.21 
L 443.556 65.51 
L 443.556 80.81 
L 463.446 80.81 
" clip-path="url(#p4e0a528b1d)" style="fill: none; stroke: #000000; stroke-width: 2; stroke-linecap: round"/>
   </g>
   <g id="line2d_61">
    <path d="M 432.846 73.16 
L 443.556 73.16 
" clip-path="url(#p4e0a528b1d)" style="fill: none; stroke: #000000; stroke-width: 2; stroke-linecap: round"/>
   </g>
   <g id="line2d_62">
    <path d="M 432.846 57.86 
L 443.556 57.86 
" clip-path="url(#p4e0a528b1d)" style="fill: none; stroke: #000000; stroke-width: 2; stroke-linecap: round"/>
   </g>
   <g id="line2d_63">
    <path d="M 486.09 65.51 
L 489.456 65.51 
" clip-path="url(#p4e0a528b1d)" style="fill: none; stroke: #000000; stroke-width: 2; stroke-linecap: round"/>
   </g>
   <g id="line2d_64">
    <path d="M 463.446 80.81 
L 464.426274 80.778565 
L 465.402521 80.684387 
L 466.370727 80.527855 
L 467.326915 80.309611 
L 468.267156 80.030553 
L 469.187585 79.691826 
L 470.084421 79.294824 
L 470.953979 78.841176 
L 471.792684 78.332748 
L 472.597091 77.771628 
L 473.363894 77.160123 
L 474.089943 76.500745 
L 474.772253 75.796204 
L 475.408022 75.049394 
L 475.994635 74.263385 
L 476.529684 73.441406 
L 477.010969 72.586836 
L 477.436513 71.703185 
L 477.804567 70.794085 
L 478.113618 69.863272 
L 478.362397 68.91457 
L 478.549881 67.951878 
L 478.6753 66.979152 
L 478.738139 66.000389 
L 478.738139 65.019611 
L 478.6753 64.040848 
L 478.549881 63.068122 
L 478.362397 62.10543 
L 478.113618 61.156728 
L 477.804567 60.225915 
L 477.436513 59.316815 
L 477.010969 58.433164 
L 476.529684 57.578594 
L 475.994635 56.756615 
L 475.408022 55.970606 
L 474.772253 55.223796 
L 474.089943 54.519255 
L 473.363894 53.859877 
L 472.597091 53.248372 
L 471.792684 52.687252 
L 470.953979 52.178824 
L 470.084421 51.725176 
L 469.187585 51.328174 
L 468.267156 50.989447 
L 467.326915 50.710389 
L 466.370727 50.492145 
L 465.402521 50.335613 
L 464.426274 50.241435 
L 463.446 50.21 
L 463.446 50.21 
L 443.556 50.21 
L 443.556 65.51 
L 443.556 80.81 
L 463.446 80.81 
" clip-path="url(#p4e0a528b1d)" style="fill: none; stroke: #000000; stroke-width: 2; stroke-linecap: round"/>
   </g>
   <g id="line2d_65">
    <path d="M 432.846 73.16 
L 443.556 73.16 
" clip-path="url(#p4e0a528b1d)" style="fill: none; stroke: #000000; stroke-width: 2; stroke-linecap: round"/>
   </g>
   <g id="line2d_66">
    <path d="M 432.846 57.86 
L 443.556 57.86 
" clip-path="url(#p4e0a528b1d)" style="fill: none; stroke: #000000; stroke-width: 2; stroke-linecap: round"/>
   </g>
   <g id="line2d_67">
    <path d="M 486.09 65.51 
L 489.456 65.51 
" clip-path="url(#p4e0a528b1d)" style="fill: none; stroke: #000000; stroke-width: 2; stroke-linecap: round"/>
   </g>
   <g id="line2d_68">
    <path d="M 36.576 65.51 
L 36.576 80.81 
L 432.846 80.81 
L 432.846 73.16 
" clip-path="url(#p4e0a528b1d)" style="fill: none; stroke: #000000; stroke-width: 2; stroke-linecap: round"/>
   </g>
   <g id="line2d_69">
    <path d="M 463.446 80.81 
L 464.426274 80.778565 
L 465.402521 80.684387 
L 466.370727 80.527855 
L 467.326915 80.309611 
L 468.267156 80.030553 
L 469.187585 79.691826 
L 470.084421 79.294824 
L 470.953979 78.841176 
L 471.792684 78.332748 
L 472.597091 77.771628 
L 473.363894 77.160123 
L 474.089943 76.500745 
L 474.772253 75.796204 
L 475.408022 75.049394 
L 475.994635 74.263385 
L 476.529684 73.441406 
L 477.010969 72.586836 
L 477.436513 71.703185 
L 477.804567 70.794085 
L 478.113618 69.863272 
L 478.362397 68.91457 
L 478.549881 67.951878 
L 478.6753 66.979152 
L 478.738139 66.000389 
L 478.738139 65.019611 
L 478.6753 64.040848 
L 478.549881 63.068122 
L 478.362397 62.10543 
L 478.113618 61.156728 
L 477.804567 60.225915 
L 477.436513 59.316815 
L 477.010969 58.433164 
L 476.529684 57.578594 
L 475.994635 56.756615 
L 475.408022 55.970606 
L 474.772253 55.223796 
L 474.089943 54.519255 
L 473.363894 53.859877 
L 472.597091 53.248372 
L 471.792684 52.687252 
L 470.953979 52.178824 
L 470.084421 51.725176 
L 469.187585 51.328174 
L 468.267156 50.989447 
L 467.326915 50.710389 
L 466.370727 50.492145 
L 465.402521 50.335613 
L 464.426274 50.241435 
L 463.446 50.21 
L 463.446 50.21 
L 443.556 50.21 
L 443.556 65.51 
L 443.556 80.81 
L 463.446 80.81 
" clip-path="url(#p4e0a528b1d)" style="fill: none; stroke: #000000; stroke-width: 2; stroke-linecap: round"/>
   </g>
   <g id="line2d_70">
    <path d="M 432.846 73.16 
L 443.556 73.16 
" clip-path="url(#p4e0a528b1d)" style="fill: none; stroke: #000000; stroke-width: 2; stroke-linecap: round"/>
   </g>
   <g id="line2d_71">
    <path d="M 432.846 57.86 
L 443.556 57.86 
" clip-path="url(#p4e0a528b1d)" style="fill: none; stroke: #000000; stroke-width: 2; stroke-linecap: round"/>
   </g>
   <g id="line2d_72">
    <path d="M 486.09 65.51 
L 489.456 65.51 
" clip-path="url(#p4e0a528b1d)" style="fill: none; stroke: #000000; stroke-width: 2; stroke-linecap: round"/>
   </g>
   <g id="text_1">
    <g clip-path="url(#p4e0a528b1d)">
     <!-- 0.2 -->
     <g transform="translate(13.637094 53.659219) scale(0.125 -0.125)">
      <defs>
       <path id="DejaVuSans-30" d="M 2034 4250 
Q 1547 4250 1301 3770 
Q 1056 3291 1056 2328 
Q 1056 1369 1301 889 
Q 1547 409 2034 409 
Q 2525 409 2770 889 
Q 3016 1369 3016 2328 
Q 3016 3291 2770 3770 
Q 2525 4250 2034 4250 
z
M 2034 4750 
Q 2819 4750 3233 4129 
Q 3647 3509 3647 2328 
Q 3647 1150 3233 529 
Q 2819 -91 2034 -91 
Q 1250 -91 836 529 
Q 422 1150 422 2328 
Q 422 3509 836 4129 
Q 1250 4750 2034 4750 
z
" transform="scale(0.015625)"/>
       <path id="DejaVuSans-2e" d="M 684 794 
L 1344 794 
L 1344 0 
L 684 0 
L 684 794 
z
" transform="scale(0.015625)"/>
       <path id="DejaVuSans-32" d="M 1228 531 
L 3431 531 
L 3431 0 
L 469 0 
L 469 531 
Q 828 903 1448 1529 
Q 2069 2156 2228 2338 
Q 2531 2678 2651 2914 
Q 2772 3150 2772 3378 
Q 2772 3750 2511 3984 
Q 2250 4219 1831 4219 
Q 1534 4219 1204 4116 
Q 875 4013 500 3803 
L 500 4441 
Q 881 4594 1212 4672 
Q 1544 4750 1819 4750 
Q 2544 4750 2975 4387 
Q 3406 4025 3406 3419 
Q 3406 3131 3298 2873 
Q 3191 2616 2906 2266 
Q 2828 2175 2409 1742 
Q 1991 1309 1228 531 
z
" transform="scale(0.015625)"/>
      </defs>
      <use xlink:href="#DejaVuSans-30"/>
      <use xlink:href="#DejaVuSans-2e" x="63.623047"/>
      <use xlink:href="#DejaVuSans-32" x="95.410156"/>
     </g>
    </g>
   </g>
   <g id="text_2">
    <g clip-path="url(#p4e0a528b1d)">
     <!-- X -->
     <g transform="translate(24.9535 68.959219) scale(0.125 -0.125)">
      <defs>
       <path id="DejaVuSans-58" d="M 403 4666 
L 1081 4666 
L 2241 2931 
L 3406 4666 
L 4084 4666 
L 2584 2425 
L 4184 0 
L 3506 0 
L 2194 1984 
L 872 0 
L 191 0 
L 1856 2491 
L 403 4666 
z
" transform="scale(0.015625)"/>
      </defs>
      <use xlink:href="#DejaVuSans-58"/>
     </g>
    </g>
   </g>
   <g id="text_3">
    <g clip-path="url(#p4e0a528b1d)">
     <!-- 0.2 -->
     <g transform="translate(13.637094 53.659219) scale(0.125 -0.125)">
      <use xlink:href="#DejaVuSans-30"/>
      <use xlink:href="#DejaVuSans-2e" x="63.623047"/>
      <use xlink:href="#DejaVuSans-32" x="95.410156"/>
     </g>
    </g>
   </g>
   <g id="text_4">
    <g clip-path="url(#p4e0a528b1d)">
     <!-- X -->
     <g transform="translate(24.9535 68.959219) scale(0.125 -0.125)">
      <use xlink:href="#DejaVuSans-58"/>
     </g>
    </g>
   </g>
   <g id="text_5">
    <g clip-path="url(#p4e0a528b1d)">
     <!-- G1 -->
     <g transform="translate(56.061664 58.249219) scale(0.125 -0.125)">
      <defs>
       <path id="DejaVuSans-47" d="M 3809 666 
L 3809 1919 
L 2778 1919 
L 2778 2438 
L 4434 2438 
L 4434 434 
Q 4069 175 3628 42 
Q 3188 -91 2688 -91 
Q 1594 -91 976 548 
Q 359 1188 359 2328 
Q 359 3472 976 4111 
Q 1594 4750 2688 4750 
Q 3144 4750 3555 4637 
Q 3966 4525 4313 4306 
L 4313 3634 
Q 3963 3931 3569 4081 
Q 3175 4231 2741 4231 
Q 1884 4231 1454 3753 
Q 1025 3275 1025 2328 
Q 1025 1384 1454 906 
Q 1884 428 2741 428 
Q 3075 428 3337 486 
Q 3600 544 3809 666 
z
" transform="scale(0.015625)"/>
       <path id="DejaVuSans-31" d="M 794 531 
L 1825 531 
L 1825 4091 
L 703 3866 
L 703 4441 
L 1819 4666 
L 2450 4666 
L 2450 531 
L 3481 531 
L 3481 0 
L 794 0 
L 794 531 
z
" transform="scale(0.015625)"/>
      </defs>
      <use xlink:href="#DejaVuSans-47"/>
      <use xlink:href="#DejaVuSans-31" x="77.490234"/>
     </g>
    </g>
   </g>
   <g id="text_6">
    <g clip-path="url(#p4e0a528b1d)">
     <!-- 0.2 -->
     <g transform="translate(13.637094 53.659219) scale(0.125 -0.125)">
      <use xlink:href="#DejaVuSans-30"/>
      <use xlink:href="#DejaVuSans-2e" x="63.623047"/>
      <use xlink:href="#DejaVuSans-32" x="95.410156"/>
     </g>
    </g>
   </g>
   <g id="text_7">
    <g clip-path="url(#p4e0a528b1d)">
     <!-- X -->
     <g transform="translate(24.9535 68.959219) scale(0.125 -0.125)">
      <use xlink:href="#DejaVuSans-58"/>
     </g>
    </g>
   </g>
   <g id="text_8">
    <g clip-path="url(#p4e0a528b1d)">
     <!-- 0.2 -->
     <g transform="translate(13.637094 53.659219) scale(0.125 -0.125)">
      <use xlink:href="#DejaVuSans-30"/>
      <use xlink:href="#DejaVuSans-2e" x="63.623047"/>
      <use xlink:href="#DejaVuSans-32" x="95.410156"/>
     </g>
    </g>
   </g>
   <g id="text_9">
    <g clip-path="url(#p4e0a528b1d)">
     <!-- X -->
     <g transform="translate(24.9535 68.959219) scale(0.125 -0.125)">
      <use xlink:href="#DejaVuSans-58"/>
     </g>
    </g>
   </g>
   <g id="text_10">
    <g clip-path="url(#p4e0a528b1d)">
     <!-- G1 -->
     <g transform="translate(56.061664 58.249219) scale(0.125 -0.125)">
      <use xlink:href="#DejaVuSans-47"/>
      <use xlink:href="#DejaVuSans-31" x="77.490234"/>
     </g>
    </g>
   </g>
   <g id="text_11">
    <g clip-path="url(#p4e0a528b1d)">
     <!-- 0.25 -->
     <g transform="translate(65.353969 30.709219) scale(0.125 -0.125)">
      <defs>
       <path id="DejaVuSans-35" d="M 691 4666 
L 3169 4666 
L 3169 4134 
L 1269 4134 
L 1269 2991 
Q 1406 3038 1543 3061 
Q 1681 3084 1819 3084 
Q 2600 3084 3056 2656 
Q 3513 2228 3513 1497 
Q 3513 744 3044 326 
Q 2575 -91 1722 -91 
Q 1428 -91 1123 -41 
Q 819 9 494 109 
L 494 744 
Q 775 591 1075 516 
Q 1375 441 1709 441 
Q 2250 441 2565 725 
Q 2881 1009 2881 1497 
Q 2881 1984 2565 2268 
Q 2250 2553 1709 2553 
Q 1456 2553 1204 2497 
Q 953 2441 691 2322 
L 691 4666 
z
" transform="scale(0.015625)"/>
      </defs>
      <use xlink:href="#DejaVuSans-30"/>
      <use xlink:href="#DejaVuSans-2e" x="63.623047"/>
      <use xlink:href="#DejaVuSans-32" x="95.410156"/>
      <use xlink:href="#DejaVuSans-35" x="159.033203"/>
     </g>
    </g>
   </g>
   <g id="text_12">
    <g clip-path="url(#p4e0a528b1d)">
     <!-- 0.25 -->
     <g transform="translate(65.353969 30.709219) scale(0.125 -0.125)">
      <use xlink:href="#DejaVuSans-30"/>
      <use xlink:href="#DejaVuSans-2e" x="63.623047"/>
      <use xlink:href="#DejaVuSans-32" x="95.410156"/>
      <use xlink:href="#DejaVuSans-35" x="159.033203"/>
     </g>
    </g>
   </g>
   <g id="text_13">
    <g clip-path="url(#p4e0a528b1d)">
     <!-- G2 -->
     <g transform="translate(112.671664 50.599219) scale(0.125 -0.125)">
      <use xlink:href="#DejaVuSans-47"/>
      <use xlink:href="#DejaVuSans-32" x="77.490234"/>
     </g>
    </g>
   </g>
   <g id="text_14">
    <g clip-path="url(#p4e0a528b1d)">
     <!-- 0.25 -->
     <g transform="translate(65.353969 30.709219) scale(0.125 -0.125)">
      <use xlink:href="#DejaVuSans-30"/>
      <use xlink:href="#DejaVuSans-2e" x="63.623047"/>
      <use xlink:href="#DejaVuSans-32" x="95.410156"/>
      <use xlink:href="#DejaVuSans-35" x="159.033203"/>
     </g>
    </g>
   </g>
   <g id="text_15">
    <g clip-path="url(#p4e0a528b1d)">
     <!-- 0.25 -->
     <g transform="translate(65.353969 30.709219) scale(0.125 -0.125)">
      <use xlink:href="#DejaVuSans-30"/>
      <use xlink:href="#DejaVuSans-2e" x="63.623047"/>
      <use xlink:href="#DejaVuSans-32" x="95.410156"/>
      <use xlink:href="#DejaVuSans-35" x="159.033203"/>
     </g>
    </g>
   </g>
   <g id="text_16">
    <g clip-path="url(#p4e0a528b1d)">
     <!-- G2 -->
     <g transform="translate(112.671664 50.599219) scale(0.125 -0.125)">
      <use xlink:href="#DejaVuSans-47"/>
      <use xlink:href="#DejaVuSans-32" x="77.490234"/>
     </g>
    </g>
   </g>
   <g id="text_17">
    <g clip-path="url(#p4e0a528b1d)">
     <!-- G3 -->
     <g transform="translate(169.281664 58.249219) scale(0.125 -0.125)">
      <defs>
       <path id="DejaVuSans-33" d="M 2597 2516 
Q 3050 2419 3304 2112 
Q 3559 1806 3559 1356 
Q 3559 666 3084 287 
Q 2609 -91 1734 -91 
Q 1441 -91 1130 -33 
Q 819 25 488 141 
L 488 750 
Q 750 597 1062 519 
Q 1375 441 1716 441 
Q 2309 441 2620 675 
Q 2931 909 2931 1356 
Q 2931 1769 2642 2001 
Q 2353 2234 1838 2234 
L 1294 2234 
L 1294 2753 
L 1863 2753 
Q 2328 2753 2575 2939 
Q 2822 3125 2822 3475 
Q 2822 3834 2567 4026 
Q 2313 4219 1838 4219 
Q 1578 4219 1281 4162 
Q 984 4106 628 3988 
L 628 4550 
Q 988 4650 1302 4700 
Q 1616 4750 1894 4750 
Q 2613 4750 3031 4423 
Q 3450 4097 3450 3541 
Q 3450 3153 3228 2886 
Q 3006 2619 2597 2516 
z
" transform="scale(0.015625)"/>
      </defs>
      <use xlink:href="#DejaVuSans-47"/>
      <use xlink:href="#DejaVuSans-33" x="77.490234"/>
     </g>
    </g>
   </g>
   <g id="text_18">
    <g clip-path="url(#p4e0a528b1d)">
     <!-- G3 -->
     <g transform="translate(169.281664 58.249219) scale(0.125 -0.125)">
      <use xlink:href="#DejaVuSans-47"/>
      <use xlink:href="#DejaVuSans-33" x="77.490234"/>
     </g>
    </g>
   </g>
   <g id="text_19">
    <g clip-path="url(#p4e0a528b1d)">
     <!-- 0.3333 -->
     <g transform="translate(162.667719 30.709219) scale(0.125 -0.125)">
      <use xlink:href="#DejaVuSans-30"/>
      <use xlink:href="#DejaVuSans-2e" x="63.623047"/>
      <use xlink:href="#DejaVuSans-33" x="95.410156"/>
      <use xlink:href="#DejaVuSans-33" x="159.033203"/>
      <use xlink:href="#DejaVuSans-33" x="222.65625"/>
      <use xlink:href="#DejaVuSans-33" x="286.279297"/>
     </g>
    </g>
   </g>
   <g id="text_20">
    <g clip-path="url(#p4e0a528b1d)">
     <!-- 0.3333 -->
     <g transform="translate(162.667719 30.709219) scale(0.125 -0.125)">
      <use xlink:href="#DejaVuSans-30"/>
      <use xlink:href="#DejaVuSans-2e" x="63.623047"/>
      <use xlink:href="#DejaVuSans-33" x="95.410156"/>
      <use xlink:href="#DejaVuSans-33" x="159.033203"/>
      <use xlink:href="#DejaVuSans-33" x="222.65625"/>
      <use xlink:href="#DejaVuSans-33" x="286.279297"/>
     </g>
    </g>
   </g>
   <g id="text_21">
    <g clip-path="url(#p4e0a528b1d)">
     <!-- G4 -->
     <g transform="translate(225.891664 50.599219) scale(0.125 -0.125)">
      <defs>
       <path id="DejaVuSans-34" d="M 2419 4116 
L 825 1625 
L 2419 1625 
L 2419 4116 
z
M 2253 4666 
L 3047 4666 
L 3047 1625 
L 3713 1625 
L 3713 1100 
L 3047 1100 
L 3047 0 
L 2419 0 
L 2419 1100 
L 313 1100 
L 313 1709 
L 2253 4666 
z
" transform="scale(0.015625)"/>
      </defs>
      <use xlink:href="#DejaVuSans-47"/>
      <use xlink:href="#DejaVuSans-34" x="77.490234"/>
     </g>
    </g>
   </g>
   <g id="text_22">
    <g clip-path="url(#p4e0a528b1d)">
     <!-- 0.3333 -->
     <g transform="translate(162.667719 30.709219) scale(0.125 -0.125)">
      <use xlink:href="#DejaVuSans-30"/>
      <use xlink:href="#DejaVuSans-2e" x="63.623047"/>
      <use xlink:href="#DejaVuSans-33" x="95.410156"/>
      <use xlink:href="#DejaVuSans-33" x="159.033203"/>
      <use xlink:href="#DejaVuSans-33" x="222.65625"/>
      <use xlink:href="#DejaVuSans-33" x="286.279297"/>
     </g>
    </g>
   </g>
   <g id="text_23">
    <g clip-path="url(#p4e0a528b1d)">
     <!-- 0.3333 -->
     <g transform="translate(162.667719 30.709219) scale(0.125 -0.125)">
      <use xlink:href="#DejaVuSans-30"/>
      <use xlink:href="#DejaVuSans-2e" x="63.623047"/>
      <use xlink:href="#DejaVuSans-33" x="95.410156"/>
      <use xlink:href="#DejaVuSans-33" x="159.033203"/>
      <use xlink:href="#DejaVuSans-33" x="222.65625"/>
      <use xlink:href="#DejaVuSans-33" x="286.279297"/>
     </g>
    </g>
   </g>
   <g id="text_24">
    <g clip-path="url(#p4e0a528b1d)">
     <!-- G4 -->
     <g transform="translate(225.891664 50.599219) scale(0.125 -0.125)">
      <use xlink:href="#DejaVuSans-47"/>
      <use xlink:href="#DejaVuSans-34" x="77.490234"/>
     </g>
    </g>
   </g>
   <g id="text_25">
    <g clip-path="url(#p4e0a528b1d)">
     <!-- G5 -->
     <g transform="translate(282.501664 58.249219) scale(0.125 -0.125)">
      <use xlink:href="#DejaVuSans-47"/>
      <use xlink:href="#DejaVuSans-35" x="77.490234"/>
     </g>
    </g>
   </g>
   <g id="text_26">
    <g clip-path="url(#p4e0a528b1d)">
     <!-- G5 -->
     <g transform="translate(282.501664 58.249219) scale(0.125 -0.125)">
      <use xlink:href="#DejaVuSans-47"/>
      <use xlink:href="#DejaVuSans-35" x="77.490234"/>
     </g>
    </g>
   </g>
   <g id="text_27">
    <g clip-path="url(#p4e0a528b1d)">
     <!-- 0.5 -->
     <g transform="translate(299.747094 30.709219) scale(0.125 -0.125)">
      <use xlink:href="#DejaVuSans-30"/>
      <use xlink:href="#DejaVuSans-2e" x="63.623047"/>
      <use xlink:href="#DejaVuSans-35" x="95.410156"/>
     </g>
    </g>
   </g>
   <g id="text_28">
    <g clip-path="url(#p4e0a528b1d)">
     <!-- 0.5 -->
     <g transform="translate(299.747094 30.709219) scale(0.125 -0.125)">
      <use xlink:href="#DejaVuSans-30"/>
      <use xlink:href="#DejaVuSans-2e" x="63.623047"/>
      <use xlink:href="#DejaVuSans-35" x="95.410156"/>
     </g>
    </g>
   </g>
   <g id="text_29">
    <g clip-path="url(#p4e0a528b1d)">
     <!-- G6 -->
     <g transform="translate(339.111664 50.599219) scale(0.125 -0.125)">
      <defs>
       <path id="DejaVuSans-36" d="M 2113 2584 
Q 1688 2584 1439 2293 
Q 1191 2003 1191 1497 
Q 1191 994 1439 701 
Q 1688 409 2113 409 
Q 2538 409 2786 701 
Q 3034 994 3034 1497 
Q 3034 2003 2786 2293 
Q 2538 2584 2113 2584 
z
M 3366 4563 
L 3366 3988 
Q 3128 4100 2886 4159 
Q 2644 4219 2406 4219 
Q 1781 4219 1451 3797 
Q 1122 3375 1075 2522 
Q 1259 2794 1537 2939 
Q 1816 3084 2150 3084 
Q 2853 3084 3261 2657 
Q 3669 2231 3669 1497 
Q 3669 778 3244 343 
Q 2819 -91 2113 -91 
Q 1303 -91 875 529 
Q 447 1150 447 2328 
Q 447 3434 972 4092 
Q 1497 4750 2381 4750 
Q 2619 4750 2861 4703 
Q 3103 4656 3366 4563 
z
" transform="scale(0.015625)"/>
      </defs>
      <use xlink:href="#DejaVuSans-47"/>
      <use xlink:href="#DejaVuSans-36" x="77.490234"/>
     </g>
    </g>
   </g>
   <g id="text_30">
    <g clip-path="url(#p4e0a528b1d)">
     <!-- 0.5 -->
     <g transform="translate(299.747094 30.709219) scale(0.125 -0.125)">
      <use xlink:href="#DejaVuSans-30"/>
      <use xlink:href="#DejaVuSans-2e" x="63.623047"/>
      <use xlink:href="#DejaVuSans-35" x="95.410156"/>
     </g>
    </g>
   </g>
   <g id="text_31">
    <g clip-path="url(#p4e0a528b1d)">
     <!-- 0.5 -->
     <g transform="translate(299.747094 30.709219) scale(0.125 -0.125)">
      <use xlink:href="#DejaVuSans-30"/>
      <use xlink:href="#DejaVuSans-2e" x="63.623047"/>
      <use xlink:href="#DejaVuSans-35" x="95.410156"/>
     </g>
    </g>
   </g>
   <g id="text_32">
    <g clip-path="url(#p4e0a528b1d)">
     <!-- G6 -->
     <g transform="translate(339.111664 50.599219) scale(0.125 -0.125)">
      <use xlink:href="#DejaVuSans-47"/>
      <use xlink:href="#DejaVuSans-36" x="77.490234"/>
     </g>
    </g>
   </g>
   <g id="text_33">
    <g clip-path="url(#p4e0a528b1d)">
     <!-- G7 -->
     <g transform="translate(395.721664 58.249219) scale(0.125 -0.125)">
      <defs>
       <path id="DejaVuSans-37" d="M 525 4666 
L 3525 4666 
L 3525 4397 
L 1831 0 
L 1172 0 
L 2766 4134 
L 525 4134 
L 525 4666 
z
" transform="scale(0.015625)"/>
      </defs>
      <use xlink:href="#DejaVuSans-47"/>
      <use xlink:href="#DejaVuSans-37" x="77.490234"/>
     </g>
    </g>
   </g>
   <g id="text_34">
    <g clip-path="url(#p4e0a528b1d)">
     <!-- G7 -->
     <g transform="translate(395.721664 58.249219) scale(0.125 -0.125)">
      <use xlink:href="#DejaVuSans-47"/>
      <use xlink:href="#DejaVuSans-37" x="77.490234"/>
     </g>
    </g>
   </g>
   <g id="text_35">
    <g clip-path="url(#p4e0a528b1d)">
     <!-- G8 -->
     <g transform="translate(452.331664 65.899219) scale(0.125 -0.125)">
      <defs>
       <path id="DejaVuSans-38" d="M 2034 2216 
Q 1584 2216 1326 1975 
Q 1069 1734 1069 1313 
Q 1069 891 1326 650 
Q 1584 409 2034 409 
Q 2484 409 2743 651 
Q 3003 894 3003 1313 
Q 3003 1734 2745 1975 
Q 2488 2216 2034 2216 
z
M 1403 2484 
Q 997 2584 770 2862 
Q 544 3141 544 3541 
Q 544 4100 942 4425 
Q 1341 4750 2034 4750 
Q 2731 4750 3128 4425 
Q 3525 4100 3525 3541 
Q 3525 3141 3298 2862 
Q 3072 2584 2669 2484 
Q 3125 2378 3379 2068 
Q 3634 1759 3634 1313 
Q 3634 634 3220 271 
Q 2806 -91 2034 -91 
Q 1263 -91 848 271 
Q 434 634 434 1313 
Q 434 1759 690 2068 
Q 947 2378 1403 2484 
z
M 1172 3481 
Q 1172 3119 1398 2916 
Q 1625 2713 2034 2713 
Q 2441 2713 2670 2916 
Q 2900 3119 2900 3481 
Q 2900 3844 2670 4047 
Q 2441 4250 2034 4250 
Q 1625 4250 1398 4047 
Q 1172 3844 1172 3481 
z
" transform="scale(0.015625)"/>
      </defs>
      <use xlink:href="#DejaVuSans-47"/>
      <use xlink:href="#DejaVuSans-38" x="77.490234"/>
     </g>
    </g>
   </g>
   <g id="text_36">
    <g clip-path="url(#p4e0a528b1d)">
     <!-- G8 -->
     <g transform="translate(452.331664 65.899219) scale(0.125 -0.125)">
      <use xlink:href="#DejaVuSans-47"/>
      <use xlink:href="#DejaVuSans-38" x="77.490234"/>
     </g>
    </g>
   </g>
   <g id="text_37">
    <g clip-path="url(#p4e0a528b1d)">
     <!-- $f(X)$ -->
     <g transform="translate(492.516 68.959219) scale(0.125 -0.125)">
      <defs>
       <path id="DejaVuSans-Oblique-66" d="M 3059 4863 
L 2969 4384 
L 2419 4384 
Q 2106 4384 1964 4261 
Q 1822 4138 1753 3809 
L 1691 3500 
L 2638 3500 
L 2553 3053 
L 1606 3053 
L 1013 0 
L 434 0 
L 1031 3053 
L 481 3053 
L 563 3500 
L 1113 3500 
L 1159 3744 
Q 1278 4363 1576 4613 
Q 1875 4863 2516 4863 
L 3059 4863 
z
" transform="scale(0.015625)"/>
       <path id="DejaVuSans-28" d="M 1984 4856 
Q 1566 4138 1362 3434 
Q 1159 2731 1159 2009 
Q 1159 1288 1364 580 
Q 1569 -128 1984 -844 
L 1484 -844 
Q 1016 -109 783 600 
Q 550 1309 550 2009 
Q 550 2706 781 3412 
Q 1013 4119 1484 4856 
L 1984 4856 
z
" transform="scale(0.015625)"/>
       <path id="DejaVuSans-Oblique-58" d="M 878 4666 
L 1516 4666 
L 2316 2981 
L 3763 4666 
L 4500 4666 
L 2578 2438 
L 3738 0 
L 3103 0 
L 2163 1966 
L 459 0 
L -275 0 
L 1906 2509 
L 878 4666 
z
" transform="scale(0.015625)"/>
       <path id="DejaVuSans-29" d="M 513 4856 
L 1013 4856 
Q 1481 4119 1714 3412 
Q 1947 2706 1947 2009 
Q 1947 1309 1714 600 
Q 1481 -109 1013 -844 
L 513 -844 
Q 928 -128 1133 580 
Q 1338 1288 1338 2009 
Q 1338 2731 1133 3434 
Q 928 4138 513 4856 
z
" transform="scale(0.015625)"/>
      </defs>
      <use xlink:href="#DejaVuSans-Oblique-66" transform="translate(0 0.015625)"/>
      <use xlink:href="#DejaVuSans-28" transform="translate(35.205078 0.015625)"/>
      <use xlink:href="#DejaVuSans-Oblique-58" transform="translate(74.21875 0.015625)"/>
      <use xlink:href="#DejaVuSans-29" transform="translate(142.724609 0.015625)"/>
     </g>
    </g>
   </g>
   <g id="text_38">
    <g clip-path="url(#p4e0a528b1d)">
     <!-- G8 -->
     <g transform="translate(452.331664 65.899219) scale(0.125 -0.125)">
      <use xlink:href="#DejaVuSans-47"/>
      <use xlink:href="#DejaVuSans-38" x="77.490234"/>
     </g>
    </g>
   </g>
   <g id="text_39">
    <g clip-path="url(#p4e0a528b1d)">
     <!-- G8 -->
     <g transform="translate(452.331664 65.899219) scale(0.125 -0.125)">
      <use xlink:href="#DejaVuSans-47"/>
      <use xlink:href="#DejaVuSans-38" x="77.490234"/>
     </g>
    </g>
   </g>
   <g id="text_40">
    <g clip-path="url(#p4e0a528b1d)">
     <!-- $f(X)$ -->
     <g transform="translate(492.516 68.959219) scale(0.125 -0.125)">
      <use xlink:href="#DejaVuSans-Oblique-66" transform="translate(0 0.015625)"/>
      <use xlink:href="#DejaVuSans-28" transform="translate(35.205078 0.015625)"/>
      <use xlink:href="#DejaVuSans-Oblique-58" transform="translate(74.21875 0.015625)"/>
      <use xlink:href="#DejaVuSans-29" transform="translate(142.724609 0.015625)"/>
     </g>
    </g>
   </g>
   <g id="text_41">
    <g clip-path="url(#p4e0a528b1d)">
     <!-- G8 -->
     <g transform="translate(452.331664 65.899219) scale(0.125 -0.125)">
      <use xlink:href="#DejaVuSans-47"/>
      <use xlink:href="#DejaVuSans-38" x="77.490234"/>
     </g>
    </g>
   </g>
   <g id="text_42">
    <g clip-path="url(#p4e0a528b1d)">
     <!-- G8 -->
     <g transform="translate(452.331664 65.899219) scale(0.125 -0.125)">
      <use xlink:href="#DejaVuSans-47"/>
      <use xlink:href="#DejaVuSans-38" x="77.490234"/>
     </g>
    </g>
   </g>
   <g id="text_43">
    <g clip-path="url(#p4e0a528b1d)">
     <!-- $f(X)$ -->
     <g transform="translate(492.516 68.959219) scale(0.125 -0.125)">
      <use xlink:href="#DejaVuSans-Oblique-66" transform="translate(0 0.015625)"/>
      <use xlink:href="#DejaVuSans-28" transform="translate(35.205078 0.015625)"/>
      <use xlink:href="#DejaVuSans-Oblique-58" transform="translate(74.21875 0.015625)"/>
      <use xlink:href="#DejaVuSans-29" transform="translate(142.724609 0.015625)"/>
     </g>
    </g>
   </g>
  </g>
 </g>
 <defs>
  <clipPath id="p4e0a528b1d">
   <rect x="7.2" y="7.2" width="520.7508" height="76.67"/>
  </clipPath>
 </defs>
</svg>
