<?xml version="1.0" encoding="utf-8" standalone="no"?>
<!DOCTYPE svg PUBLIC "-//W3C//DTD SVG 1.1//EN"
  "http://www.w3.org/Graphics/SVG/1.1/DTD/svg11.dtd">
<svg xmlns:xlink="http://www.w3.org/1999/xlink" width="520.0242pt" height="91.07pt" viewBox="0 0 520.0242 91.07" xmlns="http://www.w3.org/2000/svg" version="1.1">
 <metadata>
  <rdf:RDF xmlns:dc="http://purl.org/dc/elements/1.1/" xmlns:cc="http://creativecommons.org/ns#" xmlns:rdf="http://www.w3.org/1999/02/22-rdf-syntax-ns#">
   <cc:Work>
    <dc:type rdf:resource="http://purl.org/dc/dcmitype/StillImage"/>
    <dc:date>2023-05-09T15:27:18.112415</dc:date>
    <dc:format>image/svg+xml</dc:format>
    <dc:creator>
     <cc:Agent>
      <dc:title>Matplotlib v3.7.1, https://matplotlib.org/</dc:title>
     </cc:Agent>
    </dc:creator>
   </cc:Work>
  </rdf:RDF>
 </metadata>
 <defs>
  <style type="text/css">*{stroke-linejoin: round; stroke-linecap: butt}</style>
 </defs>
 <g id="figure_1">
  <g id="patch_1">
   <path d="M 0 91.07 
L 520.0242 91.07 
L 520.0242 0 
L 0 0 
L 0 91.07 
z
" style="fill: none"/>
  </g>
  <g id="axes_1">
   <g id="patch_2">
    <path d="M 133.6188 53.882 
C 134.592626 53.882 135.526697 53.495095 136.215296 52.806496 
C 136.903895 52.117897 137.2908 51.183826 137.2908 50.21 
C 137.2908 49.236174 136.903895 48.302103 136.215296 47.613504 
C 135.526697 46.924905 134.592626 46.538 133.6188 46.538 
C 132.644974 46.538 131.710903 46.924905 131.022304 47.613504 
C 130.333705 48.302103 129.9468 49.236174 129.9468 50.21 
C 129.9468 51.183826 130.333705 52.117897 131.022304 52.806496 
C 131.710903 53.495095 132.644974 53.882 133.6188 53.882 
L 133.6188 53.882 
z
" clip-path="url(#p5e62d7f6f6)" style="fill: none; stroke: #000000; stroke-width: 2; stroke-linejoin: miter"/>
   </g>
   <g id="patch_3">
    <path d="M 133.6188 53.882 
C 134.592626 53.882 135.526697 53.495095 136.215296 52.806496 
C 136.903895 52.117897 137.2908 51.183826 137.2908 50.21 
C 137.2908 49.236174 136.903895 48.302103 136.215296 47.613504 
C 135.526697 46.924905 134.592626 46.538 133.6188 46.538 
C 132.644974 46.538 131.710903 46.924905 131.022304 47.613504 
C 130.333705 48.302103 129.9468 49.236174 129.9468 50.21 
C 129.9468 51.183826 130.333705 52.117897 131.022304 52.806496 
C 131.710903 53.495095 132.644974 53.882 133.6188 53.882 
L 133.6188 53.882 
z
" clip-path="url(#p5e62d7f6f6)" style="fill: none; stroke: #000000; stroke-width: 2; stroke-linejoin: miter"/>
   </g>
   <g id="patch_4">
    <path d="M 246.8388 53.882 
C 247.812626 53.882 248.746697 53.495095 249.435296 52.806496 
C 250.123895 52.117897 250.5108 51.183826 250.5108 50.21 
C 250.5108 49.236174 250.123895 48.302103 249.435296 47.613504 
C 248.746697 46.924905 247.812626 46.538 246.8388 46.538 
C 245.864974 46.538 244.930903 46.924905 244.242304 47.613504 
C 243.553705 48.302103 243.1668 49.236174 243.1668 50.21 
C 243.1668 51.183826 243.553705 52.117897 244.242304 52.806496 
C 244.930903 53.495095 245.864974 53.882 246.8388 53.882 
L 246.8388 53.882 
z
" clip-path="url(#p5e62d7f6f6)" style="fill: none; stroke: #000000; stroke-width: 2; stroke-linejoin: miter"/>
   </g>
   <g id="patch_5">
    <path d="M 246.8388 53.882 
C 247.812626 53.882 248.746697 53.495095 249.435296 52.806496 
C 250.123895 52.117897 250.5108 51.183826 250.5108 50.21 
C 250.5108 49.236174 250.123895 48.302103 249.435296 47.613504 
C 248.746697 46.924905 247.812626 46.538 246.8388 46.538 
C 245.864974 46.538 244.930903 46.924905 244.242304 47.613504 
C 243.553705 48.302103 243.1668 49.236174 243.1668 50.21 
C 243.1668 51.183826 243.553705 52.117897 244.242304 52.806496 
C 244.930903 53.495095 245.864974 53.882 246.8388 53.882 
L 246.8388 53.882 
z
" clip-path="url(#p5e62d7f6f6)" style="fill: none; stroke: #000000; stroke-width: 2; stroke-linejoin: miter"/>
   </g>
   <g id="patch_6">
    <path d="M 360.0588 53.882 
C 361.032626 53.882 361.966697 53.495095 362.655296 52.806496 
C 363.343895 52.117897 363.7308 51.183826 363.7308 50.21 
C 363.7308 49.236174 363.343895 48.302103 362.655296 47.613504 
C 361.966697 46.924905 361.032626 46.538 360.0588 46.538 
C 359.084974 46.538 358.150903 46.924905 357.462304 47.613504 
C 356.773705 48.302103 356.3868 49.236174 356.3868 50.21 
C 356.3868 51.183826 356.773705 52.117897 357.462304 52.806496 
C 358.150903 53.495095 359.084974 53.882 360.0588 53.882 
L 360.0588 53.882 
z
" clip-path="url(#p5e62d7f6f6)" style="fill: none; stroke: #000000; stroke-width: 2; stroke-linejoin: miter"/>
   </g>
   <g id="patch_7">
    <path d="M 360.0588 53.882 
C 361.032626 53.882 361.966697 53.495095 362.655296 52.806496 
C 363.343895 52.117897 363.7308 51.183826 363.7308 50.21 
C 363.7308 49.236174 363.343895 48.302103 362.655296 47.613504 
C 361.966697 46.924905 361.032626 46.538 360.0588 46.538 
C 359.084974 46.538 358.150903 46.924905 357.462304 47.613504 
C 356.773705 48.302103 356.3868 49.236174 356.3868 50.21 
C 356.3868 51.183826 356.773705 52.117897 357.462304 52.806496 
C 358.150903 53.495095 359.084974 53.882 360.0588 53.882 
L 360.0588 53.882 
z
" clip-path="url(#p5e62d7f6f6)" style="fill: none; stroke: #000000; stroke-width: 2; stroke-linejoin: miter"/>
   </g>
   <g id="line2d_1">
    <path d="M 58.0368 73.16 
L 59.017074 73.128565 
L 59.993321 73.034387 
L 60.961527 72.877855 
L 61.917715 72.659611 
L 62.857956 72.380553 
L 63.778385 72.041826 
L 64.675221 71.644824 
L 65.544779 71.191176 
L 66.383484 70.682748 
L 67.187891 70.121628 
L 67.954694 69.510123 
L 68.680743 68.850745 
L 69.363053 68.146204 
L 69.998822 67.399394 
L 70.585435 66.613385 
L 71.120484 65.791406 
L 71.601769 64.936836 
L 72.027313 64.053185 
L 72.395367 63.144085 
L 72.704418 62.213272 
L 72.953197 61.26457 
L 73.140681 60.301878 
L 73.2661 59.329152 
L 73.328939 58.350389 
L 73.328939 57.369611 
L 73.2661 56.390848 
L 73.140681 55.418122 
L 72.953197 54.45543 
L 72.704418 53.506728 
L 72.395367 52.575915 
L 72.027313 51.666815 
L 71.601769 50.783164 
L 71.120484 49.928594 
L 70.585435 49.106615 
L 69.998822 48.320606 
L 69.363053 47.573796 
L 68.680743 46.869255 
L 67.954694 46.209877 
L 67.187891 45.598372 
L 66.383484 45.037252 
L 65.544779 44.528824 
L 64.675221 44.075176 
L 63.778385 43.678174 
L 62.857956 43.339447 
L 61.917715 43.060389 
L 60.961527 42.842145 
L 59.993321 42.685613 
L 59.017074 42.591435 
L 58.0368 42.56 
L 58.0368 42.56 
L 38.1468 42.56 
L 38.1468 57.86 
L 38.1468 73.16 
L 58.0368 73.16 
" clip-path="url(#p5e62d7f6f6)" style="fill: none; stroke: #000000; stroke-width: 2; stroke-linecap: round"/>
   </g>
   <g id="line2d_2">
    <path d="M 27.4368 65.51 
L 38.1468 65.51 
" clip-path="url(#p5e62d7f6f6)" style="fill: none; stroke: #000000; stroke-width: 2; stroke-linecap: round"/>
   </g>
   <g id="line2d_3">
    <path d="M 27.4368 50.21 
L 38.1468 50.21 
" clip-path="url(#p5e62d7f6f6)" style="fill: none; stroke: #000000; stroke-width: 2; stroke-linecap: round"/>
   </g>
   <g id="line2d_4">
    <path d="M 73.3368 57.86 
L 84.0468 57.86 
" clip-path="url(#p5e62d7f6f6)" style="fill: none; stroke: #000000; stroke-width: 2; stroke-linecap: round"/>
   </g>
   <g id="line2d_5">
    <path d="M 58.0368 73.16 
L 59.017074 73.128565 
L 59.993321 73.034387 
L 60.961527 72.877855 
L 61.917715 72.659611 
L 62.857956 72.380553 
L 63.778385 72.041826 
L 64.675221 71.644824 
L 65.544779 71.191176 
L 66.383484 70.682748 
L 67.187891 70.121628 
L 67.954694 69.510123 
L 68.680743 68.850745 
L 69.363053 68.146204 
L 69.998822 67.399394 
L 70.585435 66.613385 
L 71.120484 65.791406 
L 71.601769 64.936836 
L 72.027313 64.053185 
L 72.395367 63.144085 
L 72.704418 62.213272 
L 72.953197 61.26457 
L 73.140681 60.301878 
L 73.2661 59.329152 
L 73.328939 58.350389 
L 73.328939 57.369611 
L 73.2661 56.390848 
L 73.140681 55.418122 
L 72.953197 54.45543 
L 72.704418 53.506728 
L 72.395367 52.575915 
L 72.027313 51.666815 
L 71.601769 50.783164 
L 71.120484 49.928594 
L 70.585435 49.106615 
L 69.998822 48.320606 
L 69.363053 47.573796 
L 68.680743 46.869255 
L 67.954694 46.209877 
L 67.187891 45.598372 
L 66.383484 45.037252 
L 65.544779 44.528824 
L 64.675221 44.075176 
L 63.778385 43.678174 
L 62.857956 43.339447 
L 61.917715 43.060389 
L 60.961527 42.842145 
L 59.993321 42.685613 
L 59.017074 42.591435 
L 58.0368 42.56 
L 58.0368 42.56 
L 38.1468 42.56 
L 38.1468 57.86 
L 38.1468 73.16 
L 58.0368 73.16 
" clip-path="url(#p5e62d7f6f6)" style="fill: none; stroke: #000000; stroke-width: 2; stroke-linecap: round"/>
   </g>
   <g id="line2d_6">
    <path d="M 27.4368 65.51 
L 38.1468 65.51 
" clip-path="url(#p5e62d7f6f6)" style="fill: none; stroke: #000000; stroke-width: 2; stroke-linecap: round"/>
   </g>
   <g id="line2d_7">
    <path d="M 27.4368 50.21 
L 38.1468 50.21 
" clip-path="url(#p5e62d7f6f6)" style="fill: none; stroke: #000000; stroke-width: 2; stroke-linecap: round"/>
   </g>
   <g id="line2d_8">
    <path d="M 73.3368 57.86 
L 84.0468 57.86 
" clip-path="url(#p5e62d7f6f6)" style="fill: none; stroke: #000000; stroke-width: 2; stroke-linecap: round"/>
   </g>
   <g id="line2d_9">
    <path d="M 114.6468 65.51 
L 115.627074 65.478565 
L 116.603321 65.384387 
L 117.571527 65.227855 
L 118.527715 65.009611 
L 119.467956 64.730553 
L 120.388385 64.391826 
L 121.285221 63.994824 
L 122.154779 63.541176 
L 122.993484 63.032748 
L 123.797891 62.471628 
L 124.564694 61.860123 
L 125.290743 61.200745 
L 125.973053 60.496204 
L 126.608822 59.749394 
L 127.195435 58.963385 
L 127.730484 58.141406 
L 128.211769 57.286836 
L 128.637313 56.403185 
L 129.005367 55.494085 
L 129.314418 54.563272 
L 129.563197 53.61457 
L 129.750681 52.651878 
L 129.8761 51.679152 
L 129.938939 50.700389 
L 129.938939 49.719611 
L 129.8761 48.740848 
L 129.750681 47.768122 
L 129.563197 46.80543 
L 129.314418 45.856728 
L 129.005367 44.925915 
L 128.637313 44.016815 
L 128.211769 43.133164 
L 127.730484 42.278594 
L 127.195435 41.456615 
L 126.608822 40.670606 
L 125.973053 39.923796 
L 125.290743 39.219255 
L 124.564694 38.559877 
L 123.797891 37.948372 
L 122.993484 37.387252 
L 122.154779 36.878824 
L 121.285221 36.425176 
L 120.388385 36.028174 
L 119.467956 35.689447 
L 118.527715 35.410389 
L 117.571527 35.192145 
L 116.603321 35.035613 
L 115.627074 34.941435 
L 114.6468 34.91 
L 114.6468 34.91 
L 94.7568 34.91 
L 94.7568 50.21 
L 94.7568 65.51 
L 114.6468 65.51 
" clip-path="url(#p5e62d7f6f6)" style="fill: none; stroke: #000000; stroke-width: 2; stroke-linecap: round"/>
   </g>
   <g id="line2d_10">
    <path d="M 84.0468 57.86 
L 94.7568 57.86 
" clip-path="url(#p5e62d7f6f6)" style="fill: none; stroke: #000000; stroke-width: 2; stroke-linecap: round"/>
   </g>
   <g id="line2d_11">
    <path d="M 84.0468 42.56 
L 94.7568 42.56 
" clip-path="url(#p5e62d7f6f6)" style="fill: none; stroke: #000000; stroke-width: 2; stroke-linecap: round"/>
   </g>
   <g id="line2d_12">
    <path d="M 137.2908 50.21 
L 140.6568 50.21 
" clip-path="url(#p5e62d7f6f6)" style="fill: none; stroke: #000000; stroke-width: 2; stroke-linecap: round"/>
   </g>
   <g id="line2d_13">
    <path d="M 114.6468 65.51 
L 115.627074 65.478565 
L 116.603321 65.384387 
L 117.571527 65.227855 
L 118.527715 65.009611 
L 119.467956 64.730553 
L 120.388385 64.391826 
L 121.285221 63.994824 
L 122.154779 63.541176 
L 122.993484 63.032748 
L 123.797891 62.471628 
L 124.564694 61.860123 
L 125.290743 61.200745 
L 125.973053 60.496204 
L 126.608822 59.749394 
L 127.195435 58.963385 
L 127.730484 58.141406 
L 128.211769 57.286836 
L 128.637313 56.403185 
L 129.005367 55.494085 
L 129.314418 54.563272 
L 129.563197 53.61457 
L 129.750681 52.651878 
L 129.8761 51.679152 
L 129.938939 50.700389 
L 129.938939 49.719611 
L 129.8761 48.740848 
L 129.750681 47.768122 
L 129.563197 46.80543 
L 129.314418 45.856728 
L 129.005367 44.925915 
L 128.637313 44.016815 
L 128.211769 43.133164 
L 127.730484 42.278594 
L 127.195435 41.456615 
L 126.608822 40.670606 
L 125.973053 39.923796 
L 125.290743 39.219255 
L 124.564694 38.559877 
L 123.797891 37.948372 
L 122.993484 37.387252 
L 122.154779 36.878824 
L 121.285221 36.425176 
L 120.388385 36.028174 
L 119.467956 35.689447 
L 118.527715 35.410389 
L 117.571527 35.192145 
L 116.603321 35.035613 
L 115.627074 34.941435 
L 114.6468 34.91 
L 114.6468 34.91 
L 94.7568 34.91 
L 94.7568 50.21 
L 94.7568 65.51 
L 114.6468 65.51 
" clip-path="url(#p5e62d7f6f6)" style="fill: none; stroke: #000000; stroke-width: 2; stroke-linecap: round"/>
   </g>
   <g id="line2d_14">
    <path d="M 84.0468 57.86 
L 94.7568 57.86 
" clip-path="url(#p5e62d7f6f6)" style="fill: none; stroke: #000000; stroke-width: 2; stroke-linecap: round"/>
   </g>
   <g id="line2d_15">
    <path d="M 84.0468 42.56 
L 94.7568 42.56 
" clip-path="url(#p5e62d7f6f6)" style="fill: none; stroke: #000000; stroke-width: 2; stroke-linecap: round"/>
   </g>
   <g id="line2d_16">
    <path d="M 137.2908 50.21 
L 140.6568 50.21 
" clip-path="url(#p5e62d7f6f6)" style="fill: none; stroke: #000000; stroke-width: 2; stroke-linecap: round"/>
   </g>
   <g id="line2d_17">
    <path d="M 171.2568 73.16 
L 172.237074 73.128565 
L 173.213321 73.034387 
L 174.181527 72.877855 
L 175.137715 72.659611 
L 176.077956 72.380553 
L 176.998385 72.041826 
L 177.895221 71.644824 
L 178.764779 71.191176 
L 179.603484 70.682748 
L 180.407891 70.121628 
L 181.174694 69.510123 
L 181.900743 68.850745 
L 182.583053 68.146204 
L 183.218822 67.399394 
L 183.805435 66.613385 
L 184.340484 65.791406 
L 184.821769 64.936836 
L 185.247313 64.053185 
L 185.615367 63.144085 
L 185.924418 62.213272 
L 186.173197 61.26457 
L 186.360681 60.301878 
L 186.4861 59.329152 
L 186.548939 58.350389 
L 186.548939 57.369611 
L 186.4861 56.390848 
L 186.360681 55.418122 
L 186.173197 54.45543 
L 185.924418 53.506728 
L 185.615367 52.575915 
L 185.247313 51.666815 
L 184.821769 50.783164 
L 184.340484 49.928594 
L 183.805435 49.106615 
L 183.218822 48.320606 
L 182.583053 47.573796 
L 181.900743 46.869255 
L 181.174694 46.209877 
L 180.407891 45.598372 
L 179.603484 45.037252 
L 178.764779 44.528824 
L 177.895221 44.075176 
L 176.998385 43.678174 
L 176.077956 43.339447 
L 175.137715 43.060389 
L 174.181527 42.842145 
L 173.213321 42.685613 
L 172.237074 42.591435 
L 171.2568 42.56 
L 171.2568 42.56 
L 151.3668 42.56 
L 151.3668 57.86 
L 151.3668 73.16 
L 171.2568 73.16 
" clip-path="url(#p5e62d7f6f6)" style="fill: none; stroke: #000000; stroke-width: 2; stroke-linecap: round"/>
   </g>
   <g id="line2d_18">
    <path d="M 140.6568 65.51 
L 151.3668 65.51 
" clip-path="url(#p5e62d7f6f6)" style="fill: none; stroke: #000000; stroke-width: 2; stroke-linecap: round"/>
   </g>
   <g id="line2d_19">
    <path d="M 140.6568 50.21 
L 151.3668 50.21 
" clip-path="url(#p5e62d7f6f6)" style="fill: none; stroke: #000000; stroke-width: 2; stroke-linecap: round"/>
   </g>
   <g id="line2d_20">
    <path d="M 186.5568 57.86 
L 197.2668 57.86 
" clip-path="url(#p5e62d7f6f6)" style="fill: none; stroke: #000000; stroke-width: 2; stroke-linecap: round"/>
   </g>
   <g id="line2d_21">
    <path d="M 171.2568 73.16 
L 172.237074 73.128565 
L 173.213321 73.034387 
L 174.181527 72.877855 
L 175.137715 72.659611 
L 176.077956 72.380553 
L 176.998385 72.041826 
L 177.895221 71.644824 
L 178.764779 71.191176 
L 179.603484 70.682748 
L 180.407891 70.121628 
L 181.174694 69.510123 
L 181.900743 68.850745 
L 182.583053 68.146204 
L 183.218822 67.399394 
L 183.805435 66.613385 
L 184.340484 65.791406 
L 184.821769 64.936836 
L 185.247313 64.053185 
L 185.615367 63.144085 
L 185.924418 62.213272 
L 186.173197 61.26457 
L 186.360681 60.301878 
L 186.4861 59.329152 
L 186.548939 58.350389 
L 186.548939 57.369611 
L 186.4861 56.390848 
L 186.360681 55.418122 
L 186.173197 54.45543 
L 185.924418 53.506728 
L 185.615367 52.575915 
L 185.247313 51.666815 
L 184.821769 50.783164 
L 184.340484 49.928594 
L 183.805435 49.106615 
L 183.218822 48.320606 
L 182.583053 47.573796 
L 181.900743 46.869255 
L 181.174694 46.209877 
L 180.407891 45.598372 
L 179.603484 45.037252 
L 178.764779 44.528824 
L 177.895221 44.075176 
L 176.998385 43.678174 
L 176.077956 43.339447 
L 175.137715 43.060389 
L 174.181527 42.842145 
L 173.213321 42.685613 
L 172.237074 42.591435 
L 171.2568 42.56 
L 171.2568 42.56 
L 151.3668 42.56 
L 151.3668 57.86 
L 151.3668 73.16 
L 171.2568 73.16 
" clip-path="url(#p5e62d7f6f6)" style="fill: none; stroke: #000000; stroke-width: 2; stroke-linecap: round"/>
   </g>
   <g id="line2d_22">
    <path d="M 140.6568 65.51 
L 151.3668 65.51 
" clip-path="url(#p5e62d7f6f6)" style="fill: none; stroke: #000000; stroke-width: 2; stroke-linecap: round"/>
   </g>
   <g id="line2d_23">
    <path d="M 140.6568 50.21 
L 151.3668 50.21 
" clip-path="url(#p5e62d7f6f6)" style="fill: none; stroke: #000000; stroke-width: 2; stroke-linecap: round"/>
   </g>
   <g id="line2d_24">
    <path d="M 186.5568 57.86 
L 197.2668 57.86 
" clip-path="url(#p5e62d7f6f6)" style="fill: none; stroke: #000000; stroke-width: 2; stroke-linecap: round"/>
   </g>
   <g id="line2d_25">
    <path d="M 84.0468 57.86 
L 84.0468 73.16 
L 140.6568 73.16 
L 140.6568 65.51 
" clip-path="url(#p5e62d7f6f6)" style="fill: none; stroke: #000000; stroke-width: 2; stroke-linecap: round"/>
   </g>
   <g id="line2d_26">
    <path d="M 227.8668 65.51 
L 228.847074 65.478565 
L 229.823321 65.384387 
L 230.791527 65.227855 
L 231.747715 65.009611 
L 232.687956 64.730553 
L 233.608385 64.391826 
L 234.505221 63.994824 
L 235.374779 63.541176 
L 236.213484 63.032748 
L 237.017891 62.471628 
L 237.784694 61.860123 
L 238.510743 61.200745 
L 239.193053 60.496204 
L 239.828822 59.749394 
L 240.415435 58.963385 
L 240.950484 58.141406 
L 241.431769 57.286836 
L 241.857313 56.403185 
L 242.225367 55.494085 
L 242.534418 54.563272 
L 242.783197 53.61457 
L 242.970681 52.651878 
L 243.0961 51.679152 
L 243.158939 50.700389 
L 243.158939 49.719611 
L 243.0961 48.740848 
L 242.970681 47.768122 
L 242.783197 46.80543 
L 242.534418 45.856728 
L 242.225367 44.925915 
L 241.857313 44.016815 
L 241.431769 43.133164 
L 240.950484 42.278594 
L 240.415435 41.456615 
L 239.828822 40.670606 
L 239.193053 39.923796 
L 238.510743 39.219255 
L 237.784694 38.559877 
L 237.017891 37.948372 
L 236.213484 37.387252 
L 235.374779 36.878824 
L 234.505221 36.425176 
L 233.608385 36.028174 
L 232.687956 35.689447 
L 231.747715 35.410389 
L 230.791527 35.192145 
L 229.823321 35.035613 
L 228.847074 34.941435 
L 227.8668 34.91 
L 227.8668 34.91 
L 207.9768 34.91 
L 207.9768 50.21 
L 207.9768 65.51 
L 227.8668 65.51 
" clip-path="url(#p5e62d7f6f6)" style="fill: none; stroke: #000000; stroke-width: 2; stroke-linecap: round"/>
   </g>
   <g id="line2d_27">
    <path d="M 197.2668 57.86 
L 207.9768 57.86 
" clip-path="url(#p5e62d7f6f6)" style="fill: none; stroke: #000000; stroke-width: 2; stroke-linecap: round"/>
   </g>
   <g id="line2d_28">
    <path d="M 197.2668 42.56 
L 207.9768 42.56 
" clip-path="url(#p5e62d7f6f6)" style="fill: none; stroke: #000000; stroke-width: 2; stroke-linecap: round"/>
   </g>
   <g id="line2d_29">
    <path d="M 250.5108 50.21 
L 253.8768 50.21 
" clip-path="url(#p5e62d7f6f6)" style="fill: none; stroke: #000000; stroke-width: 2; stroke-linecap: round"/>
   </g>
   <g id="line2d_30">
    <path d="M 227.8668 65.51 
L 228.847074 65.478565 
L 229.823321 65.384387 
L 230.791527 65.227855 
L 231.747715 65.009611 
L 232.687956 64.730553 
L 233.608385 64.391826 
L 234.505221 63.994824 
L 235.374779 63.541176 
L 236.213484 63.032748 
L 237.017891 62.471628 
L 237.784694 61.860123 
L 238.510743 61.200745 
L 239.193053 60.496204 
L 239.828822 59.749394 
L 240.415435 58.963385 
L 240.950484 58.141406 
L 241.431769 57.286836 
L 241.857313 56.403185 
L 242.225367 55.494085 
L 242.534418 54.563272 
L 242.783197 53.61457 
L 242.970681 52.651878 
L 243.0961 51.679152 
L 243.158939 50.700389 
L 243.158939 49.719611 
L 243.0961 48.740848 
L 242.970681 47.768122 
L 242.783197 46.80543 
L 242.534418 45.856728 
L 242.225367 44.925915 
L 241.857313 44.016815 
L 241.431769 43.133164 
L 240.950484 42.278594 
L 240.415435 41.456615 
L 239.828822 40.670606 
L 239.193053 39.923796 
L 238.510743 39.219255 
L 237.784694 38.559877 
L 237.017891 37.948372 
L 236.213484 37.387252 
L 235.374779 36.878824 
L 234.505221 36.425176 
L 233.608385 36.028174 
L 232.687956 35.689447 
L 231.747715 35.410389 
L 230.791527 35.192145 
L 229.823321 35.035613 
L 228.847074 34.941435 
L 227.8668 34.91 
L 227.8668 34.91 
L 207.9768 34.91 
L 207.9768 50.21 
L 207.9768 65.51 
L 227.8668 65.51 
" clip-path="url(#p5e62d7f6f6)" style="fill: none; stroke: #000000; stroke-width: 2; stroke-linecap: round"/>
   </g>
   <g id="line2d_31">
    <path d="M 197.2668 57.86 
L 207.9768 57.86 
" clip-path="url(#p5e62d7f6f6)" style="fill: none; stroke: #000000; stroke-width: 2; stroke-linecap: round"/>
   </g>
   <g id="line2d_32">
    <path d="M 197.2668 42.56 
L 207.9768 42.56 
" clip-path="url(#p5e62d7f6f6)" style="fill: none; stroke: #000000; stroke-width: 2; stroke-linecap: round"/>
   </g>
   <g id="line2d_33">
    <path d="M 250.5108 50.21 
L 253.8768 50.21 
" clip-path="url(#p5e62d7f6f6)" style="fill: none; stroke: #000000; stroke-width: 2; stroke-linecap: round"/>
   </g>
   <g id="line2d_34">
    <path d="M 284.4768 73.16 
L 285.457074 73.128565 
L 286.433321 73.034387 
L 287.401527 72.877855 
L 288.357715 72.659611 
L 289.297956 72.380553 
L 290.218385 72.041826 
L 291.115221 71.644824 
L 291.984779 71.191176 
L 292.823484 70.682748 
L 293.627891 70.121628 
L 294.394694 69.510123 
L 295.120743 68.850745 
L 295.803053 68.146204 
L 296.438822 67.399394 
L 297.025435 66.613385 
L 297.560484 65.791406 
L 298.041769 64.936836 
L 298.467313 64.053185 
L 298.835367 63.144085 
L 299.144418 62.213272 
L 299.393197 61.26457 
L 299.580681 60.301878 
L 299.7061 59.329152 
L 299.768939 58.350389 
L 299.768939 57.369611 
L 299.7061 56.390848 
L 299.580681 55.418122 
L 299.393197 54.45543 
L 299.144418 53.506728 
L 298.835367 52.575915 
L 298.467313 51.666815 
L 298.041769 50.783164 
L 297.560484 49.928594 
L 297.025435 49.106615 
L 296.438822 48.320606 
L 295.803053 47.573796 
L 295.120743 46.869255 
L 294.394694 46.209877 
L 293.627891 45.598372 
L 292.823484 45.037252 
L 291.984779 44.528824 
L 291.115221 44.075176 
L 290.218385 43.678174 
L 289.297956 43.339447 
L 288.357715 43.060389 
L 287.401527 42.842145 
L 286.433321 42.685613 
L 285.457074 42.591435 
L 284.4768 42.56 
L 284.4768 42.56 
L 264.5868 42.56 
L 264.5868 57.86 
L 264.5868 73.16 
L 284.4768 73.16 
" clip-path="url(#p5e62d7f6f6)" style="fill: none; stroke: #000000; stroke-width: 2; stroke-linecap: round"/>
   </g>
   <g id="line2d_35">
    <path d="M 253.8768 65.51 
L 264.5868 65.51 
" clip-path="url(#p5e62d7f6f6)" style="fill: none; stroke: #000000; stroke-width: 2; stroke-linecap: round"/>
   </g>
   <g id="line2d_36">
    <path d="M 253.8768 50.21 
L 264.5868 50.21 
" clip-path="url(#p5e62d7f6f6)" style="fill: none; stroke: #000000; stroke-width: 2; stroke-linecap: round"/>
   </g>
   <g id="line2d_37">
    <path d="M 299.7768 57.86 
L 310.4868 57.86 
" clip-path="url(#p5e62d7f6f6)" style="fill: none; stroke: #000000; stroke-width: 2; stroke-linecap: round"/>
   </g>
   <g id="line2d_38">
    <path d="M 284.4768 73.16 
L 285.457074 73.128565 
L 286.433321 73.034387 
L 287.401527 72.877855 
L 288.357715 72.659611 
L 289.297956 72.380553 
L 290.218385 72.041826 
L 291.115221 71.644824 
L 291.984779 71.191176 
L 292.823484 70.682748 
L 293.627891 70.121628 
L 294.394694 69.510123 
L 295.120743 68.850745 
L 295.803053 68.146204 
L 296.438822 67.399394 
L 297.025435 66.613385 
L 297.560484 65.791406 
L 298.041769 64.936836 
L 298.467313 64.053185 
L 298.835367 63.144085 
L 299.144418 62.213272 
L 299.393197 61.26457 
L 299.580681 60.301878 
L 299.7061 59.329152 
L 299.768939 58.350389 
L 299.768939 57.369611 
L 299.7061 56.390848 
L 299.580681 55.418122 
L 299.393197 54.45543 
L 299.144418 53.506728 
L 298.835367 52.575915 
L 298.467313 51.666815 
L 298.041769 50.783164 
L 297.560484 49.928594 
L 297.025435 49.106615 
L 296.438822 48.320606 
L 295.803053 47.573796 
L 295.120743 46.869255 
L 294.394694 46.209877 
L 293.627891 45.598372 
L 292.823484 45.037252 
L 291.984779 44.528824 
L 291.115221 44.075176 
L 290.218385 43.678174 
L 289.297956 43.339447 
L 288.357715 43.060389 
L 287.401527 42.842145 
L 286.433321 42.685613 
L 285.457074 42.591435 
L 284.4768 42.56 
L 284.4768 42.56 
L 264.5868 42.56 
L 264.5868 57.86 
L 264.5868 73.16 
L 284.4768 73.16 
" clip-path="url(#p5e62d7f6f6)" style="fill: none; stroke: #000000; stroke-width: 2; stroke-linecap: round"/>
   </g>
   <g id="line2d_39">
    <path d="M 253.8768 65.51 
L 264.5868 65.51 
" clip-path="url(#p5e62d7f6f6)" style="fill: none; stroke: #000000; stroke-width: 2; stroke-linecap: round"/>
   </g>
   <g id="line2d_40">
    <path d="M 253.8768 50.21 
L 264.5868 50.21 
" clip-path="url(#p5e62d7f6f6)" style="fill: none; stroke: #000000; stroke-width: 2; stroke-linecap: round"/>
   </g>
   <g id="line2d_41">
    <path d="M 299.7768 57.86 
L 310.4868 57.86 
" clip-path="url(#p5e62d7f6f6)" style="fill: none; stroke: #000000; stroke-width: 2; stroke-linecap: round"/>
   </g>
   <g id="line2d_42">
    <path d="M 84.0468 57.86 
L 84.0468 73.16 
L 253.8768 73.16 
L 253.8768 65.51 
" clip-path="url(#p5e62d7f6f6)" style="fill: none; stroke: #000000; stroke-width: 2; stroke-linecap: round"/>
   </g>
   <g id="line2d_43">
    <path d="M 341.0868 65.51 
L 342.067074 65.478565 
L 343.043321 65.384387 
L 344.011527 65.227855 
L 344.967715 65.009611 
L 345.907956 64.730553 
L 346.828385 64.391826 
L 347.725221 63.994824 
L 348.594779 63.541176 
L 349.433484 63.032748 
L 350.237891 62.471628 
L 351.004694 61.860123 
L 351.730743 61.200745 
L 352.413053 60.496204 
L 353.048822 59.749394 
L 353.635435 58.963385 
L 354.170484 58.141406 
L 354.651769 57.286836 
L 355.077313 56.403185 
L 355.445367 55.494085 
L 355.754418 54.563272 
L 356.003197 53.61457 
L 356.190681 52.651878 
L 356.3161 51.679152 
L 356.378939 50.700389 
L 356.378939 49.719611 
L 356.3161 48.740848 
L 356.190681 47.768122 
L 356.003197 46.80543 
L 355.754418 45.856728 
L 355.445367 44.925915 
L 355.077313 44.016815 
L 354.651769 43.133164 
L 354.170484 42.278594 
L 353.635435 41.456615 
L 353.048822 40.670606 
L 352.413053 39.923796 
L 351.730743 39.219255 
L 351.004694 38.559877 
L 350.237891 37.948372 
L 349.433484 37.387252 
L 348.594779 36.878824 
L 347.725221 36.425176 
L 346.828385 36.028174 
L 345.907956 35.689447 
L 344.967715 35.410389 
L 344.011527 35.192145 
L 343.043321 35.035613 
L 342.067074 34.941435 
L 341.0868 34.91 
L 341.0868 34.91 
L 321.1968 34.91 
L 321.1968 50.21 
L 321.1968 65.51 
L 341.0868 65.51 
" clip-path="url(#p5e62d7f6f6)" style="fill: none; stroke: #000000; stroke-width: 2; stroke-linecap: round"/>
   </g>
   <g id="line2d_44">
    <path d="M 310.4868 57.86 
L 321.1968 57.86 
" clip-path="url(#p5e62d7f6f6)" style="fill: none; stroke: #000000; stroke-width: 2; stroke-linecap: round"/>
   </g>
   <g id="line2d_45">
    <path d="M 310.4868 42.56 
L 321.1968 42.56 
" clip-path="url(#p5e62d7f6f6)" style="fill: none; stroke: #000000; stroke-width: 2; stroke-linecap: round"/>
   </g>
   <g id="line2d_46">
    <path d="M 363.7308 50.21 
L 367.0968 50.21 
" clip-path="url(#p5e62d7f6f6)" style="fill: none; stroke: #000000; stroke-width: 2; stroke-linecap: round"/>
   </g>
   <g id="line2d_47">
    <path d="M 341.0868 65.51 
L 342.067074 65.478565 
L 343.043321 65.384387 
L 344.011527 65.227855 
L 344.967715 65.009611 
L 345.907956 64.730553 
L 346.828385 64.391826 
L 347.725221 63.994824 
L 348.594779 63.541176 
L 349.433484 63.032748 
L 350.237891 62.471628 
L 351.004694 61.860123 
L 351.730743 61.200745 
L 352.413053 60.496204 
L 353.048822 59.749394 
L 353.635435 58.963385 
L 354.170484 58.141406 
L 354.651769 57.286836 
L 355.077313 56.403185 
L 355.445367 55.494085 
L 355.754418 54.563272 
L 356.003197 53.61457 
L 356.190681 52.651878 
L 356.3161 51.679152 
L 356.378939 50.700389 
L 356.378939 49.719611 
L 356.3161 48.740848 
L 356.190681 47.768122 
L 356.003197 46.80543 
L 355.754418 45.856728 
L 355.445367 44.925915 
L 355.077313 44.016815 
L 354.651769 43.133164 
L 354.170484 42.278594 
L 353.635435 41.456615 
L 353.048822 40.670606 
L 352.413053 39.923796 
L 351.730743 39.219255 
L 351.004694 38.559877 
L 350.237891 37.948372 
L 349.433484 37.387252 
L 348.594779 36.878824 
L 347.725221 36.425176 
L 346.828385 36.028174 
L 345.907956 35.689447 
L 344.967715 35.410389 
L 344.011527 35.192145 
L 343.043321 35.035613 
L 342.067074 34.941435 
L 341.0868 34.91 
L 341.0868 34.91 
L 321.1968 34.91 
L 321.1968 50.21 
L 321.1968 65.51 
L 341.0868 65.51 
" clip-path="url(#p5e62d7f6f6)" style="fill: none; stroke: #000000; stroke-width: 2; stroke-linecap: round"/>
   </g>
   <g id="line2d_48">
    <path d="M 310.4868 57.86 
L 321.1968 57.86 
" clip-path="url(#p5e62d7f6f6)" style="fill: none; stroke: #000000; stroke-width: 2; stroke-linecap: round"/>
   </g>
   <g id="line2d_49">
    <path d="M 310.4868 42.56 
L 321.1968 42.56 
" clip-path="url(#p5e62d7f6f6)" style="fill: none; stroke: #000000; stroke-width: 2; stroke-linecap: round"/>
   </g>
   <g id="line2d_50">
    <path d="M 363.7308 50.21 
L 367.0968 50.21 
" clip-path="url(#p5e62d7f6f6)" style="fill: none; stroke: #000000; stroke-width: 2; stroke-linecap: round"/>
   </g>
   <g id="line2d_51">
    <path d="M 397.6968 73.16 
L 398.677074 73.128565 
L 399.653321 73.034387 
L 400.621527 72.877855 
L 401.577715 72.659611 
L 402.517956 72.380553 
L 403.438385 72.041826 
L 404.335221 71.644824 
L 405.204779 71.191176 
L 406.043484 70.682748 
L 406.847891 70.121628 
L 407.614694 69.510123 
L 408.340743 68.850745 
L 409.023053 68.146204 
L 409.658822 67.399394 
L 410.245435 66.613385 
L 410.780484 65.791406 
L 411.261769 64.936836 
L 411.687313 64.053185 
L 412.055367 63.144085 
L 412.364418 62.213272 
L 412.613197 61.26457 
L 412.800681 60.301878 
L 412.9261 59.329152 
L 412.988939 58.350389 
L 412.988939 57.369611 
L 412.9261 56.390848 
L 412.800681 55.418122 
L 412.613197 54.45543 
L 412.364418 53.506728 
L 412.055367 52.575915 
L 411.687313 51.666815 
L 411.261769 50.783164 
L 410.780484 49.928594 
L 410.245435 49.106615 
L 409.658822 48.320606 
L 409.023053 47.573796 
L 408.340743 46.869255 
L 407.614694 46.209877 
L 406.847891 45.598372 
L 406.043484 45.037252 
L 405.204779 44.528824 
L 404.335221 44.075176 
L 403.438385 43.678174 
L 402.517956 43.339447 
L 401.577715 43.060389 
L 400.621527 42.842145 
L 399.653321 42.685613 
L 398.677074 42.591435 
L 397.6968 42.56 
L 397.6968 42.56 
L 377.8068 42.56 
L 377.8068 57.86 
L 377.8068 73.16 
L 397.6968 73.16 
" clip-path="url(#p5e62d7f6f6)" style="fill: none; stroke: #000000; stroke-width: 2; stroke-linecap: round"/>
   </g>
   <g id="line2d_52">
    <path d="M 367.0968 65.51 
L 377.8068 65.51 
" clip-path="url(#p5e62d7f6f6)" style="fill: none; stroke: #000000; stroke-width: 2; stroke-linecap: round"/>
   </g>
   <g id="line2d_53">
    <path d="M 367.0968 50.21 
L 377.8068 50.21 
" clip-path="url(#p5e62d7f6f6)" style="fill: none; stroke: #000000; stroke-width: 2; stroke-linecap: round"/>
   </g>
   <g id="line2d_54">
    <path d="M 412.9968 57.86 
L 423.7068 57.86 
" clip-path="url(#p5e62d7f6f6)" style="fill: none; stroke: #000000; stroke-width: 2; stroke-linecap: round"/>
   </g>
   <g id="line2d_55">
    <path d="M 397.6968 73.16 
L 398.677074 73.128565 
L 399.653321 73.034387 
L 400.621527 72.877855 
L 401.577715 72.659611 
L 402.517956 72.380553 
L 403.438385 72.041826 
L 404.335221 71.644824 
L 405.204779 71.191176 
L 406.043484 70.682748 
L 406.847891 70.121628 
L 407.614694 69.510123 
L 408.340743 68.850745 
L 409.023053 68.146204 
L 409.658822 67.399394 
L 410.245435 66.613385 
L 410.780484 65.791406 
L 411.261769 64.936836 
L 411.687313 64.053185 
L 412.055367 63.144085 
L 412.364418 62.213272 
L 412.613197 61.26457 
L 412.800681 60.301878 
L 412.9261 59.329152 
L 412.988939 58.350389 
L 412.988939 57.369611 
L 412.9261 56.390848 
L 412.800681 55.418122 
L 412.613197 54.45543 
L 412.364418 53.506728 
L 412.055367 52.575915 
L 411.687313 51.666815 
L 411.261769 50.783164 
L 410.780484 49.928594 
L 410.245435 49.106615 
L 409.658822 48.320606 
L 409.023053 47.573796 
L 408.340743 46.869255 
L 407.614694 46.209877 
L 406.847891 45.598372 
L 406.043484 45.037252 
L 405.204779 44.528824 
L 404.335221 44.075176 
L 403.438385 43.678174 
L 402.517956 43.339447 
L 401.577715 43.060389 
L 400.621527 42.842145 
L 399.653321 42.685613 
L 398.677074 42.591435 
L 397.6968 42.56 
L 397.6968 42.56 
L 377.8068 42.56 
L 377.8068 57.86 
L 377.8068 73.16 
L 397.6968 73.16 
" clip-path="url(#p5e62d7f6f6)" style="fill: none; stroke: #000000; stroke-width: 2; stroke-linecap: round"/>
   </g>
   <g id="line2d_56">
    <path d="M 367.0968 65.51 
L 377.8068 65.51 
" clip-path="url(#p5e62d7f6f6)" style="fill: none; stroke: #000000; stroke-width: 2; stroke-linecap: round"/>
   </g>
   <g id="line2d_57">
    <path d="M 367.0968 50.21 
L 377.8068 50.21 
" clip-path="url(#p5e62d7f6f6)" style="fill: none; stroke: #000000; stroke-width: 2; stroke-linecap: round"/>
   </g>
   <g id="line2d_58">
    <path d="M 412.9968 57.86 
L 423.7068 57.86 
" clip-path="url(#p5e62d7f6f6)" style="fill: none; stroke: #000000; stroke-width: 2; stroke-linecap: round"/>
   </g>
   <g id="line2d_59">
    <path d="M 27.4368 65.51 
L 27.4368 80.81 
L 367.0968 80.81 
L 367.0968 65.51 
" clip-path="url(#p5e62d7f6f6)" style="fill: none; stroke: #000000; stroke-width: 2; stroke-linecap: round"/>
   </g>
   <g id="line2d_60">
    <path d="M 397.6968 73.16 
L 398.677074 73.128565 
L 399.653321 73.034387 
L 400.621527 72.877855 
L 401.577715 72.659611 
L 402.517956 72.380553 
L 403.438385 72.041826 
L 404.335221 71.644824 
L 405.204779 71.191176 
L 406.043484 70.682748 
L 406.847891 70.121628 
L 407.614694 69.510123 
L 408.340743 68.850745 
L 409.023053 68.146204 
L 409.658822 67.399394 
L 410.245435 66.613385 
L 410.780484 65.791406 
L 411.261769 64.936836 
L 411.687313 64.053185 
L 412.055367 63.144085 
L 412.364418 62.213272 
L 412.613197 61.26457 
L 412.800681 60.301878 
L 412.9261 59.329152 
L 412.988939 58.350389 
L 412.988939 57.369611 
L 412.9261 56.390848 
L 412.800681 55.418122 
L 412.613197 54.45543 
L 412.364418 53.506728 
L 412.055367 52.575915 
L 411.687313 51.666815 
L 411.261769 50.783164 
L 410.780484 49.928594 
L 410.245435 49.106615 
L 409.658822 48.320606 
L 409.023053 47.573796 
L 408.340743 46.869255 
L 407.614694 46.209877 
L 406.847891 45.598372 
L 406.043484 45.037252 
L 405.204779 44.528824 
L 404.335221 44.075176 
L 403.438385 43.678174 
L 402.517956 43.339447 
L 401.577715 43.060389 
L 400.621527 42.842145 
L 399.653321 42.685613 
L 398.677074 42.591435 
L 397.6968 42.56 
L 397.6968 42.56 
L 377.8068 42.56 
L 377.8068 57.86 
L 377.8068 73.16 
L 397.6968 73.16 
" clip-path="url(#p5e62d7f6f6)" style="fill: none; stroke: #000000; stroke-width: 2; stroke-linecap: round"/>
   </g>
   <g id="line2d_61">
    <path d="M 367.0968 65.51 
L 377.8068 65.51 
" clip-path="url(#p5e62d7f6f6)" style="fill: none; stroke: #000000; stroke-width: 2; stroke-linecap: round"/>
   </g>
   <g id="line2d_62">
    <path d="M 367.0968 50.21 
L 377.8068 50.21 
" clip-path="url(#p5e62d7f6f6)" style="fill: none; stroke: #000000; stroke-width: 2; stroke-linecap: round"/>
   </g>
   <g id="line2d_63">
    <path d="M 412.9968 57.86 
L 423.7068 57.86 
" clip-path="url(#p5e62d7f6f6)" style="fill: none; stroke: #000000; stroke-width: 2; stroke-linecap: round"/>
   </g>
   <g id="text_1">
    <g clip-path="url(#p5e62d7f6f6)">
     <!-- X -->
     <g transform="translate(15.8143 53.659219) scale(0.125 -0.125)">
      <defs>
       <path id="DejaVuSans-58" d="M 403 4666 
L 1081 4666 
L 2241 2931 
L 3406 4666 
L 4084 4666 
L 2584 2425 
L 4184 0 
L 3506 0 
L 2194 1984 
L 872 0 
L 191 0 
L 1856 2491 
L 403 4666 
z
" transform="scale(0.015625)"/>
      </defs>
      <use xlink:href="#DejaVuSans-58"/>
     </g>
    </g>
   </g>
   <g id="text_2">
    <g clip-path="url(#p5e62d7f6f6)">
     <!-- X -->
     <g transform="translate(15.8143 68.959219) scale(0.125 -0.125)">
      <use xlink:href="#DejaVuSans-58"/>
     </g>
    </g>
   </g>
   <g id="text_3">
    <g clip-path="url(#p5e62d7f6f6)">
     <!-- X -->
     <g transform="translate(15.8143 53.659219) scale(0.125 -0.125)">
      <use xlink:href="#DejaVuSans-58"/>
     </g>
    </g>
   </g>
   <g id="text_4">
    <g clip-path="url(#p5e62d7f6f6)">
     <!-- X -->
     <g transform="translate(15.8143 68.959219) scale(0.125 -0.125)">
      <use xlink:href="#DejaVuSans-58"/>
     </g>
    </g>
   </g>
   <g id="text_5">
    <g clip-path="url(#p5e62d7f6f6)">
     <!-- G1 -->
     <g transform="translate(46.922464 58.249219) scale(0.125 -0.125)">
      <defs>
       <path id="DejaVuSans-47" d="M 3809 666 
L 3809 1919 
L 2778 1919 
L 2778 2438 
L 4434 2438 
L 4434 434 
Q 4069 175 3628 42 
Q 3188 -91 2688 -91 
Q 1594 -91 976 548 
Q 359 1188 359 2328 
Q 359 3472 976 4111 
Q 1594 4750 2688 4750 
Q 3144 4750 3555 4637 
Q 3966 4525 4313 4306 
L 4313 3634 
Q 3963 3931 3569 4081 
Q 3175 4231 2741 4231 
Q 1884 4231 1454 3753 
Q 1025 3275 1025 2328 
Q 1025 1384 1454 906 
Q 1884 428 2741 428 
Q 3075 428 3337 486 
Q 3600 544 3809 666 
z
" transform="scale(0.015625)"/>
       <path id="DejaVuSans-31" d="M 794 531 
L 1825 531 
L 1825 4091 
L 703 3866 
L 703 4441 
L 1819 4666 
L 2450 4666 
L 2450 531 
L 3481 531 
L 3481 0 
L 794 0 
L 794 531 
z
" transform="scale(0.015625)"/>
      </defs>
      <use xlink:href="#DejaVuSans-47"/>
      <use xlink:href="#DejaVuSans-31" x="77.490234"/>
     </g>
    </g>
   </g>
   <g id="text_6">
    <g clip-path="url(#p5e62d7f6f6)">
     <!-- X -->
     <g transform="translate(15.8143 53.659219) scale(0.125 -0.125)">
      <use xlink:href="#DejaVuSans-58"/>
     </g>
    </g>
   </g>
   <g id="text_7">
    <g clip-path="url(#p5e62d7f6f6)">
     <!-- X -->
     <g transform="translate(15.8143 68.959219) scale(0.125 -0.125)">
      <use xlink:href="#DejaVuSans-58"/>
     </g>
    </g>
   </g>
   <g id="text_8">
    <g clip-path="url(#p5e62d7f6f6)">
     <!-- X -->
     <g transform="translate(15.8143 53.659219) scale(0.125 -0.125)">
      <use xlink:href="#DejaVuSans-58"/>
     </g>
    </g>
   </g>
   <g id="text_9">
    <g clip-path="url(#p5e62d7f6f6)">
     <!-- X -->
     <g transform="translate(15.8143 68.959219) scale(0.125 -0.125)">
      <use xlink:href="#DejaVuSans-58"/>
     </g>
    </g>
   </g>
   <g id="text_10">
    <g clip-path="url(#p5e62d7f6f6)">
     <!-- G1 -->
     <g transform="translate(46.922464 58.249219) scale(0.125 -0.125)">
      <use xlink:href="#DejaVuSans-47"/>
      <use xlink:href="#DejaVuSans-31" x="77.490234"/>
     </g>
    </g>
   </g>
   <g id="text_11">
    <g clip-path="url(#p5e62d7f6f6)">
     <!-- 0.4045 -->
     <g transform="translate(40.308519 30.709219) scale(0.125 -0.125)">
      <defs>
       <path id="DejaVuSans-30" d="M 2034 4250 
Q 1547 4250 1301 3770 
Q 1056 3291 1056 2328 
Q 1056 1369 1301 889 
Q 1547 409 2034 409 
Q 2525 409 2770 889 
Q 3016 1369 3016 2328 
Q 3016 3291 2770 3770 
Q 2525 4250 2034 4250 
z
M 2034 4750 
Q 2819 4750 3233 4129 
Q 3647 3509 3647 2328 
Q 3647 1150 3233 529 
Q 2819 -91 2034 -91 
Q 1250 -91 836 529 
Q 422 1150 422 2328 
Q 422 3509 836 4129 
Q 1250 4750 2034 4750 
z
" transform="scale(0.015625)"/>
       <path id="DejaVuSans-2e" d="M 684 794 
L 1344 794 
L 1344 0 
L 684 0 
L 684 794 
z
" transform="scale(0.015625)"/>
       <path id="DejaVuSans-34" d="M 2419 4116 
L 825 1625 
L 2419 1625 
L 2419 4116 
z
M 2253 4666 
L 3047 4666 
L 3047 1625 
L 3713 1625 
L 3713 1100 
L 3047 1100 
L 3047 0 
L 2419 0 
L 2419 1100 
L 313 1100 
L 313 1709 
L 2253 4666 
z
" transform="scale(0.015625)"/>
       <path id="DejaVuSans-35" d="M 691 4666 
L 3169 4666 
L 3169 4134 
L 1269 4134 
L 1269 2991 
Q 1406 3038 1543 3061 
Q 1681 3084 1819 3084 
Q 2600 3084 3056 2656 
Q 3513 2228 3513 1497 
Q 3513 744 3044 326 
Q 2575 -91 1722 -91 
Q 1428 -91 1123 -41 
Q 819 9 494 109 
L 494 744 
Q 775 591 1075 516 
Q 1375 441 1709 441 
Q 2250 441 2565 725 
Q 2881 1009 2881 1497 
Q 2881 1984 2565 2268 
Q 2250 2553 1709 2553 
Q 1456 2553 1204 2497 
Q 953 2441 691 2322 
L 691 4666 
z
" transform="scale(0.015625)"/>
      </defs>
      <use xlink:href="#DejaVuSans-30"/>
      <use xlink:href="#DejaVuSans-2e" x="63.623047"/>
      <use xlink:href="#DejaVuSans-34" x="95.410156"/>
      <use xlink:href="#DejaVuSans-30" x="159.033203"/>
      <use xlink:href="#DejaVuSans-34" x="222.65625"/>
      <use xlink:href="#DejaVuSans-35" x="286.279297"/>
     </g>
    </g>
   </g>
   <g id="text_12">
    <g clip-path="url(#p5e62d7f6f6)">
     <!-- 0.4045 -->
     <g transform="translate(40.308519 30.709219) scale(0.125 -0.125)">
      <use xlink:href="#DejaVuSans-30"/>
      <use xlink:href="#DejaVuSans-2e" x="63.623047"/>
      <use xlink:href="#DejaVuSans-34" x="95.410156"/>
      <use xlink:href="#DejaVuSans-30" x="159.033203"/>
      <use xlink:href="#DejaVuSans-34" x="222.65625"/>
      <use xlink:href="#DejaVuSans-35" x="286.279297"/>
     </g>
    </g>
   </g>
   <g id="text_13">
    <g clip-path="url(#p5e62d7f6f6)">
     <!-- G2 -->
     <g transform="translate(103.532464 50.599219) scale(0.125 -0.125)">
      <defs>
       <path id="DejaVuSans-32" d="M 1228 531 
L 3431 531 
L 3431 0 
L 469 0 
L 469 531 
Q 828 903 1448 1529 
Q 2069 2156 2228 2338 
Q 2531 2678 2651 2914 
Q 2772 3150 2772 3378 
Q 2772 3750 2511 3984 
Q 2250 4219 1831 4219 
Q 1534 4219 1204 4116 
Q 875 4013 500 3803 
L 500 4441 
Q 881 4594 1212 4672 
Q 1544 4750 1819 4750 
Q 2544 4750 2975 4387 
Q 3406 4025 3406 3419 
Q 3406 3131 3298 2873 
Q 3191 2616 2906 2266 
Q 2828 2175 2409 1742 
Q 1991 1309 1228 531 
z
" transform="scale(0.015625)"/>
      </defs>
      <use xlink:href="#DejaVuSans-47"/>
      <use xlink:href="#DejaVuSans-32" x="77.490234"/>
     </g>
    </g>
   </g>
   <g id="text_14">
    <g clip-path="url(#p5e62d7f6f6)">
     <!-- 0.4045 -->
     <g transform="translate(40.308519 30.709219) scale(0.125 -0.125)">
      <use xlink:href="#DejaVuSans-30"/>
      <use xlink:href="#DejaVuSans-2e" x="63.623047"/>
      <use xlink:href="#DejaVuSans-34" x="95.410156"/>
      <use xlink:href="#DejaVuSans-30" x="159.033203"/>
      <use xlink:href="#DejaVuSans-34" x="222.65625"/>
      <use xlink:href="#DejaVuSans-35" x="286.279297"/>
     </g>
    </g>
   </g>
   <g id="text_15">
    <g clip-path="url(#p5e62d7f6f6)">
     <!-- 0.4045 -->
     <g transform="translate(40.308519 30.709219) scale(0.125 -0.125)">
      <use xlink:href="#DejaVuSans-30"/>
      <use xlink:href="#DejaVuSans-2e" x="63.623047"/>
      <use xlink:href="#DejaVuSans-34" x="95.410156"/>
      <use xlink:href="#DejaVuSans-30" x="159.033203"/>
      <use xlink:href="#DejaVuSans-34" x="222.65625"/>
      <use xlink:href="#DejaVuSans-35" x="286.279297"/>
     </g>
    </g>
   </g>
   <g id="text_16">
    <g clip-path="url(#p5e62d7f6f6)">
     <!-- G2 -->
     <g transform="translate(103.532464 50.599219) scale(0.125 -0.125)">
      <use xlink:href="#DejaVuSans-47"/>
      <use xlink:href="#DejaVuSans-32" x="77.490234"/>
     </g>
    </g>
   </g>
   <g id="text_17">
    <g clip-path="url(#p5e62d7f6f6)">
     <!-- G3 -->
     <g transform="translate(160.142464 58.249219) scale(0.125 -0.125)">
      <defs>
       <path id="DejaVuSans-33" d="M 2597 2516 
Q 3050 2419 3304 2112 
Q 3559 1806 3559 1356 
Q 3559 666 3084 287 
Q 2609 -91 1734 -91 
Q 1441 -91 1130 -33 
Q 819 25 488 141 
L 488 750 
Q 750 597 1062 519 
Q 1375 441 1716 441 
Q 2309 441 2620 675 
Q 2931 909 2931 1356 
Q 2931 1769 2642 2001 
Q 2353 2234 1838 2234 
L 1294 2234 
L 1294 2753 
L 1863 2753 
Q 2328 2753 2575 2939 
Q 2822 3125 2822 3475 
Q 2822 3834 2567 4026 
Q 2313 4219 1838 4219 
Q 1578 4219 1281 4162 
Q 984 4106 628 3988 
L 628 4550 
Q 988 4650 1302 4700 
Q 1616 4750 1894 4750 
Q 2613 4750 3031 4423 
Q 3450 4097 3450 3541 
Q 3450 3153 3228 2886 
Q 3006 2619 2597 2516 
z
" transform="scale(0.015625)"/>
      </defs>
      <use xlink:href="#DejaVuSans-47"/>
      <use xlink:href="#DejaVuSans-33" x="77.490234"/>
     </g>
    </g>
   </g>
   <g id="text_18">
    <g clip-path="url(#p5e62d7f6f6)">
     <!-- G3 -->
     <g transform="translate(160.142464 58.249219) scale(0.125 -0.125)">
      <use xlink:href="#DejaVuSans-47"/>
      <use xlink:href="#DejaVuSans-33" x="77.490234"/>
     </g>
    </g>
   </g>
   <g id="text_19">
    <g clip-path="url(#p5e62d7f6f6)">
     <!-- 0.3999 -->
     <g transform="translate(153.528519 30.709219) scale(0.125 -0.125)">
      <defs>
       <path id="DejaVuSans-39" d="M 703 97 
L 703 672 
Q 941 559 1184 500 
Q 1428 441 1663 441 
Q 2288 441 2617 861 
Q 2947 1281 2994 2138 
Q 2813 1869 2534 1725 
Q 2256 1581 1919 1581 
Q 1219 1581 811 2004 
Q 403 2428 403 3163 
Q 403 3881 828 4315 
Q 1253 4750 1959 4750 
Q 2769 4750 3195 4129 
Q 3622 3509 3622 2328 
Q 3622 1225 3098 567 
Q 2575 -91 1691 -91 
Q 1453 -91 1209 -44 
Q 966 3 703 97 
z
M 1959 2075 
Q 2384 2075 2632 2365 
Q 2881 2656 2881 3163 
Q 2881 3666 2632 3958 
Q 2384 4250 1959 4250 
Q 1534 4250 1286 3958 
Q 1038 3666 1038 3163 
Q 1038 2656 1286 2365 
Q 1534 2075 1959 2075 
z
" transform="scale(0.015625)"/>
      </defs>
      <use xlink:href="#DejaVuSans-30"/>
      <use xlink:href="#DejaVuSans-2e" x="63.623047"/>
      <use xlink:href="#DejaVuSans-33" x="95.410156"/>
      <use xlink:href="#DejaVuSans-39" x="159.033203"/>
      <use xlink:href="#DejaVuSans-39" x="222.65625"/>
      <use xlink:href="#DejaVuSans-39" x="286.279297"/>
     </g>
    </g>
   </g>
   <g id="text_20">
    <g clip-path="url(#p5e62d7f6f6)">
     <!-- 0.3999 -->
     <g transform="translate(153.528519 30.709219) scale(0.125 -0.125)">
      <use xlink:href="#DejaVuSans-30"/>
      <use xlink:href="#DejaVuSans-2e" x="63.623047"/>
      <use xlink:href="#DejaVuSans-33" x="95.410156"/>
      <use xlink:href="#DejaVuSans-39" x="159.033203"/>
      <use xlink:href="#DejaVuSans-39" x="222.65625"/>
      <use xlink:href="#DejaVuSans-39" x="286.279297"/>
     </g>
    </g>
   </g>
   <g id="text_21">
    <g clip-path="url(#p5e62d7f6f6)">
     <!-- G4 -->
     <g transform="translate(216.752464 50.599219) scale(0.125 -0.125)">
      <use xlink:href="#DejaVuSans-47"/>
      <use xlink:href="#DejaVuSans-34" x="77.490234"/>
     </g>
    </g>
   </g>
   <g id="text_22">
    <g clip-path="url(#p5e62d7f6f6)">
     <!-- 0.3999 -->
     <g transform="translate(153.528519 30.709219) scale(0.125 -0.125)">
      <use xlink:href="#DejaVuSans-30"/>
      <use xlink:href="#DejaVuSans-2e" x="63.623047"/>
      <use xlink:href="#DejaVuSans-33" x="95.410156"/>
      <use xlink:href="#DejaVuSans-39" x="159.033203"/>
      <use xlink:href="#DejaVuSans-39" x="222.65625"/>
      <use xlink:href="#DejaVuSans-39" x="286.279297"/>
     </g>
    </g>
   </g>
   <g id="text_23">
    <g clip-path="url(#p5e62d7f6f6)">
     <!-- 0.3999 -->
     <g transform="translate(153.528519 30.709219) scale(0.125 -0.125)">
      <use xlink:href="#DejaVuSans-30"/>
      <use xlink:href="#DejaVuSans-2e" x="63.623047"/>
      <use xlink:href="#DejaVuSans-33" x="95.410156"/>
      <use xlink:href="#DejaVuSans-39" x="159.033203"/>
      <use xlink:href="#DejaVuSans-39" x="222.65625"/>
      <use xlink:href="#DejaVuSans-39" x="286.279297"/>
     </g>
    </g>
   </g>
   <g id="text_24">
    <g clip-path="url(#p5e62d7f6f6)">
     <!-- G4 -->
     <g transform="translate(216.752464 50.599219) scale(0.125 -0.125)">
      <use xlink:href="#DejaVuSans-47"/>
      <use xlink:href="#DejaVuSans-34" x="77.490234"/>
     </g>
    </g>
   </g>
   <g id="text_25">
    <g clip-path="url(#p5e62d7f6f6)">
     <!-- G5 -->
     <g transform="translate(273.362464 58.249219) scale(0.125 -0.125)">
      <use xlink:href="#DejaVuSans-47"/>
      <use xlink:href="#DejaVuSans-35" x="77.490234"/>
     </g>
    </g>
   </g>
   <g id="text_26">
    <g clip-path="url(#p5e62d7f6f6)">
     <!-- G5 -->
     <g transform="translate(273.362464 58.249219) scale(0.125 -0.125)">
      <use xlink:href="#DejaVuSans-47"/>
      <use xlink:href="#DejaVuSans-35" x="77.490234"/>
     </g>
    </g>
   </g>
   <g id="text_27">
    <g clip-path="url(#p5e62d7f6f6)">
     <!-- 0.3333 -->
     <g transform="translate(266.748519 30.709219) scale(0.125 -0.125)">
      <use xlink:href="#DejaVuSans-30"/>
      <use xlink:href="#DejaVuSans-2e" x="63.623047"/>
      <use xlink:href="#DejaVuSans-33" x="95.410156"/>
      <use xlink:href="#DejaVuSans-33" x="159.033203"/>
      <use xlink:href="#DejaVuSans-33" x="222.65625"/>
      <use xlink:href="#DejaVuSans-33" x="286.279297"/>
     </g>
    </g>
   </g>
   <g id="text_28">
    <g clip-path="url(#p5e62d7f6f6)">
     <!-- 0.3333 -->
     <g transform="translate(266.748519 30.709219) scale(0.125 -0.125)">
      <use xlink:href="#DejaVuSans-30"/>
      <use xlink:href="#DejaVuSans-2e" x="63.623047"/>
      <use xlink:href="#DejaVuSans-33" x="95.410156"/>
      <use xlink:href="#DejaVuSans-33" x="159.033203"/>
      <use xlink:href="#DejaVuSans-33" x="222.65625"/>
      <use xlink:href="#DejaVuSans-33" x="286.279297"/>
     </g>
    </g>
   </g>
   <g id="text_29">
    <g clip-path="url(#p5e62d7f6f6)">
     <!-- G6 -->
     <g transform="translate(329.972464 50.599219) scale(0.125 -0.125)">
      <defs>
       <path id="DejaVuSans-36" d="M 2113 2584 
Q 1688 2584 1439 2293 
Q 1191 2003 1191 1497 
Q 1191 994 1439 701 
Q 1688 409 2113 409 
Q 2538 409 2786 701 
Q 3034 994 3034 1497 
Q 3034 2003 2786 2293 
Q 2538 2584 2113 2584 
z
M 3366 4563 
L 3366 3988 
Q 3128 4100 2886 4159 
Q 2644 4219 2406 4219 
Q 1781 4219 1451 3797 
Q 1122 3375 1075 2522 
Q 1259 2794 1537 2939 
Q 1816 3084 2150 3084 
Q 2853 3084 3261 2657 
Q 3669 2231 3669 1497 
Q 3669 778 3244 343 
Q 2819 -91 2113 -91 
Q 1303 -91 875 529 
Q 447 1150 447 2328 
Q 447 3434 972 4092 
Q 1497 4750 2381 4750 
Q 2619 4750 2861 4703 
Q 3103 4656 3366 4563 
z
" transform="scale(0.015625)"/>
      </defs>
      <use xlink:href="#DejaVuSans-47"/>
      <use xlink:href="#DejaVuSans-36" x="77.490234"/>
     </g>
    </g>
   </g>
   <g id="text_30">
    <g clip-path="url(#p5e62d7f6f6)">
     <!-- 0.3333 -->
     <g transform="translate(266.748519 30.709219) scale(0.125 -0.125)">
      <use xlink:href="#DejaVuSans-30"/>
      <use xlink:href="#DejaVuSans-2e" x="63.623047"/>
      <use xlink:href="#DejaVuSans-33" x="95.410156"/>
      <use xlink:href="#DejaVuSans-33" x="159.033203"/>
      <use xlink:href="#DejaVuSans-33" x="222.65625"/>
      <use xlink:href="#DejaVuSans-33" x="286.279297"/>
     </g>
    </g>
   </g>
   <g id="text_31">
    <g clip-path="url(#p5e62d7f6f6)">
     <!-- 0.3333 -->
     <g transform="translate(266.748519 30.709219) scale(0.125 -0.125)">
      <use xlink:href="#DejaVuSans-30"/>
      <use xlink:href="#DejaVuSans-2e" x="63.623047"/>
      <use xlink:href="#DejaVuSans-33" x="95.410156"/>
      <use xlink:href="#DejaVuSans-33" x="159.033203"/>
      <use xlink:href="#DejaVuSans-33" x="222.65625"/>
      <use xlink:href="#DejaVuSans-33" x="286.279297"/>
     </g>
    </g>
   </g>
   <g id="text_32">
    <g clip-path="url(#p5e62d7f6f6)">
     <!-- G6 -->
     <g transform="translate(329.972464 50.599219) scale(0.125 -0.125)">
      <use xlink:href="#DejaVuSans-47"/>
      <use xlink:href="#DejaVuSans-36" x="77.490234"/>
     </g>
    </g>
   </g>
   <g id="text_33">
    <g clip-path="url(#p5e62d7f6f6)">
     <!-- G7 -->
     <g transform="translate(386.582464 58.249219) scale(0.125 -0.125)">
      <defs>
       <path id="DejaVuSans-37" d="M 525 4666 
L 3525 4666 
L 3525 4397 
L 1831 0 
L 1172 0 
L 2766 4134 
L 525 4134 
L 525 4666 
z
" transform="scale(0.015625)"/>
      </defs>
      <use xlink:href="#DejaVuSans-47"/>
      <use xlink:href="#DejaVuSans-37" x="77.490234"/>
     </g>
    </g>
   </g>
   <g id="text_34">
    <g clip-path="url(#p5e62d7f6f6)">
     <!-- G7 -->
     <g transform="translate(386.582464 58.249219) scale(0.125 -0.125)">
      <use xlink:href="#DejaVuSans-47"/>
      <use xlink:href="#DejaVuSans-37" x="77.490234"/>
     </g>
    </g>
   </g>
   <g id="text_35">
    <g clip-path="url(#p5e62d7f6f6)">
     <!-- $f(X) = tanh(x)$ -->
     <g transform="translate(426.7668 61.309219) scale(0.125 -0.125)">
      <defs>
       <path id="DejaVuSans-Oblique-66" d="M 3059 4863 
L 2969 4384 
L 2419 4384 
Q 2106 4384 1964 4261 
Q 1822 4138 1753 3809 
L 1691 3500 
L 2638 3500 
L 2553 3053 
L 1606 3053 
L 1013 0 
L 434 0 
L 1031 3053 
L 481 3053 
L 563 3500 
L 1113 3500 
L 1159 3744 
Q 1278 4363 1576 4613 
Q 1875 4863 2516 4863 
L 3059 4863 
z
" transform="scale(0.015625)"/>
       <path id="DejaVuSans-28" d="M 1984 4856 
Q 1566 4138 1362 3434 
Q 1159 2731 1159 2009 
Q 1159 1288 1364 580 
Q 1569 -128 1984 -844 
L 1484 -844 
Q 1016 -109 783 600 
Q 550 1309 550 2009 
Q 550 2706 781 3412 
Q 1013 4119 1484 4856 
L 1984 4856 
z
" transform="scale(0.015625)"/>
       <path id="DejaVuSans-Oblique-58" d="M 878 4666 
L 1516 4666 
L 2316 2981 
L 3763 4666 
L 4500 4666 
L 2578 2438 
L 3738 0 
L 3103 0 
L 2163 1966 
L 459 0 
L -275 0 
L 1906 2509 
L 878 4666 
z
" transform="scale(0.015625)"/>
       <path id="DejaVuSans-29" d="M 513 4856 
L 1013 4856 
Q 1481 4119 1714 3412 
Q 1947 2706 1947 2009 
Q 1947 1309 1714 600 
Q 1481 -109 1013 -844 
L 513 -844 
Q 928 -128 1133 580 
Q 1338 1288 1338 2009 
Q 1338 2731 1133 3434 
Q 928 4138 513 4856 
z
" transform="scale(0.015625)"/>
       <path id="DejaVuSans-3d" d="M 678 2906 
L 4684 2906 
L 4684 2381 
L 678 2381 
L 678 2906 
z
M 678 1631 
L 4684 1631 
L 4684 1100 
L 678 1100 
L 678 1631 
z
" transform="scale(0.015625)"/>
       <path id="DejaVuSans-Oblique-74" d="M 2706 3500 
L 2619 3053 
L 1472 3053 
L 1100 1153 
Q 1081 1047 1072 975 
Q 1063 903 1063 863 
Q 1063 663 1183 572 
Q 1303 481 1569 481 
L 2150 481 
L 2053 0 
L 1503 0 
Q 991 0 739 200 
Q 488 400 488 806 
Q 488 878 497 964 
Q 506 1050 525 1153 
L 897 3053 
L 409 3053 
L 500 3500 
L 978 3500 
L 1172 4494 
L 1747 4494 
L 1556 3500 
L 2706 3500 
z
" transform="scale(0.015625)"/>
       <path id="DejaVuSans-Oblique-61" d="M 3438 1997 
L 3047 0 
L 2472 0 
L 2578 531 
Q 2325 219 2001 64 
Q 1678 -91 1281 -91 
Q 834 -91 548 182 
Q 263 456 263 884 
Q 263 1497 752 1853 
Q 1241 2209 2100 2209 
L 2900 2209 
L 2931 2363 
Q 2938 2388 2941 2417 
Q 2944 2447 2944 2509 
Q 2944 2788 2717 2942 
Q 2491 3097 2081 3097 
Q 1800 3097 1504 3025 
Q 1209 2953 897 2809 
L 997 3341 
Q 1322 3463 1633 3523 
Q 1944 3584 2234 3584 
Q 2853 3584 3176 3315 
Q 3500 3047 3500 2534 
Q 3500 2431 3484 2292 
Q 3469 2153 3438 1997 
z
M 2816 1759 
L 2241 1759 
Q 1534 1759 1195 1570 
Q 856 1381 856 984 
Q 856 709 1029 553 
Q 1203 397 1509 397 
Q 1978 397 2328 733 
Q 2678 1069 2791 1631 
L 2816 1759 
z
" transform="scale(0.015625)"/>
       <path id="DejaVuSans-Oblique-6e" d="M 3566 2113 
L 3156 0 
L 2578 0 
L 2988 2091 
Q 3016 2238 3031 2350 
Q 3047 2463 3047 2528 
Q 3047 2791 2881 2937 
Q 2716 3084 2419 3084 
Q 1956 3084 1622 2776 
Q 1288 2469 1184 1941 
L 800 0 
L 225 0 
L 903 3500 
L 1478 3500 
L 1363 2950 
Q 1603 3253 1940 3418 
Q 2278 3584 2650 3584 
Q 3113 3584 3367 3334 
Q 3622 3084 3622 2631 
Q 3622 2519 3608 2391 
Q 3594 2263 3566 2113 
z
" transform="scale(0.015625)"/>
       <path id="DejaVuSans-Oblique-68" d="M 3566 2113 
L 3156 0 
L 2578 0 
L 2988 2091 
Q 3016 2238 3031 2350 
Q 3047 2463 3047 2528 
Q 3047 2791 2881 2937 
Q 2716 3084 2419 3084 
Q 1956 3084 1617 2771 
Q 1278 2459 1178 1941 
L 800 0 
L 225 0 
L 1172 4863 
L 1747 4863 
L 1375 2950 
Q 1594 3244 1934 3414 
Q 2275 3584 2650 3584 
Q 3113 3584 3367 3334 
Q 3622 3084 3622 2631 
Q 3622 2519 3608 2391 
Q 3594 2263 3566 2113 
z
" transform="scale(0.015625)"/>
       <path id="DejaVuSans-Oblique-78" d="M 3841 3500 
L 2234 1784 
L 3219 0 
L 2559 0 
L 1819 1388 
L 531 0 
L -166 0 
L 1556 1844 
L 641 3500 
L 1300 3500 
L 1972 2234 
L 3144 3500 
L 3841 3500 
z
" transform="scale(0.015625)"/>
      </defs>
      <use xlink:href="#DejaVuSans-Oblique-66" transform="translate(0 0.015625)"/>
      <use xlink:href="#DejaVuSans-28" transform="translate(35.205078 0.015625)"/>
      <use xlink:href="#DejaVuSans-Oblique-58" transform="translate(74.21875 0.015625)"/>
      <use xlink:href="#DejaVuSans-29" transform="translate(142.724609 0.015625)"/>
      <use xlink:href="#DejaVuSans-3d" transform="translate(201.220703 0.015625)"/>
      <use xlink:href="#DejaVuSans-Oblique-74" transform="translate(304.492188 0.015625)"/>
      <use xlink:href="#DejaVuSans-Oblique-61" transform="translate(343.701172 0.015625)"/>
      <use xlink:href="#DejaVuSans-Oblique-6e" transform="translate(404.980469 0.015625)"/>
      <use xlink:href="#DejaVuSans-Oblique-68" transform="translate(468.359375 0.015625)"/>
      <use xlink:href="#DejaVuSans-28" transform="translate(531.738281 0.015625)"/>
      <use xlink:href="#DejaVuSans-Oblique-78" transform="translate(570.751953 0.015625)"/>
      <use xlink:href="#DejaVuSans-29" transform="translate(629.931641 0.015625)"/>
     </g>
    </g>
   </g>
   <g id="text_36">
    <g clip-path="url(#p5e62d7f6f6)">
     <!-- G7 -->
     <g transform="translate(386.582464 58.249219) scale(0.125 -0.125)">
      <use xlink:href="#DejaVuSans-47"/>
      <use xlink:href="#DejaVuSans-37" x="77.490234"/>
     </g>
    </g>
   </g>
   <g id="text_37">
    <g clip-path="url(#p5e62d7f6f6)">
     <!-- G7 -->
     <g transform="translate(386.582464 58.249219) scale(0.125 -0.125)">
      <use xlink:href="#DejaVuSans-47"/>
      <use xlink:href="#DejaVuSans-37" x="77.490234"/>
     </g>
    </g>
   </g>
   <g id="text_38">
    <g clip-path="url(#p5e62d7f6f6)">
     <!-- $f(X) = tanh(x)$ -->
     <g transform="translate(426.7668 61.309219) scale(0.125 -0.125)">
      <use xlink:href="#DejaVuSans-Oblique-66" transform="translate(0 0.015625)"/>
      <use xlink:href="#DejaVuSans-28" transform="translate(35.205078 0.015625)"/>
      <use xlink:href="#DejaVuSans-Oblique-58" transform="translate(74.21875 0.015625)"/>
      <use xlink:href="#DejaVuSans-29" transform="translate(142.724609 0.015625)"/>
      <use xlink:href="#DejaVuSans-3d" transform="translate(201.220703 0.015625)"/>
      <use xlink:href="#DejaVuSans-Oblique-74" transform="translate(304.492188 0.015625)"/>
      <use xlink:href="#DejaVuSans-Oblique-61" transform="translate(343.701172 0.015625)"/>
      <use xlink:href="#DejaVuSans-Oblique-6e" transform="translate(404.980469 0.015625)"/>
      <use xlink:href="#DejaVuSans-Oblique-68" transform="translate(468.359375 0.015625)"/>
      <use xlink:href="#DejaVuSans-28" transform="translate(531.738281 0.015625)"/>
      <use xlink:href="#DejaVuSans-Oblique-78" transform="translate(570.751953 0.015625)"/>
      <use xlink:href="#DejaVuSans-29" transform="translate(629.931641 0.015625)"/>
     </g>
    </g>
   </g>
   <g id="text_39">
    <g clip-path="url(#p5e62d7f6f6)">
     <!-- G7 -->
     <g transform="translate(386.582464 58.249219) scale(0.125 -0.125)">
      <use xlink:href="#DejaVuSans-47"/>
      <use xlink:href="#DejaVuSans-37" x="77.490234"/>
     </g>
    </g>
   </g>
   <g id="text_40">
    <g clip-path="url(#p5e62d7f6f6)">
     <!-- G7 -->
     <g transform="translate(386.582464 58.249219) scale(0.125 -0.125)">
      <use xlink:href="#DejaVuSans-47"/>
      <use xlink:href="#DejaVuSans-37" x="77.490234"/>
     </g>
    </g>
   </g>
   <g id="text_41">
    <g clip-path="url(#p5e62d7f6f6)">
     <!-- $f(X) = tanh(x)$ -->
     <g transform="translate(426.7668 61.309219) scale(0.125 -0.125)">
      <use xlink:href="#DejaVuSans-Oblique-66" transform="translate(0 0.015625)"/>
      <use xlink:href="#DejaVuSans-28" transform="translate(35.205078 0.015625)"/>
      <use xlink:href="#DejaVuSans-Oblique-58" transform="translate(74.21875 0.015625)"/>
      <use xlink:href="#DejaVuSans-29" transform="translate(142.724609 0.015625)"/>
      <use xlink:href="#DejaVuSans-3d" transform="translate(201.220703 0.015625)"/>
      <use xlink:href="#DejaVuSans-Oblique-74" transform="translate(304.492188 0.015625)"/>
      <use xlink:href="#DejaVuSans-Oblique-61" transform="translate(343.701172 0.015625)"/>
      <use xlink:href="#DejaVuSans-Oblique-6e" transform="translate(404.980469 0.015625)"/>
      <use xlink:href="#DejaVuSans-Oblique-68" transform="translate(468.359375 0.015625)"/>
      <use xlink:href="#DejaVuSans-28" transform="translate(531.738281 0.015625)"/>
      <use xlink:href="#DejaVuSans-Oblique-78" transform="translate(570.751953 0.015625)"/>
      <use xlink:href="#DejaVuSans-29" transform="translate(629.931641 0.015625)"/>
     </g>
    </g>
   </g>
  </g>
 </g>
 <defs>
  <clipPath id="p5e62d7f6f6">
   <rect x="7.2" y="7.2" width="505.6242" height="76.67"/>
  </clipPath>
 </defs>
</svg>
