<?xml version="1.0" encoding="utf-8" standalone="no"?>
<!DOCTYPE svg PUBLIC "-//W3C//DTD SVG 1.1//EN"
  "http://www.w3.org/Graphics/SVG/1.1/DTD/svg11.dtd">
<svg xmlns:xlink="http://www.w3.org/1999/xlink" width="593.28pt" height="78.948828pt" viewBox="0 0 593.28 78.948828" xmlns="http://www.w3.org/2000/svg" version="1.1">
 <metadata>
  <rdf:RDF xmlns:dc="http://purl.org/dc/elements/1.1/" xmlns:cc="http://creativecommons.org/ns#" xmlns:rdf="http://www.w3.org/1999/02/22-rdf-syntax-ns#">
   <cc:Work>
    <dc:type rdf:resource="http://purl.org/dc/dcmitype/StillImage"/>
    <dc:date>2023-12-03T02:42:41.496137</dc:date>
    <dc:format>image/svg+xml</dc:format>
    <dc:creator>
     <cc:Agent>
      <dc:title>Matplotlib v3.7.4, https://matplotlib.org/</dc:title>
     </cc:Agent>
    </dc:creator>
   </cc:Work>
  </rdf:RDF>
 </metadata>
 <defs>
  <style type="text/css">*{stroke-linejoin: round; stroke-linecap: butt}</style>
 </defs>
 <g id="figure_1">
  <g id="patch_1">
   <path d="M 0 78.948828 
L 593.28 78.948828 
L 593.28 0 
L 0 0 
L 0 78.948828 
z
" style="fill: none"/>
  </g>
  <g id="axes_1">
   <g id="patch_2">
    <path d="M 88.56 49.968828 
C 89.705677 49.968828 90.804585 49.513646 91.614701 48.703529 
C 92.424818 47.893413 92.88 46.794506 92.88 45.648828 
C 92.88 44.503151 92.424818 43.404243 91.614701 42.594127 
C 90.804585 41.784011 89.705677 41.328828 88.56 41.328828 
C 87.414323 41.328828 86.315415 41.784011 85.505299 42.594127 
C 84.695182 43.404243 84.24 44.503151 84.24 45.648828 
C 84.24 46.794506 84.695182 47.893413 85.505299 48.703529 
C 86.315415 49.513646 87.414323 49.968828 88.56 49.968828 
L 88.56 49.968828 
z
" clip-path="url(#p58c3a73167)" style="fill: none; stroke: #000000; stroke-width: 2; stroke-linejoin: miter"/>
   </g>
   <g id="patch_3">
    <path d="M 88.56 49.968828 
C 89.705677 49.968828 90.804585 49.513646 91.614701 48.703529 
C 92.424818 47.893413 92.88 46.794506 92.88 45.648828 
C 92.88 44.503151 92.424818 43.404243 91.614701 42.594127 
C 90.804585 41.784011 89.705677 41.328828 88.56 41.328828 
C 87.414323 41.328828 86.315415 41.784011 85.505299 42.594127 
C 84.695182 43.404243 84.24 44.503151 84.24 45.648828 
C 84.24 46.794506 84.695182 47.893413 85.505299 48.703529 
C 86.315415 49.513646 87.414323 49.968828 88.56 49.968828 
L 88.56 49.968828 
z
" clip-path="url(#p58c3a73167)" style="fill: none; stroke: #000000; stroke-width: 2; stroke-linejoin: miter"/>
   </g>
   <g id="patch_4">
    <path d="M 221.76 49.968828 
C 222.905677 49.968828 224.004585 49.513646 224.814701 48.703529 
C 225.624818 47.893413 226.08 46.794506 226.08 45.648828 
C 226.08 44.503151 225.624818 43.404243 224.814701 42.594127 
C 224.004585 41.784011 222.905677 41.328828 221.76 41.328828 
C 220.614323 41.328828 219.515415 41.784011 218.705299 42.594127 
C 217.895182 43.404243 217.44 44.503151 217.44 45.648828 
C 217.44 46.794506 217.895182 47.893413 218.705299 48.703529 
C 219.515415 49.513646 220.614323 49.968828 221.76 49.968828 
L 221.76 49.968828 
z
" clip-path="url(#p58c3a73167)" style="fill: none; stroke: #000000; stroke-width: 2; stroke-linejoin: miter"/>
   </g>
   <g id="patch_5">
    <path d="M 221.76 49.968828 
C 222.905677 49.968828 224.004585 49.513646 224.814701 48.703529 
C 225.624818 47.893413 226.08 46.794506 226.08 45.648828 
C 226.08 44.503151 225.624818 43.404243 224.814701 42.594127 
C 224.004585 41.784011 222.905677 41.328828 221.76 41.328828 
C 220.614323 41.328828 219.515415 41.784011 218.705299 42.594127 
C 217.895182 43.404243 217.44 44.503151 217.44 45.648828 
C 217.44 46.794506 217.895182 47.893413 218.705299 48.703529 
C 219.515415 49.513646 220.614323 49.968828 221.76 49.968828 
L 221.76 49.968828 
z
" clip-path="url(#p58c3a73167)" style="fill: none; stroke: #000000; stroke-width: 2; stroke-linejoin: miter"/>
   </g>
   <g id="patch_6">
    <path d="M 354.96 49.968828 
C 356.105677 49.968828 357.204585 49.513646 358.014701 48.703529 
C 358.824818 47.893413 359.28 46.794506 359.28 45.648828 
C 359.28 44.503151 358.824818 43.404243 358.014701 42.594127 
C 357.204585 41.784011 356.105677 41.328828 354.96 41.328828 
C 353.814323 41.328828 352.715415 41.784011 351.905299 42.594127 
C 351.095182 43.404243 350.64 44.503151 350.64 45.648828 
C 350.64 46.794506 351.095182 47.893413 351.905299 48.703529 
C 352.715415 49.513646 353.814323 49.968828 354.96 49.968828 
L 354.96 49.968828 
z
" clip-path="url(#p58c3a73167)" style="fill: none; stroke: #000000; stroke-width: 2; stroke-linejoin: miter"/>
   </g>
   <g id="patch_7">
    <path d="M 354.96 49.968828 
C 356.105677 49.968828 357.204585 49.513646 358.014701 48.703529 
C 358.824818 47.893413 359.28 46.794506 359.28 45.648828 
C 359.28 44.503151 358.824818 43.404243 358.014701 42.594127 
C 357.204585 41.784011 356.105677 41.328828 354.96 41.328828 
C 353.814323 41.328828 352.715415 41.784011 351.905299 42.594127 
C 351.095182 43.404243 350.64 44.503151 350.64 45.648828 
C 350.64 46.794506 351.095182 47.893413 351.905299 48.703529 
C 352.715415 49.513646 353.814323 49.968828 354.96 49.968828 
L 354.96 49.968828 
z
" clip-path="url(#p58c3a73167)" style="fill: none; stroke: #000000; stroke-width: 2; stroke-linejoin: miter"/>
   </g>
   <g id="patch_8">
    <path d="M 488.16 49.968828 
C 489.305677 49.968828 490.404585 49.513646 491.214701 48.703529 
C 492.024818 47.893413 492.48 46.794506 492.48 45.648828 
C 492.48 44.503151 492.024818 43.404243 491.214701 42.594127 
C 490.404585 41.784011 489.305677 41.328828 488.16 41.328828 
C 487.014323 41.328828 485.915415 41.784011 485.105299 42.594127 
C 484.295182 43.404243 483.84 44.503151 483.84 45.648828 
C 483.84 46.794506 484.295182 47.893413 485.105299 48.703529 
C 485.915415 49.513646 487.014323 49.968828 488.16 49.968828 
L 488.16 49.968828 
z
" clip-path="url(#p58c3a73167)" style="fill: none; stroke: #000000; stroke-width: 2; stroke-linejoin: miter"/>
   </g>
   <g id="patch_9">
    <path d="M 488.16 49.968828 
C 489.305677 49.968828 490.404585 49.513646 491.214701 48.703529 
C 492.024818 47.893413 492.48 46.794506 492.48 45.648828 
C 492.48 44.503151 492.024818 43.404243 491.214701 42.594127 
C 490.404585 41.784011 489.305677 41.328828 488.16 41.328828 
C 487.014323 41.328828 485.915415 41.784011 485.105299 42.594127 
C 484.295182 43.404243 483.84 44.503151 483.84 45.648828 
C 483.84 46.794506 484.295182 47.893413 485.105299 48.703529 
C 485.915415 49.513646 487.014323 49.968828 488.16 49.968828 
L 488.16 49.968828 
z
" clip-path="url(#p58c3a73167)" style="fill: none; stroke: #000000; stroke-width: 2; stroke-linejoin: miter"/>
   </g>
   <g id="patch_10">
    <path d="M 554.76 58.968828 
C 555.905677 58.968828 557.004585 58.513646 557.814701 57.703529 
C 558.624818 56.893413 559.08 55.794506 559.08 54.648828 
C 559.08 53.503151 558.624818 52.404243 557.814701 51.594127 
C 557.004585 50.784011 555.905677 50.328828 554.76 50.328828 
C 553.614323 50.328828 552.515415 50.784011 551.705299 51.594127 
C 550.895182 52.404243 550.44 53.503151 550.44 54.648828 
C 550.44 55.794506 550.895182 56.893413 551.705299 57.703529 
C 552.515415 58.513646 553.614323 58.968828 554.76 58.968828 
L 554.76 58.968828 
z
" clip-path="url(#p58c3a73167)" style="fill: none; stroke: #000000; stroke-width: 2; stroke-linejoin: miter"/>
   </g>
   <g id="patch_11">
    <path d="M 554.76 58.968828 
C 555.905677 58.968828 557.004585 58.513646 557.814701 57.703529 
C 558.624818 56.893413 559.08 55.794506 559.08 54.648828 
C 559.08 53.503151 558.624818 52.404243 557.814701 51.594127 
C 557.004585 50.784011 555.905677 50.328828 554.76 50.328828 
C 553.614323 50.328828 552.515415 50.784011 551.705299 51.594127 
C 550.895182 52.404243 550.44 53.503151 550.44 54.648828 
C 550.44 55.794506 550.895182 56.893413 551.705299 57.703529 
C 552.515415 58.513646 553.614323 58.968828 554.76 58.968828 
L 554.76 58.968828 
z
" clip-path="url(#p58c3a73167)" style="fill: none; stroke: #000000; stroke-width: 2; stroke-linejoin: miter"/>
   </g>
   <g id="patch_12">
    <path d="M 554.76 58.968828 
C 555.905677 58.968828 557.004585 58.513646 557.814701 57.703529 
C 558.624818 56.893413 559.08 55.794506 559.08 54.648828 
C 559.08 53.503151 558.624818 52.404243 557.814701 51.594127 
C 557.004585 50.784011 555.905677 50.328828 554.76 50.328828 
C 553.614323 50.328828 552.515415 50.784011 551.705299 51.594127 
C 550.895182 52.404243 550.44 53.503151 550.44 54.648828 
C 550.44 55.794506 550.895182 56.893413 551.705299 57.703529 
C 552.515415 58.513646 553.614323 58.968828 554.76 58.968828 
L 554.76 58.968828 
z
" clip-path="url(#p58c3a73167)" style="fill: none; stroke: #000000; stroke-width: 2; stroke-linejoin: miter"/>
   </g>
   <g id="line2d_1">
    <path d="M 66.24 63.648828 
L 67.393264 63.611845 
L 68.541789 63.501048 
L 69.680855 63.316893 
L 70.805783 63.060136 
L 71.911948 62.731832 
L 72.994806 62.33333 
L 74.049907 61.866268 
L 75.072916 61.332565 
L 76.059628 60.734414 
L 77.00599 60.074273 
L 77.908111 59.354855 
L 78.762286 58.579116 
L 79.565004 57.750244 
L 80.312967 56.871645 
L 81.003101 55.946928 
L 81.63257 54.979894 
L 82.198788 53.974517 
L 82.699427 52.934928 
L 83.132432 51.865399 
L 83.496021 50.770325 
L 83.788702 49.654205 
L 84.009272 48.521626 
L 84.156824 47.377243 
L 84.230752 46.225757 
L 84.230752 45.0719 
L 84.156824 43.920414 
L 84.009272 42.77603 
L 83.788702 41.643451 
L 83.496021 40.527332 
L 83.132432 39.432257 
L 82.699427 38.362728 
L 82.198788 37.323139 
L 81.63257 36.317762 
L 81.003101 35.350728 
L 80.312967 34.426012 
L 79.565004 33.547412 
L 78.762286 32.71854 
L 77.908111 31.942801 
L 77.00599 31.223383 
L 76.059628 30.563242 
L 75.072916 29.965091 
L 74.049907 29.431389 
L 72.994806 28.964326 
L 71.911948 28.565825 
L 70.805783 28.237521 
L 69.680855 27.980763 
L 68.541789 27.796608 
L 67.393264 27.685811 
L 66.24 27.648828 
L 66.24 27.648828 
L 42.84 27.648828 
L 42.84 45.648828 
L 42.84 63.648828 
L 66.24 63.648828 
" clip-path="url(#p58c3a73167)" style="fill: none; stroke: #000000; stroke-width: 2; stroke-linecap: round"/>
   </g>
   <g id="line2d_2">
    <path d="M 30.24 54.648828 
L 42.84 54.648828 
" clip-path="url(#p58c3a73167)" style="fill: none; stroke: #000000; stroke-width: 2; stroke-linecap: round"/>
   </g>
   <g id="line2d_3">
    <path d="M 30.24 36.648828 
L 42.84 36.648828 
" clip-path="url(#p58c3a73167)" style="fill: none; stroke: #000000; stroke-width: 2; stroke-linecap: round"/>
   </g>
   <g id="line2d_4">
    <path d="M 92.88 45.648828 
L 96.84 45.648828 
" clip-path="url(#p58c3a73167)" style="fill: none; stroke: #000000; stroke-width: 2; stroke-linecap: round"/>
   </g>
   <g id="line2d_5">
    <path d="M 66.24 63.648828 
L 67.393264 63.611845 
L 68.541789 63.501048 
L 69.680855 63.316893 
L 70.805783 63.060136 
L 71.911948 62.731832 
L 72.994806 62.33333 
L 74.049907 61.866268 
L 75.072916 61.332565 
L 76.059628 60.734414 
L 77.00599 60.074273 
L 77.908111 59.354855 
L 78.762286 58.579116 
L 79.565004 57.750244 
L 80.312967 56.871645 
L 81.003101 55.946928 
L 81.63257 54.979894 
L 82.198788 53.974517 
L 82.699427 52.934928 
L 83.132432 51.865399 
L 83.496021 50.770325 
L 83.788702 49.654205 
L 84.009272 48.521626 
L 84.156824 47.377243 
L 84.230752 46.225757 
L 84.230752 45.0719 
L 84.156824 43.920414 
L 84.009272 42.77603 
L 83.788702 41.643451 
L 83.496021 40.527332 
L 83.132432 39.432257 
L 82.699427 38.362728 
L 82.198788 37.323139 
L 81.63257 36.317762 
L 81.003101 35.350728 
L 80.312967 34.426012 
L 79.565004 33.547412 
L 78.762286 32.71854 
L 77.908111 31.942801 
L 77.00599 31.223383 
L 76.059628 30.563242 
L 75.072916 29.965091 
L 74.049907 29.431389 
L 72.994806 28.964326 
L 71.911948 28.565825 
L 70.805783 28.237521 
L 69.680855 27.980763 
L 68.541789 27.796608 
L 67.393264 27.685811 
L 66.24 27.648828 
L 66.24 27.648828 
L 42.84 27.648828 
L 42.84 45.648828 
L 42.84 63.648828 
L 66.24 63.648828 
" clip-path="url(#p58c3a73167)" style="fill: none; stroke: #000000; stroke-width: 2; stroke-linecap: round"/>
   </g>
   <g id="line2d_6">
    <path d="M 30.24 54.648828 
L 42.84 54.648828 
" clip-path="url(#p58c3a73167)" style="fill: none; stroke: #000000; stroke-width: 2; stroke-linecap: round"/>
   </g>
   <g id="line2d_7">
    <path d="M 30.24 36.648828 
L 42.84 36.648828 
" clip-path="url(#p58c3a73167)" style="fill: none; stroke: #000000; stroke-width: 2; stroke-linecap: round"/>
   </g>
   <g id="line2d_8">
    <path d="M 92.88 45.648828 
L 96.84 45.648828 
" clip-path="url(#p58c3a73167)" style="fill: none; stroke: #000000; stroke-width: 2; stroke-linecap: round"/>
   </g>
   <g id="line2d_9">
    <path d="M 132.84 54.648828 
L 133.993264 54.611845 
L 135.141789 54.501048 
L 136.280855 54.316893 
L 137.405783 54.060136 
L 138.511948 53.731832 
L 139.594806 53.33333 
L 140.649907 52.866268 
L 141.672916 52.332565 
L 142.659628 51.734414 
L 143.60599 51.074273 
L 144.508111 50.354855 
L 145.362286 49.579116 
L 146.165004 48.750244 
L 146.912967 47.871645 
L 147.603101 46.946928 
L 148.23257 45.979894 
L 148.798788 44.974517 
L 149.299427 43.934928 
L 149.732432 42.865399 
L 150.096021 41.770325 
L 150.388702 40.654205 
L 150.609272 39.521626 
L 150.756824 38.377243 
L 150.830752 37.225757 
L 150.830752 36.0719 
L 150.756824 34.920414 
L 150.609272 33.77603 
L 150.388702 32.643451 
L 150.096021 31.527332 
L 149.732432 30.432257 
L 149.299427 29.362728 
L 148.798788 28.323139 
L 148.23257 27.317762 
L 147.603101 26.350728 
L 146.912967 25.426012 
L 146.165004 24.547412 
L 145.362286 23.71854 
L 144.508111 22.942801 
L 143.60599 22.223383 
L 142.659628 21.563242 
L 141.672916 20.965091 
L 140.649907 20.431389 
L 139.594806 19.964326 
L 138.511948 19.565825 
L 137.405783 19.237521 
L 136.280855 18.980763 
L 135.141789 18.796608 
L 133.993264 18.685811 
L 132.84 18.648828 
L 132.84 18.648828 
L 109.44 18.648828 
L 109.44 36.648828 
L 109.44 54.648828 
L 132.84 54.648828 
" clip-path="url(#p58c3a73167)" style="fill: none; stroke: #000000; stroke-width: 2; stroke-linecap: round"/>
   </g>
   <g id="line2d_10">
    <path d="M 96.84 45.648828 
L 109.44 45.648828 
" clip-path="url(#p58c3a73167)" style="fill: none; stroke: #000000; stroke-width: 2; stroke-linecap: round"/>
   </g>
   <g id="line2d_11">
    <path d="M 96.84 27.648828 
L 109.44 27.648828 
" clip-path="url(#p58c3a73167)" style="fill: none; stroke: #000000; stroke-width: 2; stroke-linecap: round"/>
   </g>
   <g id="line2d_12">
    <path d="M 150.84 36.648828 
L 163.44 36.648828 
" clip-path="url(#p58c3a73167)" style="fill: none; stroke: #000000; stroke-width: 2; stroke-linecap: round"/>
   </g>
   <g id="line2d_13">
    <path d="M 132.84 54.648828 
L 133.993264 54.611845 
L 135.141789 54.501048 
L 136.280855 54.316893 
L 137.405783 54.060136 
L 138.511948 53.731832 
L 139.594806 53.33333 
L 140.649907 52.866268 
L 141.672916 52.332565 
L 142.659628 51.734414 
L 143.60599 51.074273 
L 144.508111 50.354855 
L 145.362286 49.579116 
L 146.165004 48.750244 
L 146.912967 47.871645 
L 147.603101 46.946928 
L 148.23257 45.979894 
L 148.798788 44.974517 
L 149.299427 43.934928 
L 149.732432 42.865399 
L 150.096021 41.770325 
L 150.388702 40.654205 
L 150.609272 39.521626 
L 150.756824 38.377243 
L 150.830752 37.225757 
L 150.830752 36.0719 
L 150.756824 34.920414 
L 150.609272 33.77603 
L 150.388702 32.643451 
L 150.096021 31.527332 
L 149.732432 30.432257 
L 149.299427 29.362728 
L 148.798788 28.323139 
L 148.23257 27.317762 
L 147.603101 26.350728 
L 146.912967 25.426012 
L 146.165004 24.547412 
L 145.362286 23.71854 
L 144.508111 22.942801 
L 143.60599 22.223383 
L 142.659628 21.563242 
L 141.672916 20.965091 
L 140.649907 20.431389 
L 139.594806 19.964326 
L 138.511948 19.565825 
L 137.405783 19.237521 
L 136.280855 18.980763 
L 135.141789 18.796608 
L 133.993264 18.685811 
L 132.84 18.648828 
L 132.84 18.648828 
L 109.44 18.648828 
L 109.44 36.648828 
L 109.44 54.648828 
L 132.84 54.648828 
" clip-path="url(#p58c3a73167)" style="fill: none; stroke: #000000; stroke-width: 2; stroke-linecap: round"/>
   </g>
   <g id="line2d_14">
    <path d="M 96.84 45.648828 
L 109.44 45.648828 
" clip-path="url(#p58c3a73167)" style="fill: none; stroke: #000000; stroke-width: 2; stroke-linecap: round"/>
   </g>
   <g id="line2d_15">
    <path d="M 96.84 27.648828 
L 109.44 27.648828 
" clip-path="url(#p58c3a73167)" style="fill: none; stroke: #000000; stroke-width: 2; stroke-linecap: round"/>
   </g>
   <g id="line2d_16">
    <path d="M 150.84 36.648828 
L 163.44 36.648828 
" clip-path="url(#p58c3a73167)" style="fill: none; stroke: #000000; stroke-width: 2; stroke-linecap: round"/>
   </g>
   <g id="line2d_17">
    <path d="M 199.44 63.648828 
L 200.593264 63.611845 
L 201.741789 63.501048 
L 202.880855 63.316893 
L 204.005783 63.060136 
L 205.111948 62.731832 
L 206.194806 62.33333 
L 207.249907 61.866268 
L 208.272916 61.332565 
L 209.259628 60.734414 
L 210.20599 60.074273 
L 211.108111 59.354855 
L 211.962286 58.579116 
L 212.765004 57.750244 
L 213.512967 56.871645 
L 214.203101 55.946928 
L 214.83257 54.979894 
L 215.398788 53.974517 
L 215.899427 52.934928 
L 216.332432 51.865399 
L 216.696021 50.770325 
L 216.988702 49.654205 
L 217.209272 48.521626 
L 217.356824 47.377243 
L 217.430752 46.225757 
L 217.430752 45.0719 
L 217.356824 43.920414 
L 217.209272 42.77603 
L 216.988702 41.643451 
L 216.696021 40.527332 
L 216.332432 39.432257 
L 215.899427 38.362728 
L 215.398788 37.323139 
L 214.83257 36.317762 
L 214.203101 35.350728 
L 213.512967 34.426012 
L 212.765004 33.547412 
L 211.962286 32.71854 
L 211.108111 31.942801 
L 210.20599 31.223383 
L 209.259628 30.563242 
L 208.272916 29.965091 
L 207.249907 29.431389 
L 206.194806 28.964326 
L 205.111948 28.565825 
L 204.005783 28.237521 
L 202.880855 27.980763 
L 201.741789 27.796608 
L 200.593264 27.685811 
L 199.44 27.648828 
L 199.44 27.648828 
L 176.04 27.648828 
L 176.04 45.648828 
L 176.04 63.648828 
L 199.44 63.648828 
" clip-path="url(#p58c3a73167)" style="fill: none; stroke: #000000; stroke-width: 2; stroke-linecap: round"/>
   </g>
   <g id="line2d_18">
    <path d="M 163.44 54.648828 
L 176.04 54.648828 
" clip-path="url(#p58c3a73167)" style="fill: none; stroke: #000000; stroke-width: 2; stroke-linecap: round"/>
   </g>
   <g id="line2d_19">
    <path d="M 163.44 36.648828 
L 176.04 36.648828 
" clip-path="url(#p58c3a73167)" style="fill: none; stroke: #000000; stroke-width: 2; stroke-linecap: round"/>
   </g>
   <g id="line2d_20">
    <path d="M 226.08 45.648828 
L 230.04 45.648828 
" clip-path="url(#p58c3a73167)" style="fill: none; stroke: #000000; stroke-width: 2; stroke-linecap: round"/>
   </g>
   <g id="line2d_21">
    <path d="M 199.44 63.648828 
L 200.593264 63.611845 
L 201.741789 63.501048 
L 202.880855 63.316893 
L 204.005783 63.060136 
L 205.111948 62.731832 
L 206.194806 62.33333 
L 207.249907 61.866268 
L 208.272916 61.332565 
L 209.259628 60.734414 
L 210.20599 60.074273 
L 211.108111 59.354855 
L 211.962286 58.579116 
L 212.765004 57.750244 
L 213.512967 56.871645 
L 214.203101 55.946928 
L 214.83257 54.979894 
L 215.398788 53.974517 
L 215.899427 52.934928 
L 216.332432 51.865399 
L 216.696021 50.770325 
L 216.988702 49.654205 
L 217.209272 48.521626 
L 217.356824 47.377243 
L 217.430752 46.225757 
L 217.430752 45.0719 
L 217.356824 43.920414 
L 217.209272 42.77603 
L 216.988702 41.643451 
L 216.696021 40.527332 
L 216.332432 39.432257 
L 215.899427 38.362728 
L 215.398788 37.323139 
L 214.83257 36.317762 
L 214.203101 35.350728 
L 213.512967 34.426012 
L 212.765004 33.547412 
L 211.962286 32.71854 
L 211.108111 31.942801 
L 210.20599 31.223383 
L 209.259628 30.563242 
L 208.272916 29.965091 
L 207.249907 29.431389 
L 206.194806 28.964326 
L 205.111948 28.565825 
L 204.005783 28.237521 
L 202.880855 27.980763 
L 201.741789 27.796608 
L 200.593264 27.685811 
L 199.44 27.648828 
L 199.44 27.648828 
L 176.04 27.648828 
L 176.04 45.648828 
L 176.04 63.648828 
L 199.44 63.648828 
" clip-path="url(#p58c3a73167)" style="fill: none; stroke: #000000; stroke-width: 2; stroke-linecap: round"/>
   </g>
   <g id="line2d_22">
    <path d="M 163.44 54.648828 
L 176.04 54.648828 
" clip-path="url(#p58c3a73167)" style="fill: none; stroke: #000000; stroke-width: 2; stroke-linecap: round"/>
   </g>
   <g id="line2d_23">
    <path d="M 163.44 36.648828 
L 176.04 36.648828 
" clip-path="url(#p58c3a73167)" style="fill: none; stroke: #000000; stroke-width: 2; stroke-linecap: round"/>
   </g>
   <g id="line2d_24">
    <path d="M 226.08 45.648828 
L 230.04 45.648828 
" clip-path="url(#p58c3a73167)" style="fill: none; stroke: #000000; stroke-width: 2; stroke-linecap: round"/>
   </g>
   <g id="line2d_25">
    <path d="M 30.24 54.648828 
L 30.24 72.648828 
L 163.44 72.648828 
L 163.44 54.648828 
" clip-path="url(#p58c3a73167)" style="fill: none; stroke: #000000; stroke-width: 2; stroke-linecap: round"/>
   </g>
   <g id="line2d_26">
    <path d="M 266.04 54.648828 
L 267.193264 54.611845 
L 268.341789 54.501048 
L 269.480855 54.316893 
L 270.605783 54.060136 
L 271.711948 53.731832 
L 272.794806 53.33333 
L 273.849907 52.866268 
L 274.872916 52.332565 
L 275.859628 51.734414 
L 276.80599 51.074273 
L 277.708111 50.354855 
L 278.562286 49.579116 
L 279.365004 48.750244 
L 280.112967 47.871645 
L 280.803101 46.946928 
L 281.43257 45.979894 
L 281.998788 44.974517 
L 282.499427 43.934928 
L 282.932432 42.865399 
L 283.296021 41.770325 
L 283.588702 40.654205 
L 283.809272 39.521626 
L 283.956824 38.377243 
L 284.030752 37.225757 
L 284.030752 36.0719 
L 283.956824 34.920414 
L 283.809272 33.77603 
L 283.588702 32.643451 
L 283.296021 31.527332 
L 282.932432 30.432257 
L 282.499427 29.362728 
L 281.998788 28.323139 
L 281.43257 27.317762 
L 280.803101 26.350728 
L 280.112967 25.426012 
L 279.365004 24.547412 
L 278.562286 23.71854 
L 277.708111 22.942801 
L 276.80599 22.223383 
L 275.859628 21.563242 
L 274.872916 20.965091 
L 273.849907 20.431389 
L 272.794806 19.964326 
L 271.711948 19.565825 
L 270.605783 19.237521 
L 269.480855 18.980763 
L 268.341789 18.796608 
L 267.193264 18.685811 
L 266.04 18.648828 
L 266.04 18.648828 
L 242.64 18.648828 
L 242.64 36.648828 
L 242.64 54.648828 
L 266.04 54.648828 
" clip-path="url(#p58c3a73167)" style="fill: none; stroke: #000000; stroke-width: 2; stroke-linecap: round"/>
   </g>
   <g id="line2d_27">
    <path d="M 230.04 45.648828 
L 242.64 45.648828 
" clip-path="url(#p58c3a73167)" style="fill: none; stroke: #000000; stroke-width: 2; stroke-linecap: round"/>
   </g>
   <g id="line2d_28">
    <path d="M 230.04 27.648828 
L 242.64 27.648828 
" clip-path="url(#p58c3a73167)" style="fill: none; stroke: #000000; stroke-width: 2; stroke-linecap: round"/>
   </g>
   <g id="line2d_29">
    <path d="M 284.04 36.648828 
L 296.64 36.648828 
" clip-path="url(#p58c3a73167)" style="fill: none; stroke: #000000; stroke-width: 2; stroke-linecap: round"/>
   </g>
   <g id="line2d_30">
    <path d="M 266.04 54.648828 
L 267.193264 54.611845 
L 268.341789 54.501048 
L 269.480855 54.316893 
L 270.605783 54.060136 
L 271.711948 53.731832 
L 272.794806 53.33333 
L 273.849907 52.866268 
L 274.872916 52.332565 
L 275.859628 51.734414 
L 276.80599 51.074273 
L 277.708111 50.354855 
L 278.562286 49.579116 
L 279.365004 48.750244 
L 280.112967 47.871645 
L 280.803101 46.946928 
L 281.43257 45.979894 
L 281.998788 44.974517 
L 282.499427 43.934928 
L 282.932432 42.865399 
L 283.296021 41.770325 
L 283.588702 40.654205 
L 283.809272 39.521626 
L 283.956824 38.377243 
L 284.030752 37.225757 
L 284.030752 36.0719 
L 283.956824 34.920414 
L 283.809272 33.77603 
L 283.588702 32.643451 
L 283.296021 31.527332 
L 282.932432 30.432257 
L 282.499427 29.362728 
L 281.998788 28.323139 
L 281.43257 27.317762 
L 280.803101 26.350728 
L 280.112967 25.426012 
L 279.365004 24.547412 
L 278.562286 23.71854 
L 277.708111 22.942801 
L 276.80599 22.223383 
L 275.859628 21.563242 
L 274.872916 20.965091 
L 273.849907 20.431389 
L 272.794806 19.964326 
L 271.711948 19.565825 
L 270.605783 19.237521 
L 269.480855 18.980763 
L 268.341789 18.796608 
L 267.193264 18.685811 
L 266.04 18.648828 
L 266.04 18.648828 
L 242.64 18.648828 
L 242.64 36.648828 
L 242.64 54.648828 
L 266.04 54.648828 
" clip-path="url(#p58c3a73167)" style="fill: none; stroke: #000000; stroke-width: 2; stroke-linecap: round"/>
   </g>
   <g id="line2d_31">
    <path d="M 230.04 45.648828 
L 242.64 45.648828 
" clip-path="url(#p58c3a73167)" style="fill: none; stroke: #000000; stroke-width: 2; stroke-linecap: round"/>
   </g>
   <g id="line2d_32">
    <path d="M 230.04 27.648828 
L 242.64 27.648828 
" clip-path="url(#p58c3a73167)" style="fill: none; stroke: #000000; stroke-width: 2; stroke-linecap: round"/>
   </g>
   <g id="line2d_33">
    <path d="M 284.04 36.648828 
L 296.64 36.648828 
" clip-path="url(#p58c3a73167)" style="fill: none; stroke: #000000; stroke-width: 2; stroke-linecap: round"/>
   </g>
   <g id="line2d_34">
    <path d="M 332.64 63.648828 
L 333.793264 63.611845 
L 334.941789 63.501048 
L 336.080855 63.316893 
L 337.205783 63.060136 
L 338.311948 62.731832 
L 339.394806 62.33333 
L 340.449907 61.866268 
L 341.472916 61.332565 
L 342.459628 60.734414 
L 343.40599 60.074273 
L 344.308111 59.354855 
L 345.162286 58.579116 
L 345.965004 57.750244 
L 346.712967 56.871645 
L 347.403101 55.946928 
L 348.03257 54.979894 
L 348.598788 53.974517 
L 349.099427 52.934928 
L 349.532432 51.865399 
L 349.896021 50.770325 
L 350.188702 49.654205 
L 350.409272 48.521626 
L 350.556824 47.377243 
L 350.630752 46.225757 
L 350.630752 45.0719 
L 350.556824 43.920414 
L 350.409272 42.77603 
L 350.188702 41.643451 
L 349.896021 40.527332 
L 349.532432 39.432257 
L 349.099427 38.362728 
L 348.598788 37.323139 
L 348.03257 36.317762 
L 347.403101 35.350728 
L 346.712967 34.426012 
L 345.965004 33.547412 
L 345.162286 32.71854 
L 344.308111 31.942801 
L 343.40599 31.223383 
L 342.459628 30.563242 
L 341.472916 29.965091 
L 340.449907 29.431389 
L 339.394806 28.964326 
L 338.311948 28.565825 
L 337.205783 28.237521 
L 336.080855 27.980763 
L 334.941789 27.796608 
L 333.793264 27.685811 
L 332.64 27.648828 
L 332.64 27.648828 
L 309.24 27.648828 
L 309.24 45.648828 
L 309.24 63.648828 
L 332.64 63.648828 
" clip-path="url(#p58c3a73167)" style="fill: none; stroke: #000000; stroke-width: 2; stroke-linecap: round"/>
   </g>
   <g id="line2d_35">
    <path d="M 296.64 54.648828 
L 309.24 54.648828 
" clip-path="url(#p58c3a73167)" style="fill: none; stroke: #000000; stroke-width: 2; stroke-linecap: round"/>
   </g>
   <g id="line2d_36">
    <path d="M 296.64 36.648828 
L 309.24 36.648828 
" clip-path="url(#p58c3a73167)" style="fill: none; stroke: #000000; stroke-width: 2; stroke-linecap: round"/>
   </g>
   <g id="line2d_37">
    <path d="M 359.28 45.648828 
L 363.24 45.648828 
" clip-path="url(#p58c3a73167)" style="fill: none; stroke: #000000; stroke-width: 2; stroke-linecap: round"/>
   </g>
   <g id="line2d_38">
    <path d="M 332.64 63.648828 
L 333.793264 63.611845 
L 334.941789 63.501048 
L 336.080855 63.316893 
L 337.205783 63.060136 
L 338.311948 62.731832 
L 339.394806 62.33333 
L 340.449907 61.866268 
L 341.472916 61.332565 
L 342.459628 60.734414 
L 343.40599 60.074273 
L 344.308111 59.354855 
L 345.162286 58.579116 
L 345.965004 57.750244 
L 346.712967 56.871645 
L 347.403101 55.946928 
L 348.03257 54.979894 
L 348.598788 53.974517 
L 349.099427 52.934928 
L 349.532432 51.865399 
L 349.896021 50.770325 
L 350.188702 49.654205 
L 350.409272 48.521626 
L 350.556824 47.377243 
L 350.630752 46.225757 
L 350.630752 45.0719 
L 350.556824 43.920414 
L 350.409272 42.77603 
L 350.188702 41.643451 
L 349.896021 40.527332 
L 349.532432 39.432257 
L 349.099427 38.362728 
L 348.598788 37.323139 
L 348.03257 36.317762 
L 347.403101 35.350728 
L 346.712967 34.426012 
L 345.965004 33.547412 
L 345.162286 32.71854 
L 344.308111 31.942801 
L 343.40599 31.223383 
L 342.459628 30.563242 
L 341.472916 29.965091 
L 340.449907 29.431389 
L 339.394806 28.964326 
L 338.311948 28.565825 
L 337.205783 28.237521 
L 336.080855 27.980763 
L 334.941789 27.796608 
L 333.793264 27.685811 
L 332.64 27.648828 
L 332.64 27.648828 
L 309.24 27.648828 
L 309.24 45.648828 
L 309.24 63.648828 
L 332.64 63.648828 
" clip-path="url(#p58c3a73167)" style="fill: none; stroke: #000000; stroke-width: 2; stroke-linecap: round"/>
   </g>
   <g id="line2d_39">
    <path d="M 296.64 54.648828 
L 309.24 54.648828 
" clip-path="url(#p58c3a73167)" style="fill: none; stroke: #000000; stroke-width: 2; stroke-linecap: round"/>
   </g>
   <g id="line2d_40">
    <path d="M 296.64 36.648828 
L 309.24 36.648828 
" clip-path="url(#p58c3a73167)" style="fill: none; stroke: #000000; stroke-width: 2; stroke-linecap: round"/>
   </g>
   <g id="line2d_41">
    <path d="M 359.28 45.648828 
L 363.24 45.648828 
" clip-path="url(#p58c3a73167)" style="fill: none; stroke: #000000; stroke-width: 2; stroke-linecap: round"/>
   </g>
   <g id="line2d_42">
    <path d="M 30.24 54.648828 
L 30.24 72.648828 
L 296.64 72.648828 
L 296.64 54.648828 
" clip-path="url(#p58c3a73167)" style="fill: none; stroke: #000000; stroke-width: 2; stroke-linecap: round"/>
   </g>
   <g id="line2d_43">
    <path d="M 399.24 54.648828 
L 400.393264 54.611845 
L 401.541789 54.501048 
L 402.680855 54.316893 
L 403.805783 54.060136 
L 404.911948 53.731832 
L 405.994806 53.33333 
L 407.049907 52.866268 
L 408.072916 52.332565 
L 409.059628 51.734414 
L 410.00599 51.074273 
L 410.908111 50.354855 
L 411.762286 49.579116 
L 412.565004 48.750244 
L 413.312967 47.871645 
L 414.003101 46.946928 
L 414.63257 45.979894 
L 415.198788 44.974517 
L 415.699427 43.934928 
L 416.132432 42.865399 
L 416.496021 41.770325 
L 416.788702 40.654205 
L 417.009272 39.521626 
L 417.156824 38.377243 
L 417.230752 37.225757 
L 417.230752 36.0719 
L 417.156824 34.920414 
L 417.009272 33.77603 
L 416.788702 32.643451 
L 416.496021 31.527332 
L 416.132432 30.432257 
L 415.699427 29.362728 
L 415.198788 28.323139 
L 414.63257 27.317762 
L 414.003101 26.350728 
L 413.312967 25.426012 
L 412.565004 24.547412 
L 411.762286 23.71854 
L 410.908111 22.942801 
L 410.00599 22.223383 
L 409.059628 21.563242 
L 408.072916 20.965091 
L 407.049907 20.431389 
L 405.994806 19.964326 
L 404.911948 19.565825 
L 403.805783 19.237521 
L 402.680855 18.980763 
L 401.541789 18.796608 
L 400.393264 18.685811 
L 399.24 18.648828 
L 399.24 18.648828 
L 375.84 18.648828 
L 375.84 36.648828 
L 375.84 54.648828 
L 399.24 54.648828 
" clip-path="url(#p58c3a73167)" style="fill: none; stroke: #000000; stroke-width: 2; stroke-linecap: round"/>
   </g>
   <g id="line2d_44">
    <path d="M 363.24 45.648828 
L 375.84 45.648828 
" clip-path="url(#p58c3a73167)" style="fill: none; stroke: #000000; stroke-width: 2; stroke-linecap: round"/>
   </g>
   <g id="line2d_45">
    <path d="M 363.24 27.648828 
L 375.84 27.648828 
" clip-path="url(#p58c3a73167)" style="fill: none; stroke: #000000; stroke-width: 2; stroke-linecap: round"/>
   </g>
   <g id="line2d_46">
    <path d="M 417.24 36.648828 
L 429.84 36.648828 
" clip-path="url(#p58c3a73167)" style="fill: none; stroke: #000000; stroke-width: 2; stroke-linecap: round"/>
   </g>
   <g id="line2d_47">
    <path d="M 399.24 54.648828 
L 400.393264 54.611845 
L 401.541789 54.501048 
L 402.680855 54.316893 
L 403.805783 54.060136 
L 404.911948 53.731832 
L 405.994806 53.33333 
L 407.049907 52.866268 
L 408.072916 52.332565 
L 409.059628 51.734414 
L 410.00599 51.074273 
L 410.908111 50.354855 
L 411.762286 49.579116 
L 412.565004 48.750244 
L 413.312967 47.871645 
L 414.003101 46.946928 
L 414.63257 45.979894 
L 415.198788 44.974517 
L 415.699427 43.934928 
L 416.132432 42.865399 
L 416.496021 41.770325 
L 416.788702 40.654205 
L 417.009272 39.521626 
L 417.156824 38.377243 
L 417.230752 37.225757 
L 417.230752 36.0719 
L 417.156824 34.920414 
L 417.009272 33.77603 
L 416.788702 32.643451 
L 416.496021 31.527332 
L 416.132432 30.432257 
L 415.699427 29.362728 
L 415.198788 28.323139 
L 414.63257 27.317762 
L 414.003101 26.350728 
L 413.312967 25.426012 
L 412.565004 24.547412 
L 411.762286 23.71854 
L 410.908111 22.942801 
L 410.00599 22.223383 
L 409.059628 21.563242 
L 408.072916 20.965091 
L 407.049907 20.431389 
L 405.994806 19.964326 
L 404.911948 19.565825 
L 403.805783 19.237521 
L 402.680855 18.980763 
L 401.541789 18.796608 
L 400.393264 18.685811 
L 399.24 18.648828 
L 399.24 18.648828 
L 375.84 18.648828 
L 375.84 36.648828 
L 375.84 54.648828 
L 399.24 54.648828 
" clip-path="url(#p58c3a73167)" style="fill: none; stroke: #000000; stroke-width: 2; stroke-linecap: round"/>
   </g>
   <g id="line2d_48">
    <path d="M 363.24 45.648828 
L 375.84 45.648828 
" clip-path="url(#p58c3a73167)" style="fill: none; stroke: #000000; stroke-width: 2; stroke-linecap: round"/>
   </g>
   <g id="line2d_49">
    <path d="M 363.24 27.648828 
L 375.84 27.648828 
" clip-path="url(#p58c3a73167)" style="fill: none; stroke: #000000; stroke-width: 2; stroke-linecap: round"/>
   </g>
   <g id="line2d_50">
    <path d="M 417.24 36.648828 
L 429.84 36.648828 
" clip-path="url(#p58c3a73167)" style="fill: none; stroke: #000000; stroke-width: 2; stroke-linecap: round"/>
   </g>
   <g id="line2d_51">
    <path d="M 465.84 63.648828 
L 466.993264 63.611845 
L 468.141789 63.501048 
L 469.280855 63.316893 
L 470.405783 63.060136 
L 471.511948 62.731832 
L 472.594806 62.33333 
L 473.649907 61.866268 
L 474.672916 61.332565 
L 475.659628 60.734414 
L 476.60599 60.074273 
L 477.508111 59.354855 
L 478.362286 58.579116 
L 479.165004 57.750244 
L 479.912967 56.871645 
L 480.603101 55.946928 
L 481.23257 54.979894 
L 481.798788 53.974517 
L 482.299427 52.934928 
L 482.732432 51.865399 
L 483.096021 50.770325 
L 483.388702 49.654205 
L 483.609272 48.521626 
L 483.756824 47.377243 
L 483.830752 46.225757 
L 483.830752 45.0719 
L 483.756824 43.920414 
L 483.609272 42.77603 
L 483.388702 41.643451 
L 483.096021 40.527332 
L 482.732432 39.432257 
L 482.299427 38.362728 
L 481.798788 37.323139 
L 481.23257 36.317762 
L 480.603101 35.350728 
L 479.912967 34.426012 
L 479.165004 33.547412 
L 478.362286 32.71854 
L 477.508111 31.942801 
L 476.60599 31.223383 
L 475.659628 30.563242 
L 474.672916 29.965091 
L 473.649907 29.431389 
L 472.594806 28.964326 
L 471.511948 28.565825 
L 470.405783 28.237521 
L 469.280855 27.980763 
L 468.141789 27.796608 
L 466.993264 27.685811 
L 465.84 27.648828 
L 465.84 27.648828 
L 442.44 27.648828 
L 442.44 45.648828 
L 442.44 63.648828 
L 465.84 63.648828 
" clip-path="url(#p58c3a73167)" style="fill: none; stroke: #000000; stroke-width: 2; stroke-linecap: round"/>
   </g>
   <g id="line2d_52">
    <path d="M 429.84 54.648828 
L 442.44 54.648828 
" clip-path="url(#p58c3a73167)" style="fill: none; stroke: #000000; stroke-width: 2; stroke-linecap: round"/>
   </g>
   <g id="line2d_53">
    <path d="M 429.84 36.648828 
L 442.44 36.648828 
" clip-path="url(#p58c3a73167)" style="fill: none; stroke: #000000; stroke-width: 2; stroke-linecap: round"/>
   </g>
   <g id="line2d_54">
    <path d="M 492.48 45.648828 
L 496.44 45.648828 
" clip-path="url(#p58c3a73167)" style="fill: none; stroke: #000000; stroke-width: 2; stroke-linecap: round"/>
   </g>
   <g id="line2d_55">
    <path d="M 465.84 63.648828 
L 466.993264 63.611845 
L 468.141789 63.501048 
L 469.280855 63.316893 
L 470.405783 63.060136 
L 471.511948 62.731832 
L 472.594806 62.33333 
L 473.649907 61.866268 
L 474.672916 61.332565 
L 475.659628 60.734414 
L 476.60599 60.074273 
L 477.508111 59.354855 
L 478.362286 58.579116 
L 479.165004 57.750244 
L 479.912967 56.871645 
L 480.603101 55.946928 
L 481.23257 54.979894 
L 481.798788 53.974517 
L 482.299427 52.934928 
L 482.732432 51.865399 
L 483.096021 50.770325 
L 483.388702 49.654205 
L 483.609272 48.521626 
L 483.756824 47.377243 
L 483.830752 46.225757 
L 483.830752 45.0719 
L 483.756824 43.920414 
L 483.609272 42.77603 
L 483.388702 41.643451 
L 483.096021 40.527332 
L 482.732432 39.432257 
L 482.299427 38.362728 
L 481.798788 37.323139 
L 481.23257 36.317762 
L 480.603101 35.350728 
L 479.912967 34.426012 
L 479.165004 33.547412 
L 478.362286 32.71854 
L 477.508111 31.942801 
L 476.60599 31.223383 
L 475.659628 30.563242 
L 474.672916 29.965091 
L 473.649907 29.431389 
L 472.594806 28.964326 
L 471.511948 28.565825 
L 470.405783 28.237521 
L 469.280855 27.980763 
L 468.141789 27.796608 
L 466.993264 27.685811 
L 465.84 27.648828 
L 465.84 27.648828 
L 442.44 27.648828 
L 442.44 45.648828 
L 442.44 63.648828 
L 465.84 63.648828 
" clip-path="url(#p58c3a73167)" style="fill: none; stroke: #000000; stroke-width: 2; stroke-linecap: round"/>
   </g>
   <g id="line2d_56">
    <path d="M 429.84 54.648828 
L 442.44 54.648828 
" clip-path="url(#p58c3a73167)" style="fill: none; stroke: #000000; stroke-width: 2; stroke-linecap: round"/>
   </g>
   <g id="line2d_57">
    <path d="M 429.84 36.648828 
L 442.44 36.648828 
" clip-path="url(#p58c3a73167)" style="fill: none; stroke: #000000; stroke-width: 2; stroke-linecap: round"/>
   </g>
   <g id="line2d_58">
    <path d="M 492.48 45.648828 
L 496.44 45.648828 
" clip-path="url(#p58c3a73167)" style="fill: none; stroke: #000000; stroke-width: 2; stroke-linecap: round"/>
   </g>
   <g id="line2d_59">
    <path d="M 30.24 54.648828 
L 30.24 72.648828 
L 429.84 72.648828 
L 429.84 54.648828 
" clip-path="url(#p58c3a73167)" style="fill: none; stroke: #000000; stroke-width: 2; stroke-linecap: round"/>
   </g>
   <g id="line2d_60">
    <path d="M 532.44 72.648828 
L 533.593264 72.611845 
L 534.741789 72.501048 
L 535.880855 72.316893 
L 537.005783 72.060136 
L 538.111948 71.731832 
L 539.194806 71.33333 
L 540.249907 70.866268 
L 541.272916 70.332565 
L 542.259628 69.734414 
L 543.20599 69.074273 
L 544.108111 68.354855 
L 544.962286 67.579116 
L 545.765004 66.750244 
L 546.512967 65.871645 
L 547.203101 64.946928 
L 547.83257 63.979894 
L 548.398788 62.974517 
L 548.899427 61.934928 
L 549.332432 60.865399 
L 549.696021 59.770325 
L 549.988702 58.654205 
L 550.209272 57.521626 
L 550.356824 56.377243 
L 550.430752 55.225757 
L 550.430752 54.0719 
L 550.356824 52.920414 
L 550.209272 51.77603 
L 549.988702 50.643451 
L 549.696021 49.527332 
L 549.332432 48.432257 
L 548.899427 47.362728 
L 548.398788 46.323139 
L 547.83257 45.317762 
L 547.203101 44.350728 
L 546.512967 43.426012 
L 545.765004 42.547412 
L 544.962286 41.71854 
L 544.108111 40.942801 
L 543.20599 40.223383 
L 542.259628 39.563242 
L 541.272916 38.965091 
L 540.249907 38.431389 
L 539.194806 37.964326 
L 538.111948 37.565825 
L 537.005783 37.237521 
L 535.880855 36.980763 
L 534.741789 36.796608 
L 533.593264 36.685811 
L 532.44 36.648828 
L 532.44 36.648828 
L 509.04 36.648828 
L 509.04 54.648828 
L 509.04 72.648828 
L 532.44 72.648828 
" clip-path="url(#p58c3a73167)" style="fill: none; stroke: #000000; stroke-width: 2; stroke-linecap: round"/>
   </g>
   <g id="line2d_61">
    <path d="M 496.44 63.648828 
L 509.04 63.648828 
" clip-path="url(#p58c3a73167)" style="fill: none; stroke: #000000; stroke-width: 2; stroke-linecap: round"/>
   </g>
   <g id="line2d_62">
    <path d="M 496.44 45.648828 
L 509.04 45.648828 
" clip-path="url(#p58c3a73167)" style="fill: none; stroke: #000000; stroke-width: 2; stroke-linecap: round"/>
   </g>
   <g id="line2d_63">
    <path d="M 559.08 54.648828 
L 563.04 54.648828 
" clip-path="url(#p58c3a73167)" style="fill: none; stroke: #000000; stroke-width: 2; stroke-linecap: round"/>
   </g>
   <g id="line2d_64">
    <path d="M 532.44 72.648828 
L 533.593264 72.611845 
L 534.741789 72.501048 
L 535.880855 72.316893 
L 537.005783 72.060136 
L 538.111948 71.731832 
L 539.194806 71.33333 
L 540.249907 70.866268 
L 541.272916 70.332565 
L 542.259628 69.734414 
L 543.20599 69.074273 
L 544.108111 68.354855 
L 544.962286 67.579116 
L 545.765004 66.750244 
L 546.512967 65.871645 
L 547.203101 64.946928 
L 547.83257 63.979894 
L 548.398788 62.974517 
L 548.899427 61.934928 
L 549.332432 60.865399 
L 549.696021 59.770325 
L 549.988702 58.654205 
L 550.209272 57.521626 
L 550.356824 56.377243 
L 550.430752 55.225757 
L 550.430752 54.0719 
L 550.356824 52.920414 
L 550.209272 51.77603 
L 549.988702 50.643451 
L 549.696021 49.527332 
L 549.332432 48.432257 
L 548.899427 47.362728 
L 548.398788 46.323139 
L 547.83257 45.317762 
L 547.203101 44.350728 
L 546.512967 43.426012 
L 545.765004 42.547412 
L 544.962286 41.71854 
L 544.108111 40.942801 
L 543.20599 40.223383 
L 542.259628 39.563242 
L 541.272916 38.965091 
L 540.249907 38.431389 
L 539.194806 37.964326 
L 538.111948 37.565825 
L 537.005783 37.237521 
L 535.880855 36.980763 
L 534.741789 36.796608 
L 533.593264 36.685811 
L 532.44 36.648828 
L 532.44 36.648828 
L 509.04 36.648828 
L 509.04 54.648828 
L 509.04 72.648828 
L 532.44 72.648828 
" clip-path="url(#p58c3a73167)" style="fill: none; stroke: #000000; stroke-width: 2; stroke-linecap: round"/>
   </g>
   <g id="line2d_65">
    <path d="M 496.44 63.648828 
L 509.04 63.648828 
" clip-path="url(#p58c3a73167)" style="fill: none; stroke: #000000; stroke-width: 2; stroke-linecap: round"/>
   </g>
   <g id="line2d_66">
    <path d="M 496.44 45.648828 
L 509.04 45.648828 
" clip-path="url(#p58c3a73167)" style="fill: none; stroke: #000000; stroke-width: 2; stroke-linecap: round"/>
   </g>
   <g id="line2d_67">
    <path d="M 559.08 54.648828 
L 563.04 54.648828 
" clip-path="url(#p58c3a73167)" style="fill: none; stroke: #000000; stroke-width: 2; stroke-linecap: round"/>
   </g>
   <g id="line2d_68">
    <path d="M 30.24 54.648828 
L 30.24 72.648828 
L 496.44 72.648828 
L 496.44 63.648828 
" clip-path="url(#p58c3a73167)" style="fill: none; stroke: #000000; stroke-width: 2; stroke-linecap: round"/>
   </g>
   <g id="line2d_69">
    <path d="M 532.44 72.648828 
L 533.593264 72.611845 
L 534.741789 72.501048 
L 535.880855 72.316893 
L 537.005783 72.060136 
L 538.111948 71.731832 
L 539.194806 71.33333 
L 540.249907 70.866268 
L 541.272916 70.332565 
L 542.259628 69.734414 
L 543.20599 69.074273 
L 544.108111 68.354855 
L 544.962286 67.579116 
L 545.765004 66.750244 
L 546.512967 65.871645 
L 547.203101 64.946928 
L 547.83257 63.979894 
L 548.398788 62.974517 
L 548.899427 61.934928 
L 549.332432 60.865399 
L 549.696021 59.770325 
L 549.988702 58.654205 
L 550.209272 57.521626 
L 550.356824 56.377243 
L 550.430752 55.225757 
L 550.430752 54.0719 
L 550.356824 52.920414 
L 550.209272 51.77603 
L 549.988702 50.643451 
L 549.696021 49.527332 
L 549.332432 48.432257 
L 548.899427 47.362728 
L 548.398788 46.323139 
L 547.83257 45.317762 
L 547.203101 44.350728 
L 546.512967 43.426012 
L 545.765004 42.547412 
L 544.962286 41.71854 
L 544.108111 40.942801 
L 543.20599 40.223383 
L 542.259628 39.563242 
L 541.272916 38.965091 
L 540.249907 38.431389 
L 539.194806 37.964326 
L 538.111948 37.565825 
L 537.005783 37.237521 
L 535.880855 36.980763 
L 534.741789 36.796608 
L 533.593264 36.685811 
L 532.44 36.648828 
L 532.44 36.648828 
L 509.04 36.648828 
L 509.04 54.648828 
L 509.04 72.648828 
L 532.44 72.648828 
" clip-path="url(#p58c3a73167)" style="fill: none; stroke: #000000; stroke-width: 2; stroke-linecap: round"/>
   </g>
   <g id="line2d_70">
    <path d="M 496.44 63.648828 
L 509.04 63.648828 
" clip-path="url(#p58c3a73167)" style="fill: none; stroke: #000000; stroke-width: 2; stroke-linecap: round"/>
   </g>
   <g id="line2d_71">
    <path d="M 496.44 45.648828 
L 509.04 45.648828 
" clip-path="url(#p58c3a73167)" style="fill: none; stroke: #000000; stroke-width: 2; stroke-linecap: round"/>
   </g>
   <g id="line2d_72">
    <path d="M 559.08 54.648828 
L 563.04 54.648828 
" clip-path="url(#p58c3a73167)" style="fill: none; stroke: #000000; stroke-width: 2; stroke-linecap: round"/>
   </g>
   <g id="text_1">
    <!-- 0.2 -->
    <g transform="translate(6.761094 40.098047) scale(0.125 -0.125)">
     <defs>
      <path id="DejaVuSans-30" d="M 2034 4250 
Q 1547 4250 1301 3770 
Q 1056 3291 1056 2328 
Q 1056 1369 1301 889 
Q 1547 409 2034 409 
Q 2525 409 2770 889 
Q 3016 1369 3016 2328 
Q 3016 3291 2770 3770 
Q 2525 4250 2034 4250 
z
M 2034 4750 
Q 2819 4750 3233 4129 
Q 3647 3509 3647 2328 
Q 3647 1150 3233 529 
Q 2819 -91 2034 -91 
Q 1250 -91 836 529 
Q 422 1150 422 2328 
Q 422 3509 836 4129 
Q 1250 4750 2034 4750 
z
" transform="scale(0.015625)"/>
      <path id="DejaVuSans-2e" d="M 684 794 
L 1344 794 
L 1344 0 
L 684 0 
L 684 794 
z
" transform="scale(0.015625)"/>
      <path id="DejaVuSans-32" d="M 1228 531 
L 3431 531 
L 3431 0 
L 469 0 
L 469 531 
Q 828 903 1448 1529 
Q 2069 2156 2228 2338 
Q 2531 2678 2651 2914 
Q 2772 3150 2772 3378 
Q 2772 3750 2511 3984 
Q 2250 4219 1831 4219 
Q 1534 4219 1204 4116 
Q 875 4013 500 3803 
L 500 4441 
Q 881 4594 1212 4672 
Q 1544 4750 1819 4750 
Q 2544 4750 2975 4387 
Q 3406 4025 3406 3419 
Q 3406 3131 3298 2873 
Q 3191 2616 2906 2266 
Q 2828 2175 2409 1742 
Q 1991 1309 1228 531 
z
" transform="scale(0.015625)"/>
     </defs>
     <use xlink:href="#DejaVuSans-30"/>
     <use xlink:href="#DejaVuSans-2e" x="63.623047"/>
     <use xlink:href="#DejaVuSans-32" x="95.410156"/>
    </g>
   </g>
   <g id="text_2">
    <!-- X -->
    <g transform="translate(18.0775 58.098047) scale(0.125 -0.125)">
     <defs>
      <path id="DejaVuSans-58" d="M 403 4666 
L 1081 4666 
L 2241 2931 
L 3406 4666 
L 4084 4666 
L 2584 2425 
L 4184 0 
L 3506 0 
L 2194 1984 
L 872 0 
L 191 0 
L 1856 2491 
L 403 4666 
z
" transform="scale(0.015625)"/>
     </defs>
     <use xlink:href="#DejaVuSans-58"/>
    </g>
   </g>
   <g id="text_3">
    <!-- 0.2 -->
    <g transform="translate(6.761094 40.098047) scale(0.125 -0.125)">
     <use xlink:href="#DejaVuSans-30"/>
     <use xlink:href="#DejaVuSans-2e" x="63.623047"/>
     <use xlink:href="#DejaVuSans-32" x="95.410156"/>
    </g>
   </g>
   <g id="text_4">
    <!-- X -->
    <g transform="translate(18.0775 58.098047) scale(0.125 -0.125)">
     <use xlink:href="#DejaVuSans-58"/>
    </g>
   </g>
   <g id="text_5">
    <!-- G1 -->
    <g transform="translate(54.720664 45.498047) scale(0.125 -0.125)">
     <defs>
      <path id="DejaVuSans-47" d="M 3809 666 
L 3809 1919 
L 2778 1919 
L 2778 2438 
L 4434 2438 
L 4434 434 
Q 4069 175 3628 42 
Q 3188 -91 2688 -91 
Q 1594 -91 976 548 
Q 359 1188 359 2328 
Q 359 3472 976 4111 
Q 1594 4750 2688 4750 
Q 3144 4750 3555 4637 
Q 3966 4525 4313 4306 
L 4313 3634 
Q 3963 3931 3569 4081 
Q 3175 4231 2741 4231 
Q 1884 4231 1454 3753 
Q 1025 3275 1025 2328 
Q 1025 1384 1454 906 
Q 1884 428 2741 428 
Q 3075 428 3337 486 
Q 3600 544 3809 666 
z
" transform="scale(0.015625)"/>
      <path id="DejaVuSans-31" d="M 794 531 
L 1825 531 
L 1825 4091 
L 703 3866 
L 703 4441 
L 1819 4666 
L 2450 4666 
L 2450 531 
L 3481 531 
L 3481 0 
L 794 0 
L 794 531 
z
" transform="scale(0.015625)"/>
     </defs>
     <use xlink:href="#DejaVuSans-47"/>
     <use xlink:href="#DejaVuSans-31" x="77.490234"/>
    </g>
   </g>
   <g id="text_6">
    <!-- 0.2 -->
    <g transform="translate(6.761094 40.098047) scale(0.125 -0.125)">
     <use xlink:href="#DejaVuSans-30"/>
     <use xlink:href="#DejaVuSans-2e" x="63.623047"/>
     <use xlink:href="#DejaVuSans-32" x="95.410156"/>
    </g>
   </g>
   <g id="text_7">
    <!-- X -->
    <g transform="translate(18.0775 58.098047) scale(0.125 -0.125)">
     <use xlink:href="#DejaVuSans-58"/>
    </g>
   </g>
   <g id="text_8">
    <!-- 0.2 -->
    <g transform="translate(6.761094 40.098047) scale(0.125 -0.125)">
     <use xlink:href="#DejaVuSans-30"/>
     <use xlink:href="#DejaVuSans-2e" x="63.623047"/>
     <use xlink:href="#DejaVuSans-32" x="95.410156"/>
    </g>
   </g>
   <g id="text_9">
    <!-- X -->
    <g transform="translate(18.0775 58.098047) scale(0.125 -0.125)">
     <use xlink:href="#DejaVuSans-58"/>
    </g>
   </g>
   <g id="text_10">
    <!-- G1 -->
    <g transform="translate(54.720664 45.498047) scale(0.125 -0.125)">
     <use xlink:href="#DejaVuSans-47"/>
     <use xlink:href="#DejaVuSans-31" x="77.490234"/>
    </g>
   </g>
   <g id="text_11">
    <!-- 0.25 -->
    <g transform="translate(69.007969 13.098047) scale(0.125 -0.125)">
     <defs>
      <path id="DejaVuSans-35" d="M 691 4666 
L 3169 4666 
L 3169 4134 
L 1269 4134 
L 1269 2991 
Q 1406 3038 1543 3061 
Q 1681 3084 1819 3084 
Q 2600 3084 3056 2656 
Q 3513 2228 3513 1497 
Q 3513 744 3044 326 
Q 2575 -91 1722 -91 
Q 1428 -91 1123 -41 
Q 819 9 494 109 
L 494 744 
Q 775 591 1075 516 
Q 1375 441 1709 441 
Q 2250 441 2565 725 
Q 2881 1009 2881 1497 
Q 2881 1984 2565 2268 
Q 2250 2553 1709 2553 
Q 1456 2553 1204 2497 
Q 953 2441 691 2322 
L 691 4666 
z
" transform="scale(0.015625)"/>
     </defs>
     <use xlink:href="#DejaVuSans-30"/>
     <use xlink:href="#DejaVuSans-2e" x="63.623047"/>
     <use xlink:href="#DejaVuSans-32" x="95.410156"/>
     <use xlink:href="#DejaVuSans-35" x="159.033203"/>
    </g>
   </g>
   <g id="text_12">
    <!-- 0.25 -->
    <g transform="translate(69.007969 13.098047) scale(0.125 -0.125)">
     <use xlink:href="#DejaVuSans-30"/>
     <use xlink:href="#DejaVuSans-2e" x="63.623047"/>
     <use xlink:href="#DejaVuSans-32" x="95.410156"/>
     <use xlink:href="#DejaVuSans-35" x="159.033203"/>
    </g>
   </g>
   <g id="text_13">
    <!-- G2 -->
    <g transform="translate(121.320664 36.498047) scale(0.125 -0.125)">
     <use xlink:href="#DejaVuSans-47"/>
     <use xlink:href="#DejaVuSans-32" x="77.490234"/>
    </g>
   </g>
   <g id="text_14">
    <!-- 0.25 -->
    <g transform="translate(69.007969 13.098047) scale(0.125 -0.125)">
     <use xlink:href="#DejaVuSans-30"/>
     <use xlink:href="#DejaVuSans-2e" x="63.623047"/>
     <use xlink:href="#DejaVuSans-32" x="95.410156"/>
     <use xlink:href="#DejaVuSans-35" x="159.033203"/>
    </g>
   </g>
   <g id="text_15">
    <!-- 0.25 -->
    <g transform="translate(69.007969 13.098047) scale(0.125 -0.125)">
     <use xlink:href="#DejaVuSans-30"/>
     <use xlink:href="#DejaVuSans-2e" x="63.623047"/>
     <use xlink:href="#DejaVuSans-32" x="95.410156"/>
     <use xlink:href="#DejaVuSans-35" x="159.033203"/>
    </g>
   </g>
   <g id="text_16">
    <!-- G2 -->
    <g transform="translate(121.320664 36.498047) scale(0.125 -0.125)">
     <use xlink:href="#DejaVuSans-47"/>
     <use xlink:href="#DejaVuSans-32" x="77.490234"/>
    </g>
   </g>
   <g id="text_17">
    <!-- G3 -->
    <g transform="translate(187.920664 45.498047) scale(0.125 -0.125)">
     <defs>
      <path id="DejaVuSans-33" d="M 2597 2516 
Q 3050 2419 3304 2112 
Q 3559 1806 3559 1356 
Q 3559 666 3084 287 
Q 2609 -91 1734 -91 
Q 1441 -91 1130 -33 
Q 819 25 488 141 
L 488 750 
Q 750 597 1062 519 
Q 1375 441 1716 441 
Q 2309 441 2620 675 
Q 2931 909 2931 1356 
Q 2931 1769 2642 2001 
Q 2353 2234 1838 2234 
L 1294 2234 
L 1294 2753 
L 1863 2753 
Q 2328 2753 2575 2939 
Q 2822 3125 2822 3475 
Q 2822 3834 2567 4026 
Q 2313 4219 1838 4219 
Q 1578 4219 1281 4162 
Q 984 4106 628 3988 
L 628 4550 
Q 988 4650 1302 4700 
Q 1616 4750 1894 4750 
Q 2613 4750 3031 4423 
Q 3450 4097 3450 3541 
Q 3450 3153 3228 2886 
Q 3006 2619 2597 2516 
z
" transform="scale(0.015625)"/>
     </defs>
     <use xlink:href="#DejaVuSans-47"/>
     <use xlink:href="#DejaVuSans-33" x="77.490234"/>
    </g>
   </g>
   <g id="text_18">
    <!-- G3 -->
    <g transform="translate(187.920664 45.498047) scale(0.125 -0.125)">
     <use xlink:href="#DejaVuSans-47"/>
     <use xlink:href="#DejaVuSans-33" x="77.490234"/>
    </g>
   </g>
   <g id="text_19">
    <!-- 0.3333 -->
    <g transform="translate(186.301719 13.098047) scale(0.125 -0.125)">
     <use xlink:href="#DejaVuSans-30"/>
     <use xlink:href="#DejaVuSans-2e" x="63.623047"/>
     <use xlink:href="#DejaVuSans-33" x="95.410156"/>
     <use xlink:href="#DejaVuSans-33" x="159.033203"/>
     <use xlink:href="#DejaVuSans-33" x="222.65625"/>
     <use xlink:href="#DejaVuSans-33" x="286.279297"/>
    </g>
   </g>
   <g id="text_20">
    <!-- 0.3333 -->
    <g transform="translate(186.301719 13.098047) scale(0.125 -0.125)">
     <use xlink:href="#DejaVuSans-30"/>
     <use xlink:href="#DejaVuSans-2e" x="63.623047"/>
     <use xlink:href="#DejaVuSans-33" x="95.410156"/>
     <use xlink:href="#DejaVuSans-33" x="159.033203"/>
     <use xlink:href="#DejaVuSans-33" x="222.65625"/>
     <use xlink:href="#DejaVuSans-33" x="286.279297"/>
    </g>
   </g>
   <g id="text_21">
    <!-- G4 -->
    <g transform="translate(254.520664 36.498047) scale(0.125 -0.125)">
     <defs>
      <path id="DejaVuSans-34" d="M 2419 4116 
L 825 1625 
L 2419 1625 
L 2419 4116 
z
M 2253 4666 
L 3047 4666 
L 3047 1625 
L 3713 1625 
L 3713 1100 
L 3047 1100 
L 3047 0 
L 2419 0 
L 2419 1100 
L 313 1100 
L 313 1709 
L 2253 4666 
z
" transform="scale(0.015625)"/>
     </defs>
     <use xlink:href="#DejaVuSans-47"/>
     <use xlink:href="#DejaVuSans-34" x="77.490234"/>
    </g>
   </g>
   <g id="text_22">
    <!-- 0.3333 -->
    <g transform="translate(186.301719 13.098047) scale(0.125 -0.125)">
     <use xlink:href="#DejaVuSans-30"/>
     <use xlink:href="#DejaVuSans-2e" x="63.623047"/>
     <use xlink:href="#DejaVuSans-33" x="95.410156"/>
     <use xlink:href="#DejaVuSans-33" x="159.033203"/>
     <use xlink:href="#DejaVuSans-33" x="222.65625"/>
     <use xlink:href="#DejaVuSans-33" x="286.279297"/>
    </g>
   </g>
   <g id="text_23">
    <!-- 0.3333 -->
    <g transform="translate(186.301719 13.098047) scale(0.125 -0.125)">
     <use xlink:href="#DejaVuSans-30"/>
     <use xlink:href="#DejaVuSans-2e" x="63.623047"/>
     <use xlink:href="#DejaVuSans-33" x="95.410156"/>
     <use xlink:href="#DejaVuSans-33" x="159.033203"/>
     <use xlink:href="#DejaVuSans-33" x="222.65625"/>
     <use xlink:href="#DejaVuSans-33" x="286.279297"/>
    </g>
   </g>
   <g id="text_24">
    <!-- G4 -->
    <g transform="translate(254.520664 36.498047) scale(0.125 -0.125)">
     <use xlink:href="#DejaVuSans-47"/>
     <use xlink:href="#DejaVuSans-34" x="77.490234"/>
    </g>
   </g>
   <g id="text_25">
    <!-- G5 -->
    <g transform="translate(321.120664 45.498047) scale(0.125 -0.125)">
     <use xlink:href="#DejaVuSans-47"/>
     <use xlink:href="#DejaVuSans-35" x="77.490234"/>
    </g>
   </g>
   <g id="text_26">
    <!-- G5 -->
    <g transform="translate(321.120664 45.498047) scale(0.125 -0.125)">
     <use xlink:href="#DejaVuSans-47"/>
     <use xlink:href="#DejaVuSans-35" x="77.490234"/>
    </g>
   </g>
   <g id="text_27">
    <!-- 0.5 -->
    <g transform="translate(343.361094 13.098047) scale(0.125 -0.125)">
     <use xlink:href="#DejaVuSans-30"/>
     <use xlink:href="#DejaVuSans-2e" x="63.623047"/>
     <use xlink:href="#DejaVuSans-35" x="95.410156"/>
    </g>
   </g>
   <g id="text_28">
    <!-- 0.5 -->
    <g transform="translate(343.361094 13.098047) scale(0.125 -0.125)">
     <use xlink:href="#DejaVuSans-30"/>
     <use xlink:href="#DejaVuSans-2e" x="63.623047"/>
     <use xlink:href="#DejaVuSans-35" x="95.410156"/>
    </g>
   </g>
   <g id="text_29">
    <!-- G6 -->
    <g transform="translate(387.720664 36.498047) scale(0.125 -0.125)">
     <defs>
      <path id="DejaVuSans-36" d="M 2113 2584 
Q 1688 2584 1439 2293 
Q 1191 2003 1191 1497 
Q 1191 994 1439 701 
Q 1688 409 2113 409 
Q 2538 409 2786 701 
Q 3034 994 3034 1497 
Q 3034 2003 2786 2293 
Q 2538 2584 2113 2584 
z
M 3366 4563 
L 3366 3988 
Q 3128 4100 2886 4159 
Q 2644 4219 2406 4219 
Q 1781 4219 1451 3797 
Q 1122 3375 1075 2522 
Q 1259 2794 1537 2939 
Q 1816 3084 2150 3084 
Q 2853 3084 3261 2657 
Q 3669 2231 3669 1497 
Q 3669 778 3244 343 
Q 2819 -91 2113 -91 
Q 1303 -91 875 529 
Q 447 1150 447 2328 
Q 447 3434 972 4092 
Q 1497 4750 2381 4750 
Q 2619 4750 2861 4703 
Q 3103 4656 3366 4563 
z
" transform="scale(0.015625)"/>
     </defs>
     <use xlink:href="#DejaVuSans-47"/>
     <use xlink:href="#DejaVuSans-36" x="77.490234"/>
    </g>
   </g>
   <g id="text_30">
    <!-- 0.5 -->
    <g transform="translate(343.361094 13.098047) scale(0.125 -0.125)">
     <use xlink:href="#DejaVuSans-30"/>
     <use xlink:href="#DejaVuSans-2e" x="63.623047"/>
     <use xlink:href="#DejaVuSans-35" x="95.410156"/>
    </g>
   </g>
   <g id="text_31">
    <!-- 0.5 -->
    <g transform="translate(343.361094 13.098047) scale(0.125 -0.125)">
     <use xlink:href="#DejaVuSans-30"/>
     <use xlink:href="#DejaVuSans-2e" x="63.623047"/>
     <use xlink:href="#DejaVuSans-35" x="95.410156"/>
    </g>
   </g>
   <g id="text_32">
    <!-- G6 -->
    <g transform="translate(387.720664 36.498047) scale(0.125 -0.125)">
     <use xlink:href="#DejaVuSans-47"/>
     <use xlink:href="#DejaVuSans-36" x="77.490234"/>
    </g>
   </g>
   <g id="text_33">
    <!-- G7 -->
    <g transform="translate(454.320664 45.498047) scale(0.125 -0.125)">
     <defs>
      <path id="DejaVuSans-37" d="M 525 4666 
L 3525 4666 
L 3525 4397 
L 1831 0 
L 1172 0 
L 2766 4134 
L 525 4134 
L 525 4666 
z
" transform="scale(0.015625)"/>
     </defs>
     <use xlink:href="#DejaVuSans-47"/>
     <use xlink:href="#DejaVuSans-37" x="77.490234"/>
    </g>
   </g>
   <g id="text_34">
    <!-- G7 -->
    <g transform="translate(454.320664 45.498047) scale(0.125 -0.125)">
     <use xlink:href="#DejaVuSans-47"/>
     <use xlink:href="#DejaVuSans-37" x="77.490234"/>
    </g>
   </g>
   <g id="text_35">
    <!-- G8 -->
    <g transform="translate(520.920664 54.498047) scale(0.125 -0.125)">
     <defs>
      <path id="DejaVuSans-38" d="M 2034 2216 
Q 1584 2216 1326 1975 
Q 1069 1734 1069 1313 
Q 1069 891 1326 650 
Q 1584 409 2034 409 
Q 2484 409 2743 651 
Q 3003 894 3003 1313 
Q 3003 1734 2745 1975 
Q 2488 2216 2034 2216 
z
M 1403 2484 
Q 997 2584 770 2862 
Q 544 3141 544 3541 
Q 544 4100 942 4425 
Q 1341 4750 2034 4750 
Q 2731 4750 3128 4425 
Q 3525 4100 3525 3541 
Q 3525 3141 3298 2862 
Q 3072 2584 2669 2484 
Q 3125 2378 3379 2068 
Q 3634 1759 3634 1313 
Q 3634 634 3220 271 
Q 2806 -91 2034 -91 
Q 1263 -91 848 271 
Q 434 634 434 1313 
Q 434 1759 690 2068 
Q 947 2378 1403 2484 
z
M 1172 3481 
Q 1172 3119 1398 2916 
Q 1625 2713 2034 2713 
Q 2441 2713 2670 2916 
Q 2900 3119 2900 3481 
Q 2900 3844 2670 4047 
Q 2441 4250 2034 4250 
Q 1625 4250 1398 4047 
Q 1172 3844 1172 3481 
z
" transform="scale(0.015625)"/>
     </defs>
     <use xlink:href="#DejaVuSans-47"/>
     <use xlink:href="#DejaVuSans-38" x="77.490234"/>
    </g>
   </g>
   <g id="text_36">
    <!-- G8 -->
    <g transform="translate(520.920664 54.498047) scale(0.125 -0.125)">
     <use xlink:href="#DejaVuSans-47"/>
     <use xlink:href="#DejaVuSans-38" x="77.490234"/>
    </g>
   </g>
   <g id="text_37">
    <!-- $f(X)$ -->
    <g transform="translate(566.64 58.098047) scale(0.125 -0.125)">
     <defs>
      <path id="DejaVuSans-Oblique-66" d="M 3059 4863 
L 2969 4384 
L 2419 4384 
Q 2106 4384 1964 4261 
Q 1822 4138 1753 3809 
L 1691 3500 
L 2638 3500 
L 2553 3053 
L 1606 3053 
L 1013 0 
L 434 0 
L 1031 3053 
L 481 3053 
L 563 3500 
L 1113 3500 
L 1159 3744 
Q 1278 4363 1576 4613 
Q 1875 4863 2516 4863 
L 3059 4863 
z
" transform="scale(0.015625)"/>
      <path id="DejaVuSans-28" d="M 1984 4856 
Q 1566 4138 1362 3434 
Q 1159 2731 1159 2009 
Q 1159 1288 1364 580 
Q 1569 -128 1984 -844 
L 1484 -844 
Q 1016 -109 783 600 
Q 550 1309 550 2009 
Q 550 2706 781 3412 
Q 1013 4119 1484 4856 
L 1984 4856 
z
" transform="scale(0.015625)"/>
      <path id="DejaVuSans-Oblique-58" d="M 878 4666 
L 1516 4666 
L 2316 2981 
L 3763 4666 
L 4500 4666 
L 2578 2438 
L 3738 0 
L 3103 0 
L 2163 1966 
L 459 0 
L -275 0 
L 1906 2509 
L 878 4666 
z
" transform="scale(0.015625)"/>
      <path id="DejaVuSans-29" d="M 513 4856 
L 1013 4856 
Q 1481 4119 1714 3412 
Q 1947 2706 1947 2009 
Q 1947 1309 1714 600 
Q 1481 -109 1013 -844 
L 513 -844 
Q 928 -128 1133 580 
Q 1338 1288 1338 2009 
Q 1338 2731 1133 3434 
Q 928 4138 513 4856 
z
" transform="scale(0.015625)"/>
     </defs>
     <use xlink:href="#DejaVuSans-Oblique-66" transform="translate(0 0.015625)"/>
     <use xlink:href="#DejaVuSans-28" transform="translate(35.205078 0.015625)"/>
     <use xlink:href="#DejaVuSans-Oblique-58" transform="translate(74.21875 0.015625)"/>
     <use xlink:href="#DejaVuSans-29" transform="translate(142.724609 0.015625)"/>
    </g>
   </g>
   <g id="text_38">
    <!-- G8 -->
    <g transform="translate(520.920664 54.498047) scale(0.125 -0.125)">
     <use xlink:href="#DejaVuSans-47"/>
     <use xlink:href="#DejaVuSans-38" x="77.490234"/>
    </g>
   </g>
   <g id="text_39">
    <!-- G8 -->
    <g transform="translate(520.920664 54.498047) scale(0.125 -0.125)">
     <use xlink:href="#DejaVuSans-47"/>
     <use xlink:href="#DejaVuSans-38" x="77.490234"/>
    </g>
   </g>
   <g id="text_40">
    <!-- $f(X)$ -->
    <g transform="translate(566.64 58.098047) scale(0.125 -0.125)">
     <use xlink:href="#DejaVuSans-Oblique-66" transform="translate(0 0.015625)"/>
     <use xlink:href="#DejaVuSans-28" transform="translate(35.205078 0.015625)"/>
     <use xlink:href="#DejaVuSans-Oblique-58" transform="translate(74.21875 0.015625)"/>
     <use xlink:href="#DejaVuSans-29" transform="translate(142.724609 0.015625)"/>
    </g>
   </g>
   <g id="text_41">
    <!-- G8 -->
    <g transform="translate(520.920664 54.498047) scale(0.125 -0.125)">
     <use xlink:href="#DejaVuSans-47"/>
     <use xlink:href="#DejaVuSans-38" x="77.490234"/>
    </g>
   </g>
   <g id="text_42">
    <!-- G8 -->
    <g transform="translate(520.920664 54.498047) scale(0.125 -0.125)">
     <use xlink:href="#DejaVuSans-47"/>
     <use xlink:href="#DejaVuSans-38" x="77.490234"/>
    </g>
   </g>
   <g id="text_43">
    <!-- $f(X)$ -->
    <g transform="translate(566.64 58.098047) scale(0.125 -0.125)">
     <use xlink:href="#DejaVuSans-Oblique-66" transform="translate(0 0.015625)"/>
     <use xlink:href="#DejaVuSans-28" transform="translate(35.205078 0.015625)"/>
     <use xlink:href="#DejaVuSans-Oblique-58" transform="translate(74.21875 0.015625)"/>
     <use xlink:href="#DejaVuSans-29" transform="translate(142.724609 0.015625)"/>
    </g>
   </g>
  </g>
 </g>
 <defs>
  <clipPath id="p58c3a73167">
   <rect x="3.6" y="15.948828" width="586.08" height="59.4"/>
  </clipPath>
 </defs>
</svg>
